%TF.GenerationSoftware,KiCad,Pcbnew,8.0.5*%
%TF.CreationDate,2024-10-08T22:01:25+02:00*%
%TF.ProjectId,ESP32_Controller,45535033-325f-4436-9f6e-74726f6c6c65,rev?*%
%TF.SameCoordinates,Original*%
%TF.FileFunction,Copper,L4,Bot*%
%TF.FilePolarity,Positive*%
%FSLAX46Y46*%
G04 Gerber Fmt 4.6, Leading zero omitted, Abs format (unit mm)*
G04 Created by KiCad (PCBNEW 8.0.5) date 2024-10-08 22:01:25*
%MOMM*%
%LPD*%
G01*
G04 APERTURE LIST*
G04 Aperture macros list*
%AMRoundRect*
0 Rectangle with rounded corners*
0 $1 Rounding radius*
0 $2 $3 $4 $5 $6 $7 $8 $9 X,Y pos of 4 corners*
0 Add a 4 corners polygon primitive as box body*
4,1,4,$2,$3,$4,$5,$6,$7,$8,$9,$2,$3,0*
0 Add four circle primitives for the rounded corners*
1,1,$1+$1,$2,$3*
1,1,$1+$1,$4,$5*
1,1,$1+$1,$6,$7*
1,1,$1+$1,$8,$9*
0 Add four rect primitives between the rounded corners*
20,1,$1+$1,$2,$3,$4,$5,0*
20,1,$1+$1,$4,$5,$6,$7,0*
20,1,$1+$1,$6,$7,$8,$9,0*
20,1,$1+$1,$8,$9,$2,$3,0*%
G04 Aperture macros list end*
%TA.AperFunction,ComponentPad*%
%ADD10O,2.200000X3.500000*%
%TD*%
%TA.AperFunction,ComponentPad*%
%ADD11R,1.500000X2.500000*%
%TD*%
%TA.AperFunction,ComponentPad*%
%ADD12O,1.500000X2.500000*%
%TD*%
%TA.AperFunction,ComponentPad*%
%ADD13R,1.700000X1.700000*%
%TD*%
%TA.AperFunction,ComponentPad*%
%ADD14O,1.700000X1.700000*%
%TD*%
%TA.AperFunction,ComponentPad*%
%ADD15C,6.000000*%
%TD*%
%TA.AperFunction,ComponentPad*%
%ADD16RoundRect,1.500000X1.500000X-1.500000X1.500000X1.500000X-1.500000X1.500000X-1.500000X-1.500000X0*%
%TD*%
%TA.AperFunction,ComponentPad*%
%ADD17O,2.100000X1.000000*%
%TD*%
%TA.AperFunction,ComponentPad*%
%ADD18O,1.800000X1.000000*%
%TD*%
%TA.AperFunction,ViaPad*%
%ADD19C,0.500000*%
%TD*%
%TA.AperFunction,Conductor*%
%ADD20C,0.152400*%
%TD*%
%TA.AperFunction,Conductor*%
%ADD21C,0.304800*%
%TD*%
%TA.AperFunction,Conductor*%
%ADD22C,1.016000*%
%TD*%
%TA.AperFunction,Conductor*%
%ADD23C,0.145819*%
%TD*%
G04 APERTURE END LIST*
D10*
%TO.P,SW1,*%
%TO.N,*%
X85800000Y-95822500D03*
X77600000Y-95822500D03*
D11*
%TO.P,SW1,1,B*%
%TO.N,+5V*%
X83700000Y-95822500D03*
D12*
%TO.P,SW1,2,C*%
%TO.N,/5VUSB*%
X81700000Y-95822500D03*
%TO.P,SW1,3,A*%
%TO.N,/5VBAT*%
X79700000Y-95822500D03*
%TD*%
D13*
%TO.P,J5,1,Pin_1*%
%TO.N,+5V*%
X78120000Y-80970000D03*
D14*
%TO.P,J5,2,Pin_2*%
%TO.N,GND*%
X80660000Y-80970000D03*
%TO.P,J5,3,Pin_3*%
%TO.N,/GPIO3*%
X83199999Y-80970000D03*
%TD*%
D13*
%TO.P,J4,1,Pin_1*%
%TO.N,+5V*%
X78119999Y-77330001D03*
D14*
%TO.P,J4,2,Pin_2*%
%TO.N,GND*%
X80659999Y-77330001D03*
%TO.P,J4,3,Pin_3*%
%TO.N,/GPIO2*%
X83199998Y-77330001D03*
%TD*%
%TO.P,J3,3,Pin_3*%
%TO.N,/GPIO1*%
X83190000Y-73690000D03*
%TO.P,J3,2,Pin_2*%
%TO.N,GND*%
X80650001Y-73690000D03*
D13*
%TO.P,J3,1,Pin_1*%
%TO.N,+5V*%
X78110001Y-73690000D03*
%TD*%
D15*
%TO.P,J2,2,Pin_2*%
%TO.N,Net-(J2-Pin_2)*%
X97530000Y-104340000D03*
D16*
%TO.P,J2,1,Pin_1*%
%TO.N,GND*%
X97530000Y-111540000D03*
%TD*%
D17*
%TO.P,J1,S1,SHIELD*%
%TO.N,GND*%
X83080000Y-83780000D03*
D18*
X78900000Y-83780000D03*
D17*
X83080000Y-92420000D03*
D18*
X78900000Y-92420000D03*
%TD*%
D19*
%TO.N,+3V3*%
X88400000Y-69280000D03*
X103470000Y-107120000D03*
X106210000Y-74490000D03*
X97030000Y-83690000D03*
%TO.N,GND*%
X86750000Y-87490000D03*
%TO.N,+3V3*%
X89920000Y-88820000D03*
X89730000Y-91770000D03*
X95770000Y-92280000D03*
%TO.N,GND*%
X81460000Y-74700000D03*
X79710000Y-72710000D03*
X79840000Y-76330000D03*
X81420000Y-78410000D03*
X81470000Y-81960000D03*
X80170000Y-79820000D03*
X83645361Y-82847300D03*
X82730000Y-82800000D03*
X78470000Y-82780000D03*
X77680000Y-83240000D03*
X78590000Y-93390000D03*
X79340000Y-93420000D03*
X83220000Y-93340000D03*
X83890000Y-93310000D03*
X84520000Y-84110000D03*
X84770000Y-91350000D03*
X87450000Y-92650000D03*
X89900000Y-90060000D03*
X93990000Y-87970000D03*
X99280000Y-88210000D03*
X97440000Y-92390000D03*
X88180000Y-66790000D03*
X82990000Y-67160000D03*
X83090000Y-71200000D03*
X90570000Y-95890000D03*
X93340000Y-92710000D03*
X99070000Y-94150000D03*
X96520000Y-97530000D03*
X106540000Y-99890000D03*
X105700000Y-97810000D03*
X100200000Y-85930000D03*
X105520000Y-78120000D03*
X109150000Y-81190000D03*
%TO.N,/GPIO3*%
X90050000Y-72950000D03*
%TO.N,/GPIO2*%
X90080000Y-72030000D03*
%TO.N,/GPIO1*%
X90060000Y-71290000D03*
%TO.N,/5VUSB*%
X86860000Y-86820000D03*
X84440000Y-85570000D03*
%TO.N,/I2C_SCL*%
X95950000Y-86760000D03*
X101100000Y-82110000D03*
%TO.N,/I2C_SDA*%
X100320000Y-81590000D03*
X95290000Y-87000000D03*
%TO.N,/GPIO47*%
X99780000Y-80060000D03*
X103810000Y-87150000D03*
%TO.N,/USB_N*%
X82830000Y-88350000D03*
X82830000Y-87365000D03*
%TO.N,/USB_P*%
X82280000Y-88840000D03*
X82280000Y-87865000D03*
%TD*%
D20*
%TO.N,/GPIO3*%
X90050000Y-72950000D02*
X89920000Y-72950000D01*
%TO.N,/GPIO2*%
X90010000Y-72100000D02*
X90080000Y-72030000D01*
%TO.N,/GPIO1*%
X83290000Y-73590000D02*
X83190000Y-73690000D01*
X90060000Y-71290000D02*
X89970000Y-71380000D01*
D21*
%TO.N,/5VUSB*%
X84440000Y-85570000D02*
X85690000Y-86820000D01*
X85690000Y-86820000D02*
X86860000Y-86820000D01*
D22*
%TO.N,+5V*%
X78119999Y-73699998D02*
X78110001Y-73690000D01*
X78119999Y-77330001D02*
X78119999Y-73699998D01*
X78120000Y-77330002D02*
X78119999Y-77330001D01*
X78120000Y-80970000D02*
X78120000Y-77330002D01*
X81330000Y-92870000D02*
X81330000Y-84050000D01*
X78250000Y-80970000D02*
X78120000Y-80970000D01*
X83700000Y-95240000D02*
X81330000Y-92870000D01*
X81330000Y-84050000D02*
X78250000Y-80970000D01*
X83700000Y-95822500D02*
X83700000Y-95240000D01*
D23*
%TO.N,/USB_N*%
X82830000Y-87365000D02*
X82830000Y-88350000D01*
%TO.N,/USB_P*%
X82280000Y-88840000D02*
X82280000Y-87865000D01*
%TD*%
M02*
