M48
; DRILL file {KiCad 8.0.5} date 2024-10-08T22:01:34+0200
; FORMAT={-:-/ absolute / inch / decimal}
; #@! TF.CreationDate,2024-10-08T22:01:34+02:00
; #@! TF.GenerationSoftware,Kicad,Pcbnew,8.0.5
; #@! TF.FileFunction,Plated,1,4,PTH
FMAT,2
INCH
; #@! TA.AperFunction,Plated,PTH,ViaDrill
T1C0.0118
; #@! TA.AperFunction,Plated,PTH,ComponentDrill
T2C0.0236
; #@! TA.AperFunction,Plated,PTH,ComponentDrill
T3C0.0315
; #@! TA.AperFunction,Plated,PTH,ComponentDrill
T4C0.0394
; #@! TA.AperFunction,Plated,PTH,ComponentDrill
T5C0.0591
; #@! TA.AperFunction,Plated,PTH,ComponentDrill
T6C0.1772
%
G90
G05
T1
X3.0583Y-3.2772
X3.0894Y-3.2591
X3.0941Y-3.6768
X3.1236Y-3.678
X3.1382Y-2.8626
X3.1433Y-3.0051
X3.1563Y-3.1425
X3.2055Y-3.087
X3.2071Y-2.9409
X3.2075Y-3.2268
X3.2394Y-3.4593
X3.2394Y-3.4976
X3.2571Y-3.2598
X3.261Y-3.4396
X3.261Y-3.4783
X3.2673Y-2.6441
X3.2713Y-2.8031
X3.2764Y-3.6748
X3.2931Y-3.2617
X3.3028Y-3.6736
X3.3244Y-3.3689
X3.3276Y-3.3114
X3.3374Y-3.5965
X3.4154Y-3.4445
X3.4197Y-3.4181
X3.4429Y-3.6476
X3.4717Y-2.6295
X3.4803Y-2.7276
X3.5327Y-3.613
X3.5394Y-3.5457
X3.5402Y-3.4969
X3.5453Y-2.872
X3.5457Y-2.8067
X3.5465Y-2.8358
X3.5657Y-3.7752
X3.6748Y-3.65
X3.7004Y-3.4634
X3.7516Y-3.4252
X3.7705Y-3.6331
X3.7776Y-3.4157
X3.8Y-3.8398
X3.8201Y-3.2949
X3.8362Y-3.6374
X3.9004Y-3.7067
X3.9087Y-3.4728
X3.9283Y-3.152
X3.9449Y-3.3831
X3.9496Y-3.2122
X3.9803Y-3.2327
X4.0736Y-4.2173
X4.087Y-3.4311
X4.1543Y-3.0756
X4.1614Y-3.8508
X4.1815Y-2.9327
X4.1945Y-3.9327
X4.2972Y-3.1965
T3
X3.1378Y-3.7725
X3.2165Y-3.7725
X3.2953Y-3.7725
T4
X3.0752Y-2.9012
X3.0756Y-3.0445
X3.0756Y-3.1878
X3.1752Y-2.9012
X3.1756Y-3.0445
X3.1756Y-3.1878
X3.2752Y-2.9012
X3.2756Y-3.0445
X3.2756Y-3.1878
T5
X3.0551Y-3.7725
X3.378Y-3.7725
T6
X3.8398Y-4.1079
X3.8398Y-4.3913
T2
G00X3.122Y-3.2984
M15
G01X3.0906Y-3.2984
M16
G05
G00X3.122Y-3.6386
M15
G01X3.0906Y-3.6386
M16
G05
G00X3.2925Y-3.2984
M15
G01X3.2492Y-3.2984
M16
G05
G00X3.2925Y-3.6386
M15
G01X3.2492Y-3.6386
M16
G05
M30
