%TF.GenerationSoftware,KiCad,Pcbnew,8.0.5*%
%TF.CreationDate,2024-10-08T22:01:38+02:00*%
%TF.ProjectId,ESP32_Controller,45535033-325f-4436-9f6e-74726f6c6c65,rev?*%
%TF.SameCoordinates,Original*%
%TF.FileFunction,Drillmap*%
%TF.FilePolarity,Positive*%
%FSLAX45Y45*%
G04 Gerber Fmt 4.5, Leading zero omitted, Abs format (unit mm)*
G04 Created by KiCad (PCBNEW 8.0.5) date 2024-10-08 22:01:38*
%MOMM*%
%LPD*%
G01*
G04 APERTURE LIST*
%ADD10C,0.050000*%
%ADD11C,0.200000*%
%ADD12C,0.100000*%
%ADD13C,0.150000*%
%ADD14C,0.450000*%
G04 APERTURE END LIST*
D10*
X10870000Y-6904000D02*
G75*
G02*
X10570000Y-6904000I-150000J0D01*
G01*
X10570000Y-6904000D02*
G75*
G02*
X10870000Y-6904000I150000J0D01*
G01*
X8070000Y-6904000D02*
G75*
G02*
X7770000Y-6904000I-150000J0D01*
G01*
X7770000Y-6904000D02*
G75*
G02*
X8070000Y-6904000I150000J0D01*
G01*
X10870000Y-11304000D02*
G75*
G02*
X10570000Y-11304000I-150000J0D01*
G01*
X10570000Y-11304000D02*
G75*
G02*
X10870000Y-11304000I150000J0D01*
G01*
X8070000Y-11304000D02*
G75*
G02*
X7770000Y-11304000I-150000J0D01*
G01*
X7770000Y-11304000D02*
G75*
G02*
X8070000Y-11304000I150000J0D01*
G01*
X7620000Y-6604000D02*
X11020000Y-6604000D01*
X11020000Y-11604000D01*
X7620000Y-11604000D01*
X7620000Y-6604000D01*
D11*
D12*
X7753000Y-8309000D02*
X7783000Y-8339000D01*
X7783000Y-8309000D02*
X7753000Y-8339000D01*
X7832000Y-8263000D02*
X7862000Y-8293000D01*
X7862000Y-8263000D02*
X7832000Y-8293000D01*
X7844000Y-9324000D02*
X7874000Y-9354000D01*
X7874000Y-9324000D02*
X7844000Y-9354000D01*
X7919000Y-9327000D02*
X7949000Y-9357000D01*
X7949000Y-9327000D02*
X7919000Y-9357000D01*
X7956000Y-7256000D02*
X7986000Y-7286000D01*
X7986000Y-7256000D02*
X7956000Y-7286000D01*
X7969000Y-7618000D02*
X7999000Y-7648000D01*
X7999000Y-7618000D02*
X7969000Y-7648000D01*
X8002000Y-7967000D02*
X8032000Y-7997000D01*
X8032000Y-7967000D02*
X8002000Y-7997000D01*
X8127000Y-7826000D02*
X8157000Y-7856000D01*
X8157000Y-7826000D02*
X8127000Y-7856000D01*
X8131000Y-7455000D02*
X8161000Y-7485000D01*
X8161000Y-7455000D02*
X8131000Y-7485000D01*
X8132000Y-8181000D02*
X8162000Y-8211000D01*
X8162000Y-8181000D02*
X8132000Y-8211000D01*
X8213000Y-8771500D02*
X8243000Y-8801500D01*
X8243000Y-8771500D02*
X8213000Y-8801500D01*
X8213000Y-8869000D02*
X8243000Y-8899000D01*
X8243000Y-8869000D02*
X8213000Y-8899000D01*
X8258000Y-8265000D02*
X8288000Y-8295000D01*
X8288000Y-8265000D02*
X8258000Y-8295000D01*
X8268000Y-8721500D02*
X8298000Y-8751500D01*
X8298000Y-8721500D02*
X8268000Y-8751500D01*
X8268000Y-8820000D02*
X8298000Y-8850000D01*
X8298000Y-8820000D02*
X8268000Y-8850000D01*
X8284000Y-6701000D02*
X8314000Y-6731000D01*
X8314000Y-6701000D02*
X8284000Y-6731000D01*
X8294000Y-7105000D02*
X8324000Y-7135000D01*
X8324000Y-7105000D02*
X8294000Y-7135000D01*
X8307000Y-9319000D02*
X8337000Y-9349000D01*
X8337000Y-9319000D02*
X8307000Y-9349000D01*
X8349536Y-8269730D02*
X8379536Y-8299730D01*
X8379536Y-8269730D02*
X8349536Y-8299730D01*
X8374000Y-9316000D02*
X8404000Y-9346000D01*
X8404000Y-9316000D02*
X8374000Y-9346000D01*
X8429000Y-8542000D02*
X8459000Y-8572000D01*
X8459000Y-8542000D02*
X8429000Y-8572000D01*
X8437000Y-8396000D02*
X8467000Y-8426000D01*
X8467000Y-8396000D02*
X8437000Y-8426000D01*
X8462000Y-9120000D02*
X8492000Y-9150000D01*
X8492000Y-9120000D02*
X8462000Y-9150000D01*
X8660000Y-8734000D02*
X8690000Y-8764000D01*
X8690000Y-8734000D02*
X8660000Y-8764000D01*
X8671000Y-8667000D02*
X8701000Y-8697000D01*
X8701000Y-8667000D02*
X8671000Y-8697000D01*
X8730000Y-9250000D02*
X8760000Y-9280000D01*
X8760000Y-9250000D02*
X8730000Y-9280000D01*
X8803000Y-6664000D02*
X8833000Y-6694000D01*
X8833000Y-6664000D02*
X8803000Y-6694000D01*
X8825000Y-6913000D02*
X8855000Y-6943000D01*
X8855000Y-6913000D02*
X8825000Y-6943000D01*
X8958000Y-9162000D02*
X8988000Y-9192000D01*
X8988000Y-9162000D02*
X8958000Y-9192000D01*
X8975000Y-8991000D02*
X9005000Y-9021000D01*
X9005000Y-8991000D02*
X8975000Y-9021000D01*
X8977000Y-8867000D02*
X9007000Y-8897000D01*
X9007000Y-8867000D02*
X8977000Y-8897000D01*
X8990000Y-7280000D02*
X9020000Y-7310000D01*
X9020000Y-7280000D02*
X8990000Y-7310000D01*
X8991000Y-7114000D02*
X9021000Y-7144000D01*
X9021000Y-7114000D02*
X8991000Y-7144000D01*
X8993000Y-7188000D02*
X9023000Y-7218000D01*
X9023000Y-7188000D02*
X8993000Y-7218000D01*
X9042000Y-9574000D02*
X9072000Y-9604000D01*
X9072000Y-9574000D02*
X9042000Y-9604000D01*
X9319000Y-9256000D02*
X9349000Y-9286000D01*
X9349000Y-9256000D02*
X9319000Y-9286000D01*
X9384000Y-8782000D02*
X9414000Y-8812000D01*
X9414000Y-8782000D02*
X9384000Y-8812000D01*
X9514000Y-8685000D02*
X9544000Y-8715000D01*
X9544000Y-8685000D02*
X9514000Y-8715000D01*
X9562000Y-9213000D02*
X9592000Y-9243000D01*
X9592000Y-9213000D02*
X9562000Y-9243000D01*
X9580000Y-8661000D02*
X9610000Y-8691000D01*
X9610000Y-8661000D02*
X9580000Y-8691000D01*
X9637000Y-9738000D02*
X9667000Y-9768000D01*
X9667000Y-9738000D02*
X9637000Y-9768000D01*
X9688000Y-8354000D02*
X9718000Y-8384000D01*
X9718000Y-8354000D02*
X9688000Y-8384000D01*
X9729000Y-9224000D02*
X9759000Y-9254000D01*
X9759000Y-9224000D02*
X9729000Y-9254000D01*
X9892000Y-9400000D02*
X9922000Y-9430000D01*
X9922000Y-9400000D02*
X9892000Y-9430000D01*
X9913000Y-8806000D02*
X9943000Y-8836000D01*
X9943000Y-8806000D02*
X9913000Y-8836000D01*
X9963000Y-7991000D02*
X9993000Y-8021000D01*
X9993000Y-7991000D02*
X9963000Y-8021000D01*
X10005000Y-8578000D02*
X10035000Y-8608000D01*
X10035000Y-8578000D02*
X10005000Y-8608000D01*
X10017000Y-8144000D02*
X10047000Y-8174000D01*
X10047000Y-8144000D02*
X10017000Y-8174000D01*
X10095000Y-8196000D02*
X10125000Y-8226000D01*
X10125000Y-8196000D02*
X10095000Y-8226000D01*
X10332000Y-10697000D02*
X10362000Y-10727000D01*
X10362000Y-10697000D02*
X10332000Y-10727000D01*
X10366000Y-8700000D02*
X10396000Y-8730000D01*
X10396000Y-8700000D02*
X10366000Y-8730000D01*
X10537000Y-7797000D02*
X10567000Y-7827000D01*
X10567000Y-7797000D02*
X10537000Y-7827000D01*
X10555000Y-9766000D02*
X10585000Y-9796000D01*
X10585000Y-9766000D02*
X10555000Y-9796000D01*
X10606000Y-7434000D02*
X10636000Y-7464000D01*
X10636000Y-7434000D02*
X10606000Y-7464000D01*
X10639000Y-9974000D02*
X10669000Y-10004000D01*
X10669000Y-9974000D02*
X10639000Y-10004000D01*
X10900000Y-8104000D02*
X10930000Y-8134000D01*
X10930000Y-8104000D02*
X10900000Y-8134000D01*
X7920000Y-8378000D02*
G75*
G02*
X7860000Y-8378000I-30000J0D01*
G01*
X7860000Y-8378000D02*
G75*
G02*
X7920000Y-8378000I30000J0D01*
G01*
X7930000Y-8348000D02*
X7850000Y-8348000D01*
X7850000Y-8408000D02*
G75*
G02*
X7850000Y-8348000I0J30000D01*
G01*
X7850000Y-8408000D02*
X7930000Y-8408000D01*
X7930000Y-8408000D02*
G75*
G03*
X7930000Y-8348000I0J30000D01*
G01*
X7920000Y-9242000D02*
G75*
G02*
X7860000Y-9242000I-30000J0D01*
G01*
X7860000Y-9242000D02*
G75*
G02*
X7920000Y-9242000I30000J0D01*
G01*
X7930000Y-9212000D02*
X7850000Y-9212000D01*
X7850000Y-9272000D02*
G75*
G02*
X7850000Y-9212000I0J30000D01*
G01*
X7850000Y-9272000D02*
X7930000Y-9272000D01*
X7930000Y-9272000D02*
G75*
G03*
X7930000Y-9212000I0J30000D01*
G01*
X8338000Y-8378000D02*
G75*
G02*
X8278000Y-8378000I-30000J0D01*
G01*
X8278000Y-8378000D02*
G75*
G02*
X8338000Y-8378000I30000J0D01*
G01*
X8363000Y-8348000D02*
X8253000Y-8348000D01*
X8253000Y-8408000D02*
G75*
G02*
X8253000Y-8348000I0J30000D01*
G01*
X8253000Y-8408000D02*
X8363000Y-8408000D01*
X8363000Y-8408000D02*
G75*
G03*
X8363000Y-8348000I0J30000D01*
G01*
X8338000Y-9242000D02*
G75*
G02*
X8278000Y-9242000I-30000J0D01*
G01*
X8278000Y-9242000D02*
G75*
G02*
X8338000Y-9242000I30000J0D01*
G01*
X8363000Y-9212000D02*
X8253000Y-9212000D01*
X8253000Y-9272000D02*
G75*
G02*
X8253000Y-9212000I0J30000D01*
G01*
X8253000Y-9272000D02*
X8363000Y-9272000D01*
X8363000Y-9272000D02*
G75*
G03*
X8363000Y-9212000I0J30000D01*
G01*
X7970000Y-9542250D02*
X7970000Y-9622250D01*
X7930000Y-9582250D02*
X8010000Y-9582250D01*
X8170000Y-9542250D02*
X8170000Y-9622250D01*
X8130000Y-9582250D02*
X8210000Y-9582250D01*
X8370000Y-9542250D02*
X8370000Y-9622250D01*
X8330000Y-9582250D02*
X8410000Y-9582250D01*
X7846356Y-7404356D02*
X7846356Y-7333644D01*
X7775644Y-7333644D01*
X7775644Y-7404356D01*
X7846356Y-7404356D01*
X7847356Y-7768356D02*
X7847356Y-7697644D01*
X7776644Y-7697644D01*
X7776644Y-7768356D01*
X7847356Y-7768356D01*
X7847356Y-8132356D02*
X7847356Y-8061644D01*
X7776644Y-8061644D01*
X7776644Y-8132356D01*
X7847356Y-8132356D01*
X8100356Y-7404356D02*
X8100356Y-7333644D01*
X8029644Y-7333644D01*
X8029644Y-7404356D01*
X8100356Y-7404356D01*
X8101356Y-7768356D02*
X8101356Y-7697644D01*
X8030644Y-7697644D01*
X8030644Y-7768356D01*
X8101356Y-7768356D01*
X8101356Y-8132356D02*
X8101356Y-8061644D01*
X8030644Y-8061644D01*
X8030644Y-8132356D01*
X8101356Y-8132356D01*
X8354356Y-7404356D02*
X8354356Y-7333644D01*
X8283644Y-7333644D01*
X8283644Y-7404356D01*
X8354356Y-7404356D01*
X8355355Y-7768356D02*
X8355355Y-7697644D01*
X8284644Y-7697644D01*
X8284644Y-7768356D01*
X8355355Y-7768356D01*
X8355356Y-8132356D02*
X8355356Y-8061644D01*
X8284644Y-8061644D01*
X8284644Y-8132356D01*
X8355356Y-8132356D01*
D13*
X7760000Y-9657250D02*
X7835000Y-9582250D01*
X7760000Y-9507250D01*
X7685000Y-9582250D01*
X7760000Y-9657250D01*
X8580000Y-9657250D02*
X8655000Y-9582250D01*
X8580000Y-9507250D01*
X8505000Y-9582250D01*
X8580000Y-9657250D01*
D14*
X9528000Y-10209000D02*
X9978000Y-10659000D01*
X9978000Y-10209000D02*
X9528000Y-10659000D01*
X9978000Y-10434000D02*
G75*
G02*
X9528000Y-10434000I-225000J0D01*
G01*
X9528000Y-10434000D02*
G75*
G02*
X9978000Y-10434000I225000J0D01*
G01*
X9528000Y-10929000D02*
X9978000Y-11379000D01*
X9978000Y-10929000D02*
X9528000Y-11379000D01*
X9978000Y-11154000D02*
G75*
G02*
X9528000Y-11154000I-225000J0D01*
G01*
X9528000Y-11154000D02*
G75*
G02*
X9978000Y-11154000I225000J0D01*
G01*
D11*
X7878277Y-11917984D02*
X7878277Y-11717984D01*
X7878277Y-11717984D02*
X7925896Y-11717984D01*
X7925896Y-11717984D02*
X7954467Y-11727508D01*
X7954467Y-11727508D02*
X7973515Y-11746555D01*
X7973515Y-11746555D02*
X7983039Y-11765603D01*
X7983039Y-11765603D02*
X7992562Y-11803698D01*
X7992562Y-11803698D02*
X7992562Y-11832269D01*
X7992562Y-11832269D02*
X7983039Y-11870365D01*
X7983039Y-11870365D02*
X7973515Y-11889412D01*
X7973515Y-11889412D02*
X7954467Y-11908460D01*
X7954467Y-11908460D02*
X7925896Y-11917984D01*
X7925896Y-11917984D02*
X7878277Y-11917984D01*
X8078277Y-11917984D02*
X8078277Y-11784650D01*
X8078277Y-11822746D02*
X8087801Y-11803698D01*
X8087801Y-11803698D02*
X8097324Y-11794174D01*
X8097324Y-11794174D02*
X8116372Y-11784650D01*
X8116372Y-11784650D02*
X8135420Y-11784650D01*
X8202086Y-11917984D02*
X8202086Y-11784650D01*
X8202086Y-11717984D02*
X8192562Y-11727508D01*
X8192562Y-11727508D02*
X8202086Y-11737031D01*
X8202086Y-11737031D02*
X8211610Y-11727508D01*
X8211610Y-11727508D02*
X8202086Y-11717984D01*
X8202086Y-11717984D02*
X8202086Y-11737031D01*
X8325896Y-11917984D02*
X8306848Y-11908460D01*
X8306848Y-11908460D02*
X8297324Y-11889412D01*
X8297324Y-11889412D02*
X8297324Y-11717984D01*
X8430658Y-11917984D02*
X8411610Y-11908460D01*
X8411610Y-11908460D02*
X8402086Y-11889412D01*
X8402086Y-11889412D02*
X8402086Y-11717984D01*
X8659229Y-11917984D02*
X8659229Y-11717984D01*
X8659229Y-11717984D02*
X8725896Y-11860841D01*
X8725896Y-11860841D02*
X8792563Y-11717984D01*
X8792563Y-11717984D02*
X8792563Y-11917984D01*
X8973515Y-11917984D02*
X8973515Y-11813222D01*
X8973515Y-11813222D02*
X8963991Y-11794174D01*
X8963991Y-11794174D02*
X8944944Y-11784650D01*
X8944944Y-11784650D02*
X8906848Y-11784650D01*
X8906848Y-11784650D02*
X8887801Y-11794174D01*
X8973515Y-11908460D02*
X8954467Y-11917984D01*
X8954467Y-11917984D02*
X8906848Y-11917984D01*
X8906848Y-11917984D02*
X8887801Y-11908460D01*
X8887801Y-11908460D02*
X8878277Y-11889412D01*
X8878277Y-11889412D02*
X8878277Y-11870365D01*
X8878277Y-11870365D02*
X8887801Y-11851317D01*
X8887801Y-11851317D02*
X8906848Y-11841793D01*
X8906848Y-11841793D02*
X8954467Y-11841793D01*
X8954467Y-11841793D02*
X8973515Y-11832269D01*
X9068753Y-11784650D02*
X9068753Y-11984650D01*
X9068753Y-11794174D02*
X9087801Y-11784650D01*
X9087801Y-11784650D02*
X9125896Y-11784650D01*
X9125896Y-11784650D02*
X9144944Y-11794174D01*
X9144944Y-11794174D02*
X9154467Y-11803698D01*
X9154467Y-11803698D02*
X9163991Y-11822746D01*
X9163991Y-11822746D02*
X9163991Y-11879888D01*
X9163991Y-11879888D02*
X9154467Y-11898936D01*
X9154467Y-11898936D02*
X9144944Y-11908460D01*
X9144944Y-11908460D02*
X9125896Y-11917984D01*
X9125896Y-11917984D02*
X9087801Y-11917984D01*
X9087801Y-11917984D02*
X9068753Y-11908460D01*
X9249705Y-11898936D02*
X9259229Y-11908460D01*
X9259229Y-11908460D02*
X9249705Y-11917984D01*
X9249705Y-11917984D02*
X9240182Y-11908460D01*
X9240182Y-11908460D02*
X9249705Y-11898936D01*
X9249705Y-11898936D02*
X9249705Y-11917984D01*
X9249705Y-11794174D02*
X9259229Y-11803698D01*
X9259229Y-11803698D02*
X9249705Y-11813222D01*
X9249705Y-11813222D02*
X9240182Y-11803698D01*
X9240182Y-11803698D02*
X9249705Y-11794174D01*
X9249705Y-11794174D02*
X9249705Y-11813222D01*
D12*
X7587500Y-12231500D02*
X7617500Y-12261500D01*
X7617500Y-12231500D02*
X7587500Y-12261500D01*
D11*
X7916372Y-12137984D02*
X7935420Y-12137984D01*
X7935420Y-12137984D02*
X7954467Y-12147508D01*
X7954467Y-12147508D02*
X7963991Y-12157031D01*
X7963991Y-12157031D02*
X7973515Y-12176079D01*
X7973515Y-12176079D02*
X7983039Y-12214174D01*
X7983039Y-12214174D02*
X7983039Y-12261793D01*
X7983039Y-12261793D02*
X7973515Y-12299888D01*
X7973515Y-12299888D02*
X7963991Y-12318936D01*
X7963991Y-12318936D02*
X7954467Y-12328460D01*
X7954467Y-12328460D02*
X7935420Y-12337984D01*
X7935420Y-12337984D02*
X7916372Y-12337984D01*
X7916372Y-12337984D02*
X7897324Y-12328460D01*
X7897324Y-12328460D02*
X7887801Y-12318936D01*
X7887801Y-12318936D02*
X7878277Y-12299888D01*
X7878277Y-12299888D02*
X7868753Y-12261793D01*
X7868753Y-12261793D02*
X7868753Y-12214174D01*
X7868753Y-12214174D02*
X7878277Y-12176079D01*
X7878277Y-12176079D02*
X7887801Y-12157031D01*
X7887801Y-12157031D02*
X7897324Y-12147508D01*
X7897324Y-12147508D02*
X7916372Y-12137984D01*
X8068753Y-12318936D02*
X8078277Y-12328460D01*
X8078277Y-12328460D02*
X8068753Y-12337984D01*
X8068753Y-12337984D02*
X8059229Y-12328460D01*
X8059229Y-12328460D02*
X8068753Y-12318936D01*
X8068753Y-12318936D02*
X8068753Y-12337984D01*
X8144943Y-12137984D02*
X8268753Y-12137984D01*
X8268753Y-12137984D02*
X8202086Y-12214174D01*
X8202086Y-12214174D02*
X8230658Y-12214174D01*
X8230658Y-12214174D02*
X8249705Y-12223698D01*
X8249705Y-12223698D02*
X8259229Y-12233222D01*
X8259229Y-12233222D02*
X8268753Y-12252269D01*
X8268753Y-12252269D02*
X8268753Y-12299888D01*
X8268753Y-12299888D02*
X8259229Y-12318936D01*
X8259229Y-12318936D02*
X8249705Y-12328460D01*
X8249705Y-12328460D02*
X8230658Y-12337984D01*
X8230658Y-12337984D02*
X8173515Y-12337984D01*
X8173515Y-12337984D02*
X8154467Y-12328460D01*
X8154467Y-12328460D02*
X8144943Y-12318936D01*
X8392563Y-12137984D02*
X8411610Y-12137984D01*
X8411610Y-12137984D02*
X8430658Y-12147508D01*
X8430658Y-12147508D02*
X8440182Y-12157031D01*
X8440182Y-12157031D02*
X8449705Y-12176079D01*
X8449705Y-12176079D02*
X8459229Y-12214174D01*
X8459229Y-12214174D02*
X8459229Y-12261793D01*
X8459229Y-12261793D02*
X8449705Y-12299888D01*
X8449705Y-12299888D02*
X8440182Y-12318936D01*
X8440182Y-12318936D02*
X8430658Y-12328460D01*
X8430658Y-12328460D02*
X8411610Y-12337984D01*
X8411610Y-12337984D02*
X8392563Y-12337984D01*
X8392563Y-12337984D02*
X8373515Y-12328460D01*
X8373515Y-12328460D02*
X8363991Y-12318936D01*
X8363991Y-12318936D02*
X8354467Y-12299888D01*
X8354467Y-12299888D02*
X8344943Y-12261793D01*
X8344943Y-12261793D02*
X8344943Y-12214174D01*
X8344943Y-12214174D02*
X8354467Y-12176079D01*
X8354467Y-12176079D02*
X8363991Y-12157031D01*
X8363991Y-12157031D02*
X8373515Y-12147508D01*
X8373515Y-12147508D02*
X8392563Y-12137984D01*
X8583039Y-12137984D02*
X8602086Y-12137984D01*
X8602086Y-12137984D02*
X8621134Y-12147508D01*
X8621134Y-12147508D02*
X8630658Y-12157031D01*
X8630658Y-12157031D02*
X8640182Y-12176079D01*
X8640182Y-12176079D02*
X8649705Y-12214174D01*
X8649705Y-12214174D02*
X8649705Y-12261793D01*
X8649705Y-12261793D02*
X8640182Y-12299888D01*
X8640182Y-12299888D02*
X8630658Y-12318936D01*
X8630658Y-12318936D02*
X8621134Y-12328460D01*
X8621134Y-12328460D02*
X8602086Y-12337984D01*
X8602086Y-12337984D02*
X8583039Y-12337984D01*
X8583039Y-12337984D02*
X8563991Y-12328460D01*
X8563991Y-12328460D02*
X8554467Y-12318936D01*
X8554467Y-12318936D02*
X8544944Y-12299888D01*
X8544944Y-12299888D02*
X8535420Y-12261793D01*
X8535420Y-12261793D02*
X8535420Y-12214174D01*
X8535420Y-12214174D02*
X8544944Y-12176079D01*
X8544944Y-12176079D02*
X8554467Y-12157031D01*
X8554467Y-12157031D02*
X8563991Y-12147508D01*
X8563991Y-12147508D02*
X8583039Y-12137984D01*
X8735420Y-12337984D02*
X8735420Y-12204650D01*
X8735420Y-12223698D02*
X8744944Y-12214174D01*
X8744944Y-12214174D02*
X8763991Y-12204650D01*
X8763991Y-12204650D02*
X8792563Y-12204650D01*
X8792563Y-12204650D02*
X8811610Y-12214174D01*
X8811610Y-12214174D02*
X8821134Y-12233222D01*
X8821134Y-12233222D02*
X8821134Y-12337984D01*
X8821134Y-12233222D02*
X8830658Y-12214174D01*
X8830658Y-12214174D02*
X8849705Y-12204650D01*
X8849705Y-12204650D02*
X8878277Y-12204650D01*
X8878277Y-12204650D02*
X8897325Y-12214174D01*
X8897325Y-12214174D02*
X8906848Y-12233222D01*
X8906848Y-12233222D02*
X8906848Y-12337984D01*
X9002086Y-12337984D02*
X9002086Y-12204650D01*
X9002086Y-12223698D02*
X9011610Y-12214174D01*
X9011610Y-12214174D02*
X9030658Y-12204650D01*
X9030658Y-12204650D02*
X9059229Y-12204650D01*
X9059229Y-12204650D02*
X9078277Y-12214174D01*
X9078277Y-12214174D02*
X9087801Y-12233222D01*
X9087801Y-12233222D02*
X9087801Y-12337984D01*
X9087801Y-12233222D02*
X9097325Y-12214174D01*
X9097325Y-12214174D02*
X9116372Y-12204650D01*
X9116372Y-12204650D02*
X9144944Y-12204650D01*
X9144944Y-12204650D02*
X9163991Y-12214174D01*
X9163991Y-12214174D02*
X9173515Y-12233222D01*
X9173515Y-12233222D02*
X9173515Y-12337984D01*
X9563991Y-12128460D02*
X9392563Y-12385603D01*
X9821134Y-12137984D02*
X9840182Y-12137984D01*
X9840182Y-12137984D02*
X9859229Y-12147508D01*
X9859229Y-12147508D02*
X9868753Y-12157031D01*
X9868753Y-12157031D02*
X9878277Y-12176079D01*
X9878277Y-12176079D02*
X9887801Y-12214174D01*
X9887801Y-12214174D02*
X9887801Y-12261793D01*
X9887801Y-12261793D02*
X9878277Y-12299888D01*
X9878277Y-12299888D02*
X9868753Y-12318936D01*
X9868753Y-12318936D02*
X9859229Y-12328460D01*
X9859229Y-12328460D02*
X9840182Y-12337984D01*
X9840182Y-12337984D02*
X9821134Y-12337984D01*
X9821134Y-12337984D02*
X9802087Y-12328460D01*
X9802087Y-12328460D02*
X9792563Y-12318936D01*
X9792563Y-12318936D02*
X9783039Y-12299888D01*
X9783039Y-12299888D02*
X9773515Y-12261793D01*
X9773515Y-12261793D02*
X9773515Y-12214174D01*
X9773515Y-12214174D02*
X9783039Y-12176079D01*
X9783039Y-12176079D02*
X9792563Y-12157031D01*
X9792563Y-12157031D02*
X9802087Y-12147508D01*
X9802087Y-12147508D02*
X9821134Y-12137984D01*
X9973515Y-12318936D02*
X9983039Y-12328460D01*
X9983039Y-12328460D02*
X9973515Y-12337984D01*
X9973515Y-12337984D02*
X9963991Y-12328460D01*
X9963991Y-12328460D02*
X9973515Y-12318936D01*
X9973515Y-12318936D02*
X9973515Y-12337984D01*
X10106848Y-12137984D02*
X10125896Y-12137984D01*
X10125896Y-12137984D02*
X10144944Y-12147508D01*
X10144944Y-12147508D02*
X10154468Y-12157031D01*
X10154468Y-12157031D02*
X10163991Y-12176079D01*
X10163991Y-12176079D02*
X10173515Y-12214174D01*
X10173515Y-12214174D02*
X10173515Y-12261793D01*
X10173515Y-12261793D02*
X10163991Y-12299888D01*
X10163991Y-12299888D02*
X10154468Y-12318936D01*
X10154468Y-12318936D02*
X10144944Y-12328460D01*
X10144944Y-12328460D02*
X10125896Y-12337984D01*
X10125896Y-12337984D02*
X10106848Y-12337984D01*
X10106848Y-12337984D02*
X10087801Y-12328460D01*
X10087801Y-12328460D02*
X10078277Y-12318936D01*
X10078277Y-12318936D02*
X10068753Y-12299888D01*
X10068753Y-12299888D02*
X10059229Y-12261793D01*
X10059229Y-12261793D02*
X10059229Y-12214174D01*
X10059229Y-12214174D02*
X10068753Y-12176079D01*
X10068753Y-12176079D02*
X10078277Y-12157031D01*
X10078277Y-12157031D02*
X10087801Y-12147508D01*
X10087801Y-12147508D02*
X10106848Y-12137984D01*
X10363991Y-12337984D02*
X10249706Y-12337984D01*
X10306848Y-12337984D02*
X10306848Y-12137984D01*
X10306848Y-12137984D02*
X10287801Y-12166555D01*
X10287801Y-12166555D02*
X10268753Y-12185603D01*
X10268753Y-12185603D02*
X10249706Y-12195127D01*
X10554468Y-12337984D02*
X10440182Y-12337984D01*
X10497325Y-12337984D02*
X10497325Y-12137984D01*
X10497325Y-12137984D02*
X10478277Y-12166555D01*
X10478277Y-12166555D02*
X10459229Y-12185603D01*
X10459229Y-12185603D02*
X10440182Y-12195127D01*
X10668753Y-12223698D02*
X10649706Y-12214174D01*
X10649706Y-12214174D02*
X10640182Y-12204650D01*
X10640182Y-12204650D02*
X10630658Y-12185603D01*
X10630658Y-12185603D02*
X10630658Y-12176079D01*
X10630658Y-12176079D02*
X10640182Y-12157031D01*
X10640182Y-12157031D02*
X10649706Y-12147508D01*
X10649706Y-12147508D02*
X10668753Y-12137984D01*
X10668753Y-12137984D02*
X10706849Y-12137984D01*
X10706849Y-12137984D02*
X10725896Y-12147508D01*
X10725896Y-12147508D02*
X10735420Y-12157031D01*
X10735420Y-12157031D02*
X10744944Y-12176079D01*
X10744944Y-12176079D02*
X10744944Y-12185603D01*
X10744944Y-12185603D02*
X10735420Y-12204650D01*
X10735420Y-12204650D02*
X10725896Y-12214174D01*
X10725896Y-12214174D02*
X10706849Y-12223698D01*
X10706849Y-12223698D02*
X10668753Y-12223698D01*
X10668753Y-12223698D02*
X10649706Y-12233222D01*
X10649706Y-12233222D02*
X10640182Y-12242746D01*
X10640182Y-12242746D02*
X10630658Y-12261793D01*
X10630658Y-12261793D02*
X10630658Y-12299888D01*
X10630658Y-12299888D02*
X10640182Y-12318936D01*
X10640182Y-12318936D02*
X10649706Y-12328460D01*
X10649706Y-12328460D02*
X10668753Y-12337984D01*
X10668753Y-12337984D02*
X10706849Y-12337984D01*
X10706849Y-12337984D02*
X10725896Y-12328460D01*
X10725896Y-12328460D02*
X10735420Y-12318936D01*
X10735420Y-12318936D02*
X10744944Y-12299888D01*
X10744944Y-12299888D02*
X10744944Y-12261793D01*
X10744944Y-12261793D02*
X10735420Y-12242746D01*
X10735420Y-12242746D02*
X10725896Y-12233222D01*
X10725896Y-12233222D02*
X10706849Y-12223698D01*
X10821134Y-12137984D02*
X10821134Y-12176079D01*
X10897325Y-12137984D02*
X10897325Y-12176079D01*
X11192563Y-12414174D02*
X11183039Y-12404650D01*
X11183039Y-12404650D02*
X11163991Y-12376079D01*
X11163991Y-12376079D02*
X11154468Y-12357031D01*
X11154468Y-12357031D02*
X11144944Y-12328460D01*
X11144944Y-12328460D02*
X11135420Y-12280841D01*
X11135420Y-12280841D02*
X11135420Y-12242746D01*
X11135420Y-12242746D02*
X11144944Y-12195127D01*
X11144944Y-12195127D02*
X11154468Y-12166555D01*
X11154468Y-12166555D02*
X11163991Y-12147508D01*
X11163991Y-12147508D02*
X11183039Y-12118936D01*
X11183039Y-12118936D02*
X11192563Y-12109412D01*
X11363991Y-12137984D02*
X11268753Y-12137984D01*
X11268753Y-12137984D02*
X11259229Y-12233222D01*
X11259229Y-12233222D02*
X11268753Y-12223698D01*
X11268753Y-12223698D02*
X11287801Y-12214174D01*
X11287801Y-12214174D02*
X11335420Y-12214174D01*
X11335420Y-12214174D02*
X11354468Y-12223698D01*
X11354468Y-12223698D02*
X11363991Y-12233222D01*
X11363991Y-12233222D02*
X11373515Y-12252269D01*
X11373515Y-12252269D02*
X11373515Y-12299888D01*
X11373515Y-12299888D02*
X11363991Y-12318936D01*
X11363991Y-12318936D02*
X11354468Y-12328460D01*
X11354468Y-12328460D02*
X11335420Y-12337984D01*
X11335420Y-12337984D02*
X11287801Y-12337984D01*
X11287801Y-12337984D02*
X11268753Y-12328460D01*
X11268753Y-12328460D02*
X11259229Y-12318936D01*
X11544944Y-12137984D02*
X11506848Y-12137984D01*
X11506848Y-12137984D02*
X11487801Y-12147508D01*
X11487801Y-12147508D02*
X11478277Y-12157031D01*
X11478277Y-12157031D02*
X11459229Y-12185603D01*
X11459229Y-12185603D02*
X11449706Y-12223698D01*
X11449706Y-12223698D02*
X11449706Y-12299888D01*
X11449706Y-12299888D02*
X11459229Y-12318936D01*
X11459229Y-12318936D02*
X11468753Y-12328460D01*
X11468753Y-12328460D02*
X11487801Y-12337984D01*
X11487801Y-12337984D02*
X11525896Y-12337984D01*
X11525896Y-12337984D02*
X11544944Y-12328460D01*
X11544944Y-12328460D02*
X11554468Y-12318936D01*
X11554468Y-12318936D02*
X11563991Y-12299888D01*
X11563991Y-12299888D02*
X11563991Y-12252269D01*
X11563991Y-12252269D02*
X11554468Y-12233222D01*
X11554468Y-12233222D02*
X11544944Y-12223698D01*
X11544944Y-12223698D02*
X11525896Y-12214174D01*
X11525896Y-12214174D02*
X11487801Y-12214174D01*
X11487801Y-12214174D02*
X11468753Y-12223698D01*
X11468753Y-12223698D02*
X11459229Y-12233222D01*
X11459229Y-12233222D02*
X11449706Y-12252269D01*
X11802087Y-12337984D02*
X11802087Y-12137984D01*
X11887801Y-12337984D02*
X11887801Y-12233222D01*
X11887801Y-12233222D02*
X11878277Y-12214174D01*
X11878277Y-12214174D02*
X11859230Y-12204650D01*
X11859230Y-12204650D02*
X11830658Y-12204650D01*
X11830658Y-12204650D02*
X11811610Y-12214174D01*
X11811610Y-12214174D02*
X11802087Y-12223698D01*
X12011610Y-12337984D02*
X11992563Y-12328460D01*
X11992563Y-12328460D02*
X11983039Y-12318936D01*
X11983039Y-12318936D02*
X11973515Y-12299888D01*
X11973515Y-12299888D02*
X11973515Y-12242746D01*
X11973515Y-12242746D02*
X11983039Y-12223698D01*
X11983039Y-12223698D02*
X11992563Y-12214174D01*
X11992563Y-12214174D02*
X12011610Y-12204650D01*
X12011610Y-12204650D02*
X12040182Y-12204650D01*
X12040182Y-12204650D02*
X12059230Y-12214174D01*
X12059230Y-12214174D02*
X12068753Y-12223698D01*
X12068753Y-12223698D02*
X12078277Y-12242746D01*
X12078277Y-12242746D02*
X12078277Y-12299888D01*
X12078277Y-12299888D02*
X12068753Y-12318936D01*
X12068753Y-12318936D02*
X12059230Y-12328460D01*
X12059230Y-12328460D02*
X12040182Y-12337984D01*
X12040182Y-12337984D02*
X12011610Y-12337984D01*
X12192563Y-12337984D02*
X12173515Y-12328460D01*
X12173515Y-12328460D02*
X12163991Y-12309412D01*
X12163991Y-12309412D02*
X12163991Y-12137984D01*
X12344944Y-12328460D02*
X12325896Y-12337984D01*
X12325896Y-12337984D02*
X12287801Y-12337984D01*
X12287801Y-12337984D02*
X12268753Y-12328460D01*
X12268753Y-12328460D02*
X12259230Y-12309412D01*
X12259230Y-12309412D02*
X12259230Y-12233222D01*
X12259230Y-12233222D02*
X12268753Y-12214174D01*
X12268753Y-12214174D02*
X12287801Y-12204650D01*
X12287801Y-12204650D02*
X12325896Y-12204650D01*
X12325896Y-12204650D02*
X12344944Y-12214174D01*
X12344944Y-12214174D02*
X12354468Y-12233222D01*
X12354468Y-12233222D02*
X12354468Y-12252269D01*
X12354468Y-12252269D02*
X12259230Y-12271317D01*
X12430658Y-12328460D02*
X12449706Y-12337984D01*
X12449706Y-12337984D02*
X12487801Y-12337984D01*
X12487801Y-12337984D02*
X12506849Y-12328460D01*
X12506849Y-12328460D02*
X12516372Y-12309412D01*
X12516372Y-12309412D02*
X12516372Y-12299888D01*
X12516372Y-12299888D02*
X12506849Y-12280841D01*
X12506849Y-12280841D02*
X12487801Y-12271317D01*
X12487801Y-12271317D02*
X12459230Y-12271317D01*
X12459230Y-12271317D02*
X12440182Y-12261793D01*
X12440182Y-12261793D02*
X12430658Y-12242746D01*
X12430658Y-12242746D02*
X12430658Y-12233222D01*
X12430658Y-12233222D02*
X12440182Y-12214174D01*
X12440182Y-12214174D02*
X12459230Y-12204650D01*
X12459230Y-12204650D02*
X12487801Y-12204650D01*
X12487801Y-12204650D02*
X12506849Y-12214174D01*
X12583039Y-12414174D02*
X12592563Y-12404650D01*
X12592563Y-12404650D02*
X12611611Y-12376079D01*
X12611611Y-12376079D02*
X12621134Y-12357031D01*
X12621134Y-12357031D02*
X12630658Y-12328460D01*
X12630658Y-12328460D02*
X12640182Y-12280841D01*
X12640182Y-12280841D02*
X12640182Y-12242746D01*
X12640182Y-12242746D02*
X12630658Y-12195127D01*
X12630658Y-12195127D02*
X12621134Y-12166555D01*
X12621134Y-12166555D02*
X12611611Y-12147508D01*
X12611611Y-12147508D02*
X12592563Y-12118936D01*
X12592563Y-12118936D02*
X12583039Y-12109412D01*
D12*
X7617500Y-12510500D02*
G75*
G02*
X7557500Y-12510500I-30000J0D01*
G01*
X7557500Y-12510500D02*
G75*
G02*
X7617500Y-12510500I30000J0D01*
G01*
D11*
X7916372Y-12401984D02*
X7935420Y-12401984D01*
X7935420Y-12401984D02*
X7954467Y-12411508D01*
X7954467Y-12411508D02*
X7963991Y-12421031D01*
X7963991Y-12421031D02*
X7973515Y-12440079D01*
X7973515Y-12440079D02*
X7983039Y-12478174D01*
X7983039Y-12478174D02*
X7983039Y-12525793D01*
X7983039Y-12525793D02*
X7973515Y-12563888D01*
X7973515Y-12563888D02*
X7963991Y-12582936D01*
X7963991Y-12582936D02*
X7954467Y-12592460D01*
X7954467Y-12592460D02*
X7935420Y-12601984D01*
X7935420Y-12601984D02*
X7916372Y-12601984D01*
X7916372Y-12601984D02*
X7897324Y-12592460D01*
X7897324Y-12592460D02*
X7887801Y-12582936D01*
X7887801Y-12582936D02*
X7878277Y-12563888D01*
X7878277Y-12563888D02*
X7868753Y-12525793D01*
X7868753Y-12525793D02*
X7868753Y-12478174D01*
X7868753Y-12478174D02*
X7878277Y-12440079D01*
X7878277Y-12440079D02*
X7887801Y-12421031D01*
X7887801Y-12421031D02*
X7897324Y-12411508D01*
X7897324Y-12411508D02*
X7916372Y-12401984D01*
X8068753Y-12582936D02*
X8078277Y-12592460D01*
X8078277Y-12592460D02*
X8068753Y-12601984D01*
X8068753Y-12601984D02*
X8059229Y-12592460D01*
X8059229Y-12592460D02*
X8068753Y-12582936D01*
X8068753Y-12582936D02*
X8068753Y-12601984D01*
X8249705Y-12401984D02*
X8211610Y-12401984D01*
X8211610Y-12401984D02*
X8192562Y-12411508D01*
X8192562Y-12411508D02*
X8183039Y-12421031D01*
X8183039Y-12421031D02*
X8163991Y-12449603D01*
X8163991Y-12449603D02*
X8154467Y-12487698D01*
X8154467Y-12487698D02*
X8154467Y-12563888D01*
X8154467Y-12563888D02*
X8163991Y-12582936D01*
X8163991Y-12582936D02*
X8173515Y-12592460D01*
X8173515Y-12592460D02*
X8192562Y-12601984D01*
X8192562Y-12601984D02*
X8230658Y-12601984D01*
X8230658Y-12601984D02*
X8249705Y-12592460D01*
X8249705Y-12592460D02*
X8259229Y-12582936D01*
X8259229Y-12582936D02*
X8268753Y-12563888D01*
X8268753Y-12563888D02*
X8268753Y-12516269D01*
X8268753Y-12516269D02*
X8259229Y-12497222D01*
X8259229Y-12497222D02*
X8249705Y-12487698D01*
X8249705Y-12487698D02*
X8230658Y-12478174D01*
X8230658Y-12478174D02*
X8192562Y-12478174D01*
X8192562Y-12478174D02*
X8173515Y-12487698D01*
X8173515Y-12487698D02*
X8163991Y-12497222D01*
X8163991Y-12497222D02*
X8154467Y-12516269D01*
X8392563Y-12401984D02*
X8411610Y-12401984D01*
X8411610Y-12401984D02*
X8430658Y-12411508D01*
X8430658Y-12411508D02*
X8440182Y-12421031D01*
X8440182Y-12421031D02*
X8449705Y-12440079D01*
X8449705Y-12440079D02*
X8459229Y-12478174D01*
X8459229Y-12478174D02*
X8459229Y-12525793D01*
X8459229Y-12525793D02*
X8449705Y-12563888D01*
X8449705Y-12563888D02*
X8440182Y-12582936D01*
X8440182Y-12582936D02*
X8430658Y-12592460D01*
X8430658Y-12592460D02*
X8411610Y-12601984D01*
X8411610Y-12601984D02*
X8392563Y-12601984D01*
X8392563Y-12601984D02*
X8373515Y-12592460D01*
X8373515Y-12592460D02*
X8363991Y-12582936D01*
X8363991Y-12582936D02*
X8354467Y-12563888D01*
X8354467Y-12563888D02*
X8344943Y-12525793D01*
X8344943Y-12525793D02*
X8344943Y-12478174D01*
X8344943Y-12478174D02*
X8354467Y-12440079D01*
X8354467Y-12440079D02*
X8363991Y-12421031D01*
X8363991Y-12421031D02*
X8373515Y-12411508D01*
X8373515Y-12411508D02*
X8392563Y-12401984D01*
X8583039Y-12401984D02*
X8602086Y-12401984D01*
X8602086Y-12401984D02*
X8621134Y-12411508D01*
X8621134Y-12411508D02*
X8630658Y-12421031D01*
X8630658Y-12421031D02*
X8640182Y-12440079D01*
X8640182Y-12440079D02*
X8649705Y-12478174D01*
X8649705Y-12478174D02*
X8649705Y-12525793D01*
X8649705Y-12525793D02*
X8640182Y-12563888D01*
X8640182Y-12563888D02*
X8630658Y-12582936D01*
X8630658Y-12582936D02*
X8621134Y-12592460D01*
X8621134Y-12592460D02*
X8602086Y-12601984D01*
X8602086Y-12601984D02*
X8583039Y-12601984D01*
X8583039Y-12601984D02*
X8563991Y-12592460D01*
X8563991Y-12592460D02*
X8554467Y-12582936D01*
X8554467Y-12582936D02*
X8544944Y-12563888D01*
X8544944Y-12563888D02*
X8535420Y-12525793D01*
X8535420Y-12525793D02*
X8535420Y-12478174D01*
X8535420Y-12478174D02*
X8544944Y-12440079D01*
X8544944Y-12440079D02*
X8554467Y-12421031D01*
X8554467Y-12421031D02*
X8563991Y-12411508D01*
X8563991Y-12411508D02*
X8583039Y-12401984D01*
X8735420Y-12601984D02*
X8735420Y-12468650D01*
X8735420Y-12487698D02*
X8744944Y-12478174D01*
X8744944Y-12478174D02*
X8763991Y-12468650D01*
X8763991Y-12468650D02*
X8792563Y-12468650D01*
X8792563Y-12468650D02*
X8811610Y-12478174D01*
X8811610Y-12478174D02*
X8821134Y-12497222D01*
X8821134Y-12497222D02*
X8821134Y-12601984D01*
X8821134Y-12497222D02*
X8830658Y-12478174D01*
X8830658Y-12478174D02*
X8849705Y-12468650D01*
X8849705Y-12468650D02*
X8878277Y-12468650D01*
X8878277Y-12468650D02*
X8897325Y-12478174D01*
X8897325Y-12478174D02*
X8906848Y-12497222D01*
X8906848Y-12497222D02*
X8906848Y-12601984D01*
X9002086Y-12601984D02*
X9002086Y-12468650D01*
X9002086Y-12487698D02*
X9011610Y-12478174D01*
X9011610Y-12478174D02*
X9030658Y-12468650D01*
X9030658Y-12468650D02*
X9059229Y-12468650D01*
X9059229Y-12468650D02*
X9078277Y-12478174D01*
X9078277Y-12478174D02*
X9087801Y-12497222D01*
X9087801Y-12497222D02*
X9087801Y-12601984D01*
X9087801Y-12497222D02*
X9097325Y-12478174D01*
X9097325Y-12478174D02*
X9116372Y-12468650D01*
X9116372Y-12468650D02*
X9144944Y-12468650D01*
X9144944Y-12468650D02*
X9163991Y-12478174D01*
X9163991Y-12478174D02*
X9173515Y-12497222D01*
X9173515Y-12497222D02*
X9173515Y-12601984D01*
X9563991Y-12392460D02*
X9392563Y-12649603D01*
X9821134Y-12401984D02*
X9840182Y-12401984D01*
X9840182Y-12401984D02*
X9859229Y-12411508D01*
X9859229Y-12411508D02*
X9868753Y-12421031D01*
X9868753Y-12421031D02*
X9878277Y-12440079D01*
X9878277Y-12440079D02*
X9887801Y-12478174D01*
X9887801Y-12478174D02*
X9887801Y-12525793D01*
X9887801Y-12525793D02*
X9878277Y-12563888D01*
X9878277Y-12563888D02*
X9868753Y-12582936D01*
X9868753Y-12582936D02*
X9859229Y-12592460D01*
X9859229Y-12592460D02*
X9840182Y-12601984D01*
X9840182Y-12601984D02*
X9821134Y-12601984D01*
X9821134Y-12601984D02*
X9802087Y-12592460D01*
X9802087Y-12592460D02*
X9792563Y-12582936D01*
X9792563Y-12582936D02*
X9783039Y-12563888D01*
X9783039Y-12563888D02*
X9773515Y-12525793D01*
X9773515Y-12525793D02*
X9773515Y-12478174D01*
X9773515Y-12478174D02*
X9783039Y-12440079D01*
X9783039Y-12440079D02*
X9792563Y-12421031D01*
X9792563Y-12421031D02*
X9802087Y-12411508D01*
X9802087Y-12411508D02*
X9821134Y-12401984D01*
X9973515Y-12582936D02*
X9983039Y-12592460D01*
X9983039Y-12592460D02*
X9973515Y-12601984D01*
X9973515Y-12601984D02*
X9963991Y-12592460D01*
X9963991Y-12592460D02*
X9973515Y-12582936D01*
X9973515Y-12582936D02*
X9973515Y-12601984D01*
X10106848Y-12401984D02*
X10125896Y-12401984D01*
X10125896Y-12401984D02*
X10144944Y-12411508D01*
X10144944Y-12411508D02*
X10154468Y-12421031D01*
X10154468Y-12421031D02*
X10163991Y-12440079D01*
X10163991Y-12440079D02*
X10173515Y-12478174D01*
X10173515Y-12478174D02*
X10173515Y-12525793D01*
X10173515Y-12525793D02*
X10163991Y-12563888D01*
X10163991Y-12563888D02*
X10154468Y-12582936D01*
X10154468Y-12582936D02*
X10144944Y-12592460D01*
X10144944Y-12592460D02*
X10125896Y-12601984D01*
X10125896Y-12601984D02*
X10106848Y-12601984D01*
X10106848Y-12601984D02*
X10087801Y-12592460D01*
X10087801Y-12592460D02*
X10078277Y-12582936D01*
X10078277Y-12582936D02*
X10068753Y-12563888D01*
X10068753Y-12563888D02*
X10059229Y-12525793D01*
X10059229Y-12525793D02*
X10059229Y-12478174D01*
X10059229Y-12478174D02*
X10068753Y-12440079D01*
X10068753Y-12440079D02*
X10078277Y-12421031D01*
X10078277Y-12421031D02*
X10087801Y-12411508D01*
X10087801Y-12411508D02*
X10106848Y-12401984D01*
X10249706Y-12421031D02*
X10259229Y-12411508D01*
X10259229Y-12411508D02*
X10278277Y-12401984D01*
X10278277Y-12401984D02*
X10325896Y-12401984D01*
X10325896Y-12401984D02*
X10344944Y-12411508D01*
X10344944Y-12411508D02*
X10354468Y-12421031D01*
X10354468Y-12421031D02*
X10363991Y-12440079D01*
X10363991Y-12440079D02*
X10363991Y-12459127D01*
X10363991Y-12459127D02*
X10354468Y-12487698D01*
X10354468Y-12487698D02*
X10240182Y-12601984D01*
X10240182Y-12601984D02*
X10363991Y-12601984D01*
X10430658Y-12401984D02*
X10554468Y-12401984D01*
X10554468Y-12401984D02*
X10487801Y-12478174D01*
X10487801Y-12478174D02*
X10516372Y-12478174D01*
X10516372Y-12478174D02*
X10535420Y-12487698D01*
X10535420Y-12487698D02*
X10544944Y-12497222D01*
X10544944Y-12497222D02*
X10554468Y-12516269D01*
X10554468Y-12516269D02*
X10554468Y-12563888D01*
X10554468Y-12563888D02*
X10544944Y-12582936D01*
X10544944Y-12582936D02*
X10535420Y-12592460D01*
X10535420Y-12592460D02*
X10516372Y-12601984D01*
X10516372Y-12601984D02*
X10459229Y-12601984D01*
X10459229Y-12601984D02*
X10440182Y-12592460D01*
X10440182Y-12592460D02*
X10430658Y-12582936D01*
X10725896Y-12401984D02*
X10687801Y-12401984D01*
X10687801Y-12401984D02*
X10668753Y-12411508D01*
X10668753Y-12411508D02*
X10659229Y-12421031D01*
X10659229Y-12421031D02*
X10640182Y-12449603D01*
X10640182Y-12449603D02*
X10630658Y-12487698D01*
X10630658Y-12487698D02*
X10630658Y-12563888D01*
X10630658Y-12563888D02*
X10640182Y-12582936D01*
X10640182Y-12582936D02*
X10649706Y-12592460D01*
X10649706Y-12592460D02*
X10668753Y-12601984D01*
X10668753Y-12601984D02*
X10706849Y-12601984D01*
X10706849Y-12601984D02*
X10725896Y-12592460D01*
X10725896Y-12592460D02*
X10735420Y-12582936D01*
X10735420Y-12582936D02*
X10744944Y-12563888D01*
X10744944Y-12563888D02*
X10744944Y-12516269D01*
X10744944Y-12516269D02*
X10735420Y-12497222D01*
X10735420Y-12497222D02*
X10725896Y-12487698D01*
X10725896Y-12487698D02*
X10706849Y-12478174D01*
X10706849Y-12478174D02*
X10668753Y-12478174D01*
X10668753Y-12478174D02*
X10649706Y-12487698D01*
X10649706Y-12487698D02*
X10640182Y-12497222D01*
X10640182Y-12497222D02*
X10630658Y-12516269D01*
X10821134Y-12401984D02*
X10821134Y-12440079D01*
X10897325Y-12401984D02*
X10897325Y-12440079D01*
X11192563Y-12678174D02*
X11183039Y-12668650D01*
X11183039Y-12668650D02*
X11163991Y-12640079D01*
X11163991Y-12640079D02*
X11154468Y-12621031D01*
X11154468Y-12621031D02*
X11144944Y-12592460D01*
X11144944Y-12592460D02*
X11135420Y-12544841D01*
X11135420Y-12544841D02*
X11135420Y-12506746D01*
X11135420Y-12506746D02*
X11144944Y-12459127D01*
X11144944Y-12459127D02*
X11154468Y-12430555D01*
X11154468Y-12430555D02*
X11163991Y-12411508D01*
X11163991Y-12411508D02*
X11183039Y-12382936D01*
X11183039Y-12382936D02*
X11192563Y-12373412D01*
X11306848Y-12401984D02*
X11325896Y-12401984D01*
X11325896Y-12401984D02*
X11344944Y-12411508D01*
X11344944Y-12411508D02*
X11354468Y-12421031D01*
X11354468Y-12421031D02*
X11363991Y-12440079D01*
X11363991Y-12440079D02*
X11373515Y-12478174D01*
X11373515Y-12478174D02*
X11373515Y-12525793D01*
X11373515Y-12525793D02*
X11363991Y-12563888D01*
X11363991Y-12563888D02*
X11354468Y-12582936D01*
X11354468Y-12582936D02*
X11344944Y-12592460D01*
X11344944Y-12592460D02*
X11325896Y-12601984D01*
X11325896Y-12601984D02*
X11306848Y-12601984D01*
X11306848Y-12601984D02*
X11287801Y-12592460D01*
X11287801Y-12592460D02*
X11278277Y-12582936D01*
X11278277Y-12582936D02*
X11268753Y-12563888D01*
X11268753Y-12563888D02*
X11259229Y-12525793D01*
X11259229Y-12525793D02*
X11259229Y-12478174D01*
X11259229Y-12478174D02*
X11268753Y-12440079D01*
X11268753Y-12440079D02*
X11278277Y-12421031D01*
X11278277Y-12421031D02*
X11287801Y-12411508D01*
X11287801Y-12411508D02*
X11306848Y-12401984D01*
X11611610Y-12601984D02*
X11611610Y-12401984D01*
X11697325Y-12601984D02*
X11697325Y-12497222D01*
X11697325Y-12497222D02*
X11687801Y-12478174D01*
X11687801Y-12478174D02*
X11668753Y-12468650D01*
X11668753Y-12468650D02*
X11640182Y-12468650D01*
X11640182Y-12468650D02*
X11621134Y-12478174D01*
X11621134Y-12478174D02*
X11611610Y-12487698D01*
X11821134Y-12601984D02*
X11802087Y-12592460D01*
X11802087Y-12592460D02*
X11792563Y-12582936D01*
X11792563Y-12582936D02*
X11783039Y-12563888D01*
X11783039Y-12563888D02*
X11783039Y-12506746D01*
X11783039Y-12506746D02*
X11792563Y-12487698D01*
X11792563Y-12487698D02*
X11802087Y-12478174D01*
X11802087Y-12478174D02*
X11821134Y-12468650D01*
X11821134Y-12468650D02*
X11849706Y-12468650D01*
X11849706Y-12468650D02*
X11868753Y-12478174D01*
X11868753Y-12478174D02*
X11878277Y-12487698D01*
X11878277Y-12487698D02*
X11887801Y-12506746D01*
X11887801Y-12506746D02*
X11887801Y-12563888D01*
X11887801Y-12563888D02*
X11878277Y-12582936D01*
X11878277Y-12582936D02*
X11868753Y-12592460D01*
X11868753Y-12592460D02*
X11849706Y-12601984D01*
X11849706Y-12601984D02*
X11821134Y-12601984D01*
X12002087Y-12601984D02*
X11983039Y-12592460D01*
X11983039Y-12592460D02*
X11973515Y-12573412D01*
X11973515Y-12573412D02*
X11973515Y-12401984D01*
X12154468Y-12592460D02*
X12135420Y-12601984D01*
X12135420Y-12601984D02*
X12097325Y-12601984D01*
X12097325Y-12601984D02*
X12078277Y-12592460D01*
X12078277Y-12592460D02*
X12068753Y-12573412D01*
X12068753Y-12573412D02*
X12068753Y-12497222D01*
X12068753Y-12497222D02*
X12078277Y-12478174D01*
X12078277Y-12478174D02*
X12097325Y-12468650D01*
X12097325Y-12468650D02*
X12135420Y-12468650D01*
X12135420Y-12468650D02*
X12154468Y-12478174D01*
X12154468Y-12478174D02*
X12163991Y-12497222D01*
X12163991Y-12497222D02*
X12163991Y-12516269D01*
X12163991Y-12516269D02*
X12068753Y-12535317D01*
X12240182Y-12592460D02*
X12259230Y-12601984D01*
X12259230Y-12601984D02*
X12297325Y-12601984D01*
X12297325Y-12601984D02*
X12316372Y-12592460D01*
X12316372Y-12592460D02*
X12325896Y-12573412D01*
X12325896Y-12573412D02*
X12325896Y-12563888D01*
X12325896Y-12563888D02*
X12316372Y-12544841D01*
X12316372Y-12544841D02*
X12297325Y-12535317D01*
X12297325Y-12535317D02*
X12268753Y-12535317D01*
X12268753Y-12535317D02*
X12249706Y-12525793D01*
X12249706Y-12525793D02*
X12240182Y-12506746D01*
X12240182Y-12506746D02*
X12240182Y-12497222D01*
X12240182Y-12497222D02*
X12249706Y-12478174D01*
X12249706Y-12478174D02*
X12268753Y-12468650D01*
X12268753Y-12468650D02*
X12297325Y-12468650D01*
X12297325Y-12468650D02*
X12316372Y-12478174D01*
X12563992Y-12525793D02*
X12716373Y-12525793D01*
X12640182Y-12601984D02*
X12640182Y-12449603D01*
X13049706Y-12468650D02*
X13049706Y-12601984D01*
X13002087Y-12392460D02*
X12954468Y-12535317D01*
X12954468Y-12535317D02*
X13078277Y-12535317D01*
X13297325Y-12592460D02*
X13316373Y-12601984D01*
X13316373Y-12601984D02*
X13354468Y-12601984D01*
X13354468Y-12601984D02*
X13373515Y-12592460D01*
X13373515Y-12592460D02*
X13383039Y-12573412D01*
X13383039Y-12573412D02*
X13383039Y-12563888D01*
X13383039Y-12563888D02*
X13373515Y-12544841D01*
X13373515Y-12544841D02*
X13354468Y-12535317D01*
X13354468Y-12535317D02*
X13325896Y-12535317D01*
X13325896Y-12535317D02*
X13306849Y-12525793D01*
X13306849Y-12525793D02*
X13297325Y-12506746D01*
X13297325Y-12506746D02*
X13297325Y-12497222D01*
X13297325Y-12497222D02*
X13306849Y-12478174D01*
X13306849Y-12478174D02*
X13325896Y-12468650D01*
X13325896Y-12468650D02*
X13354468Y-12468650D01*
X13354468Y-12468650D02*
X13373515Y-12478174D01*
X13497325Y-12601984D02*
X13478277Y-12592460D01*
X13478277Y-12592460D02*
X13468754Y-12573412D01*
X13468754Y-12573412D02*
X13468754Y-12401984D01*
X13602087Y-12601984D02*
X13583039Y-12592460D01*
X13583039Y-12592460D02*
X13573515Y-12582936D01*
X13573515Y-12582936D02*
X13563992Y-12563888D01*
X13563992Y-12563888D02*
X13563992Y-12506746D01*
X13563992Y-12506746D02*
X13573515Y-12487698D01*
X13573515Y-12487698D02*
X13583039Y-12478174D01*
X13583039Y-12478174D02*
X13602087Y-12468650D01*
X13602087Y-12468650D02*
X13630658Y-12468650D01*
X13630658Y-12468650D02*
X13649706Y-12478174D01*
X13649706Y-12478174D02*
X13659230Y-12487698D01*
X13659230Y-12487698D02*
X13668754Y-12506746D01*
X13668754Y-12506746D02*
X13668754Y-12563888D01*
X13668754Y-12563888D02*
X13659230Y-12582936D01*
X13659230Y-12582936D02*
X13649706Y-12592460D01*
X13649706Y-12592460D02*
X13630658Y-12601984D01*
X13630658Y-12601984D02*
X13602087Y-12601984D01*
X13725896Y-12468650D02*
X13802087Y-12468650D01*
X13754468Y-12401984D02*
X13754468Y-12573412D01*
X13754468Y-12573412D02*
X13763992Y-12592460D01*
X13763992Y-12592460D02*
X13783039Y-12601984D01*
X13783039Y-12601984D02*
X13802087Y-12601984D01*
X13859230Y-12592460D02*
X13878277Y-12601984D01*
X13878277Y-12601984D02*
X13916373Y-12601984D01*
X13916373Y-12601984D02*
X13935420Y-12592460D01*
X13935420Y-12592460D02*
X13944944Y-12573412D01*
X13944944Y-12573412D02*
X13944944Y-12563888D01*
X13944944Y-12563888D02*
X13935420Y-12544841D01*
X13935420Y-12544841D02*
X13916373Y-12535317D01*
X13916373Y-12535317D02*
X13887801Y-12535317D01*
X13887801Y-12535317D02*
X13868754Y-12525793D01*
X13868754Y-12525793D02*
X13859230Y-12506746D01*
X13859230Y-12506746D02*
X13859230Y-12497222D01*
X13859230Y-12497222D02*
X13868754Y-12478174D01*
X13868754Y-12478174D02*
X13887801Y-12468650D01*
X13887801Y-12468650D02*
X13916373Y-12468650D01*
X13916373Y-12468650D02*
X13935420Y-12478174D01*
X14011611Y-12678174D02*
X14021135Y-12668650D01*
X14021135Y-12668650D02*
X14040182Y-12640079D01*
X14040182Y-12640079D02*
X14049706Y-12621031D01*
X14049706Y-12621031D02*
X14059230Y-12592460D01*
X14059230Y-12592460D02*
X14068754Y-12544841D01*
X14068754Y-12544841D02*
X14068754Y-12506746D01*
X14068754Y-12506746D02*
X14059230Y-12459127D01*
X14059230Y-12459127D02*
X14049706Y-12430555D01*
X14049706Y-12430555D02*
X14040182Y-12411508D01*
X14040182Y-12411508D02*
X14021135Y-12382936D01*
X14021135Y-12382936D02*
X14011611Y-12373412D01*
D12*
X7577500Y-12734500D02*
X7577500Y-12814500D01*
X7537500Y-12774500D02*
X7617500Y-12774500D01*
D11*
X7916372Y-12665984D02*
X7935420Y-12665984D01*
X7935420Y-12665984D02*
X7954467Y-12675508D01*
X7954467Y-12675508D02*
X7963991Y-12685031D01*
X7963991Y-12685031D02*
X7973515Y-12704079D01*
X7973515Y-12704079D02*
X7983039Y-12742174D01*
X7983039Y-12742174D02*
X7983039Y-12789793D01*
X7983039Y-12789793D02*
X7973515Y-12827888D01*
X7973515Y-12827888D02*
X7963991Y-12846936D01*
X7963991Y-12846936D02*
X7954467Y-12856460D01*
X7954467Y-12856460D02*
X7935420Y-12865984D01*
X7935420Y-12865984D02*
X7916372Y-12865984D01*
X7916372Y-12865984D02*
X7897324Y-12856460D01*
X7897324Y-12856460D02*
X7887801Y-12846936D01*
X7887801Y-12846936D02*
X7878277Y-12827888D01*
X7878277Y-12827888D02*
X7868753Y-12789793D01*
X7868753Y-12789793D02*
X7868753Y-12742174D01*
X7868753Y-12742174D02*
X7878277Y-12704079D01*
X7878277Y-12704079D02*
X7887801Y-12685031D01*
X7887801Y-12685031D02*
X7897324Y-12675508D01*
X7897324Y-12675508D02*
X7916372Y-12665984D01*
X8068753Y-12846936D02*
X8078277Y-12856460D01*
X8078277Y-12856460D02*
X8068753Y-12865984D01*
X8068753Y-12865984D02*
X8059229Y-12856460D01*
X8059229Y-12856460D02*
X8068753Y-12846936D01*
X8068753Y-12846936D02*
X8068753Y-12865984D01*
X8192562Y-12751698D02*
X8173515Y-12742174D01*
X8173515Y-12742174D02*
X8163991Y-12732650D01*
X8163991Y-12732650D02*
X8154467Y-12713603D01*
X8154467Y-12713603D02*
X8154467Y-12704079D01*
X8154467Y-12704079D02*
X8163991Y-12685031D01*
X8163991Y-12685031D02*
X8173515Y-12675508D01*
X8173515Y-12675508D02*
X8192562Y-12665984D01*
X8192562Y-12665984D02*
X8230658Y-12665984D01*
X8230658Y-12665984D02*
X8249705Y-12675508D01*
X8249705Y-12675508D02*
X8259229Y-12685031D01*
X8259229Y-12685031D02*
X8268753Y-12704079D01*
X8268753Y-12704079D02*
X8268753Y-12713603D01*
X8268753Y-12713603D02*
X8259229Y-12732650D01*
X8259229Y-12732650D02*
X8249705Y-12742174D01*
X8249705Y-12742174D02*
X8230658Y-12751698D01*
X8230658Y-12751698D02*
X8192562Y-12751698D01*
X8192562Y-12751698D02*
X8173515Y-12761222D01*
X8173515Y-12761222D02*
X8163991Y-12770746D01*
X8163991Y-12770746D02*
X8154467Y-12789793D01*
X8154467Y-12789793D02*
X8154467Y-12827888D01*
X8154467Y-12827888D02*
X8163991Y-12846936D01*
X8163991Y-12846936D02*
X8173515Y-12856460D01*
X8173515Y-12856460D02*
X8192562Y-12865984D01*
X8192562Y-12865984D02*
X8230658Y-12865984D01*
X8230658Y-12865984D02*
X8249705Y-12856460D01*
X8249705Y-12856460D02*
X8259229Y-12846936D01*
X8259229Y-12846936D02*
X8268753Y-12827888D01*
X8268753Y-12827888D02*
X8268753Y-12789793D01*
X8268753Y-12789793D02*
X8259229Y-12770746D01*
X8259229Y-12770746D02*
X8249705Y-12761222D01*
X8249705Y-12761222D02*
X8230658Y-12751698D01*
X8392563Y-12665984D02*
X8411610Y-12665984D01*
X8411610Y-12665984D02*
X8430658Y-12675508D01*
X8430658Y-12675508D02*
X8440182Y-12685031D01*
X8440182Y-12685031D02*
X8449705Y-12704079D01*
X8449705Y-12704079D02*
X8459229Y-12742174D01*
X8459229Y-12742174D02*
X8459229Y-12789793D01*
X8459229Y-12789793D02*
X8449705Y-12827888D01*
X8449705Y-12827888D02*
X8440182Y-12846936D01*
X8440182Y-12846936D02*
X8430658Y-12856460D01*
X8430658Y-12856460D02*
X8411610Y-12865984D01*
X8411610Y-12865984D02*
X8392563Y-12865984D01*
X8392563Y-12865984D02*
X8373515Y-12856460D01*
X8373515Y-12856460D02*
X8363991Y-12846936D01*
X8363991Y-12846936D02*
X8354467Y-12827888D01*
X8354467Y-12827888D02*
X8344943Y-12789793D01*
X8344943Y-12789793D02*
X8344943Y-12742174D01*
X8344943Y-12742174D02*
X8354467Y-12704079D01*
X8354467Y-12704079D02*
X8363991Y-12685031D01*
X8363991Y-12685031D02*
X8373515Y-12675508D01*
X8373515Y-12675508D02*
X8392563Y-12665984D01*
X8583039Y-12665984D02*
X8602086Y-12665984D01*
X8602086Y-12665984D02*
X8621134Y-12675508D01*
X8621134Y-12675508D02*
X8630658Y-12685031D01*
X8630658Y-12685031D02*
X8640182Y-12704079D01*
X8640182Y-12704079D02*
X8649705Y-12742174D01*
X8649705Y-12742174D02*
X8649705Y-12789793D01*
X8649705Y-12789793D02*
X8640182Y-12827888D01*
X8640182Y-12827888D02*
X8630658Y-12846936D01*
X8630658Y-12846936D02*
X8621134Y-12856460D01*
X8621134Y-12856460D02*
X8602086Y-12865984D01*
X8602086Y-12865984D02*
X8583039Y-12865984D01*
X8583039Y-12865984D02*
X8563991Y-12856460D01*
X8563991Y-12856460D02*
X8554467Y-12846936D01*
X8554467Y-12846936D02*
X8544944Y-12827888D01*
X8544944Y-12827888D02*
X8535420Y-12789793D01*
X8535420Y-12789793D02*
X8535420Y-12742174D01*
X8535420Y-12742174D02*
X8544944Y-12704079D01*
X8544944Y-12704079D02*
X8554467Y-12685031D01*
X8554467Y-12685031D02*
X8563991Y-12675508D01*
X8563991Y-12675508D02*
X8583039Y-12665984D01*
X8735420Y-12865984D02*
X8735420Y-12732650D01*
X8735420Y-12751698D02*
X8744944Y-12742174D01*
X8744944Y-12742174D02*
X8763991Y-12732650D01*
X8763991Y-12732650D02*
X8792563Y-12732650D01*
X8792563Y-12732650D02*
X8811610Y-12742174D01*
X8811610Y-12742174D02*
X8821134Y-12761222D01*
X8821134Y-12761222D02*
X8821134Y-12865984D01*
X8821134Y-12761222D02*
X8830658Y-12742174D01*
X8830658Y-12742174D02*
X8849705Y-12732650D01*
X8849705Y-12732650D02*
X8878277Y-12732650D01*
X8878277Y-12732650D02*
X8897325Y-12742174D01*
X8897325Y-12742174D02*
X8906848Y-12761222D01*
X8906848Y-12761222D02*
X8906848Y-12865984D01*
X9002086Y-12865984D02*
X9002086Y-12732650D01*
X9002086Y-12751698D02*
X9011610Y-12742174D01*
X9011610Y-12742174D02*
X9030658Y-12732650D01*
X9030658Y-12732650D02*
X9059229Y-12732650D01*
X9059229Y-12732650D02*
X9078277Y-12742174D01*
X9078277Y-12742174D02*
X9087801Y-12761222D01*
X9087801Y-12761222D02*
X9087801Y-12865984D01*
X9087801Y-12761222D02*
X9097325Y-12742174D01*
X9097325Y-12742174D02*
X9116372Y-12732650D01*
X9116372Y-12732650D02*
X9144944Y-12732650D01*
X9144944Y-12732650D02*
X9163991Y-12742174D01*
X9163991Y-12742174D02*
X9173515Y-12761222D01*
X9173515Y-12761222D02*
X9173515Y-12865984D01*
X9563991Y-12656460D02*
X9392563Y-12913603D01*
X9821134Y-12665984D02*
X9840182Y-12665984D01*
X9840182Y-12665984D02*
X9859229Y-12675508D01*
X9859229Y-12675508D02*
X9868753Y-12685031D01*
X9868753Y-12685031D02*
X9878277Y-12704079D01*
X9878277Y-12704079D02*
X9887801Y-12742174D01*
X9887801Y-12742174D02*
X9887801Y-12789793D01*
X9887801Y-12789793D02*
X9878277Y-12827888D01*
X9878277Y-12827888D02*
X9868753Y-12846936D01*
X9868753Y-12846936D02*
X9859229Y-12856460D01*
X9859229Y-12856460D02*
X9840182Y-12865984D01*
X9840182Y-12865984D02*
X9821134Y-12865984D01*
X9821134Y-12865984D02*
X9802087Y-12856460D01*
X9802087Y-12856460D02*
X9792563Y-12846936D01*
X9792563Y-12846936D02*
X9783039Y-12827888D01*
X9783039Y-12827888D02*
X9773515Y-12789793D01*
X9773515Y-12789793D02*
X9773515Y-12742174D01*
X9773515Y-12742174D02*
X9783039Y-12704079D01*
X9783039Y-12704079D02*
X9792563Y-12685031D01*
X9792563Y-12685031D02*
X9802087Y-12675508D01*
X9802087Y-12675508D02*
X9821134Y-12665984D01*
X9973515Y-12846936D02*
X9983039Y-12856460D01*
X9983039Y-12856460D02*
X9973515Y-12865984D01*
X9973515Y-12865984D02*
X9963991Y-12856460D01*
X9963991Y-12856460D02*
X9973515Y-12846936D01*
X9973515Y-12846936D02*
X9973515Y-12865984D01*
X10106848Y-12665984D02*
X10125896Y-12665984D01*
X10125896Y-12665984D02*
X10144944Y-12675508D01*
X10144944Y-12675508D02*
X10154468Y-12685031D01*
X10154468Y-12685031D02*
X10163991Y-12704079D01*
X10163991Y-12704079D02*
X10173515Y-12742174D01*
X10173515Y-12742174D02*
X10173515Y-12789793D01*
X10173515Y-12789793D02*
X10163991Y-12827888D01*
X10163991Y-12827888D02*
X10154468Y-12846936D01*
X10154468Y-12846936D02*
X10144944Y-12856460D01*
X10144944Y-12856460D02*
X10125896Y-12865984D01*
X10125896Y-12865984D02*
X10106848Y-12865984D01*
X10106848Y-12865984D02*
X10087801Y-12856460D01*
X10087801Y-12856460D02*
X10078277Y-12846936D01*
X10078277Y-12846936D02*
X10068753Y-12827888D01*
X10068753Y-12827888D02*
X10059229Y-12789793D01*
X10059229Y-12789793D02*
X10059229Y-12742174D01*
X10059229Y-12742174D02*
X10068753Y-12704079D01*
X10068753Y-12704079D02*
X10078277Y-12685031D01*
X10078277Y-12685031D02*
X10087801Y-12675508D01*
X10087801Y-12675508D02*
X10106848Y-12665984D01*
X10240182Y-12665984D02*
X10363991Y-12665984D01*
X10363991Y-12665984D02*
X10297325Y-12742174D01*
X10297325Y-12742174D02*
X10325896Y-12742174D01*
X10325896Y-12742174D02*
X10344944Y-12751698D01*
X10344944Y-12751698D02*
X10354468Y-12761222D01*
X10354468Y-12761222D02*
X10363991Y-12780269D01*
X10363991Y-12780269D02*
X10363991Y-12827888D01*
X10363991Y-12827888D02*
X10354468Y-12846936D01*
X10354468Y-12846936D02*
X10344944Y-12856460D01*
X10344944Y-12856460D02*
X10325896Y-12865984D01*
X10325896Y-12865984D02*
X10268753Y-12865984D01*
X10268753Y-12865984D02*
X10249706Y-12856460D01*
X10249706Y-12856460D02*
X10240182Y-12846936D01*
X10554468Y-12865984D02*
X10440182Y-12865984D01*
X10497325Y-12865984D02*
X10497325Y-12665984D01*
X10497325Y-12665984D02*
X10478277Y-12694555D01*
X10478277Y-12694555D02*
X10459229Y-12713603D01*
X10459229Y-12713603D02*
X10440182Y-12723127D01*
X10735420Y-12665984D02*
X10640182Y-12665984D01*
X10640182Y-12665984D02*
X10630658Y-12761222D01*
X10630658Y-12761222D02*
X10640182Y-12751698D01*
X10640182Y-12751698D02*
X10659229Y-12742174D01*
X10659229Y-12742174D02*
X10706849Y-12742174D01*
X10706849Y-12742174D02*
X10725896Y-12751698D01*
X10725896Y-12751698D02*
X10735420Y-12761222D01*
X10735420Y-12761222D02*
X10744944Y-12780269D01*
X10744944Y-12780269D02*
X10744944Y-12827888D01*
X10744944Y-12827888D02*
X10735420Y-12846936D01*
X10735420Y-12846936D02*
X10725896Y-12856460D01*
X10725896Y-12856460D02*
X10706849Y-12865984D01*
X10706849Y-12865984D02*
X10659229Y-12865984D01*
X10659229Y-12865984D02*
X10640182Y-12856460D01*
X10640182Y-12856460D02*
X10630658Y-12846936D01*
X10821134Y-12665984D02*
X10821134Y-12704079D01*
X10897325Y-12665984D02*
X10897325Y-12704079D01*
X11192563Y-12942174D02*
X11183039Y-12932650D01*
X11183039Y-12932650D02*
X11163991Y-12904079D01*
X11163991Y-12904079D02*
X11154468Y-12885031D01*
X11154468Y-12885031D02*
X11144944Y-12856460D01*
X11144944Y-12856460D02*
X11135420Y-12808841D01*
X11135420Y-12808841D02*
X11135420Y-12770746D01*
X11135420Y-12770746D02*
X11144944Y-12723127D01*
X11144944Y-12723127D02*
X11154468Y-12694555D01*
X11154468Y-12694555D02*
X11163991Y-12675508D01*
X11163991Y-12675508D02*
X11183039Y-12646936D01*
X11183039Y-12646936D02*
X11192563Y-12637412D01*
X11249706Y-12665984D02*
X11373515Y-12665984D01*
X11373515Y-12665984D02*
X11306848Y-12742174D01*
X11306848Y-12742174D02*
X11335420Y-12742174D01*
X11335420Y-12742174D02*
X11354468Y-12751698D01*
X11354468Y-12751698D02*
X11363991Y-12761222D01*
X11363991Y-12761222D02*
X11373515Y-12780269D01*
X11373515Y-12780269D02*
X11373515Y-12827888D01*
X11373515Y-12827888D02*
X11363991Y-12846936D01*
X11363991Y-12846936D02*
X11354468Y-12856460D01*
X11354468Y-12856460D02*
X11335420Y-12865984D01*
X11335420Y-12865984D02*
X11278277Y-12865984D01*
X11278277Y-12865984D02*
X11259229Y-12856460D01*
X11259229Y-12856460D02*
X11249706Y-12846936D01*
X11611610Y-12865984D02*
X11611610Y-12665984D01*
X11697325Y-12865984D02*
X11697325Y-12761222D01*
X11697325Y-12761222D02*
X11687801Y-12742174D01*
X11687801Y-12742174D02*
X11668753Y-12732650D01*
X11668753Y-12732650D02*
X11640182Y-12732650D01*
X11640182Y-12732650D02*
X11621134Y-12742174D01*
X11621134Y-12742174D02*
X11611610Y-12751698D01*
X11821134Y-12865984D02*
X11802087Y-12856460D01*
X11802087Y-12856460D02*
X11792563Y-12846936D01*
X11792563Y-12846936D02*
X11783039Y-12827888D01*
X11783039Y-12827888D02*
X11783039Y-12770746D01*
X11783039Y-12770746D02*
X11792563Y-12751698D01*
X11792563Y-12751698D02*
X11802087Y-12742174D01*
X11802087Y-12742174D02*
X11821134Y-12732650D01*
X11821134Y-12732650D02*
X11849706Y-12732650D01*
X11849706Y-12732650D02*
X11868753Y-12742174D01*
X11868753Y-12742174D02*
X11878277Y-12751698D01*
X11878277Y-12751698D02*
X11887801Y-12770746D01*
X11887801Y-12770746D02*
X11887801Y-12827888D01*
X11887801Y-12827888D02*
X11878277Y-12846936D01*
X11878277Y-12846936D02*
X11868753Y-12856460D01*
X11868753Y-12856460D02*
X11849706Y-12865984D01*
X11849706Y-12865984D02*
X11821134Y-12865984D01*
X12002087Y-12865984D02*
X11983039Y-12856460D01*
X11983039Y-12856460D02*
X11973515Y-12837412D01*
X11973515Y-12837412D02*
X11973515Y-12665984D01*
X12154468Y-12856460D02*
X12135420Y-12865984D01*
X12135420Y-12865984D02*
X12097325Y-12865984D01*
X12097325Y-12865984D02*
X12078277Y-12856460D01*
X12078277Y-12856460D02*
X12068753Y-12837412D01*
X12068753Y-12837412D02*
X12068753Y-12761222D01*
X12068753Y-12761222D02*
X12078277Y-12742174D01*
X12078277Y-12742174D02*
X12097325Y-12732650D01*
X12097325Y-12732650D02*
X12135420Y-12732650D01*
X12135420Y-12732650D02*
X12154468Y-12742174D01*
X12154468Y-12742174D02*
X12163991Y-12761222D01*
X12163991Y-12761222D02*
X12163991Y-12780269D01*
X12163991Y-12780269D02*
X12068753Y-12799317D01*
X12240182Y-12856460D02*
X12259230Y-12865984D01*
X12259230Y-12865984D02*
X12297325Y-12865984D01*
X12297325Y-12865984D02*
X12316372Y-12856460D01*
X12316372Y-12856460D02*
X12325896Y-12837412D01*
X12325896Y-12837412D02*
X12325896Y-12827888D01*
X12325896Y-12827888D02*
X12316372Y-12808841D01*
X12316372Y-12808841D02*
X12297325Y-12799317D01*
X12297325Y-12799317D02*
X12268753Y-12799317D01*
X12268753Y-12799317D02*
X12249706Y-12789793D01*
X12249706Y-12789793D02*
X12240182Y-12770746D01*
X12240182Y-12770746D02*
X12240182Y-12761222D01*
X12240182Y-12761222D02*
X12249706Y-12742174D01*
X12249706Y-12742174D02*
X12268753Y-12732650D01*
X12268753Y-12732650D02*
X12297325Y-12732650D01*
X12297325Y-12732650D02*
X12316372Y-12742174D01*
X12392563Y-12942174D02*
X12402087Y-12932650D01*
X12402087Y-12932650D02*
X12421134Y-12904079D01*
X12421134Y-12904079D02*
X12430658Y-12885031D01*
X12430658Y-12885031D02*
X12440182Y-12856460D01*
X12440182Y-12856460D02*
X12449706Y-12808841D01*
X12449706Y-12808841D02*
X12449706Y-12770746D01*
X12449706Y-12770746D02*
X12440182Y-12723127D01*
X12440182Y-12723127D02*
X12430658Y-12694555D01*
X12430658Y-12694555D02*
X12421134Y-12675508D01*
X12421134Y-12675508D02*
X12402087Y-12646936D01*
X12402087Y-12646936D02*
X12392563Y-12637412D01*
D12*
X7602856Y-13073856D02*
X7602856Y-13003144D01*
X7532144Y-13003144D01*
X7532144Y-13073856D01*
X7602856Y-13073856D01*
D11*
X7983039Y-13129984D02*
X7868753Y-13129984D01*
X7925896Y-13129984D02*
X7925896Y-12929984D01*
X7925896Y-12929984D02*
X7906848Y-12958555D01*
X7906848Y-12958555D02*
X7887801Y-12977603D01*
X7887801Y-12977603D02*
X7868753Y-12987127D01*
X8068753Y-13110936D02*
X8078277Y-13120460D01*
X8078277Y-13120460D02*
X8068753Y-13129984D01*
X8068753Y-13129984D02*
X8059229Y-13120460D01*
X8059229Y-13120460D02*
X8068753Y-13110936D01*
X8068753Y-13110936D02*
X8068753Y-13129984D01*
X8202086Y-12929984D02*
X8221134Y-12929984D01*
X8221134Y-12929984D02*
X8240182Y-12939508D01*
X8240182Y-12939508D02*
X8249705Y-12949031D01*
X8249705Y-12949031D02*
X8259229Y-12968079D01*
X8259229Y-12968079D02*
X8268753Y-13006174D01*
X8268753Y-13006174D02*
X8268753Y-13053793D01*
X8268753Y-13053793D02*
X8259229Y-13091888D01*
X8259229Y-13091888D02*
X8249705Y-13110936D01*
X8249705Y-13110936D02*
X8240182Y-13120460D01*
X8240182Y-13120460D02*
X8221134Y-13129984D01*
X8221134Y-13129984D02*
X8202086Y-13129984D01*
X8202086Y-13129984D02*
X8183039Y-13120460D01*
X8183039Y-13120460D02*
X8173515Y-13110936D01*
X8173515Y-13110936D02*
X8163991Y-13091888D01*
X8163991Y-13091888D02*
X8154467Y-13053793D01*
X8154467Y-13053793D02*
X8154467Y-13006174D01*
X8154467Y-13006174D02*
X8163991Y-12968079D01*
X8163991Y-12968079D02*
X8173515Y-12949031D01*
X8173515Y-12949031D02*
X8183039Y-12939508D01*
X8183039Y-12939508D02*
X8202086Y-12929984D01*
X8392563Y-12929984D02*
X8411610Y-12929984D01*
X8411610Y-12929984D02*
X8430658Y-12939508D01*
X8430658Y-12939508D02*
X8440182Y-12949031D01*
X8440182Y-12949031D02*
X8449705Y-12968079D01*
X8449705Y-12968079D02*
X8459229Y-13006174D01*
X8459229Y-13006174D02*
X8459229Y-13053793D01*
X8459229Y-13053793D02*
X8449705Y-13091888D01*
X8449705Y-13091888D02*
X8440182Y-13110936D01*
X8440182Y-13110936D02*
X8430658Y-13120460D01*
X8430658Y-13120460D02*
X8411610Y-13129984D01*
X8411610Y-13129984D02*
X8392563Y-13129984D01*
X8392563Y-13129984D02*
X8373515Y-13120460D01*
X8373515Y-13120460D02*
X8363991Y-13110936D01*
X8363991Y-13110936D02*
X8354467Y-13091888D01*
X8354467Y-13091888D02*
X8344943Y-13053793D01*
X8344943Y-13053793D02*
X8344943Y-13006174D01*
X8344943Y-13006174D02*
X8354467Y-12968079D01*
X8354467Y-12968079D02*
X8363991Y-12949031D01*
X8363991Y-12949031D02*
X8373515Y-12939508D01*
X8373515Y-12939508D02*
X8392563Y-12929984D01*
X8583039Y-12929984D02*
X8602086Y-12929984D01*
X8602086Y-12929984D02*
X8621134Y-12939508D01*
X8621134Y-12939508D02*
X8630658Y-12949031D01*
X8630658Y-12949031D02*
X8640182Y-12968079D01*
X8640182Y-12968079D02*
X8649705Y-13006174D01*
X8649705Y-13006174D02*
X8649705Y-13053793D01*
X8649705Y-13053793D02*
X8640182Y-13091888D01*
X8640182Y-13091888D02*
X8630658Y-13110936D01*
X8630658Y-13110936D02*
X8621134Y-13120460D01*
X8621134Y-13120460D02*
X8602086Y-13129984D01*
X8602086Y-13129984D02*
X8583039Y-13129984D01*
X8583039Y-13129984D02*
X8563991Y-13120460D01*
X8563991Y-13120460D02*
X8554467Y-13110936D01*
X8554467Y-13110936D02*
X8544944Y-13091888D01*
X8544944Y-13091888D02*
X8535420Y-13053793D01*
X8535420Y-13053793D02*
X8535420Y-13006174D01*
X8535420Y-13006174D02*
X8544944Y-12968079D01*
X8544944Y-12968079D02*
X8554467Y-12949031D01*
X8554467Y-12949031D02*
X8563991Y-12939508D01*
X8563991Y-12939508D02*
X8583039Y-12929984D01*
X8735420Y-13129984D02*
X8735420Y-12996650D01*
X8735420Y-13015698D02*
X8744944Y-13006174D01*
X8744944Y-13006174D02*
X8763991Y-12996650D01*
X8763991Y-12996650D02*
X8792563Y-12996650D01*
X8792563Y-12996650D02*
X8811610Y-13006174D01*
X8811610Y-13006174D02*
X8821134Y-13025222D01*
X8821134Y-13025222D02*
X8821134Y-13129984D01*
X8821134Y-13025222D02*
X8830658Y-13006174D01*
X8830658Y-13006174D02*
X8849705Y-12996650D01*
X8849705Y-12996650D02*
X8878277Y-12996650D01*
X8878277Y-12996650D02*
X8897325Y-13006174D01*
X8897325Y-13006174D02*
X8906848Y-13025222D01*
X8906848Y-13025222D02*
X8906848Y-13129984D01*
X9002086Y-13129984D02*
X9002086Y-12996650D01*
X9002086Y-13015698D02*
X9011610Y-13006174D01*
X9011610Y-13006174D02*
X9030658Y-12996650D01*
X9030658Y-12996650D02*
X9059229Y-12996650D01*
X9059229Y-12996650D02*
X9078277Y-13006174D01*
X9078277Y-13006174D02*
X9087801Y-13025222D01*
X9087801Y-13025222D02*
X9087801Y-13129984D01*
X9087801Y-13025222D02*
X9097325Y-13006174D01*
X9097325Y-13006174D02*
X9116372Y-12996650D01*
X9116372Y-12996650D02*
X9144944Y-12996650D01*
X9144944Y-12996650D02*
X9163991Y-13006174D01*
X9163991Y-13006174D02*
X9173515Y-13025222D01*
X9173515Y-13025222D02*
X9173515Y-13129984D01*
X9563991Y-12920460D02*
X9392563Y-13177603D01*
X9821134Y-12929984D02*
X9840182Y-12929984D01*
X9840182Y-12929984D02*
X9859229Y-12939508D01*
X9859229Y-12939508D02*
X9868753Y-12949031D01*
X9868753Y-12949031D02*
X9878277Y-12968079D01*
X9878277Y-12968079D02*
X9887801Y-13006174D01*
X9887801Y-13006174D02*
X9887801Y-13053793D01*
X9887801Y-13053793D02*
X9878277Y-13091888D01*
X9878277Y-13091888D02*
X9868753Y-13110936D01*
X9868753Y-13110936D02*
X9859229Y-13120460D01*
X9859229Y-13120460D02*
X9840182Y-13129984D01*
X9840182Y-13129984D02*
X9821134Y-13129984D01*
X9821134Y-13129984D02*
X9802087Y-13120460D01*
X9802087Y-13120460D02*
X9792563Y-13110936D01*
X9792563Y-13110936D02*
X9783039Y-13091888D01*
X9783039Y-13091888D02*
X9773515Y-13053793D01*
X9773515Y-13053793D02*
X9773515Y-13006174D01*
X9773515Y-13006174D02*
X9783039Y-12968079D01*
X9783039Y-12968079D02*
X9792563Y-12949031D01*
X9792563Y-12949031D02*
X9802087Y-12939508D01*
X9802087Y-12939508D02*
X9821134Y-12929984D01*
X9973515Y-13110936D02*
X9983039Y-13120460D01*
X9983039Y-13120460D02*
X9973515Y-13129984D01*
X9973515Y-13129984D02*
X9963991Y-13120460D01*
X9963991Y-13120460D02*
X9973515Y-13110936D01*
X9973515Y-13110936D02*
X9973515Y-13129984D01*
X10106848Y-12929984D02*
X10125896Y-12929984D01*
X10125896Y-12929984D02*
X10144944Y-12939508D01*
X10144944Y-12939508D02*
X10154468Y-12949031D01*
X10154468Y-12949031D02*
X10163991Y-12968079D01*
X10163991Y-12968079D02*
X10173515Y-13006174D01*
X10173515Y-13006174D02*
X10173515Y-13053793D01*
X10173515Y-13053793D02*
X10163991Y-13091888D01*
X10163991Y-13091888D02*
X10154468Y-13110936D01*
X10154468Y-13110936D02*
X10144944Y-13120460D01*
X10144944Y-13120460D02*
X10125896Y-13129984D01*
X10125896Y-13129984D02*
X10106848Y-13129984D01*
X10106848Y-13129984D02*
X10087801Y-13120460D01*
X10087801Y-13120460D02*
X10078277Y-13110936D01*
X10078277Y-13110936D02*
X10068753Y-13091888D01*
X10068753Y-13091888D02*
X10059229Y-13053793D01*
X10059229Y-13053793D02*
X10059229Y-13006174D01*
X10059229Y-13006174D02*
X10068753Y-12968079D01*
X10068753Y-12968079D02*
X10078277Y-12949031D01*
X10078277Y-12949031D02*
X10087801Y-12939508D01*
X10087801Y-12939508D02*
X10106848Y-12929984D01*
X10240182Y-12929984D02*
X10363991Y-12929984D01*
X10363991Y-12929984D02*
X10297325Y-13006174D01*
X10297325Y-13006174D02*
X10325896Y-13006174D01*
X10325896Y-13006174D02*
X10344944Y-13015698D01*
X10344944Y-13015698D02*
X10354468Y-13025222D01*
X10354468Y-13025222D02*
X10363991Y-13044269D01*
X10363991Y-13044269D02*
X10363991Y-13091888D01*
X10363991Y-13091888D02*
X10354468Y-13110936D01*
X10354468Y-13110936D02*
X10344944Y-13120460D01*
X10344944Y-13120460D02*
X10325896Y-13129984D01*
X10325896Y-13129984D02*
X10268753Y-13129984D01*
X10268753Y-13129984D02*
X10249706Y-13120460D01*
X10249706Y-13120460D02*
X10240182Y-13110936D01*
X10459229Y-13129984D02*
X10497325Y-13129984D01*
X10497325Y-13129984D02*
X10516372Y-13120460D01*
X10516372Y-13120460D02*
X10525896Y-13110936D01*
X10525896Y-13110936D02*
X10544944Y-13082365D01*
X10544944Y-13082365D02*
X10554468Y-13044269D01*
X10554468Y-13044269D02*
X10554468Y-12968079D01*
X10554468Y-12968079D02*
X10544944Y-12949031D01*
X10544944Y-12949031D02*
X10535420Y-12939508D01*
X10535420Y-12939508D02*
X10516372Y-12929984D01*
X10516372Y-12929984D02*
X10478277Y-12929984D01*
X10478277Y-12929984D02*
X10459229Y-12939508D01*
X10459229Y-12939508D02*
X10449706Y-12949031D01*
X10449706Y-12949031D02*
X10440182Y-12968079D01*
X10440182Y-12968079D02*
X10440182Y-13015698D01*
X10440182Y-13015698D02*
X10449706Y-13034746D01*
X10449706Y-13034746D02*
X10459229Y-13044269D01*
X10459229Y-13044269D02*
X10478277Y-13053793D01*
X10478277Y-13053793D02*
X10516372Y-13053793D01*
X10516372Y-13053793D02*
X10535420Y-13044269D01*
X10535420Y-13044269D02*
X10544944Y-13034746D01*
X10544944Y-13034746D02*
X10554468Y-13015698D01*
X10725896Y-12996650D02*
X10725896Y-13129984D01*
X10678277Y-12920460D02*
X10630658Y-13063317D01*
X10630658Y-13063317D02*
X10754468Y-13063317D01*
X10821134Y-12929984D02*
X10821134Y-12968079D01*
X10897325Y-12929984D02*
X10897325Y-12968079D01*
X11192563Y-13206174D02*
X11183039Y-13196650D01*
X11183039Y-13196650D02*
X11163991Y-13168079D01*
X11163991Y-13168079D02*
X11154468Y-13149031D01*
X11154468Y-13149031D02*
X11144944Y-13120460D01*
X11144944Y-13120460D02*
X11135420Y-13072841D01*
X11135420Y-13072841D02*
X11135420Y-13034746D01*
X11135420Y-13034746D02*
X11144944Y-12987127D01*
X11144944Y-12987127D02*
X11154468Y-12958555D01*
X11154468Y-12958555D02*
X11163991Y-12939508D01*
X11163991Y-12939508D02*
X11183039Y-12910936D01*
X11183039Y-12910936D02*
X11192563Y-12901412D01*
X11278277Y-13129984D02*
X11316372Y-13129984D01*
X11316372Y-13129984D02*
X11335420Y-13120460D01*
X11335420Y-13120460D02*
X11344944Y-13110936D01*
X11344944Y-13110936D02*
X11363991Y-13082365D01*
X11363991Y-13082365D02*
X11373515Y-13044269D01*
X11373515Y-13044269D02*
X11373515Y-12968079D01*
X11373515Y-12968079D02*
X11363991Y-12949031D01*
X11363991Y-12949031D02*
X11354468Y-12939508D01*
X11354468Y-12939508D02*
X11335420Y-12929984D01*
X11335420Y-12929984D02*
X11297325Y-12929984D01*
X11297325Y-12929984D02*
X11278277Y-12939508D01*
X11278277Y-12939508D02*
X11268753Y-12949031D01*
X11268753Y-12949031D02*
X11259229Y-12968079D01*
X11259229Y-12968079D02*
X11259229Y-13015698D01*
X11259229Y-13015698D02*
X11268753Y-13034746D01*
X11268753Y-13034746D02*
X11278277Y-13044269D01*
X11278277Y-13044269D02*
X11297325Y-13053793D01*
X11297325Y-13053793D02*
X11335420Y-13053793D01*
X11335420Y-13053793D02*
X11354468Y-13044269D01*
X11354468Y-13044269D02*
X11363991Y-13034746D01*
X11363991Y-13034746D02*
X11373515Y-13015698D01*
X11611610Y-13129984D02*
X11611610Y-12929984D01*
X11697325Y-13129984D02*
X11697325Y-13025222D01*
X11697325Y-13025222D02*
X11687801Y-13006174D01*
X11687801Y-13006174D02*
X11668753Y-12996650D01*
X11668753Y-12996650D02*
X11640182Y-12996650D01*
X11640182Y-12996650D02*
X11621134Y-13006174D01*
X11621134Y-13006174D02*
X11611610Y-13015698D01*
X11821134Y-13129984D02*
X11802087Y-13120460D01*
X11802087Y-13120460D02*
X11792563Y-13110936D01*
X11792563Y-13110936D02*
X11783039Y-13091888D01*
X11783039Y-13091888D02*
X11783039Y-13034746D01*
X11783039Y-13034746D02*
X11792563Y-13015698D01*
X11792563Y-13015698D02*
X11802087Y-13006174D01*
X11802087Y-13006174D02*
X11821134Y-12996650D01*
X11821134Y-12996650D02*
X11849706Y-12996650D01*
X11849706Y-12996650D02*
X11868753Y-13006174D01*
X11868753Y-13006174D02*
X11878277Y-13015698D01*
X11878277Y-13015698D02*
X11887801Y-13034746D01*
X11887801Y-13034746D02*
X11887801Y-13091888D01*
X11887801Y-13091888D02*
X11878277Y-13110936D01*
X11878277Y-13110936D02*
X11868753Y-13120460D01*
X11868753Y-13120460D02*
X11849706Y-13129984D01*
X11849706Y-13129984D02*
X11821134Y-13129984D01*
X12002087Y-13129984D02*
X11983039Y-13120460D01*
X11983039Y-13120460D02*
X11973515Y-13101412D01*
X11973515Y-13101412D02*
X11973515Y-12929984D01*
X12154468Y-13120460D02*
X12135420Y-13129984D01*
X12135420Y-13129984D02*
X12097325Y-13129984D01*
X12097325Y-13129984D02*
X12078277Y-13120460D01*
X12078277Y-13120460D02*
X12068753Y-13101412D01*
X12068753Y-13101412D02*
X12068753Y-13025222D01*
X12068753Y-13025222D02*
X12078277Y-13006174D01*
X12078277Y-13006174D02*
X12097325Y-12996650D01*
X12097325Y-12996650D02*
X12135420Y-12996650D01*
X12135420Y-12996650D02*
X12154468Y-13006174D01*
X12154468Y-13006174D02*
X12163991Y-13025222D01*
X12163991Y-13025222D02*
X12163991Y-13044269D01*
X12163991Y-13044269D02*
X12068753Y-13063317D01*
X12240182Y-13120460D02*
X12259230Y-13129984D01*
X12259230Y-13129984D02*
X12297325Y-13129984D01*
X12297325Y-13129984D02*
X12316372Y-13120460D01*
X12316372Y-13120460D02*
X12325896Y-13101412D01*
X12325896Y-13101412D02*
X12325896Y-13091888D01*
X12325896Y-13091888D02*
X12316372Y-13072841D01*
X12316372Y-13072841D02*
X12297325Y-13063317D01*
X12297325Y-13063317D02*
X12268753Y-13063317D01*
X12268753Y-13063317D02*
X12249706Y-13053793D01*
X12249706Y-13053793D02*
X12240182Y-13034746D01*
X12240182Y-13034746D02*
X12240182Y-13025222D01*
X12240182Y-13025222D02*
X12249706Y-13006174D01*
X12249706Y-13006174D02*
X12268753Y-12996650D01*
X12268753Y-12996650D02*
X12297325Y-12996650D01*
X12297325Y-12996650D02*
X12316372Y-13006174D01*
X12392563Y-13206174D02*
X12402087Y-13196650D01*
X12402087Y-13196650D02*
X12421134Y-13168079D01*
X12421134Y-13168079D02*
X12430658Y-13149031D01*
X12430658Y-13149031D02*
X12440182Y-13120460D01*
X12440182Y-13120460D02*
X12449706Y-13072841D01*
X12449706Y-13072841D02*
X12449706Y-13034746D01*
X12449706Y-13034746D02*
X12440182Y-12987127D01*
X12440182Y-12987127D02*
X12430658Y-12958555D01*
X12430658Y-12958555D02*
X12421134Y-12939508D01*
X12421134Y-12939508D02*
X12402087Y-12910936D01*
X12402087Y-12910936D02*
X12392563Y-12901412D01*
D13*
X7542500Y-13377500D02*
X7617500Y-13302500D01*
X7542500Y-13227500D01*
X7467500Y-13302500D01*
X7542500Y-13377500D01*
D11*
X7983039Y-13393984D02*
X7868753Y-13393984D01*
X7925896Y-13393984D02*
X7925896Y-13193984D01*
X7925896Y-13193984D02*
X7906848Y-13222555D01*
X7906848Y-13222555D02*
X7887801Y-13241603D01*
X7887801Y-13241603D02*
X7868753Y-13251127D01*
X8068753Y-13374936D02*
X8078277Y-13384460D01*
X8078277Y-13384460D02*
X8068753Y-13393984D01*
X8068753Y-13393984D02*
X8059229Y-13384460D01*
X8059229Y-13384460D02*
X8068753Y-13374936D01*
X8068753Y-13374936D02*
X8068753Y-13393984D01*
X8259229Y-13193984D02*
X8163991Y-13193984D01*
X8163991Y-13193984D02*
X8154467Y-13289222D01*
X8154467Y-13289222D02*
X8163991Y-13279698D01*
X8163991Y-13279698D02*
X8183039Y-13270174D01*
X8183039Y-13270174D02*
X8230658Y-13270174D01*
X8230658Y-13270174D02*
X8249705Y-13279698D01*
X8249705Y-13279698D02*
X8259229Y-13289222D01*
X8259229Y-13289222D02*
X8268753Y-13308269D01*
X8268753Y-13308269D02*
X8268753Y-13355888D01*
X8268753Y-13355888D02*
X8259229Y-13374936D01*
X8259229Y-13374936D02*
X8249705Y-13384460D01*
X8249705Y-13384460D02*
X8230658Y-13393984D01*
X8230658Y-13393984D02*
X8183039Y-13393984D01*
X8183039Y-13393984D02*
X8163991Y-13384460D01*
X8163991Y-13384460D02*
X8154467Y-13374936D01*
X8392563Y-13193984D02*
X8411610Y-13193984D01*
X8411610Y-13193984D02*
X8430658Y-13203508D01*
X8430658Y-13203508D02*
X8440182Y-13213031D01*
X8440182Y-13213031D02*
X8449705Y-13232079D01*
X8449705Y-13232079D02*
X8459229Y-13270174D01*
X8459229Y-13270174D02*
X8459229Y-13317793D01*
X8459229Y-13317793D02*
X8449705Y-13355888D01*
X8449705Y-13355888D02*
X8440182Y-13374936D01*
X8440182Y-13374936D02*
X8430658Y-13384460D01*
X8430658Y-13384460D02*
X8411610Y-13393984D01*
X8411610Y-13393984D02*
X8392563Y-13393984D01*
X8392563Y-13393984D02*
X8373515Y-13384460D01*
X8373515Y-13384460D02*
X8363991Y-13374936D01*
X8363991Y-13374936D02*
X8354467Y-13355888D01*
X8354467Y-13355888D02*
X8344943Y-13317793D01*
X8344943Y-13317793D02*
X8344943Y-13270174D01*
X8344943Y-13270174D02*
X8354467Y-13232079D01*
X8354467Y-13232079D02*
X8363991Y-13213031D01*
X8363991Y-13213031D02*
X8373515Y-13203508D01*
X8373515Y-13203508D02*
X8392563Y-13193984D01*
X8583039Y-13193984D02*
X8602086Y-13193984D01*
X8602086Y-13193984D02*
X8621134Y-13203508D01*
X8621134Y-13203508D02*
X8630658Y-13213031D01*
X8630658Y-13213031D02*
X8640182Y-13232079D01*
X8640182Y-13232079D02*
X8649705Y-13270174D01*
X8649705Y-13270174D02*
X8649705Y-13317793D01*
X8649705Y-13317793D02*
X8640182Y-13355888D01*
X8640182Y-13355888D02*
X8630658Y-13374936D01*
X8630658Y-13374936D02*
X8621134Y-13384460D01*
X8621134Y-13384460D02*
X8602086Y-13393984D01*
X8602086Y-13393984D02*
X8583039Y-13393984D01*
X8583039Y-13393984D02*
X8563991Y-13384460D01*
X8563991Y-13384460D02*
X8554467Y-13374936D01*
X8554467Y-13374936D02*
X8544944Y-13355888D01*
X8544944Y-13355888D02*
X8535420Y-13317793D01*
X8535420Y-13317793D02*
X8535420Y-13270174D01*
X8535420Y-13270174D02*
X8544944Y-13232079D01*
X8544944Y-13232079D02*
X8554467Y-13213031D01*
X8554467Y-13213031D02*
X8563991Y-13203508D01*
X8563991Y-13203508D02*
X8583039Y-13193984D01*
X8735420Y-13393984D02*
X8735420Y-13260650D01*
X8735420Y-13279698D02*
X8744944Y-13270174D01*
X8744944Y-13270174D02*
X8763991Y-13260650D01*
X8763991Y-13260650D02*
X8792563Y-13260650D01*
X8792563Y-13260650D02*
X8811610Y-13270174D01*
X8811610Y-13270174D02*
X8821134Y-13289222D01*
X8821134Y-13289222D02*
X8821134Y-13393984D01*
X8821134Y-13289222D02*
X8830658Y-13270174D01*
X8830658Y-13270174D02*
X8849705Y-13260650D01*
X8849705Y-13260650D02*
X8878277Y-13260650D01*
X8878277Y-13260650D02*
X8897325Y-13270174D01*
X8897325Y-13270174D02*
X8906848Y-13289222D01*
X8906848Y-13289222D02*
X8906848Y-13393984D01*
X9002086Y-13393984D02*
X9002086Y-13260650D01*
X9002086Y-13279698D02*
X9011610Y-13270174D01*
X9011610Y-13270174D02*
X9030658Y-13260650D01*
X9030658Y-13260650D02*
X9059229Y-13260650D01*
X9059229Y-13260650D02*
X9078277Y-13270174D01*
X9078277Y-13270174D02*
X9087801Y-13289222D01*
X9087801Y-13289222D02*
X9087801Y-13393984D01*
X9087801Y-13289222D02*
X9097325Y-13270174D01*
X9097325Y-13270174D02*
X9116372Y-13260650D01*
X9116372Y-13260650D02*
X9144944Y-13260650D01*
X9144944Y-13260650D02*
X9163991Y-13270174D01*
X9163991Y-13270174D02*
X9173515Y-13289222D01*
X9173515Y-13289222D02*
X9173515Y-13393984D01*
X9563991Y-13184460D02*
X9392563Y-13441603D01*
X9821134Y-13193984D02*
X9840182Y-13193984D01*
X9840182Y-13193984D02*
X9859229Y-13203508D01*
X9859229Y-13203508D02*
X9868753Y-13213031D01*
X9868753Y-13213031D02*
X9878277Y-13232079D01*
X9878277Y-13232079D02*
X9887801Y-13270174D01*
X9887801Y-13270174D02*
X9887801Y-13317793D01*
X9887801Y-13317793D02*
X9878277Y-13355888D01*
X9878277Y-13355888D02*
X9868753Y-13374936D01*
X9868753Y-13374936D02*
X9859229Y-13384460D01*
X9859229Y-13384460D02*
X9840182Y-13393984D01*
X9840182Y-13393984D02*
X9821134Y-13393984D01*
X9821134Y-13393984D02*
X9802087Y-13384460D01*
X9802087Y-13384460D02*
X9792563Y-13374936D01*
X9792563Y-13374936D02*
X9783039Y-13355888D01*
X9783039Y-13355888D02*
X9773515Y-13317793D01*
X9773515Y-13317793D02*
X9773515Y-13270174D01*
X9773515Y-13270174D02*
X9783039Y-13232079D01*
X9783039Y-13232079D02*
X9792563Y-13213031D01*
X9792563Y-13213031D02*
X9802087Y-13203508D01*
X9802087Y-13203508D02*
X9821134Y-13193984D01*
X9973515Y-13374936D02*
X9983039Y-13384460D01*
X9983039Y-13384460D02*
X9973515Y-13393984D01*
X9973515Y-13393984D02*
X9963991Y-13384460D01*
X9963991Y-13384460D02*
X9973515Y-13374936D01*
X9973515Y-13374936D02*
X9973515Y-13393984D01*
X10106848Y-13193984D02*
X10125896Y-13193984D01*
X10125896Y-13193984D02*
X10144944Y-13203508D01*
X10144944Y-13203508D02*
X10154468Y-13213031D01*
X10154468Y-13213031D02*
X10163991Y-13232079D01*
X10163991Y-13232079D02*
X10173515Y-13270174D01*
X10173515Y-13270174D02*
X10173515Y-13317793D01*
X10173515Y-13317793D02*
X10163991Y-13355888D01*
X10163991Y-13355888D02*
X10154468Y-13374936D01*
X10154468Y-13374936D02*
X10144944Y-13384460D01*
X10144944Y-13384460D02*
X10125896Y-13393984D01*
X10125896Y-13393984D02*
X10106848Y-13393984D01*
X10106848Y-13393984D02*
X10087801Y-13384460D01*
X10087801Y-13384460D02*
X10078277Y-13374936D01*
X10078277Y-13374936D02*
X10068753Y-13355888D01*
X10068753Y-13355888D02*
X10059229Y-13317793D01*
X10059229Y-13317793D02*
X10059229Y-13270174D01*
X10059229Y-13270174D02*
X10068753Y-13232079D01*
X10068753Y-13232079D02*
X10078277Y-13213031D01*
X10078277Y-13213031D02*
X10087801Y-13203508D01*
X10087801Y-13203508D02*
X10106848Y-13193984D01*
X10354468Y-13193984D02*
X10259229Y-13193984D01*
X10259229Y-13193984D02*
X10249706Y-13289222D01*
X10249706Y-13289222D02*
X10259229Y-13279698D01*
X10259229Y-13279698D02*
X10278277Y-13270174D01*
X10278277Y-13270174D02*
X10325896Y-13270174D01*
X10325896Y-13270174D02*
X10344944Y-13279698D01*
X10344944Y-13279698D02*
X10354468Y-13289222D01*
X10354468Y-13289222D02*
X10363991Y-13308269D01*
X10363991Y-13308269D02*
X10363991Y-13355888D01*
X10363991Y-13355888D02*
X10354468Y-13374936D01*
X10354468Y-13374936D02*
X10344944Y-13384460D01*
X10344944Y-13384460D02*
X10325896Y-13393984D01*
X10325896Y-13393984D02*
X10278277Y-13393984D01*
X10278277Y-13393984D02*
X10259229Y-13384460D01*
X10259229Y-13384460D02*
X10249706Y-13374936D01*
X10459229Y-13393984D02*
X10497325Y-13393984D01*
X10497325Y-13393984D02*
X10516372Y-13384460D01*
X10516372Y-13384460D02*
X10525896Y-13374936D01*
X10525896Y-13374936D02*
X10544944Y-13346365D01*
X10544944Y-13346365D02*
X10554468Y-13308269D01*
X10554468Y-13308269D02*
X10554468Y-13232079D01*
X10554468Y-13232079D02*
X10544944Y-13213031D01*
X10544944Y-13213031D02*
X10535420Y-13203508D01*
X10535420Y-13203508D02*
X10516372Y-13193984D01*
X10516372Y-13193984D02*
X10478277Y-13193984D01*
X10478277Y-13193984D02*
X10459229Y-13203508D01*
X10459229Y-13203508D02*
X10449706Y-13213031D01*
X10449706Y-13213031D02*
X10440182Y-13232079D01*
X10440182Y-13232079D02*
X10440182Y-13279698D01*
X10440182Y-13279698D02*
X10449706Y-13298746D01*
X10449706Y-13298746D02*
X10459229Y-13308269D01*
X10459229Y-13308269D02*
X10478277Y-13317793D01*
X10478277Y-13317793D02*
X10516372Y-13317793D01*
X10516372Y-13317793D02*
X10535420Y-13308269D01*
X10535420Y-13308269D02*
X10544944Y-13298746D01*
X10544944Y-13298746D02*
X10554468Y-13279698D01*
X10744944Y-13393984D02*
X10630658Y-13393984D01*
X10687801Y-13393984D02*
X10687801Y-13193984D01*
X10687801Y-13193984D02*
X10668753Y-13222555D01*
X10668753Y-13222555D02*
X10649706Y-13241603D01*
X10649706Y-13241603D02*
X10630658Y-13251127D01*
X10821134Y-13193984D02*
X10821134Y-13232079D01*
X10897325Y-13193984D02*
X10897325Y-13232079D01*
X11192563Y-13470174D02*
X11183039Y-13460650D01*
X11183039Y-13460650D02*
X11163991Y-13432079D01*
X11163991Y-13432079D02*
X11154468Y-13413031D01*
X11154468Y-13413031D02*
X11144944Y-13384460D01*
X11144944Y-13384460D02*
X11135420Y-13336841D01*
X11135420Y-13336841D02*
X11135420Y-13298746D01*
X11135420Y-13298746D02*
X11144944Y-13251127D01*
X11144944Y-13251127D02*
X11154468Y-13222555D01*
X11154468Y-13222555D02*
X11163991Y-13203508D01*
X11163991Y-13203508D02*
X11183039Y-13174936D01*
X11183039Y-13174936D02*
X11192563Y-13165412D01*
X11259229Y-13213031D02*
X11268753Y-13203508D01*
X11268753Y-13203508D02*
X11287801Y-13193984D01*
X11287801Y-13193984D02*
X11335420Y-13193984D01*
X11335420Y-13193984D02*
X11354468Y-13203508D01*
X11354468Y-13203508D02*
X11363991Y-13213031D01*
X11363991Y-13213031D02*
X11373515Y-13232079D01*
X11373515Y-13232079D02*
X11373515Y-13251127D01*
X11373515Y-13251127D02*
X11363991Y-13279698D01*
X11363991Y-13279698D02*
X11249706Y-13393984D01*
X11249706Y-13393984D02*
X11373515Y-13393984D01*
X11611610Y-13393984D02*
X11611610Y-13193984D01*
X11697325Y-13393984D02*
X11697325Y-13289222D01*
X11697325Y-13289222D02*
X11687801Y-13270174D01*
X11687801Y-13270174D02*
X11668753Y-13260650D01*
X11668753Y-13260650D02*
X11640182Y-13260650D01*
X11640182Y-13260650D02*
X11621134Y-13270174D01*
X11621134Y-13270174D02*
X11611610Y-13279698D01*
X11821134Y-13393984D02*
X11802087Y-13384460D01*
X11802087Y-13384460D02*
X11792563Y-13374936D01*
X11792563Y-13374936D02*
X11783039Y-13355888D01*
X11783039Y-13355888D02*
X11783039Y-13298746D01*
X11783039Y-13298746D02*
X11792563Y-13279698D01*
X11792563Y-13279698D02*
X11802087Y-13270174D01*
X11802087Y-13270174D02*
X11821134Y-13260650D01*
X11821134Y-13260650D02*
X11849706Y-13260650D01*
X11849706Y-13260650D02*
X11868753Y-13270174D01*
X11868753Y-13270174D02*
X11878277Y-13279698D01*
X11878277Y-13279698D02*
X11887801Y-13298746D01*
X11887801Y-13298746D02*
X11887801Y-13355888D01*
X11887801Y-13355888D02*
X11878277Y-13374936D01*
X11878277Y-13374936D02*
X11868753Y-13384460D01*
X11868753Y-13384460D02*
X11849706Y-13393984D01*
X11849706Y-13393984D02*
X11821134Y-13393984D01*
X12002087Y-13393984D02*
X11983039Y-13384460D01*
X11983039Y-13384460D02*
X11973515Y-13365412D01*
X11973515Y-13365412D02*
X11973515Y-13193984D01*
X12154468Y-13384460D02*
X12135420Y-13393984D01*
X12135420Y-13393984D02*
X12097325Y-13393984D01*
X12097325Y-13393984D02*
X12078277Y-13384460D01*
X12078277Y-13384460D02*
X12068753Y-13365412D01*
X12068753Y-13365412D02*
X12068753Y-13289222D01*
X12068753Y-13289222D02*
X12078277Y-13270174D01*
X12078277Y-13270174D02*
X12097325Y-13260650D01*
X12097325Y-13260650D02*
X12135420Y-13260650D01*
X12135420Y-13260650D02*
X12154468Y-13270174D01*
X12154468Y-13270174D02*
X12163991Y-13289222D01*
X12163991Y-13289222D02*
X12163991Y-13308269D01*
X12163991Y-13308269D02*
X12068753Y-13327317D01*
X12240182Y-13384460D02*
X12259230Y-13393984D01*
X12259230Y-13393984D02*
X12297325Y-13393984D01*
X12297325Y-13393984D02*
X12316372Y-13384460D01*
X12316372Y-13384460D02*
X12325896Y-13365412D01*
X12325896Y-13365412D02*
X12325896Y-13355888D01*
X12325896Y-13355888D02*
X12316372Y-13336841D01*
X12316372Y-13336841D02*
X12297325Y-13327317D01*
X12297325Y-13327317D02*
X12268753Y-13327317D01*
X12268753Y-13327317D02*
X12249706Y-13317793D01*
X12249706Y-13317793D02*
X12240182Y-13298746D01*
X12240182Y-13298746D02*
X12240182Y-13289222D01*
X12240182Y-13289222D02*
X12249706Y-13270174D01*
X12249706Y-13270174D02*
X12268753Y-13260650D01*
X12268753Y-13260650D02*
X12297325Y-13260650D01*
X12297325Y-13260650D02*
X12316372Y-13270174D01*
X12392563Y-13470174D02*
X12402087Y-13460650D01*
X12402087Y-13460650D02*
X12421134Y-13432079D01*
X12421134Y-13432079D02*
X12430658Y-13413031D01*
X12430658Y-13413031D02*
X12440182Y-13384460D01*
X12440182Y-13384460D02*
X12449706Y-13336841D01*
X12449706Y-13336841D02*
X12449706Y-13298746D01*
X12449706Y-13298746D02*
X12440182Y-13251127D01*
X12440182Y-13251127D02*
X12430658Y-13222555D01*
X12430658Y-13222555D02*
X12421134Y-13203508D01*
X12421134Y-13203508D02*
X12402087Y-13174936D01*
X12402087Y-13174936D02*
X12392563Y-13165412D01*
X7417500Y-13472500D02*
X7617500Y-13672500D01*
X7617500Y-13472500D02*
X7417500Y-13672500D01*
X7617500Y-13572500D02*
G75*
G02*
X7417500Y-13572500I-100000J0D01*
G01*
X7417500Y-13572500D02*
G75*
G02*
X7617500Y-13572500I100000J0D01*
G01*
X7963991Y-13530650D02*
X7963991Y-13663984D01*
X7916372Y-13454460D02*
X7868753Y-13597317D01*
X7868753Y-13597317D02*
X7992562Y-13597317D01*
X8068753Y-13644936D02*
X8078277Y-13654460D01*
X8078277Y-13654460D02*
X8068753Y-13663984D01*
X8068753Y-13663984D02*
X8059229Y-13654460D01*
X8059229Y-13654460D02*
X8068753Y-13644936D01*
X8068753Y-13644936D02*
X8068753Y-13663984D01*
X8259229Y-13463984D02*
X8163991Y-13463984D01*
X8163991Y-13463984D02*
X8154467Y-13559222D01*
X8154467Y-13559222D02*
X8163991Y-13549698D01*
X8163991Y-13549698D02*
X8183039Y-13540174D01*
X8183039Y-13540174D02*
X8230658Y-13540174D01*
X8230658Y-13540174D02*
X8249705Y-13549698D01*
X8249705Y-13549698D02*
X8259229Y-13559222D01*
X8259229Y-13559222D02*
X8268753Y-13578269D01*
X8268753Y-13578269D02*
X8268753Y-13625888D01*
X8268753Y-13625888D02*
X8259229Y-13644936D01*
X8259229Y-13644936D02*
X8249705Y-13654460D01*
X8249705Y-13654460D02*
X8230658Y-13663984D01*
X8230658Y-13663984D02*
X8183039Y-13663984D01*
X8183039Y-13663984D02*
X8163991Y-13654460D01*
X8163991Y-13654460D02*
X8154467Y-13644936D01*
X8392563Y-13463984D02*
X8411610Y-13463984D01*
X8411610Y-13463984D02*
X8430658Y-13473508D01*
X8430658Y-13473508D02*
X8440182Y-13483031D01*
X8440182Y-13483031D02*
X8449705Y-13502079D01*
X8449705Y-13502079D02*
X8459229Y-13540174D01*
X8459229Y-13540174D02*
X8459229Y-13587793D01*
X8459229Y-13587793D02*
X8449705Y-13625888D01*
X8449705Y-13625888D02*
X8440182Y-13644936D01*
X8440182Y-13644936D02*
X8430658Y-13654460D01*
X8430658Y-13654460D02*
X8411610Y-13663984D01*
X8411610Y-13663984D02*
X8392563Y-13663984D01*
X8392563Y-13663984D02*
X8373515Y-13654460D01*
X8373515Y-13654460D02*
X8363991Y-13644936D01*
X8363991Y-13644936D02*
X8354467Y-13625888D01*
X8354467Y-13625888D02*
X8344943Y-13587793D01*
X8344943Y-13587793D02*
X8344943Y-13540174D01*
X8344943Y-13540174D02*
X8354467Y-13502079D01*
X8354467Y-13502079D02*
X8363991Y-13483031D01*
X8363991Y-13483031D02*
X8373515Y-13473508D01*
X8373515Y-13473508D02*
X8392563Y-13463984D01*
X8583039Y-13463984D02*
X8602086Y-13463984D01*
X8602086Y-13463984D02*
X8621134Y-13473508D01*
X8621134Y-13473508D02*
X8630658Y-13483031D01*
X8630658Y-13483031D02*
X8640182Y-13502079D01*
X8640182Y-13502079D02*
X8649705Y-13540174D01*
X8649705Y-13540174D02*
X8649705Y-13587793D01*
X8649705Y-13587793D02*
X8640182Y-13625888D01*
X8640182Y-13625888D02*
X8630658Y-13644936D01*
X8630658Y-13644936D02*
X8621134Y-13654460D01*
X8621134Y-13654460D02*
X8602086Y-13663984D01*
X8602086Y-13663984D02*
X8583039Y-13663984D01*
X8583039Y-13663984D02*
X8563991Y-13654460D01*
X8563991Y-13654460D02*
X8554467Y-13644936D01*
X8554467Y-13644936D02*
X8544944Y-13625888D01*
X8544944Y-13625888D02*
X8535420Y-13587793D01*
X8535420Y-13587793D02*
X8535420Y-13540174D01*
X8535420Y-13540174D02*
X8544944Y-13502079D01*
X8544944Y-13502079D02*
X8554467Y-13483031D01*
X8554467Y-13483031D02*
X8563991Y-13473508D01*
X8563991Y-13473508D02*
X8583039Y-13463984D01*
X8735420Y-13663984D02*
X8735420Y-13530650D01*
X8735420Y-13549698D02*
X8744944Y-13540174D01*
X8744944Y-13540174D02*
X8763991Y-13530650D01*
X8763991Y-13530650D02*
X8792563Y-13530650D01*
X8792563Y-13530650D02*
X8811610Y-13540174D01*
X8811610Y-13540174D02*
X8821134Y-13559222D01*
X8821134Y-13559222D02*
X8821134Y-13663984D01*
X8821134Y-13559222D02*
X8830658Y-13540174D01*
X8830658Y-13540174D02*
X8849705Y-13530650D01*
X8849705Y-13530650D02*
X8878277Y-13530650D01*
X8878277Y-13530650D02*
X8897325Y-13540174D01*
X8897325Y-13540174D02*
X8906848Y-13559222D01*
X8906848Y-13559222D02*
X8906848Y-13663984D01*
X9002086Y-13663984D02*
X9002086Y-13530650D01*
X9002086Y-13549698D02*
X9011610Y-13540174D01*
X9011610Y-13540174D02*
X9030658Y-13530650D01*
X9030658Y-13530650D02*
X9059229Y-13530650D01*
X9059229Y-13530650D02*
X9078277Y-13540174D01*
X9078277Y-13540174D02*
X9087801Y-13559222D01*
X9087801Y-13559222D02*
X9087801Y-13663984D01*
X9087801Y-13559222D02*
X9097325Y-13540174D01*
X9097325Y-13540174D02*
X9116372Y-13530650D01*
X9116372Y-13530650D02*
X9144944Y-13530650D01*
X9144944Y-13530650D02*
X9163991Y-13540174D01*
X9163991Y-13540174D02*
X9173515Y-13559222D01*
X9173515Y-13559222D02*
X9173515Y-13663984D01*
X9563991Y-13454460D02*
X9392563Y-13711603D01*
X9821134Y-13463984D02*
X9840182Y-13463984D01*
X9840182Y-13463984D02*
X9859229Y-13473508D01*
X9859229Y-13473508D02*
X9868753Y-13483031D01*
X9868753Y-13483031D02*
X9878277Y-13502079D01*
X9878277Y-13502079D02*
X9887801Y-13540174D01*
X9887801Y-13540174D02*
X9887801Y-13587793D01*
X9887801Y-13587793D02*
X9878277Y-13625888D01*
X9878277Y-13625888D02*
X9868753Y-13644936D01*
X9868753Y-13644936D02*
X9859229Y-13654460D01*
X9859229Y-13654460D02*
X9840182Y-13663984D01*
X9840182Y-13663984D02*
X9821134Y-13663984D01*
X9821134Y-13663984D02*
X9802087Y-13654460D01*
X9802087Y-13654460D02*
X9792563Y-13644936D01*
X9792563Y-13644936D02*
X9783039Y-13625888D01*
X9783039Y-13625888D02*
X9773515Y-13587793D01*
X9773515Y-13587793D02*
X9773515Y-13540174D01*
X9773515Y-13540174D02*
X9783039Y-13502079D01*
X9783039Y-13502079D02*
X9792563Y-13483031D01*
X9792563Y-13483031D02*
X9802087Y-13473508D01*
X9802087Y-13473508D02*
X9821134Y-13463984D01*
X9973515Y-13644936D02*
X9983039Y-13654460D01*
X9983039Y-13654460D02*
X9973515Y-13663984D01*
X9973515Y-13663984D02*
X9963991Y-13654460D01*
X9963991Y-13654460D02*
X9973515Y-13644936D01*
X9973515Y-13644936D02*
X9973515Y-13663984D01*
X10173515Y-13663984D02*
X10059229Y-13663984D01*
X10116372Y-13663984D02*
X10116372Y-13463984D01*
X10116372Y-13463984D02*
X10097325Y-13492555D01*
X10097325Y-13492555D02*
X10078277Y-13511603D01*
X10078277Y-13511603D02*
X10059229Y-13521127D01*
X10240182Y-13463984D02*
X10373515Y-13463984D01*
X10373515Y-13463984D02*
X10287801Y-13663984D01*
X10430658Y-13463984D02*
X10563991Y-13463984D01*
X10563991Y-13463984D02*
X10478277Y-13663984D01*
X10630658Y-13483031D02*
X10640182Y-13473508D01*
X10640182Y-13473508D02*
X10659229Y-13463984D01*
X10659229Y-13463984D02*
X10706849Y-13463984D01*
X10706849Y-13463984D02*
X10725896Y-13473508D01*
X10725896Y-13473508D02*
X10735420Y-13483031D01*
X10735420Y-13483031D02*
X10744944Y-13502079D01*
X10744944Y-13502079D02*
X10744944Y-13521127D01*
X10744944Y-13521127D02*
X10735420Y-13549698D01*
X10735420Y-13549698D02*
X10621134Y-13663984D01*
X10621134Y-13663984D02*
X10744944Y-13663984D01*
X10821134Y-13463984D02*
X10821134Y-13502079D01*
X10897325Y-13463984D02*
X10897325Y-13502079D01*
X11192563Y-13740174D02*
X11183039Y-13730650D01*
X11183039Y-13730650D02*
X11163991Y-13702079D01*
X11163991Y-13702079D02*
X11154468Y-13683031D01*
X11154468Y-13683031D02*
X11144944Y-13654460D01*
X11144944Y-13654460D02*
X11135420Y-13606841D01*
X11135420Y-13606841D02*
X11135420Y-13568746D01*
X11135420Y-13568746D02*
X11144944Y-13521127D01*
X11144944Y-13521127D02*
X11154468Y-13492555D01*
X11154468Y-13492555D02*
X11163991Y-13473508D01*
X11163991Y-13473508D02*
X11183039Y-13444936D01*
X11183039Y-13444936D02*
X11192563Y-13435412D01*
X11259229Y-13483031D02*
X11268753Y-13473508D01*
X11268753Y-13473508D02*
X11287801Y-13463984D01*
X11287801Y-13463984D02*
X11335420Y-13463984D01*
X11335420Y-13463984D02*
X11354468Y-13473508D01*
X11354468Y-13473508D02*
X11363991Y-13483031D01*
X11363991Y-13483031D02*
X11373515Y-13502079D01*
X11373515Y-13502079D02*
X11373515Y-13521127D01*
X11373515Y-13521127D02*
X11363991Y-13549698D01*
X11363991Y-13549698D02*
X11249706Y-13663984D01*
X11249706Y-13663984D02*
X11373515Y-13663984D01*
X11611610Y-13663984D02*
X11611610Y-13463984D01*
X11697325Y-13663984D02*
X11697325Y-13559222D01*
X11697325Y-13559222D02*
X11687801Y-13540174D01*
X11687801Y-13540174D02*
X11668753Y-13530650D01*
X11668753Y-13530650D02*
X11640182Y-13530650D01*
X11640182Y-13530650D02*
X11621134Y-13540174D01*
X11621134Y-13540174D02*
X11611610Y-13549698D01*
X11821134Y-13663984D02*
X11802087Y-13654460D01*
X11802087Y-13654460D02*
X11792563Y-13644936D01*
X11792563Y-13644936D02*
X11783039Y-13625888D01*
X11783039Y-13625888D02*
X11783039Y-13568746D01*
X11783039Y-13568746D02*
X11792563Y-13549698D01*
X11792563Y-13549698D02*
X11802087Y-13540174D01*
X11802087Y-13540174D02*
X11821134Y-13530650D01*
X11821134Y-13530650D02*
X11849706Y-13530650D01*
X11849706Y-13530650D02*
X11868753Y-13540174D01*
X11868753Y-13540174D02*
X11878277Y-13549698D01*
X11878277Y-13549698D02*
X11887801Y-13568746D01*
X11887801Y-13568746D02*
X11887801Y-13625888D01*
X11887801Y-13625888D02*
X11878277Y-13644936D01*
X11878277Y-13644936D02*
X11868753Y-13654460D01*
X11868753Y-13654460D02*
X11849706Y-13663984D01*
X11849706Y-13663984D02*
X11821134Y-13663984D01*
X12002087Y-13663984D02*
X11983039Y-13654460D01*
X11983039Y-13654460D02*
X11973515Y-13635412D01*
X11973515Y-13635412D02*
X11973515Y-13463984D01*
X12154468Y-13654460D02*
X12135420Y-13663984D01*
X12135420Y-13663984D02*
X12097325Y-13663984D01*
X12097325Y-13663984D02*
X12078277Y-13654460D01*
X12078277Y-13654460D02*
X12068753Y-13635412D01*
X12068753Y-13635412D02*
X12068753Y-13559222D01*
X12068753Y-13559222D02*
X12078277Y-13540174D01*
X12078277Y-13540174D02*
X12097325Y-13530650D01*
X12097325Y-13530650D02*
X12135420Y-13530650D01*
X12135420Y-13530650D02*
X12154468Y-13540174D01*
X12154468Y-13540174D02*
X12163991Y-13559222D01*
X12163991Y-13559222D02*
X12163991Y-13578269D01*
X12163991Y-13578269D02*
X12068753Y-13597317D01*
X12240182Y-13654460D02*
X12259230Y-13663984D01*
X12259230Y-13663984D02*
X12297325Y-13663984D01*
X12297325Y-13663984D02*
X12316372Y-13654460D01*
X12316372Y-13654460D02*
X12325896Y-13635412D01*
X12325896Y-13635412D02*
X12325896Y-13625888D01*
X12325896Y-13625888D02*
X12316372Y-13606841D01*
X12316372Y-13606841D02*
X12297325Y-13597317D01*
X12297325Y-13597317D02*
X12268753Y-13597317D01*
X12268753Y-13597317D02*
X12249706Y-13587793D01*
X12249706Y-13587793D02*
X12240182Y-13568746D01*
X12240182Y-13568746D02*
X12240182Y-13559222D01*
X12240182Y-13559222D02*
X12249706Y-13540174D01*
X12249706Y-13540174D02*
X12268753Y-13530650D01*
X12268753Y-13530650D02*
X12297325Y-13530650D01*
X12297325Y-13530650D02*
X12316372Y-13540174D01*
X12392563Y-13740174D02*
X12402087Y-13730650D01*
X12402087Y-13730650D02*
X12421134Y-13702079D01*
X12421134Y-13702079D02*
X12430658Y-13683031D01*
X12430658Y-13683031D02*
X12440182Y-13654460D01*
X12440182Y-13654460D02*
X12449706Y-13606841D01*
X12449706Y-13606841D02*
X12449706Y-13568746D01*
X12449706Y-13568746D02*
X12440182Y-13521127D01*
X12440182Y-13521127D02*
X12430658Y-13492555D01*
X12430658Y-13492555D02*
X12421134Y-13473508D01*
X12421134Y-13473508D02*
X12402087Y-13444936D01*
X12402087Y-13444936D02*
X12392563Y-13435412D01*
M02*
