%TF.GenerationSoftware,KiCad,Pcbnew,8.0.5*%
%TF.CreationDate,2024-10-08T22:01:25+02:00*%
%TF.ProjectId,ESP32_Controller,45535033-325f-4436-9f6e-74726f6c6c65,rev?*%
%TF.SameCoordinates,Original*%
%TF.FileFunction,Copper,L1,Top*%
%TF.FilePolarity,Positive*%
%FSLAX46Y46*%
G04 Gerber Fmt 4.6, Leading zero omitted, Abs format (unit mm)*
G04 Created by KiCad (PCBNEW 8.0.5) date 2024-10-08 22:01:25*
%MOMM*%
%LPD*%
G01*
G04 APERTURE LIST*
G04 Aperture macros list*
%AMRoundRect*
0 Rectangle with rounded corners*
0 $1 Rounding radius*
0 $2 $3 $4 $5 $6 $7 $8 $9 X,Y pos of 4 corners*
0 Add a 4 corners polygon primitive as box body*
4,1,4,$2,$3,$4,$5,$6,$7,$8,$9,$2,$3,0*
0 Add four circle primitives for the rounded corners*
1,1,$1+$1,$2,$3*
1,1,$1+$1,$4,$5*
1,1,$1+$1,$6,$7*
1,1,$1+$1,$8,$9*
0 Add four rect primitives between the rounded corners*
20,1,$1+$1,$2,$3,$4,$5,0*
20,1,$1+$1,$4,$5,$6,$7,0*
20,1,$1+$1,$6,$7,$8,$9,0*
20,1,$1+$1,$8,$9,$2,$3,0*%
%AMFreePoly0*
4,1,14,0.603536,0.603536,0.605000,0.600000,0.605000,-0.600000,0.603536,-0.603536,0.600000,-0.605000,-0.600000,-0.605000,-0.603536,-0.603536,-0.605000,-0.600000,-0.605000,0.000000,-0.603536,0.003536,-0.003536,0.603536,0.000000,0.605000,0.600000,0.605000,0.603536,0.603536,0.603536,0.603536,$1*%
G04 Aperture macros list end*
%TA.AperFunction,SMDPad,CuDef*%
%ADD10R,0.800000X0.800000*%
%TD*%
%TA.AperFunction,SMDPad,CuDef*%
%ADD11R,1.200000X1.200000*%
%TD*%
%TA.AperFunction,SMDPad,CuDef*%
%ADD12FreePoly0,0.000000*%
%TD*%
%TA.AperFunction,SMDPad,CuDef*%
%ADD13R,0.400000X0.800000*%
%TD*%
%TA.AperFunction,SMDPad,CuDef*%
%ADD14R,0.800000X0.400000*%
%TD*%
%TA.AperFunction,SMDPad,CuDef*%
%ADD15R,0.650000X1.050000*%
%TD*%
%TA.AperFunction,SMDPad,CuDef*%
%ADD16RoundRect,0.250000X2.050000X0.300000X-2.050000X0.300000X-2.050000X-0.300000X2.050000X-0.300000X0*%
%TD*%
%TA.AperFunction,SMDPad,CuDef*%
%ADD17RoundRect,0.250000X2.025000X2.375000X-2.025000X2.375000X-2.025000X-2.375000X2.025000X-2.375000X0*%
%TD*%
%TA.AperFunction,SMDPad,CuDef*%
%ADD18RoundRect,0.250002X4.449998X5.149998X-4.449998X5.149998X-4.449998X-5.149998X4.449998X-5.149998X0*%
%TD*%
%TA.AperFunction,SMDPad,CuDef*%
%ADD19R,0.625000X0.250000*%
%TD*%
%TA.AperFunction,SMDPad,CuDef*%
%ADD20R,0.700000X0.450000*%
%TD*%
%TA.AperFunction,SMDPad,CuDef*%
%ADD21R,0.575000X0.450000*%
%TD*%
%TA.AperFunction,SMDPad,CuDef*%
%ADD22RoundRect,0.075000X-0.350000X-0.075000X0.350000X-0.075000X0.350000X0.075000X-0.350000X0.075000X0*%
%TD*%
%TA.AperFunction,SMDPad,CuDef*%
%ADD23RoundRect,0.075000X0.075000X-0.350000X0.075000X0.350000X-0.075000X0.350000X-0.075000X-0.350000X0*%
%TD*%
%TA.AperFunction,SMDPad,CuDef*%
%ADD24RoundRect,0.093750X-0.106250X0.093750X-0.106250X-0.093750X0.106250X-0.093750X0.106250X0.093750X0*%
%TD*%
%TA.AperFunction,HeatsinkPad*%
%ADD25R,1.600000X1.000000*%
%TD*%
%TA.AperFunction,ComponentPad*%
%ADD26O,2.200000X3.500000*%
%TD*%
%TA.AperFunction,ComponentPad*%
%ADD27R,1.500000X2.500000*%
%TD*%
%TA.AperFunction,ComponentPad*%
%ADD28O,1.500000X2.500000*%
%TD*%
%TA.AperFunction,SMDPad,CuDef*%
%ADD29RoundRect,0.200000X0.200000X0.275000X-0.200000X0.275000X-0.200000X-0.275000X0.200000X-0.275000X0*%
%TD*%
%TA.AperFunction,SMDPad,CuDef*%
%ADD30RoundRect,0.200000X-0.200000X-0.275000X0.200000X-0.275000X0.200000X0.275000X-0.200000X0.275000X0*%
%TD*%
%TA.AperFunction,SMDPad,CuDef*%
%ADD31RoundRect,0.200000X-0.275000X0.200000X-0.275000X-0.200000X0.275000X-0.200000X0.275000X0.200000X0*%
%TD*%
%TA.AperFunction,SMDPad,CuDef*%
%ADD32RoundRect,0.200000X0.275000X-0.200000X0.275000X0.200000X-0.275000X0.200000X-0.275000X-0.200000X0*%
%TD*%
%TA.AperFunction,ComponentPad*%
%ADD33R,1.700000X1.700000*%
%TD*%
%TA.AperFunction,ComponentPad*%
%ADD34O,1.700000X1.700000*%
%TD*%
%TA.AperFunction,ComponentPad*%
%ADD35C,6.000000*%
%TD*%
%TA.AperFunction,ComponentPad*%
%ADD36RoundRect,1.500000X1.500000X-1.500000X1.500000X1.500000X-1.500000X1.500000X-1.500000X-1.500000X0*%
%TD*%
%TA.AperFunction,SMDPad,CuDef*%
%ADD37RoundRect,0.150000X-0.425000X0.150000X-0.425000X-0.150000X0.425000X-0.150000X0.425000X0.150000X0*%
%TD*%
%TA.AperFunction,SMDPad,CuDef*%
%ADD38RoundRect,0.075000X-0.500000X0.075000X-0.500000X-0.075000X0.500000X-0.075000X0.500000X0.075000X0*%
%TD*%
%TA.AperFunction,ComponentPad*%
%ADD39O,2.100000X1.000000*%
%TD*%
%TA.AperFunction,ComponentPad*%
%ADD40O,1.800000X1.000000*%
%TD*%
%TA.AperFunction,SMDPad,CuDef*%
%ADD41RoundRect,0.218750X0.256250X-0.218750X0.256250X0.218750X-0.256250X0.218750X-0.256250X-0.218750X0*%
%TD*%
%TA.AperFunction,SMDPad,CuDef*%
%ADD42RoundRect,0.225000X-0.250000X0.225000X-0.250000X-0.225000X0.250000X-0.225000X0.250000X0.225000X0*%
%TD*%
%TA.AperFunction,SMDPad,CuDef*%
%ADD43RoundRect,0.225000X0.250000X-0.225000X0.250000X0.225000X-0.250000X0.225000X-0.250000X-0.225000X0*%
%TD*%
%TA.AperFunction,SMDPad,CuDef*%
%ADD44RoundRect,0.250000X-0.250000X-0.475000X0.250000X-0.475000X0.250000X0.475000X-0.250000X0.475000X0*%
%TD*%
%TA.AperFunction,SMDPad,CuDef*%
%ADD45RoundRect,0.225000X-0.225000X-0.250000X0.225000X-0.250000X0.225000X0.250000X-0.225000X0.250000X0*%
%TD*%
%TA.AperFunction,SMDPad,CuDef*%
%ADD46RoundRect,0.225000X0.225000X0.250000X-0.225000X0.250000X-0.225000X-0.250000X0.225000X-0.250000X0*%
%TD*%
%TA.AperFunction,SMDPad,CuDef*%
%ADD47R,3.400000X1.300000*%
%TD*%
%TA.AperFunction,SMDPad,CuDef*%
%ADD48R,0.900000X1.500000*%
%TD*%
%TA.AperFunction,ViaPad*%
%ADD49C,0.500000*%
%TD*%
%TA.AperFunction,Conductor*%
%ADD50C,0.304800*%
%TD*%
%TA.AperFunction,Conductor*%
%ADD51C,0.152400*%
%TD*%
%TA.AperFunction,Conductor*%
%ADD52C,1.016000*%
%TD*%
%TA.AperFunction,Conductor*%
%ADD53C,0.990600*%
%TD*%
%TA.AperFunction,Conductor*%
%ADD54C,0.254000*%
%TD*%
%TA.AperFunction,Conductor*%
%ADD55C,0.508000*%
%TD*%
%TA.AperFunction,Conductor*%
%ADD56C,0.381000*%
%TD*%
%TA.AperFunction,Conductor*%
%ADD57C,0.635000*%
%TD*%
%TA.AperFunction,Conductor*%
%ADD58C,0.889000*%
%TD*%
%TA.AperFunction,Conductor*%
%ADD59C,0.203200*%
%TD*%
%TA.AperFunction,Conductor*%
%ADD60C,1.498600*%
%TD*%
%TA.AperFunction,Conductor*%
%ADD61C,0.145819*%
%TD*%
G04 APERTURE END LIST*
D10*
%TO.P,U5,65,GND*%
%TO.N,GND*%
X103380000Y-66790000D03*
%TO.P,U5,64,GND*%
X103380000Y-80790000D03*
%TO.P,U5,63,GND*%
X89380000Y-80790000D03*
%TO.P,U5,62,GND*%
X89380000Y-66790000D03*
D11*
%TO.P,U5,61,GND*%
X94730000Y-73790000D03*
X94730000Y-75440000D03*
X96380000Y-75440000D03*
X98030000Y-75440000D03*
X98030000Y-73790000D03*
X98030000Y-72140000D03*
X96380000Y-72140000D03*
D12*
X94730000Y-72140000D03*
D11*
X96380000Y-73790000D03*
D13*
%TO.P,U5,60,GND*%
X90430000Y-66790000D03*
%TO.P,U5,59,GND*%
X91280000Y-66790000D03*
%TO.P,U5,58,GND*%
X92130000Y-66790000D03*
%TO.P,U5,57,GND*%
X92980000Y-66790000D03*
%TO.P,U5,56,GND*%
X93830000Y-66790000D03*
%TO.P,U5,55,GND*%
X94680000Y-66790000D03*
%TO.P,U5,54,GND*%
X95530000Y-66790000D03*
%TO.P,U5,53,GND*%
X96380000Y-66790000D03*
%TO.P,U5,52,GND*%
X97230000Y-66790000D03*
%TO.P,U5,51,GND*%
X98080000Y-66790000D03*
%TO.P,U5,50,GND*%
X98930000Y-66790000D03*
%TO.P,U5,49,GND*%
X99780000Y-66790000D03*
%TO.P,U5,48,GND*%
X100630000Y-66790000D03*
%TO.P,U5,47,GND*%
X101480000Y-66790000D03*
%TO.P,U5,46,GND*%
X102330000Y-66790000D03*
D14*
%TO.P,U5,45,EN*%
%TO.N,/ESP32_EN*%
X103380000Y-67840000D03*
%TO.P,U5,44,IO46*%
%TO.N,unconnected-(U5-IO46-Pad44)*%
X103380000Y-68690000D03*
%TO.P,U5,43,GND*%
%TO.N,GND*%
X103380000Y-69540000D03*
%TO.P,U5,42,GND*%
X103380000Y-70390000D03*
%TO.P,U5,41,IO45*%
%TO.N,unconnected-(U5-IO45-Pad41)*%
X103380000Y-71240000D03*
%TO.P,U5,40,RXD0*%
%TO.N,unconnected-(U5-RXD0-Pad40)*%
X103380000Y-72090000D03*
%TO.P,U5,39,TXD0*%
%TO.N,unconnected-(U5-TXD0-Pad39)*%
X103380000Y-72940000D03*
%TO.P,U5,38,IO42*%
%TO.N,unconnected-(U5-IO42-Pad38)*%
X103380000Y-73790000D03*
%TO.P,U5,37,IO41*%
%TO.N,unconnected-(U5-IO41-Pad37)*%
X103380000Y-74640000D03*
%TO.P,U5,36,IO40*%
%TO.N,unconnected-(U5-IO40-Pad36)*%
X103380000Y-75490000D03*
%TO.P,U5,35,IO39*%
%TO.N,unconnected-(U5-IO39-Pad35)*%
X103380000Y-76340000D03*
%TO.P,U5,34,IO38*%
%TO.N,unconnected-(U5-IO38-Pad34)*%
X103380000Y-77190000D03*
%TO.P,U5,33,IO37*%
%TO.N,unconnected-(U5-IO37-Pad33)*%
X103380000Y-78040000D03*
%TO.P,U5,32,IO36*%
%TO.N,unconnected-(U5-IO36-Pad32)*%
X103380000Y-78890000D03*
%TO.P,U5,31,IO35*%
%TO.N,unconnected-(U5-IO35-Pad31)*%
X103380000Y-79740000D03*
D13*
%TO.P,U5,30,IO48*%
%TO.N,/GPIO48*%
X102330000Y-80790000D03*
%TO.P,U5,29,IO34*%
%TO.N,/I2C_SCL*%
X101480000Y-80790000D03*
%TO.P,U5,28,IO33*%
%TO.N,/I2C_SDA*%
X100630000Y-80790000D03*
%TO.P,U5,27,IO47*%
%TO.N,/GPIO47*%
X99780000Y-80790000D03*
%TO.P,U5,26,IO26*%
%TO.N,unconnected-(U5-IO26-Pad26)*%
X98930000Y-80790000D03*
%TO.P,U5,25,IO21*%
%TO.N,unconnected-(U5-IO21-Pad25)*%
X98080000Y-80790000D03*
%TO.P,U5,24,IO20*%
%TO.N,/USB_P*%
X97230000Y-80790000D03*
%TO.P,U5,23,IO19*%
%TO.N,/USB_N*%
X96380000Y-80790000D03*
%TO.P,U5,22,IO18*%
%TO.N,unconnected-(U5-IO18-Pad22)*%
X95530000Y-80790000D03*
%TO.P,U5,21,IO17*%
%TO.N,unconnected-(U5-IO17-Pad21)*%
X94680000Y-80790000D03*
%TO.P,U5,20,IO16*%
%TO.N,unconnected-(U5-IO16-Pad20)*%
X93830000Y-80790000D03*
%TO.P,U5,19,IO15*%
%TO.N,unconnected-(U5-IO15-Pad19)*%
X92980000Y-80790000D03*
%TO.P,U5,18,IO14*%
%TO.N,unconnected-(U5-IO14-Pad18)*%
X92130000Y-80790000D03*
%TO.P,U5,17,IO13*%
%TO.N,unconnected-(U5-IO13-Pad17)*%
X91280000Y-80790000D03*
%TO.P,U5,16,IO12*%
%TO.N,unconnected-(U5-IO12-Pad16)*%
X90430000Y-80790000D03*
D14*
%TO.P,U5,15,IO11*%
%TO.N,unconnected-(U5-IO11-Pad15)*%
X89380000Y-79740000D03*
%TO.P,U5,14,IO10*%
%TO.N,unconnected-(U5-IO10-Pad14)*%
X89380000Y-78890000D03*
%TO.P,U5,13,IO9*%
%TO.N,unconnected-(U5-IO9-Pad13)*%
X89380000Y-78040000D03*
%TO.P,U5,12,IO8*%
%TO.N,unconnected-(U5-IO8-Pad12)*%
X89380000Y-77190000D03*
%TO.P,U5,11,IO7*%
%TO.N,unconnected-(U5-IO7-Pad11)*%
X89380000Y-76340000D03*
%TO.P,U5,10,IO6*%
%TO.N,unconnected-(U5-IO6-Pad10)*%
X89380000Y-75490000D03*
%TO.P,U5,9,IO5*%
%TO.N,unconnected-(U5-IO5-Pad9)*%
X89380000Y-74640000D03*
%TO.P,U5,8,IO4*%
%TO.N,unconnected-(U5-IO4-Pad8)*%
X89380000Y-73790000D03*
%TO.P,U5,7,IO3*%
%TO.N,/GPIO3*%
X89380000Y-72940000D03*
%TO.P,U5,6,IO2*%
%TO.N,/GPIO2*%
X89380000Y-72090000D03*
%TO.P,U5,5,IO1*%
%TO.N,/GPIO1*%
X89380000Y-71240000D03*
%TO.P,U5,4,IO0*%
%TO.N,/GPIO0*%
X89380000Y-70390000D03*
%TO.P,U5,3,3V3*%
%TO.N,+3V3*%
X89380000Y-69540000D03*
%TO.P,U5,2,GND*%
%TO.N,GND*%
X89380000Y-68690000D03*
%TO.P,U5,1,GND*%
X89380000Y-67840000D03*
%TD*%
D15*
%TO.P,RESET1,1,1*%
%TO.N,GND*%
X109285000Y-76395000D03*
%TO.P,RESET1,2,2*%
X109285000Y-80545000D03*
%TO.P,RESET1,3,K*%
%TO.N,/ESP32_EN*%
X107135000Y-76395000D03*
%TO.P,RESET1,4,A*%
X107135000Y-80545000D03*
%TD*%
%TO.P,BOOT1,1,1*%
%TO.N,GND*%
X83755000Y-71065000D03*
%TO.P,BOOT1,2,2*%
X83755000Y-66915000D03*
%TO.P,BOOT1,3,K*%
%TO.N,/GPIO0*%
X85905000Y-71065000D03*
%TO.P,BOOT1,4,A*%
X85905000Y-66915000D03*
%TD*%
D16*
%TO.P,U4,3,IN*%
%TO.N,Net-(J2-Pin_2)*%
X90330000Y-101350000D03*
D17*
%TO.P,U4,2,OUT*%
%TO.N,/5VBAT*%
X78755000Y-101115000D03*
X78755000Y-106665000D03*
D18*
X81180000Y-103890000D03*
D17*
X83605000Y-101115000D03*
X83605000Y-106665000D03*
D16*
%TO.P,U4,1,ADJ/GND*%
%TO.N,GND*%
X90330000Y-106430000D03*
%TD*%
D19*
%TO.P,U3,1*%
%TO.N,/USB_P*%
X86080000Y-88390000D03*
%TO.P,U3,2*%
%TO.N,/USB_N*%
X86079999Y-87890000D03*
D20*
%TO.P,U3,3,VSS*%
%TO.N,GND*%
X86042499Y-87390000D03*
D19*
%TO.P,U3,4*%
%TO.N,/5VUSB*%
X86079999Y-86890000D03*
%TO.P,U3,5*%
%TO.N,unconnected-(U3-Pad5)*%
X86080000Y-86390000D03*
%TO.P,U3,6,NC*%
%TO.N,unconnected-(U3-NC-Pad6)*%
X85305000Y-86390000D03*
%TO.P,U3,7,NC*%
%TO.N,/5VUSB*%
X85305001Y-86890000D03*
D21*
%TO.P,U3,8,VSS*%
%TO.N,GND*%
X85279999Y-87390000D03*
D19*
%TO.P,U3,9,NC*%
%TO.N,/USB_N*%
X85305001Y-87890000D03*
%TO.P,U3,10,NC*%
%TO.N,/USB_P*%
X85305000Y-88390000D03*
%TD*%
D22*
%TO.P,U2,1,CLKIN*%
%TO.N,GND*%
X94600000Y-88300000D03*
%TO.P,U2,2,NC*%
%TO.N,unconnected-(U2-NC-Pad2)*%
X94600000Y-88800000D03*
%TO.P,U2,3,NC*%
%TO.N,unconnected-(U2-NC-Pad3)*%
X94600000Y-89300000D03*
%TO.P,U2,4,NC*%
%TO.N,unconnected-(U2-NC-Pad4)*%
X94600000Y-89800000D03*
%TO.P,U2,5,NC*%
%TO.N,unconnected-(U2-NC-Pad5)*%
X94600000Y-90300000D03*
%TO.P,U2,6,AUX_DA*%
%TO.N,unconnected-(U2-AUX_DA-Pad6)*%
X94600000Y-90800000D03*
D23*
%TO.P,U2,7,AUX_CL*%
%TO.N,unconnected-(U2-AUX_CL-Pad7)*%
X95300000Y-91500000D03*
%TO.P,U2,8,VLOGIC*%
%TO.N,+3V3*%
X95800000Y-91500000D03*
%TO.P,U2,9,AD0*%
%TO.N,unconnected-(U2-AD0-Pad9)*%
X96300000Y-91500000D03*
%TO.P,U2,10,REGOUT*%
%TO.N,Net-(U2-REGOUT)*%
X96800000Y-91500000D03*
%TO.P,U2,11,FSYNC*%
%TO.N,GND*%
X97300000Y-91500000D03*
%TO.P,U2,12,INT*%
%TO.N,unconnected-(U2-INT-Pad12)*%
X97800000Y-91500000D03*
D22*
%TO.P,U2,13,VDD*%
%TO.N,+3V3*%
X98500000Y-90800000D03*
%TO.P,U2,14,NC*%
%TO.N,unconnected-(U2-NC-Pad14)*%
X98500000Y-90300000D03*
%TO.P,U2,15,NC*%
%TO.N,unconnected-(U2-NC-Pad15)*%
X98500000Y-89800000D03*
%TO.P,U2,16,NC*%
%TO.N,unconnected-(U2-NC-Pad16)*%
X98500000Y-89300000D03*
%TO.P,U2,17,NC*%
%TO.N,unconnected-(U2-NC-Pad17)*%
X98500000Y-88800000D03*
%TO.P,U2,18,GND*%
%TO.N,GND*%
X98500000Y-88300000D03*
D23*
%TO.P,U2,19,RESV*%
%TO.N,unconnected-(U2-RESV-Pad19)*%
X97800000Y-87600000D03*
%TO.P,U2,20,CPOUT*%
%TO.N,Net-(U2-CPOUT)*%
X97300000Y-87600000D03*
%TO.P,U2,21,RESV*%
%TO.N,unconnected-(U2-RESV-Pad21)*%
X96800000Y-87600000D03*
%TO.P,U2,22,RESV*%
%TO.N,unconnected-(U2-RESV-Pad22)*%
X96300000Y-87600000D03*
%TO.P,U2,23,SCL*%
%TO.N,/I2C_SCL*%
X95800000Y-87600000D03*
%TO.P,U2,24,SDA*%
%TO.N,/I2C_SDA*%
X95300000Y-87600000D03*
%TD*%
D24*
%TO.P,U1,1,OUT*%
%TO.N,+3V3*%
X89100000Y-92320000D03*
%TO.P,U1,2,FB*%
%TO.N,Net-(U1-FB)*%
X88450000Y-92320000D03*
%TO.P,U1,3,GND*%
%TO.N,GND*%
X87800000Y-92320000D03*
%TO.P,U1,4,EN*%
%TO.N,+5V*%
X87800000Y-94095000D03*
%TO.P,U1,5,DNC*%
%TO.N,unconnected-(U1-DNC-Pad5)*%
X88450000Y-94095000D03*
%TO.P,U1,6,IN*%
%TO.N,+5V*%
X89100000Y-94095000D03*
D25*
%TO.P,U1,7,GND*%
%TO.N,GND*%
X88450000Y-93207500D03*
%TD*%
D26*
%TO.P,SW1,*%
%TO.N,*%
X85800000Y-95822500D03*
X77600000Y-95822500D03*
D27*
%TO.P,SW1,1,B*%
%TO.N,+5V*%
X83700000Y-95822500D03*
D28*
%TO.P,SW1,2,C*%
%TO.N,/5VUSB*%
X81700000Y-95822500D03*
%TO.P,SW1,3,A*%
%TO.N,/5VBAT*%
X79700000Y-95822500D03*
%TD*%
D29*
%TO.P,R8,1*%
%TO.N,/I2C_SCL*%
X99385000Y-84390000D03*
%TO.P,R8,2*%
%TO.N,+3V3*%
X97735000Y-84390000D03*
%TD*%
%TO.P,R7,1*%
%TO.N,/I2C_SDA*%
X99385000Y-82820000D03*
%TO.P,R7,2*%
%TO.N,+3V3*%
X97735000Y-82820000D03*
%TD*%
%TO.P,R6,1*%
%TO.N,/ESP32_EN*%
X108525000Y-74870000D03*
%TO.P,R6,2*%
%TO.N,+3V3*%
X106875000Y-74870000D03*
%TD*%
D30*
%TO.P,R5,2*%
%TO.N,Net-(D1-A)*%
X92175000Y-89207500D03*
%TO.P,R5,1*%
%TO.N,+3V3*%
X90525000Y-89207500D03*
%TD*%
D31*
%TO.P,R4,1*%
%TO.N,Net-(J1-CC2)*%
X85530000Y-89665000D03*
%TO.P,R4,2*%
%TO.N,GND*%
X85530000Y-91315000D03*
%TD*%
D30*
%TO.P,R3,2*%
%TO.N,GND*%
X89125000Y-89357500D03*
%TO.P,R3,1*%
%TO.N,Net-(U1-FB)*%
X87475000Y-89357500D03*
%TD*%
D29*
%TO.P,R2,2*%
%TO.N,Net-(U1-FB)*%
X87525000Y-90895000D03*
%TO.P,R2,1*%
%TO.N,+3V3*%
X89175000Y-90895000D03*
%TD*%
D32*
%TO.P,R1,1*%
%TO.N,Net-(J1-CC1)*%
X85680000Y-85090000D03*
%TO.P,R1,2*%
%TO.N,GND*%
X85680000Y-83440000D03*
%TD*%
D33*
%TO.P,J5,1,Pin_1*%
%TO.N,+5V*%
X78120000Y-80970000D03*
D34*
%TO.P,J5,2,Pin_2*%
%TO.N,GND*%
X80660000Y-80970000D03*
%TO.P,J5,3,Pin_3*%
%TO.N,/GPIO3*%
X83199999Y-80970000D03*
%TD*%
D33*
%TO.P,J4,1,Pin_1*%
%TO.N,+5V*%
X78119999Y-77330001D03*
D34*
%TO.P,J4,2,Pin_2*%
%TO.N,GND*%
X80659999Y-77330001D03*
%TO.P,J4,3,Pin_3*%
%TO.N,/GPIO2*%
X83199998Y-77330001D03*
%TD*%
%TO.P,J3,3,Pin_3*%
%TO.N,/GPIO1*%
X83190000Y-73690000D03*
%TO.P,J3,2,Pin_2*%
%TO.N,GND*%
X80650001Y-73690000D03*
D33*
%TO.P,J3,1,Pin_1*%
%TO.N,+5V*%
X78110001Y-73690000D03*
%TD*%
D35*
%TO.P,J2,2,Pin_2*%
%TO.N,Net-(J2-Pin_2)*%
X97530000Y-104340000D03*
D36*
%TO.P,J2,1,Pin_1*%
%TO.N,GND*%
X97530000Y-111540000D03*
%TD*%
D37*
%TO.P,J1,A1,GND*%
%TO.N,GND*%
X83655000Y-84900000D03*
%TO.P,J1,A4,VBUS*%
%TO.N,/5VUSB*%
X83655000Y-85700000D03*
D38*
%TO.P,J1,A5,CC1*%
%TO.N,Net-(J1-CC1)*%
X83655000Y-86850000D03*
%TO.P,J1,A6,D+*%
%TO.N,/USB_P*%
X83655000Y-87850000D03*
%TO.P,J1,A7,D-*%
%TO.N,/USB_N*%
X83655000Y-88350000D03*
%TO.P,J1,A8,SBU1*%
%TO.N,unconnected-(J1-SBU1-PadA8)*%
X83655000Y-89350000D03*
D37*
%TO.P,J1,A9,VBUS*%
%TO.N,/5VUSB*%
X83655000Y-90500000D03*
%TO.P,J1,A12,GND*%
%TO.N,GND*%
X83655000Y-91300000D03*
%TO.P,J1,B1,GND*%
X83655000Y-91300000D03*
%TO.P,J1,B4,VBUS*%
%TO.N,/5VUSB*%
X83655000Y-90500000D03*
D38*
%TO.P,J1,B5,CC2*%
%TO.N,Net-(J1-CC2)*%
X83655000Y-89850000D03*
%TO.P,J1,B6,D+*%
%TO.N,/USB_P*%
X83655000Y-88850000D03*
%TO.P,J1,B7,D-*%
%TO.N,/USB_N*%
X83655000Y-87350000D03*
%TO.P,J1,B8,SBU2*%
%TO.N,unconnected-(J1-SBU2-PadB8)*%
X83655000Y-86350000D03*
D37*
%TO.P,J1,B9,VBUS*%
%TO.N,/5VUSB*%
X83655000Y-85700000D03*
%TO.P,J1,B12,GND*%
%TO.N,GND*%
X83655000Y-84900000D03*
D39*
%TO.P,J1,S1,SHIELD*%
X83080000Y-83780000D03*
D40*
X78900000Y-83780000D03*
D39*
X83080000Y-92420000D03*
D40*
X78900000Y-92420000D03*
%TD*%
D41*
%TO.P,D1,2,A*%
%TO.N,Net-(D1-A)*%
X92250000Y-90719999D03*
%TO.P,D1,1,K*%
%TO.N,GND*%
X92250000Y-92295001D03*
%TD*%
D42*
%TO.P,C12,1*%
%TO.N,+3V3*%
X87430000Y-70215000D03*
%TO.P,C12,2*%
%TO.N,GND*%
X87430000Y-71765000D03*
%TD*%
D43*
%TO.P,C11,1*%
%TO.N,+3V3*%
X87430000Y-68665000D03*
%TO.P,C11,2*%
%TO.N,GND*%
X87430000Y-67115000D03*
%TD*%
D42*
%TO.P,C10,1*%
%TO.N,/ESP32_EN*%
X105610000Y-75695000D03*
%TO.P,C10,2*%
%TO.N,GND*%
X105610000Y-77245000D03*
%TD*%
%TO.P,C9,1*%
%TO.N,/GPIO0*%
X85920000Y-72565000D03*
%TO.P,C9,2*%
%TO.N,GND*%
X85920000Y-74115000D03*
%TD*%
D44*
%TO.P,C8,2*%
%TO.N,GND*%
X91129999Y-97090000D03*
%TO.P,C8,1*%
%TO.N,/5VBAT*%
X89230001Y-97090000D03*
%TD*%
%TO.P,C7,2*%
%TO.N,GND*%
X95609999Y-97840000D03*
%TO.P,C7,1*%
%TO.N,Net-(J2-Pin_2)*%
X93710001Y-97840000D03*
%TD*%
D45*
%TO.P,C6,1*%
%TO.N,Net-(U2-CPOUT)*%
X97625000Y-86150000D03*
%TO.P,C6,2*%
%TO.N,GND*%
X99175000Y-86150000D03*
%TD*%
%TO.P,C5,2*%
%TO.N,GND*%
X98625000Y-93320000D03*
%TO.P,C5,1*%
%TO.N,Net-(U2-REGOUT)*%
X97075000Y-93320000D03*
%TD*%
D43*
%TO.P,C4,2*%
%TO.N,GND*%
X90600000Y-90670000D03*
%TO.P,C4,1*%
%TO.N,+3V3*%
X90600000Y-92220000D03*
%TD*%
D46*
%TO.P,C3,2*%
%TO.N,GND*%
X94075000Y-92950000D03*
%TO.P,C3,1*%
%TO.N,+3V3*%
X95625000Y-92950000D03*
%TD*%
D42*
%TO.P,C2,1*%
%TO.N,GND*%
X99950000Y-88975000D03*
%TO.P,C2,2*%
%TO.N,+3V3*%
X99950000Y-90525000D03*
%TD*%
D45*
%TO.P,C1,1*%
%TO.N,+5V*%
X88155000Y-95290000D03*
%TO.P,C1,2*%
%TO.N,GND*%
X89705000Y-95290000D03*
%TD*%
D47*
%TO.P,BZ1,2,-*%
%TO.N,GND*%
X105460000Y-96719999D03*
%TO.P,BZ1,1,+*%
%TO.N,/GPIO47*%
X105460000Y-88020001D03*
%TD*%
D48*
%TO.P,D2,1,VDD*%
%TO.N,+3V3*%
X103680000Y-105970000D03*
%TO.P,D2,2,DOUT*%
%TO.N,unconnected-(D2-DOUT-Pad2)*%
X106980000Y-105970000D03*
%TO.P,D2,3,VSS*%
%TO.N,GND*%
X106980000Y-101070000D03*
%TO.P,D2,4,DIN*%
%TO.N,/GPIO48*%
X103680000Y-101070000D03*
%TD*%
D49*
%TO.N,+3V3*%
X88400000Y-69280000D03*
X103470000Y-107120000D03*
X106210000Y-74490000D03*
X97030000Y-83690000D03*
%TO.N,GND*%
X86750000Y-87490000D03*
%TO.N,+3V3*%
X89920000Y-88820000D03*
X89730000Y-91770000D03*
X95770000Y-92280000D03*
%TO.N,GND*%
X81460000Y-74700000D03*
X79710000Y-72710000D03*
X79840000Y-76330000D03*
X81420000Y-78410000D03*
X81470000Y-81960000D03*
X80170000Y-79820000D03*
X83645361Y-82847300D03*
X82730000Y-82800000D03*
X78470000Y-82780000D03*
X77680000Y-83240000D03*
X78590000Y-93390000D03*
X79340000Y-93420000D03*
X83220000Y-93340000D03*
X83890000Y-93310000D03*
X84520000Y-84110000D03*
X84770000Y-91350000D03*
X87450000Y-92650000D03*
X89900000Y-90060000D03*
X93990000Y-87970000D03*
X99280000Y-88210000D03*
X97440000Y-92390000D03*
X88180000Y-66790000D03*
X82990000Y-67160000D03*
X83090000Y-71200000D03*
X90570000Y-95890000D03*
X93340000Y-92710000D03*
X99070000Y-94150000D03*
X96520000Y-97530000D03*
X106540000Y-99890000D03*
X105700000Y-97810000D03*
X100200000Y-85930000D03*
X105520000Y-78120000D03*
X109150000Y-81190000D03*
%TO.N,/GPIO3*%
X90050000Y-72950000D03*
%TO.N,/GPIO2*%
X90080000Y-72030000D03*
%TO.N,/GPIO1*%
X90060000Y-71290000D03*
%TO.N,/5VUSB*%
X86860000Y-86820000D03*
X84440000Y-85570000D03*
%TO.N,/I2C_SCL*%
X95950000Y-86760000D03*
X101100000Y-82110000D03*
%TO.N,/I2C_SDA*%
X100320000Y-81590000D03*
X95290000Y-87000000D03*
%TO.N,/GPIO47*%
X99780000Y-80060000D03*
X103810000Y-87150000D03*
%TO.N,/USB_N*%
X82830000Y-88350000D03*
X82830000Y-87365000D03*
%TO.N,/USB_P*%
X82280000Y-88840000D03*
X82280000Y-87865000D03*
%TD*%
D50*
%TO.N,+3V3*%
X106590000Y-74870000D02*
X106210000Y-74490000D01*
X106875000Y-74870000D02*
X106590000Y-74870000D01*
D51*
%TO.N,/ESP32_EN*%
X108525000Y-75005000D02*
X108525000Y-74870000D01*
X107135000Y-76395000D02*
X108525000Y-75005000D01*
D52*
%TO.N,GND*%
X97330000Y-111540000D02*
X97530000Y-111540000D01*
X92220000Y-106430000D02*
X97330000Y-111540000D01*
X90330000Y-106430000D02*
X92220000Y-106430000D01*
D53*
%TO.N,Net-(J2-Pin_2)*%
X96470000Y-103480000D02*
X96670000Y-103480000D01*
X96670000Y-103480000D02*
X97530000Y-104340000D01*
D51*
%TO.N,/I2C_SCL*%
X95800000Y-87600000D02*
X95800000Y-86910000D01*
X95800000Y-86910000D02*
X95950000Y-86760000D01*
D50*
%TO.N,+3V3*%
X88660000Y-69540000D02*
X88400000Y-69280000D01*
X89380000Y-69540000D02*
X88660000Y-69540000D01*
X88305000Y-69540000D02*
X87430000Y-68665000D01*
X89380000Y-69540000D02*
X88305000Y-69540000D01*
X88105000Y-69540000D02*
X87430000Y-70215000D01*
X89380000Y-69540000D02*
X88105000Y-69540000D01*
X103680000Y-106910000D02*
X103470000Y-107120000D01*
X103680000Y-105970000D02*
X103680000Y-106910000D01*
X97735000Y-82985000D02*
X97030000Y-83690000D01*
X97735000Y-82820000D02*
X97735000Y-82985000D01*
X97730000Y-84390000D02*
X97030000Y-83690000D01*
X97735000Y-84390000D02*
X97730000Y-84390000D01*
%TO.N,GND*%
X86650000Y-87390000D02*
X86750000Y-87490000D01*
X85279999Y-87390000D02*
X86650000Y-87390000D01*
%TO.N,+3V3*%
X90180000Y-92220000D02*
X89730000Y-91770000D01*
X90600000Y-92220000D02*
X90180000Y-92220000D01*
X89175000Y-90895000D02*
X89175000Y-91215000D01*
X89175000Y-91215000D02*
X89730000Y-91770000D01*
X89180000Y-92320000D02*
X89730000Y-91770000D01*
X89100000Y-92320000D02*
X89180000Y-92320000D01*
X95800000Y-92250000D02*
X95770000Y-92280000D01*
X95800000Y-91500000D02*
X95800000Y-92250000D01*
X95625000Y-92425000D02*
X95770000Y-92280000D01*
X95625000Y-92950000D02*
X95625000Y-92425000D01*
D54*
%TO.N,GND*%
X85190000Y-83440000D02*
X84520000Y-84110000D01*
X85680000Y-83440000D02*
X85190000Y-83440000D01*
X83730000Y-84900000D02*
X84520000Y-84110000D01*
X83655000Y-84900000D02*
X83730000Y-84900000D01*
X84720000Y-91300000D02*
X84770000Y-91350000D01*
X83655000Y-91300000D02*
X84720000Y-91300000D01*
X85495000Y-91350000D02*
X84770000Y-91350000D01*
X85530000Y-91315000D02*
X85495000Y-91350000D01*
X87780000Y-92320000D02*
X87450000Y-92650000D01*
X87800000Y-92320000D02*
X87780000Y-92320000D01*
X88007500Y-93207500D02*
X87450000Y-92650000D01*
X88450000Y-93207500D02*
X88007500Y-93207500D01*
X89197500Y-89357500D02*
X89900000Y-90060000D01*
X89125000Y-89357500D02*
X89197500Y-89357500D01*
X90510000Y-90670000D02*
X89900000Y-90060000D01*
X90600000Y-90670000D02*
X90510000Y-90670000D01*
X94320000Y-88300000D02*
X93990000Y-87970000D01*
X94600000Y-88300000D02*
X94320000Y-88300000D01*
X99190000Y-88300000D02*
X99280000Y-88210000D01*
X98500000Y-88300000D02*
X99190000Y-88300000D01*
X99950000Y-88880000D02*
X99280000Y-88210000D01*
X99950000Y-88975000D02*
X99950000Y-88880000D01*
X99070000Y-94150000D02*
X98625000Y-93705000D01*
X98625000Y-93705000D02*
X98625000Y-93320000D01*
D51*
%TO.N,Net-(U2-REGOUT)*%
X96800000Y-93045000D02*
X97075000Y-93320000D01*
X96800000Y-91500000D02*
X96800000Y-93045000D01*
D54*
%TO.N,GND*%
X97300000Y-92250000D02*
X97440000Y-92390000D01*
X97300000Y-91500000D02*
X97300000Y-92250000D01*
X87855000Y-67115000D02*
X88180000Y-66790000D01*
X87430000Y-67115000D02*
X87855000Y-67115000D01*
X83235000Y-66915000D02*
X82990000Y-67160000D01*
X83755000Y-66915000D02*
X83235000Y-66915000D01*
X83225000Y-71065000D02*
X83090000Y-71200000D01*
X83755000Y-71065000D02*
X83225000Y-71065000D01*
D55*
X91129999Y-96449999D02*
X90570000Y-95890000D01*
X91129999Y-97090000D02*
X91129999Y-96449999D01*
D54*
X89970000Y-95290000D02*
X89705000Y-95290000D01*
X90570000Y-95890000D02*
X89970000Y-95290000D01*
X92925001Y-92295001D02*
X93340000Y-92710000D01*
X92250000Y-92295001D02*
X92925001Y-92295001D01*
X93580000Y-92950000D02*
X93340000Y-92710000D01*
X94075000Y-92950000D02*
X93580000Y-92950000D01*
X96210000Y-97840000D02*
X96520000Y-97530000D01*
X95609999Y-97840000D02*
X96210000Y-97840000D01*
X106980000Y-100330000D02*
X106540000Y-99890000D01*
X106980000Y-101070000D02*
X106980000Y-100330000D01*
X105460000Y-97570000D02*
X105700000Y-97810000D01*
X105460000Y-96719999D02*
X105460000Y-97570000D01*
X99980000Y-86150000D02*
X100200000Y-85930000D01*
X99175000Y-86150000D02*
X99980000Y-86150000D01*
X105610000Y-78030000D02*
X105520000Y-78120000D01*
X105610000Y-77245000D02*
X105610000Y-78030000D01*
X109285000Y-81055000D02*
X109150000Y-81190000D01*
X109285000Y-80545000D02*
X109285000Y-81055000D01*
D51*
%TO.N,/GPIO3*%
X90040000Y-72940000D02*
X89380000Y-72940000D01*
X90050000Y-72950000D02*
X90040000Y-72940000D01*
%TO.N,/GPIO2*%
X89440000Y-72030000D02*
X89380000Y-72090000D01*
X90080000Y-72030000D02*
X89440000Y-72030000D01*
%TO.N,/GPIO1*%
X89430000Y-71290000D02*
X89380000Y-71240000D01*
X90060000Y-71290000D02*
X89430000Y-71290000D01*
%TO.N,/GPIO0*%
X89370000Y-70380000D02*
X89380000Y-70390000D01*
X88890000Y-70380000D02*
X89370000Y-70380000D01*
X88220000Y-71050000D02*
X88890000Y-70380000D01*
X88220000Y-72210000D02*
X88220000Y-71050000D01*
X85920000Y-72565000D02*
X87865000Y-72565000D01*
X87865000Y-72565000D02*
X88220000Y-72210000D01*
X85905000Y-71065000D02*
X85905000Y-66915000D01*
X85920000Y-71080000D02*
X85905000Y-71065000D01*
X85920000Y-72565000D02*
X85920000Y-71080000D01*
D56*
%TO.N,+5V*%
X89100000Y-94345000D02*
X88155000Y-95290000D01*
X89100000Y-94095000D02*
X89100000Y-94345000D01*
D57*
X83700000Y-94710000D02*
X83700000Y-95822500D01*
X84970000Y-93440000D02*
X83700000Y-94710000D01*
X86550000Y-93440000D02*
X84970000Y-93440000D01*
X86550000Y-93440000D02*
X88155000Y-95045000D01*
X88155000Y-95045000D02*
X88155000Y-95290000D01*
D56*
X87205000Y-94095000D02*
X87800000Y-94095000D01*
X86550000Y-93440000D02*
X87205000Y-94095000D01*
X87800000Y-94935000D02*
X88155000Y-95290000D01*
X87800000Y-94095000D02*
X87800000Y-94935000D01*
D58*
%TO.N,/5VBAT*%
X85480000Y-99240000D02*
X83605000Y-101115000D01*
X87930000Y-99240000D02*
X85480000Y-99240000D01*
X89230001Y-97939999D02*
X87930000Y-99240000D01*
X89230001Y-97090000D02*
X89230001Y-97939999D01*
D59*
%TO.N,/GPIO48*%
X102300000Y-80820000D02*
X102330000Y-80790000D01*
X102300000Y-98840000D02*
X102300000Y-80820000D01*
X103680000Y-100220000D02*
X102300000Y-98840000D01*
X103680000Y-101070000D02*
X103680000Y-100220000D01*
%TO.N,Net-(D1-A)*%
X92250000Y-89282500D02*
X92175000Y-89207500D01*
X92250000Y-90719999D02*
X92250000Y-89282500D01*
%TO.N,/5VUSB*%
X86079999Y-86890000D02*
X85305001Y-86890000D01*
D50*
X86120199Y-86820000D02*
X86079999Y-86860200D01*
X86860000Y-86820000D02*
X86120199Y-86820000D01*
X84310000Y-85700000D02*
X84440000Y-85570000D01*
X83655000Y-85700000D02*
X84310000Y-85700000D01*
D51*
%TO.N,Net-(U1-FB)*%
X87525000Y-90895000D02*
X87525000Y-89407500D01*
X87525000Y-89407500D02*
X87475000Y-89357500D01*
X88450000Y-92320000D02*
X88450000Y-91820000D01*
X88450000Y-91820000D02*
X87525000Y-90895000D01*
%TO.N,Net-(U2-CPOUT)*%
X97300000Y-87600000D02*
X97300000Y-86475000D01*
X97300000Y-86475000D02*
X97625000Y-86150000D01*
%TO.N,/I2C_SCL*%
X101100000Y-81170000D02*
X101480000Y-80790000D01*
X101100000Y-82110000D02*
X101100000Y-81170000D01*
%TO.N,/I2C_SDA*%
X100320000Y-81100000D02*
X100630000Y-80790000D01*
X100320000Y-81590000D02*
X100320000Y-81100000D01*
X95300000Y-87010000D02*
X95290000Y-87000000D01*
X95300000Y-87600000D02*
X95300000Y-87010000D01*
%TO.N,/I2C_SCL*%
X101480000Y-80790000D02*
X101480000Y-82295000D01*
X101480000Y-82295000D02*
X99385000Y-84390000D01*
%TO.N,/I2C_SDA*%
X100630000Y-81575000D02*
X99385000Y-82820000D01*
X100630000Y-80790000D02*
X100630000Y-81575000D01*
%TO.N,/ESP32_EN*%
X106435000Y-75695000D02*
X107135000Y-76395000D01*
X105610000Y-75695000D02*
X106435000Y-75695000D01*
X104630000Y-68080000D02*
X104630000Y-74715000D01*
X104630000Y-74715000D02*
X105610000Y-75695000D01*
X104390000Y-67840000D02*
X104630000Y-68080000D01*
X103380000Y-67840000D02*
X104390000Y-67840000D01*
X107135000Y-80545000D02*
X107135000Y-76395000D01*
%TO.N,/GPIO47*%
X99780000Y-80060000D02*
X99780000Y-80790000D01*
X104680001Y-88020001D02*
X103810000Y-87150000D01*
X105460000Y-88020001D02*
X104680001Y-88020001D01*
D53*
%TO.N,Net-(J2-Pin_2)*%
X94340000Y-101350000D02*
X96470000Y-103480000D01*
X90330000Y-101350000D02*
X94340000Y-101350000D01*
D60*
%TO.N,/5VBAT*%
X79700000Y-100170000D02*
X78755000Y-101115000D01*
X79700000Y-95822500D02*
X79700000Y-100170000D01*
D53*
%TO.N,Net-(J2-Pin_2)*%
X93710001Y-100720001D02*
X96470000Y-103480000D01*
X93710001Y-97840000D02*
X93710001Y-100720001D01*
D61*
%TO.N,/USB_N*%
X96380000Y-81390001D02*
X96380000Y-80790000D01*
X96655891Y-81665892D02*
X96380000Y-81390001D01*
X96655891Y-81703235D02*
X96655891Y-81665892D01*
%TO.N,/USB_P*%
X97230000Y-81390001D02*
X97230000Y-80790000D01*
X96954109Y-81665892D02*
X97230000Y-81390001D01*
%TO.N,/USB_N*%
X90368235Y-87990891D02*
X96655891Y-81703235D01*
%TO.N,/USB_P*%
X90491764Y-88289110D02*
X96954109Y-81826765D01*
X96954109Y-81826765D02*
X96954109Y-81665892D01*
%TO.N,/USB_N*%
X86180890Y-87990891D02*
X90368235Y-87990891D01*
%TO.N,/USB_P*%
X86180890Y-88289110D02*
X90491764Y-88289110D01*
D50*
%TO.N,/5VUSB*%
X83170000Y-85700000D02*
X81700000Y-87170000D01*
X83655000Y-85700000D02*
X83170000Y-85700000D01*
D51*
%TO.N,Net-(J1-CC2)*%
X83655000Y-89850000D02*
X85345000Y-89850000D01*
X85345000Y-89850000D02*
X85530000Y-89665000D01*
%TO.N,Net-(J1-CC1)*%
X84610000Y-86160000D02*
X85680000Y-85090000D01*
X84610000Y-86700000D02*
X84610000Y-86160000D01*
X84460000Y-86850000D02*
X84610000Y-86700000D01*
X83655000Y-86850000D02*
X84460000Y-86850000D01*
D61*
%TO.N,/USB_N*%
X82830000Y-88350000D02*
X83655000Y-88350000D01*
X82845000Y-87350000D02*
X82830000Y-87365000D01*
X83655000Y-87350000D02*
X82845000Y-87350000D01*
%TO.N,/USB_P*%
X83640000Y-87865000D02*
X83655000Y-87850000D01*
X82280000Y-87865000D02*
X83640000Y-87865000D01*
X82290000Y-88850000D02*
X82280000Y-88840000D01*
X83655000Y-88850000D02*
X82290000Y-88850000D01*
X83655000Y-87850000D02*
X83655000Y-87865000D01*
%TO.N,/USB_N*%
X84730891Y-87990891D02*
X86180890Y-87990891D01*
X84530000Y-87790000D02*
X84730891Y-87990891D01*
X84390000Y-87350000D02*
X84530000Y-87490000D01*
X84530000Y-87490000D02*
X84530000Y-87790000D01*
X83655000Y-87350000D02*
X84390000Y-87350000D01*
%TO.N,/USB_P*%
X84730890Y-88289110D02*
X86180890Y-88289110D01*
X84170000Y-88850000D02*
X84730890Y-88289110D01*
X83655000Y-88850000D02*
X84170000Y-88850000D01*
%TO.N,/USB_N*%
X85305001Y-87890000D02*
X85204110Y-87990891D01*
%TO.N,/USB_P*%
X85305000Y-88390000D02*
X85204110Y-88289110D01*
%TO.N,/USB_N*%
X86079999Y-87890000D02*
X86180890Y-87990891D01*
%TO.N,/USB_P*%
X86080000Y-88390000D02*
X86180890Y-88289110D01*
D50*
%TO.N,/5VUSB*%
X81700000Y-90340000D02*
X81700000Y-95822500D01*
X81700000Y-87170000D02*
X81700000Y-90340000D01*
X83190000Y-90500000D02*
X82630000Y-89940000D01*
X83655000Y-90500000D02*
X83190000Y-90500000D01*
X82100000Y-89940000D02*
X81700000Y-90340000D01*
X82630000Y-89940000D02*
X82100000Y-89940000D01*
%TO.N,+3V3*%
X90525000Y-89207500D02*
X90307500Y-89207500D01*
X90307500Y-89207500D02*
X89920000Y-88820000D01*
%TD*%
%TA.AperFunction,Conductor*%
%TO.N,GND*%
G36*
X85370139Y-66560185D02*
G01*
X85415894Y-66612989D01*
X85427100Y-66664500D01*
X85427100Y-67455054D01*
X85435972Y-67499658D01*
X85435973Y-67499661D01*
X85469765Y-67550233D01*
X85469766Y-67550234D01*
X85520342Y-67584028D01*
X85520343Y-67584028D01*
X85520345Y-67584029D01*
X85570918Y-67594089D01*
X85570642Y-67595475D01*
X85628830Y-67618964D01*
X85669196Y-67675994D01*
X85675900Y-67716215D01*
X85675900Y-70263785D01*
X85656215Y-70330824D01*
X85603411Y-70376579D01*
X85570809Y-70385369D01*
X85570918Y-70385913D01*
X85564944Y-70387100D01*
X85564944Y-70387101D01*
X85546657Y-70390738D01*
X85520341Y-70395972D01*
X85520338Y-70395973D01*
X85469766Y-70429765D01*
X85435971Y-70480343D01*
X85435970Y-70480345D01*
X85427100Y-70524940D01*
X85427100Y-71605054D01*
X85435972Y-71649658D01*
X85435973Y-71649661D01*
X85459475Y-71684833D01*
X85469766Y-71700234D01*
X85520342Y-71734028D01*
X85520344Y-71734028D01*
X85520346Y-71734029D01*
X85535868Y-71737117D01*
X85597779Y-71769501D01*
X85632353Y-71830217D01*
X85628614Y-71899987D01*
X85587748Y-71956659D01*
X85566137Y-71970134D01*
X85447375Y-72028192D01*
X85358192Y-72117375D01*
X85302803Y-72230677D01*
X85302802Y-72230679D01*
X85302802Y-72230681D01*
X85292100Y-72304137D01*
X85292100Y-72304141D01*
X85292100Y-72304142D01*
X85292100Y-72825864D01*
X85302801Y-72899316D01*
X85302801Y-72899317D01*
X85302802Y-72899319D01*
X85340979Y-72977411D01*
X85358195Y-73012627D01*
X85447375Y-73101807D01*
X85555848Y-73154835D01*
X85560681Y-73157198D01*
X85634137Y-73167900D01*
X86205862Y-73167899D01*
X86205864Y-73167899D01*
X86235244Y-73163618D01*
X86279319Y-73157198D01*
X86392625Y-73101806D01*
X86481806Y-73012625D01*
X86481807Y-73012624D01*
X86537197Y-72899321D01*
X86540041Y-72890119D01*
X86541496Y-72890568D01*
X86566213Y-72836719D01*
X86625063Y-72799057D01*
X86659771Y-72794100D01*
X87910569Y-72794100D01*
X87910570Y-72794100D01*
X87910571Y-72794100D01*
X87935233Y-72783884D01*
X87994775Y-72759222D01*
X88414222Y-72339774D01*
X88414222Y-72339772D01*
X88414224Y-72339771D01*
X88431661Y-72297672D01*
X88449100Y-72255570D01*
X88449100Y-72164430D01*
X88449100Y-71196258D01*
X88468785Y-71129219D01*
X88485415Y-71108581D01*
X88615420Y-70978576D01*
X88676742Y-70945092D01*
X88746434Y-70950076D01*
X88802367Y-70991948D01*
X88826784Y-71057412D01*
X88827100Y-71066258D01*
X88827100Y-71455054D01*
X88835972Y-71499658D01*
X88835973Y-71499661D01*
X88869765Y-71550233D01*
X88869766Y-71550234D01*
X88887220Y-71561897D01*
X88932025Y-71615508D01*
X88940734Y-71684833D01*
X88910579Y-71747861D01*
X88887225Y-71768098D01*
X88869767Y-71779763D01*
X88835971Y-71830343D01*
X88835970Y-71830345D01*
X88827100Y-71874940D01*
X88827100Y-72305054D01*
X88835972Y-72349658D01*
X88835973Y-72349661D01*
X88869765Y-72400233D01*
X88869766Y-72400234D01*
X88887220Y-72411897D01*
X88932025Y-72465508D01*
X88940734Y-72534833D01*
X88910579Y-72597861D01*
X88887225Y-72618098D01*
X88869767Y-72629763D01*
X88835971Y-72680343D01*
X88835970Y-72680345D01*
X88827100Y-72724940D01*
X88827100Y-73155054D01*
X88835972Y-73199658D01*
X88835973Y-73199661D01*
X88869765Y-73250233D01*
X88869766Y-73250234D01*
X88887220Y-73261897D01*
X88932025Y-73315508D01*
X88940734Y-73384833D01*
X88910579Y-73447861D01*
X88887225Y-73468098D01*
X88869767Y-73479763D01*
X88835971Y-73530343D01*
X88835970Y-73530345D01*
X88827100Y-73574940D01*
X88827100Y-74005054D01*
X88835972Y-74049658D01*
X88835973Y-74049661D01*
X88853339Y-74075650D01*
X88869766Y-74100234D01*
X88887220Y-74111897D01*
X88932025Y-74165508D01*
X88940734Y-74234833D01*
X88910579Y-74297861D01*
X88887225Y-74318098D01*
X88869767Y-74329763D01*
X88835971Y-74380343D01*
X88835970Y-74380345D01*
X88827100Y-74424940D01*
X88827100Y-74855054D01*
X88835972Y-74899658D01*
X88835973Y-74899661D01*
X88847600Y-74917061D01*
X88869766Y-74950234D01*
X88887220Y-74961897D01*
X88932025Y-75015508D01*
X88940734Y-75084833D01*
X88910579Y-75147861D01*
X88887225Y-75168098D01*
X88869767Y-75179763D01*
X88835971Y-75230343D01*
X88835970Y-75230345D01*
X88827100Y-75274940D01*
X88827100Y-75705054D01*
X88835972Y-75749658D01*
X88835973Y-75749661D01*
X88869765Y-75800233D01*
X88869766Y-75800234D01*
X88887220Y-75811897D01*
X88932025Y-75865508D01*
X88940734Y-75934833D01*
X88910579Y-75997861D01*
X88887225Y-76018098D01*
X88869767Y-76029763D01*
X88835971Y-76080343D01*
X88835970Y-76080345D01*
X88827100Y-76124940D01*
X88827100Y-76555054D01*
X88835972Y-76599658D01*
X88835973Y-76599661D01*
X88869765Y-76650233D01*
X88869766Y-76650234D01*
X88887220Y-76661897D01*
X88932025Y-76715508D01*
X88940734Y-76784833D01*
X88910579Y-76847861D01*
X88887225Y-76868098D01*
X88869767Y-76879763D01*
X88835971Y-76930343D01*
X88835970Y-76930345D01*
X88827100Y-76974940D01*
X88827100Y-77405054D01*
X88835972Y-77449658D01*
X88835973Y-77449661D01*
X88869765Y-77500233D01*
X88869766Y-77500234D01*
X88887220Y-77511897D01*
X88932025Y-77565508D01*
X88940734Y-77634833D01*
X88910579Y-77697861D01*
X88887225Y-77718098D01*
X88869767Y-77729763D01*
X88835971Y-77780343D01*
X88835970Y-77780345D01*
X88827100Y-77824940D01*
X88827100Y-78255054D01*
X88835972Y-78299658D01*
X88835973Y-78299661D01*
X88858184Y-78332901D01*
X88869766Y-78350234D01*
X88887220Y-78361897D01*
X88932025Y-78415508D01*
X88940734Y-78484833D01*
X88910579Y-78547861D01*
X88887225Y-78568098D01*
X88869767Y-78579763D01*
X88835971Y-78630343D01*
X88835970Y-78630345D01*
X88827100Y-78674940D01*
X88827100Y-79105054D01*
X88835972Y-79149658D01*
X88835973Y-79149661D01*
X88869765Y-79200233D01*
X88869766Y-79200234D01*
X88887220Y-79211897D01*
X88932025Y-79265508D01*
X88940734Y-79334833D01*
X88910579Y-79397861D01*
X88887225Y-79418098D01*
X88869767Y-79429763D01*
X88835971Y-79480343D01*
X88835970Y-79480345D01*
X88827100Y-79524940D01*
X88827100Y-79955054D01*
X88835972Y-79999658D01*
X88835973Y-79999661D01*
X88869765Y-80050233D01*
X88869766Y-80050234D01*
X88920342Y-80084028D01*
X88920343Y-80084028D01*
X88920345Y-80084029D01*
X88942642Y-80088464D01*
X88964943Y-80092900D01*
X89795056Y-80092899D01*
X89839658Y-80084028D01*
X89890234Y-80050234D01*
X89924028Y-79999658D01*
X89932900Y-79955057D01*
X89932899Y-79524944D01*
X89924028Y-79480342D01*
X89924026Y-79480340D01*
X89924026Y-79480338D01*
X89890234Y-79429765D01*
X89872778Y-79418102D01*
X89827973Y-79364490D01*
X89819266Y-79295165D01*
X89849420Y-79232138D01*
X89872778Y-79211898D01*
X89876885Y-79209153D01*
X89890234Y-79200234D01*
X89924028Y-79149658D01*
X89932900Y-79105057D01*
X89932899Y-78674944D01*
X89924028Y-78630342D01*
X89924026Y-78630340D01*
X89924026Y-78630338D01*
X89890234Y-78579765D01*
X89872778Y-78568102D01*
X89827973Y-78514490D01*
X89819266Y-78445165D01*
X89849420Y-78382138D01*
X89872778Y-78361898D01*
X89876885Y-78359153D01*
X89890234Y-78350234D01*
X89924028Y-78299658D01*
X89932900Y-78255057D01*
X89932899Y-77824944D01*
X89924028Y-77780342D01*
X89924026Y-77780340D01*
X89924026Y-77780338D01*
X89890234Y-77729765D01*
X89872778Y-77718102D01*
X89827973Y-77664490D01*
X89819266Y-77595165D01*
X89849420Y-77532138D01*
X89872778Y-77511898D01*
X89876885Y-77509153D01*
X89890234Y-77500234D01*
X89924028Y-77449658D01*
X89932900Y-77405057D01*
X89932899Y-76974944D01*
X89924028Y-76930342D01*
X89924026Y-76930340D01*
X89924026Y-76930338D01*
X89890234Y-76879765D01*
X89872778Y-76868102D01*
X89827973Y-76814490D01*
X89819266Y-76745165D01*
X89849420Y-76682138D01*
X89872778Y-76661898D01*
X89876885Y-76659153D01*
X89890234Y-76650234D01*
X89924028Y-76599658D01*
X89932900Y-76555057D01*
X89932899Y-76124944D01*
X89924028Y-76080342D01*
X89924026Y-76080340D01*
X89924026Y-76080338D01*
X89890234Y-76029765D01*
X89872778Y-76018102D01*
X89827973Y-75964490D01*
X89819266Y-75895165D01*
X89849420Y-75832138D01*
X89872778Y-75811898D01*
X89876885Y-75809153D01*
X89890234Y-75800234D01*
X89924028Y-75749658D01*
X89932900Y-75705057D01*
X89932899Y-75274944D01*
X89924028Y-75230342D01*
X89924026Y-75230340D01*
X89924026Y-75230338D01*
X89890234Y-75179765D01*
X89872778Y-75168102D01*
X89827973Y-75114490D01*
X89819266Y-75045165D01*
X89849420Y-74982138D01*
X89872778Y-74961898D01*
X89876885Y-74959153D01*
X89890234Y-74950234D01*
X89924028Y-74899658D01*
X89932900Y-74855057D01*
X89932899Y-74424944D01*
X89924028Y-74380342D01*
X89924026Y-74380340D01*
X89924026Y-74380338D01*
X89890234Y-74329765D01*
X89872778Y-74318102D01*
X89827973Y-74264490D01*
X89819266Y-74195165D01*
X89849420Y-74132138D01*
X89872778Y-74111898D01*
X89879801Y-74107205D01*
X89890234Y-74100234D01*
X89924028Y-74049658D01*
X89932900Y-74005057D01*
X89932899Y-73574944D01*
X89924028Y-73530342D01*
X89924027Y-73530341D01*
X89924027Y-73530339D01*
X89923483Y-73529026D01*
X89923150Y-73525930D01*
X89921645Y-73518363D01*
X89922322Y-73518228D01*
X89916014Y-73459557D01*
X89947290Y-73397078D01*
X90007379Y-73361426D01*
X90040241Y-73359899D01*
X90040241Y-73357922D01*
X90050003Y-73357922D01*
X90176050Y-73337958D01*
X90176050Y-73337957D01*
X90176055Y-73337957D01*
X90289771Y-73280016D01*
X90380016Y-73189771D01*
X90437957Y-73076055D01*
X90448003Y-73012627D01*
X90457922Y-72950003D01*
X90457922Y-72949996D01*
X90437958Y-72823949D01*
X90437957Y-72823947D01*
X90437957Y-72823945D01*
X90380016Y-72710229D01*
X90380014Y-72710227D01*
X90380011Y-72710223D01*
X90289776Y-72619988D01*
X90289772Y-72619985D01*
X90289771Y-72619984D01*
X90286070Y-72618098D01*
X90266499Y-72608126D01*
X90215703Y-72560151D01*
X90198909Y-72492330D01*
X90221447Y-72426195D01*
X90266496Y-72387160D01*
X90319771Y-72360016D01*
X90410016Y-72269771D01*
X90467957Y-72156055D01*
X90471960Y-72130780D01*
X90487922Y-72030003D01*
X90487922Y-72029996D01*
X90467958Y-71903949D01*
X90467957Y-71903947D01*
X90467957Y-71903945D01*
X90410016Y-71790229D01*
X90410014Y-71790227D01*
X90410011Y-71790223D01*
X90357468Y-71737680D01*
X90323983Y-71676357D01*
X90328967Y-71606665D01*
X90357468Y-71562318D01*
X90390016Y-71529771D01*
X90447957Y-71416055D01*
X90467922Y-71290000D01*
X90467922Y-71289996D01*
X90447958Y-71163949D01*
X90447957Y-71163947D01*
X90447957Y-71163945D01*
X90390016Y-71050229D01*
X90390014Y-71050227D01*
X90390011Y-71050223D01*
X90364728Y-71024940D01*
X102827100Y-71024940D01*
X102827100Y-71455054D01*
X102835972Y-71499658D01*
X102835973Y-71499661D01*
X102869765Y-71550233D01*
X102869766Y-71550234D01*
X102887220Y-71561897D01*
X102932025Y-71615508D01*
X102940734Y-71684833D01*
X102910579Y-71747861D01*
X102887225Y-71768098D01*
X102869767Y-71779763D01*
X102835971Y-71830343D01*
X102835970Y-71830345D01*
X102827100Y-71874940D01*
X102827100Y-72305054D01*
X102835972Y-72349658D01*
X102835973Y-72349661D01*
X102869765Y-72400233D01*
X102869766Y-72400234D01*
X102887220Y-72411897D01*
X102932025Y-72465508D01*
X102940734Y-72534833D01*
X102910579Y-72597861D01*
X102887225Y-72618098D01*
X102869767Y-72629763D01*
X102835971Y-72680343D01*
X102835970Y-72680345D01*
X102827100Y-72724940D01*
X102827100Y-73155054D01*
X102835972Y-73199658D01*
X102835973Y-73199661D01*
X102869765Y-73250233D01*
X102869766Y-73250234D01*
X102887220Y-73261897D01*
X102932025Y-73315508D01*
X102940734Y-73384833D01*
X102910579Y-73447861D01*
X102887225Y-73468098D01*
X102869767Y-73479763D01*
X102835971Y-73530343D01*
X102835970Y-73530345D01*
X102827100Y-73574940D01*
X102827100Y-74005054D01*
X102835972Y-74049658D01*
X102835973Y-74049661D01*
X102853339Y-74075650D01*
X102869766Y-74100234D01*
X102887220Y-74111897D01*
X102932025Y-74165508D01*
X102940734Y-74234833D01*
X102910579Y-74297861D01*
X102887225Y-74318098D01*
X102869767Y-74329763D01*
X102835971Y-74380343D01*
X102835970Y-74380345D01*
X102827100Y-74424940D01*
X102827100Y-74855054D01*
X102835972Y-74899658D01*
X102835973Y-74899661D01*
X102847600Y-74917061D01*
X102869766Y-74950234D01*
X102887220Y-74961897D01*
X102932025Y-75015508D01*
X102940734Y-75084833D01*
X102910579Y-75147861D01*
X102887225Y-75168098D01*
X102869767Y-75179763D01*
X102835971Y-75230343D01*
X102835970Y-75230345D01*
X102827100Y-75274940D01*
X102827100Y-75705054D01*
X102835972Y-75749658D01*
X102835973Y-75749661D01*
X102869765Y-75800233D01*
X102869766Y-75800234D01*
X102887220Y-75811897D01*
X102932025Y-75865508D01*
X102940734Y-75934833D01*
X102910579Y-75997861D01*
X102887225Y-76018098D01*
X102869767Y-76029763D01*
X102835971Y-76080343D01*
X102835970Y-76080345D01*
X102827100Y-76124940D01*
X102827100Y-76555054D01*
X102835972Y-76599658D01*
X102835973Y-76599661D01*
X102869765Y-76650233D01*
X102869766Y-76650234D01*
X102887220Y-76661897D01*
X102932025Y-76715508D01*
X102940734Y-76784833D01*
X102910579Y-76847861D01*
X102887225Y-76868098D01*
X102869767Y-76879763D01*
X102835971Y-76930343D01*
X102835970Y-76930345D01*
X102827100Y-76974940D01*
X102827100Y-77405054D01*
X102835972Y-77449658D01*
X102835973Y-77449661D01*
X102869765Y-77500233D01*
X102869766Y-77500234D01*
X102887220Y-77511897D01*
X102932025Y-77565508D01*
X102940734Y-77634833D01*
X102910579Y-77697861D01*
X102887225Y-77718098D01*
X102869767Y-77729763D01*
X102835971Y-77780343D01*
X102835970Y-77780345D01*
X102827100Y-77824940D01*
X102827100Y-78255054D01*
X102835972Y-78299658D01*
X102835973Y-78299661D01*
X102858184Y-78332901D01*
X102869766Y-78350234D01*
X102887220Y-78361897D01*
X102932025Y-78415508D01*
X102940734Y-78484833D01*
X102910579Y-78547861D01*
X102887225Y-78568098D01*
X102869767Y-78579763D01*
X102835971Y-78630343D01*
X102835970Y-78630345D01*
X102827100Y-78674940D01*
X102827100Y-79105054D01*
X102835972Y-79149658D01*
X102835973Y-79149661D01*
X102869765Y-79200233D01*
X102869766Y-79200234D01*
X102887220Y-79211897D01*
X102932025Y-79265508D01*
X102940734Y-79334833D01*
X102910579Y-79397861D01*
X102887225Y-79418098D01*
X102869767Y-79429763D01*
X102835971Y-79480343D01*
X102835970Y-79480345D01*
X102827100Y-79524940D01*
X102827100Y-79955054D01*
X102835972Y-79999658D01*
X102835973Y-79999661D01*
X102869765Y-80050233D01*
X102869766Y-80050234D01*
X102920342Y-80084028D01*
X102920343Y-80084028D01*
X102920345Y-80084029D01*
X102942642Y-80088464D01*
X102964943Y-80092900D01*
X103795056Y-80092899D01*
X103839658Y-80084028D01*
X103890234Y-80050234D01*
X103924028Y-79999658D01*
X103932900Y-79955057D01*
X103932899Y-79524944D01*
X103924028Y-79480342D01*
X103924026Y-79480340D01*
X103924026Y-79480338D01*
X103890234Y-79429765D01*
X103872778Y-79418102D01*
X103827973Y-79364490D01*
X103819266Y-79295165D01*
X103849420Y-79232138D01*
X103872778Y-79211898D01*
X103876885Y-79209153D01*
X103890234Y-79200234D01*
X103924028Y-79149658D01*
X103932900Y-79105057D01*
X103932899Y-78674944D01*
X103924028Y-78630342D01*
X103924026Y-78630340D01*
X103924026Y-78630338D01*
X103890234Y-78579765D01*
X103872778Y-78568102D01*
X103827973Y-78514490D01*
X103819266Y-78445165D01*
X103849420Y-78382138D01*
X103872778Y-78361898D01*
X103876885Y-78359153D01*
X103890234Y-78350234D01*
X103924028Y-78299658D01*
X103932900Y-78255057D01*
X103932899Y-77824944D01*
X103924028Y-77780342D01*
X103924026Y-77780340D01*
X103924026Y-77780338D01*
X103890234Y-77729765D01*
X103872778Y-77718102D01*
X103827973Y-77664490D01*
X103819266Y-77595165D01*
X103849420Y-77532138D01*
X103872778Y-77511898D01*
X103876885Y-77509153D01*
X103890234Y-77500234D01*
X103924028Y-77449658D01*
X103932900Y-77405057D01*
X103932899Y-76974944D01*
X103924028Y-76930342D01*
X103924026Y-76930340D01*
X103924026Y-76930338D01*
X103890234Y-76879765D01*
X103872778Y-76868102D01*
X103827973Y-76814490D01*
X103819266Y-76745165D01*
X103849420Y-76682138D01*
X103872778Y-76661898D01*
X103876885Y-76659153D01*
X103890234Y-76650234D01*
X103924028Y-76599658D01*
X103932900Y-76555057D01*
X103932899Y-76124944D01*
X103924028Y-76080342D01*
X103924026Y-76080340D01*
X103924026Y-76080338D01*
X103890234Y-76029765D01*
X103872778Y-76018102D01*
X103827973Y-75964490D01*
X103819266Y-75895165D01*
X103849420Y-75832138D01*
X103872778Y-75811898D01*
X103876885Y-75809153D01*
X103890234Y-75800234D01*
X103924028Y-75749658D01*
X103932900Y-75705057D01*
X103932899Y-75274944D01*
X103924028Y-75230342D01*
X103924026Y-75230340D01*
X103924026Y-75230338D01*
X103890234Y-75179765D01*
X103872778Y-75168102D01*
X103827973Y-75114490D01*
X103819266Y-75045165D01*
X103849420Y-74982138D01*
X103872778Y-74961898D01*
X103876885Y-74959153D01*
X103890234Y-74950234D01*
X103924028Y-74899658D01*
X103932900Y-74855057D01*
X103932899Y-74424944D01*
X103924028Y-74380342D01*
X103924026Y-74380340D01*
X103924026Y-74380338D01*
X103890234Y-74329765D01*
X103872778Y-74318102D01*
X103827973Y-74264490D01*
X103819266Y-74195165D01*
X103849420Y-74132138D01*
X103872778Y-74111898D01*
X103879801Y-74107205D01*
X103890234Y-74100234D01*
X103924028Y-74049658D01*
X103932900Y-74005057D01*
X103932899Y-73574944D01*
X103924028Y-73530342D01*
X103924026Y-73530339D01*
X103924026Y-73530338D01*
X103890234Y-73479765D01*
X103872778Y-73468102D01*
X103827973Y-73414490D01*
X103819266Y-73345165D01*
X103849420Y-73282138D01*
X103872778Y-73261898D01*
X103876885Y-73259153D01*
X103890234Y-73250234D01*
X103924028Y-73199658D01*
X103932900Y-73155057D01*
X103932899Y-72724944D01*
X103924028Y-72680342D01*
X103924026Y-72680340D01*
X103924026Y-72680338D01*
X103890234Y-72629765D01*
X103872778Y-72618102D01*
X103827973Y-72564490D01*
X103819266Y-72495165D01*
X103849420Y-72432138D01*
X103872778Y-72411898D01*
X103876885Y-72409153D01*
X103890234Y-72400234D01*
X103924028Y-72349658D01*
X103932900Y-72305057D01*
X103932899Y-71874944D01*
X103924028Y-71830342D01*
X103924026Y-71830340D01*
X103924026Y-71830338D01*
X103890234Y-71779765D01*
X103872778Y-71768102D01*
X103827973Y-71714490D01*
X103819266Y-71645165D01*
X103849420Y-71582138D01*
X103872778Y-71561898D01*
X103876885Y-71559153D01*
X103890234Y-71550234D01*
X103924028Y-71499658D01*
X103932900Y-71455057D01*
X103932899Y-71024944D01*
X103924028Y-70980342D01*
X103924026Y-70980340D01*
X103924026Y-70980338D01*
X103890234Y-70929766D01*
X103875955Y-70920225D01*
X103839658Y-70895972D01*
X103839657Y-70895971D01*
X103839656Y-70895971D01*
X103839654Y-70895970D01*
X103795059Y-70887100D01*
X102964945Y-70887100D01*
X102920341Y-70895972D01*
X102920338Y-70895973D01*
X102869766Y-70929765D01*
X102835971Y-70980343D01*
X102835970Y-70980345D01*
X102827100Y-71024940D01*
X90364728Y-71024940D01*
X90299776Y-70959988D01*
X90299772Y-70959985D01*
X90299771Y-70959984D01*
X90186055Y-70902043D01*
X90186053Y-70902042D01*
X90186050Y-70902041D01*
X90060003Y-70882078D01*
X90060000Y-70882078D01*
X90014251Y-70889323D01*
X89944958Y-70880366D01*
X89891507Y-70835369D01*
X89870869Y-70768617D01*
X89889595Y-70701304D01*
X89891731Y-70697992D01*
X89924028Y-70649658D01*
X89932900Y-70605057D01*
X89932899Y-70174944D01*
X89924028Y-70130342D01*
X89924026Y-70130340D01*
X89924026Y-70130338D01*
X89890234Y-70079765D01*
X89872778Y-70068102D01*
X89827973Y-70014490D01*
X89819266Y-69945165D01*
X89849420Y-69882138D01*
X89872778Y-69861898D01*
X89876885Y-69859153D01*
X89890234Y-69850234D01*
X89924028Y-69799658D01*
X89932900Y-69755057D01*
X89932899Y-69324944D01*
X89924028Y-69280342D01*
X89924026Y-69280340D01*
X89924026Y-69280338D01*
X89890234Y-69229766D01*
X89839658Y-69195972D01*
X89839657Y-69195971D01*
X89839656Y-69195971D01*
X89839654Y-69195970D01*
X89795059Y-69187100D01*
X88964944Y-69187100D01*
X88964943Y-69187101D01*
X88911641Y-69197702D01*
X88842049Y-69191473D01*
X88786873Y-69148608D01*
X88776971Y-69132385D01*
X88730016Y-69040229D01*
X88730014Y-69040227D01*
X88730011Y-69040223D01*
X88639776Y-68949988D01*
X88639772Y-68949985D01*
X88639771Y-68949984D01*
X88526055Y-68892043D01*
X88526053Y-68892042D01*
X88526050Y-68892041D01*
X88400003Y-68872078D01*
X88399997Y-68872078D01*
X88273949Y-68892041D01*
X88238192Y-68910260D01*
X88169523Y-68923155D01*
X88104783Y-68896877D01*
X88064527Y-68839770D01*
X88057899Y-68799774D01*
X88057899Y-68404135D01*
X88049701Y-68347861D01*
X88047198Y-68330681D01*
X87991806Y-68217375D01*
X87991804Y-68217373D01*
X87991804Y-68217372D01*
X87902624Y-68128192D01*
X87789322Y-68072803D01*
X87789320Y-68072802D01*
X87789319Y-68072802D01*
X87715863Y-68062100D01*
X87715857Y-68062100D01*
X87144135Y-68062100D01*
X87070683Y-68072801D01*
X86957372Y-68128195D01*
X86868192Y-68217375D01*
X86812803Y-68330677D01*
X86812802Y-68330679D01*
X86812802Y-68330681D01*
X86802100Y-68404137D01*
X86802100Y-68404141D01*
X86802100Y-68404142D01*
X86802100Y-68925864D01*
X86812801Y-68999316D01*
X86812801Y-68999317D01*
X86812802Y-68999319D01*
X86868194Y-69112625D01*
X86868195Y-69112627D01*
X86957375Y-69201807D01*
X87065848Y-69254835D01*
X87070681Y-69257198D01*
X87144137Y-69267900D01*
X87549777Y-69267899D01*
X87616816Y-69287583D01*
X87637458Y-69304218D01*
X87685559Y-69352319D01*
X87719044Y-69413642D01*
X87714060Y-69483334D01*
X87685558Y-69527682D01*
X87637457Y-69575782D01*
X87576134Y-69609266D01*
X87549777Y-69612100D01*
X87144135Y-69612100D01*
X87070683Y-69622801D01*
X86957372Y-69678195D01*
X86868192Y-69767375D01*
X86812803Y-69880677D01*
X86812802Y-69880679D01*
X86812802Y-69880681D01*
X86802100Y-69954137D01*
X86802100Y-69954141D01*
X86802100Y-69954142D01*
X86802100Y-70475864D01*
X86812801Y-70549316D01*
X86812801Y-70549317D01*
X86812802Y-70549319D01*
X86820704Y-70565482D01*
X86868195Y-70662627D01*
X86957375Y-70751807D01*
X87041796Y-70793077D01*
X87070681Y-70807198D01*
X87144137Y-70817900D01*
X87715862Y-70817899D01*
X87715864Y-70817899D01*
X87740347Y-70814332D01*
X87789319Y-70807198D01*
X87850081Y-70777493D01*
X87918949Y-70765734D01*
X87983247Y-70793077D01*
X88022555Y-70850840D01*
X88024393Y-70920686D01*
X88019099Y-70936346D01*
X88001114Y-70979766D01*
X87990900Y-71004428D01*
X87990900Y-72063741D01*
X87971215Y-72130780D01*
X87954581Y-72151422D01*
X87806422Y-72299581D01*
X87745099Y-72333066D01*
X87718741Y-72335900D01*
X86659771Y-72335900D01*
X86592732Y-72316215D01*
X86546977Y-72263411D01*
X86540046Y-72239886D01*
X86540043Y-72239887D01*
X86537199Y-72230685D01*
X86537198Y-72230683D01*
X86537198Y-72230681D01*
X86481806Y-72117375D01*
X86481804Y-72117373D01*
X86481804Y-72117372D01*
X86392624Y-72028192D01*
X86270668Y-71968572D01*
X86271455Y-71966961D01*
X86222856Y-71934752D01*
X86194730Y-71870794D01*
X86205647Y-71801782D01*
X86252141Y-71749628D01*
X86278572Y-71739172D01*
X86278377Y-71738700D01*
X86289654Y-71734028D01*
X86289658Y-71734028D01*
X86340234Y-71700234D01*
X86374028Y-71649658D01*
X86382900Y-71605057D01*
X86382899Y-70524944D01*
X86374028Y-70480342D01*
X86374026Y-70480340D01*
X86374026Y-70480338D01*
X86340234Y-70429766D01*
X86289659Y-70395973D01*
X86289658Y-70395972D01*
X86289657Y-70395971D01*
X86289656Y-70395971D01*
X86289654Y-70395970D01*
X86239082Y-70385911D01*
X86239356Y-70384528D01*
X86181151Y-70361020D01*
X86140797Y-70303983D01*
X86134100Y-70263784D01*
X86134100Y-67716214D01*
X86153785Y-67649175D01*
X86181754Y-67624940D01*
X102827100Y-67624940D01*
X102827100Y-68055054D01*
X102835972Y-68099658D01*
X102835973Y-68099661D01*
X102869765Y-68150233D01*
X102869766Y-68150234D01*
X102887220Y-68161897D01*
X102932025Y-68215508D01*
X102940734Y-68284833D01*
X102910579Y-68347861D01*
X102887225Y-68368098D01*
X102869767Y-68379763D01*
X102835971Y-68430343D01*
X102835970Y-68430345D01*
X102827100Y-68474940D01*
X102827100Y-68905054D01*
X102835972Y-68949658D01*
X102835973Y-68949661D01*
X102869765Y-69000233D01*
X102869766Y-69000234D01*
X102920342Y-69034028D01*
X102920343Y-69034028D01*
X102920345Y-69034029D01*
X102942642Y-69038464D01*
X102964943Y-69042900D01*
X103795056Y-69042899D01*
X103839658Y-69034028D01*
X103890234Y-69000234D01*
X103924028Y-68949658D01*
X103932900Y-68905057D01*
X103932899Y-68474944D01*
X103924028Y-68430342D01*
X103924026Y-68430340D01*
X103924026Y-68430338D01*
X103890234Y-68379765D01*
X103872778Y-68368102D01*
X103827973Y-68314490D01*
X103819266Y-68245165D01*
X103849420Y-68182138D01*
X103872778Y-68161898D01*
X103890234Y-68150234D01*
X103907624Y-68124209D01*
X103961237Y-68079404D01*
X104010726Y-68069100D01*
X104243741Y-68069100D01*
X104310780Y-68088785D01*
X104331422Y-68105419D01*
X104364581Y-68138578D01*
X104398066Y-68199901D01*
X104400900Y-68226259D01*
X104400900Y-74760568D01*
X104400901Y-74760573D01*
X104435775Y-74844769D01*
X104435776Y-74844771D01*
X104435778Y-74844775D01*
X104435780Y-74844777D01*
X104945781Y-75354778D01*
X104979266Y-75416101D01*
X104982100Y-75442459D01*
X104982100Y-75955864D01*
X104992801Y-76029316D01*
X104992801Y-76029317D01*
X104992802Y-76029319D01*
X104993021Y-76029766D01*
X105048195Y-76142627D01*
X105137375Y-76231807D01*
X105207524Y-76266100D01*
X105250681Y-76287198D01*
X105324137Y-76297900D01*
X105895862Y-76297899D01*
X105895864Y-76297899D01*
X105925244Y-76293618D01*
X105969319Y-76287198D01*
X106082625Y-76231806D01*
X106171806Y-76142625D01*
X106222543Y-76038840D01*
X106269670Y-75987259D01*
X106337204Y-75969345D01*
X106403703Y-75990786D01*
X106421624Y-76005621D01*
X106620781Y-76204777D01*
X106654266Y-76266100D01*
X106657100Y-76292458D01*
X106657100Y-76935054D01*
X106665972Y-76979658D01*
X106665973Y-76979661D01*
X106694928Y-77022994D01*
X106699766Y-77030234D01*
X106750342Y-77064028D01*
X106750343Y-77064028D01*
X106750345Y-77064029D01*
X106800918Y-77074089D01*
X106800642Y-77075475D01*
X106858830Y-77098964D01*
X106899196Y-77155994D01*
X106905900Y-77196215D01*
X106905900Y-79743785D01*
X106886215Y-79810824D01*
X106833411Y-79856579D01*
X106800809Y-79865369D01*
X106800918Y-79865913D01*
X106794944Y-79867100D01*
X106794944Y-79867101D01*
X106776657Y-79870738D01*
X106750341Y-79875972D01*
X106750338Y-79875973D01*
X106699766Y-79909765D01*
X106665971Y-79960343D01*
X106665970Y-79960345D01*
X106657100Y-80004940D01*
X106657100Y-81085054D01*
X106665972Y-81129658D01*
X106665973Y-81129661D01*
X106699765Y-81180233D01*
X106699766Y-81180234D01*
X106750342Y-81214028D01*
X106750343Y-81214028D01*
X106750345Y-81214029D01*
X106772642Y-81218464D01*
X106794943Y-81222900D01*
X107475056Y-81222899D01*
X107519658Y-81214028D01*
X107570234Y-81180234D01*
X107604028Y-81129658D01*
X107612900Y-81085057D01*
X107612899Y-80004944D01*
X107604028Y-79960342D01*
X107604026Y-79960340D01*
X107604026Y-79960338D01*
X107570234Y-79909766D01*
X107519659Y-79875973D01*
X107519658Y-79875972D01*
X107519657Y-79875971D01*
X107519656Y-79875971D01*
X107519654Y-79875970D01*
X107469082Y-79865911D01*
X107469356Y-79864528D01*
X107411151Y-79841020D01*
X107370797Y-79783983D01*
X107364100Y-79743784D01*
X107364100Y-77196214D01*
X107383785Y-77129175D01*
X107436589Y-77083420D01*
X107469190Y-77074632D01*
X107469082Y-77074087D01*
X107475055Y-77072899D01*
X107475056Y-77072899D01*
X107519658Y-77064028D01*
X107570234Y-77030234D01*
X107604028Y-76979658D01*
X107612900Y-76935057D01*
X107612899Y-76292457D01*
X107632583Y-76225419D01*
X107649213Y-76204782D01*
X108319777Y-75534219D01*
X108381100Y-75500734D01*
X108407458Y-75497900D01*
X108758489Y-75497900D01*
X108758494Y-75497900D01*
X108827088Y-75487906D01*
X108932898Y-75436179D01*
X109016179Y-75352898D01*
X109067906Y-75247088D01*
X109077900Y-75178494D01*
X109077900Y-74561506D01*
X109067906Y-74492912D01*
X109016179Y-74387102D01*
X109016177Y-74387100D01*
X109016177Y-74387099D01*
X108932900Y-74303822D01*
X108916842Y-74295972D01*
X108827088Y-74252094D01*
X108758494Y-74242100D01*
X108291506Y-74242100D01*
X108234344Y-74250428D01*
X108222911Y-74252094D01*
X108117099Y-74303822D01*
X108033822Y-74387099D01*
X107983518Y-74490000D01*
X107982094Y-74492912D01*
X107972100Y-74561506D01*
X107972100Y-74561511D01*
X107972100Y-75182541D01*
X107952415Y-75249580D01*
X107935781Y-75270222D01*
X107525221Y-75680781D01*
X107463898Y-75714266D01*
X107437540Y-75717100D01*
X107244243Y-75717100D01*
X107177204Y-75697415D01*
X107131449Y-75644611D01*
X107121505Y-75575453D01*
X107150530Y-75511897D01*
X107189780Y-75481701D01*
X107282898Y-75436179D01*
X107366179Y-75352898D01*
X107417906Y-75247088D01*
X107427900Y-75178494D01*
X107427900Y-74561506D01*
X107417906Y-74492912D01*
X107366179Y-74387102D01*
X107366177Y-74387100D01*
X107366177Y-74387099D01*
X107282900Y-74303822D01*
X107266842Y-74295972D01*
X107177088Y-74252094D01*
X107108494Y-74242100D01*
X106641506Y-74242100D01*
X106636104Y-74242887D01*
X106607389Y-74247070D01*
X106538213Y-74237255D01*
X106501834Y-74212046D01*
X106449776Y-74159988D01*
X106449772Y-74159985D01*
X106449771Y-74159984D01*
X106336055Y-74102043D01*
X106336053Y-74102042D01*
X106336050Y-74102041D01*
X106210003Y-74082078D01*
X106209997Y-74082078D01*
X106083949Y-74102041D01*
X106083945Y-74102042D01*
X106083945Y-74102043D01*
X106064607Y-74111896D01*
X105970227Y-74159985D01*
X105970223Y-74159988D01*
X105879988Y-74250223D01*
X105879985Y-74250227D01*
X105822041Y-74363949D01*
X105802078Y-74489996D01*
X105802078Y-74490003D01*
X105822041Y-74616050D01*
X105822042Y-74616053D01*
X105822043Y-74616055D01*
X105876967Y-74723849D01*
X105879985Y-74729772D01*
X105879988Y-74729776D01*
X105970223Y-74820011D01*
X105970227Y-74820014D01*
X105970229Y-74820016D01*
X106083945Y-74877957D01*
X106141884Y-74887133D01*
X106205016Y-74917061D01*
X106210166Y-74921925D01*
X106285781Y-74997540D01*
X106319266Y-75058863D01*
X106322100Y-75085221D01*
X106322100Y-75098306D01*
X106302415Y-75165345D01*
X106249611Y-75211100D01*
X106180453Y-75221044D01*
X106116897Y-75192019D01*
X106110419Y-75185987D01*
X106082624Y-75158192D01*
X105969322Y-75102803D01*
X105969320Y-75102802D01*
X105969319Y-75102802D01*
X105895863Y-75092100D01*
X105895857Y-75092100D01*
X105382459Y-75092100D01*
X105315420Y-75072415D01*
X105294778Y-75055781D01*
X104895419Y-74656422D01*
X104861934Y-74595099D01*
X104859100Y-74568741D01*
X104859100Y-69039998D01*
X105194390Y-69039998D01*
X105194390Y-69040001D01*
X105214804Y-69325433D01*
X105275628Y-69605037D01*
X105275630Y-69605043D01*
X105275631Y-69605046D01*
X105367082Y-69850234D01*
X105375635Y-69873166D01*
X105512770Y-70124309D01*
X105512775Y-70124317D01*
X105684254Y-70353387D01*
X105684270Y-70353405D01*
X105886594Y-70555729D01*
X105886612Y-70555745D01*
X106115682Y-70727224D01*
X106115690Y-70727229D01*
X106366833Y-70864364D01*
X106366832Y-70864364D01*
X106366836Y-70864365D01*
X106366839Y-70864367D01*
X106634954Y-70964369D01*
X106634960Y-70964370D01*
X106634962Y-70964371D01*
X106914566Y-71025195D01*
X106914568Y-71025195D01*
X106914572Y-71025196D01*
X107168220Y-71043337D01*
X107199999Y-71045610D01*
X107200000Y-71045610D01*
X107200001Y-71045610D01*
X107228595Y-71043564D01*
X107485428Y-71025196D01*
X107486587Y-71024944D01*
X107765037Y-70964371D01*
X107765037Y-70964370D01*
X107765046Y-70964369D01*
X108033161Y-70864367D01*
X108284315Y-70727226D01*
X108513395Y-70555739D01*
X108715739Y-70353395D01*
X108887226Y-70124315D01*
X109024367Y-69873161D01*
X109124369Y-69605046D01*
X109130735Y-69575782D01*
X109185195Y-69325433D01*
X109185195Y-69325432D01*
X109185196Y-69325428D01*
X109205610Y-69040000D01*
X109202700Y-68999319D01*
X109199149Y-68949658D01*
X109185196Y-68754572D01*
X109124369Y-68474954D01*
X109024367Y-68206839D01*
X109006925Y-68174897D01*
X108887229Y-67955690D01*
X108887224Y-67955682D01*
X108715745Y-67726612D01*
X108715729Y-67726594D01*
X108513405Y-67524270D01*
X108513387Y-67524254D01*
X108284317Y-67352775D01*
X108284309Y-67352770D01*
X108033166Y-67215635D01*
X108033167Y-67215635D01*
X107925915Y-67175632D01*
X107765046Y-67115631D01*
X107765043Y-67115630D01*
X107765037Y-67115628D01*
X107485433Y-67054804D01*
X107200001Y-67034390D01*
X107199999Y-67034390D01*
X106914566Y-67054804D01*
X106634962Y-67115628D01*
X106366833Y-67215635D01*
X106115690Y-67352770D01*
X106115682Y-67352775D01*
X105886612Y-67524254D01*
X105886594Y-67524270D01*
X105684270Y-67726594D01*
X105684254Y-67726612D01*
X105512775Y-67955682D01*
X105512770Y-67955690D01*
X105375635Y-68206833D01*
X105275628Y-68474962D01*
X105214804Y-68754566D01*
X105194390Y-69039998D01*
X104859100Y-69039998D01*
X104859100Y-68034430D01*
X104859099Y-68034426D01*
X104848884Y-68009765D01*
X104848884Y-68009764D01*
X104824224Y-67950230D01*
X104824222Y-67950225D01*
X104519775Y-67645778D01*
X104460233Y-67621115D01*
X104460232Y-67621114D01*
X104435571Y-67610900D01*
X104010725Y-67610900D01*
X103943686Y-67591215D01*
X103907622Y-67555789D01*
X103890234Y-67529766D01*
X103881985Y-67524254D01*
X103839658Y-67495972D01*
X103839657Y-67495971D01*
X103839656Y-67495971D01*
X103839654Y-67495970D01*
X103795059Y-67487100D01*
X102964945Y-67487100D01*
X102920341Y-67495972D01*
X102920338Y-67495973D01*
X102869766Y-67529765D01*
X102835971Y-67580343D01*
X102835970Y-67580345D01*
X102827100Y-67624940D01*
X86181754Y-67624940D01*
X86206589Y-67603420D01*
X86239190Y-67594632D01*
X86239082Y-67594087D01*
X86245055Y-67592899D01*
X86245056Y-67592899D01*
X86289658Y-67584028D01*
X86340234Y-67550234D01*
X86374028Y-67499658D01*
X86374762Y-67495971D01*
X86376526Y-67487100D01*
X86382900Y-67455057D01*
X86382899Y-66664499D01*
X86402583Y-66597461D01*
X86455387Y-66551706D01*
X86506899Y-66540500D01*
X109575500Y-66540500D01*
X109642539Y-66560185D01*
X109688294Y-66612989D01*
X109699500Y-66664500D01*
X109699500Y-115415500D01*
X109679815Y-115482539D01*
X109627011Y-115528294D01*
X109575500Y-115539500D01*
X76824500Y-115539500D01*
X76757461Y-115519815D01*
X76711706Y-115467011D01*
X76700500Y-115415500D01*
X76700500Y-113039998D01*
X77194390Y-113039998D01*
X77194390Y-113040001D01*
X77214804Y-113325433D01*
X77275628Y-113605037D01*
X77275630Y-113605043D01*
X77275631Y-113605046D01*
X77374847Y-113871054D01*
X77375635Y-113873166D01*
X77512770Y-114124309D01*
X77512775Y-114124317D01*
X77684254Y-114353387D01*
X77684270Y-114353405D01*
X77886594Y-114555729D01*
X77886612Y-114555745D01*
X78115682Y-114727224D01*
X78115690Y-114727229D01*
X78366833Y-114864364D01*
X78366832Y-114864364D01*
X78366836Y-114864365D01*
X78366839Y-114864367D01*
X78634954Y-114964369D01*
X78634960Y-114964370D01*
X78634962Y-114964371D01*
X78914566Y-115025195D01*
X78914568Y-115025195D01*
X78914572Y-115025196D01*
X79168220Y-115043337D01*
X79199999Y-115045610D01*
X79200000Y-115045610D01*
X79200001Y-115045610D01*
X79228595Y-115043564D01*
X79485428Y-115025196D01*
X79765046Y-114964369D01*
X80033161Y-114864367D01*
X80284315Y-114727226D01*
X80513395Y-114555739D01*
X80715739Y-114353395D01*
X80887226Y-114124315D01*
X81024367Y-113873161D01*
X81124369Y-113605046D01*
X81185196Y-113325428D01*
X81205610Y-113040000D01*
X81185196Y-112754572D01*
X81137928Y-112537285D01*
X81124371Y-112474962D01*
X81124370Y-112474960D01*
X81124369Y-112474954D01*
X81024367Y-112206839D01*
X80944025Y-112059705D01*
X80887229Y-111955690D01*
X80887224Y-111955682D01*
X80715745Y-111726612D01*
X80715729Y-111726594D01*
X80513405Y-111524270D01*
X80513387Y-111524254D01*
X80284317Y-111352775D01*
X80284309Y-111352770D01*
X80033166Y-111215635D01*
X80033167Y-111215635D01*
X79925915Y-111175632D01*
X79765046Y-111115631D01*
X79765043Y-111115630D01*
X79765037Y-111115628D01*
X79485433Y-111054804D01*
X79200001Y-111034390D01*
X79199999Y-111034390D01*
X78914566Y-111054804D01*
X78634962Y-111115628D01*
X78366833Y-111215635D01*
X78115690Y-111352770D01*
X78115682Y-111352775D01*
X77886612Y-111524254D01*
X77886594Y-111524270D01*
X77684270Y-111726594D01*
X77684254Y-111726612D01*
X77512775Y-111955682D01*
X77512770Y-111955690D01*
X77375635Y-112206833D01*
X77275628Y-112474962D01*
X77214804Y-112754566D01*
X77194390Y-113039998D01*
X76700500Y-113039998D01*
X76700500Y-109950134D01*
X94230000Y-109950134D01*
X94230000Y-111290000D01*
X95293498Y-111290000D01*
X95280000Y-111392527D01*
X95280000Y-111687473D01*
X95293498Y-111790000D01*
X94230000Y-111790000D01*
X94230000Y-113129865D01*
X94236303Y-113242099D01*
X94236304Y-113242112D01*
X94286455Y-113507170D01*
X94286460Y-113507187D01*
X94375560Y-113761820D01*
X94375562Y-113761824D01*
X94501621Y-114000339D01*
X94501624Y-114000345D01*
X94661824Y-114217408D01*
X94852591Y-114408175D01*
X95069654Y-114568375D01*
X95069660Y-114568378D01*
X95308175Y-114694437D01*
X95308179Y-114694439D01*
X95562812Y-114783539D01*
X95562829Y-114783544D01*
X95827887Y-114833695D01*
X95827900Y-114833696D01*
X95940134Y-114839999D01*
X95940149Y-114840000D01*
X97280000Y-114840000D01*
X97280000Y-113776502D01*
X97382527Y-113790000D01*
X97677473Y-113790000D01*
X97780000Y-113776502D01*
X97780000Y-114840000D01*
X99119851Y-114840000D01*
X99119865Y-114839999D01*
X99232099Y-114833696D01*
X99232112Y-114833695D01*
X99497170Y-114783544D01*
X99497187Y-114783539D01*
X99751820Y-114694439D01*
X99751824Y-114694437D01*
X99990339Y-114568378D01*
X99990345Y-114568375D01*
X100207408Y-114408175D01*
X100398175Y-114217408D01*
X100558375Y-114000345D01*
X100558378Y-114000339D01*
X100684437Y-113761824D01*
X100684439Y-113761820D01*
X100773539Y-113507187D01*
X100773544Y-113507170D01*
X100823695Y-113242112D01*
X100823696Y-113242099D01*
X100829999Y-113129865D01*
X100830000Y-113129851D01*
X100830000Y-113039998D01*
X105194390Y-113039998D01*
X105194390Y-113040001D01*
X105214804Y-113325433D01*
X105275628Y-113605037D01*
X105275630Y-113605043D01*
X105275631Y-113605046D01*
X105374847Y-113871054D01*
X105375635Y-113873166D01*
X105512770Y-114124309D01*
X105512775Y-114124317D01*
X105684254Y-114353387D01*
X105684270Y-114353405D01*
X105886594Y-114555729D01*
X105886612Y-114555745D01*
X106115682Y-114727224D01*
X106115690Y-114727229D01*
X106366833Y-114864364D01*
X106366832Y-114864364D01*
X106366836Y-114864365D01*
X106366839Y-114864367D01*
X106634954Y-114964369D01*
X106634960Y-114964370D01*
X106634962Y-114964371D01*
X106914566Y-115025195D01*
X106914568Y-115025195D01*
X106914572Y-115025196D01*
X107168220Y-115043337D01*
X107199999Y-115045610D01*
X107200000Y-115045610D01*
X107200001Y-115045610D01*
X107228595Y-115043564D01*
X107485428Y-115025196D01*
X107765046Y-114964369D01*
X108033161Y-114864367D01*
X108284315Y-114727226D01*
X108513395Y-114555739D01*
X108715739Y-114353395D01*
X108887226Y-114124315D01*
X109024367Y-113873161D01*
X109124369Y-113605046D01*
X109185196Y-113325428D01*
X109205610Y-113040000D01*
X109185196Y-112754572D01*
X109137928Y-112537285D01*
X109124371Y-112474962D01*
X109124370Y-112474960D01*
X109124369Y-112474954D01*
X109024367Y-112206839D01*
X108944025Y-112059705D01*
X108887229Y-111955690D01*
X108887224Y-111955682D01*
X108715745Y-111726612D01*
X108715729Y-111726594D01*
X108513405Y-111524270D01*
X108513387Y-111524254D01*
X108284317Y-111352775D01*
X108284309Y-111352770D01*
X108033166Y-111215635D01*
X108033167Y-111215635D01*
X107925915Y-111175632D01*
X107765046Y-111115631D01*
X107765043Y-111115630D01*
X107765037Y-111115628D01*
X107485433Y-111054804D01*
X107200001Y-111034390D01*
X107199999Y-111034390D01*
X106914566Y-111054804D01*
X106634962Y-111115628D01*
X106366833Y-111215635D01*
X106115690Y-111352770D01*
X106115682Y-111352775D01*
X105886612Y-111524254D01*
X105886594Y-111524270D01*
X105684270Y-111726594D01*
X105684254Y-111726612D01*
X105512775Y-111955682D01*
X105512770Y-111955690D01*
X105375635Y-112206833D01*
X105275628Y-112474962D01*
X105214804Y-112754566D01*
X105194390Y-113039998D01*
X100830000Y-113039998D01*
X100830000Y-111790000D01*
X99766502Y-111790000D01*
X99780000Y-111687473D01*
X99780000Y-111392527D01*
X99766502Y-111290000D01*
X100830000Y-111290000D01*
X100830000Y-109950148D01*
X100829999Y-109950134D01*
X100823696Y-109837900D01*
X100823695Y-109837887D01*
X100773544Y-109572829D01*
X100773539Y-109572812D01*
X100684439Y-109318179D01*
X100684437Y-109318175D01*
X100558378Y-109079660D01*
X100558375Y-109079654D01*
X100398175Y-108862591D01*
X100207408Y-108671824D01*
X99990345Y-108511624D01*
X99990339Y-108511621D01*
X99751824Y-108385562D01*
X99751820Y-108385560D01*
X99497187Y-108296460D01*
X99497170Y-108296455D01*
X99232112Y-108246304D01*
X99232099Y-108246303D01*
X99119865Y-108240000D01*
X97780000Y-108240000D01*
X97780000Y-109303497D01*
X97677473Y-109290000D01*
X97382527Y-109290000D01*
X97280000Y-109303497D01*
X97280000Y-108240000D01*
X95940134Y-108240000D01*
X95827900Y-108246303D01*
X95827887Y-108246304D01*
X95562829Y-108296455D01*
X95562812Y-108296460D01*
X95308179Y-108385560D01*
X95308175Y-108385562D01*
X95069660Y-108511621D01*
X95069654Y-108511624D01*
X94852591Y-108671824D01*
X94661824Y-108862591D01*
X94501624Y-109079654D01*
X94501621Y-109079660D01*
X94375562Y-109318175D01*
X94375560Y-109318179D01*
X94286460Y-109572812D01*
X94286455Y-109572829D01*
X94236304Y-109837887D01*
X94236303Y-109837900D01*
X94230000Y-109950134D01*
X76700500Y-109950134D01*
X76700500Y-109566900D01*
X76720185Y-109499861D01*
X76772989Y-109454106D01*
X76824500Y-109442900D01*
X85661713Y-109442900D01*
X85756050Y-109427958D01*
X85756050Y-109427957D01*
X85756055Y-109427957D01*
X85869771Y-109370016D01*
X85960016Y-109279771D01*
X86017957Y-109166055D01*
X86031641Y-109079660D01*
X86032900Y-109071713D01*
X86032900Y-101018286D01*
X87877100Y-101018286D01*
X87877100Y-101681713D01*
X87892041Y-101776050D01*
X87892042Y-101776053D01*
X87892043Y-101776055D01*
X87944833Y-101879661D01*
X87949985Y-101889772D01*
X87949988Y-101889776D01*
X88040223Y-101980011D01*
X88040227Y-101980014D01*
X88040229Y-101980016D01*
X88153945Y-102037957D01*
X88153947Y-102037957D01*
X88153949Y-102037958D01*
X88248287Y-102052900D01*
X88248292Y-102052900D01*
X92411713Y-102052900D01*
X92479098Y-102042226D01*
X92506055Y-102037957D01*
X92524132Y-102028745D01*
X92557560Y-102011715D01*
X92613853Y-101998200D01*
X94020144Y-101998200D01*
X94087183Y-102017885D01*
X94107825Y-102034519D01*
X94746409Y-102673103D01*
X94779894Y-102734426D01*
X94774910Y-102804118D01*
X94767256Y-102820765D01*
X94684857Y-102969854D01*
X94684855Y-102969858D01*
X94549340Y-103297024D01*
X94451307Y-103637302D01*
X94451305Y-103637311D01*
X94391989Y-103986423D01*
X94391987Y-103986435D01*
X94372132Y-104340000D01*
X94391987Y-104693564D01*
X94391989Y-104693576D01*
X94451305Y-105042688D01*
X94451307Y-105042697D01*
X94549340Y-105382975D01*
X94684855Y-105710141D01*
X94684857Y-105710145D01*
X94684859Y-105710148D01*
X94856157Y-106020087D01*
X95061079Y-106308898D01*
X95297050Y-106572950D01*
X95561102Y-106808921D01*
X95849913Y-107013843D01*
X96051007Y-107124984D01*
X96159854Y-107185142D01*
X96159858Y-107185144D01*
X96285234Y-107237076D01*
X96487022Y-107320659D01*
X96827308Y-107418694D01*
X97176431Y-107478012D01*
X97530000Y-107497868D01*
X97883569Y-107478012D01*
X98232692Y-107418694D01*
X98572978Y-107320659D01*
X98875658Y-107195284D01*
X98900141Y-107185144D01*
X98900142Y-107185143D01*
X98900148Y-107185141D01*
X99018018Y-107119996D01*
X103062078Y-107119996D01*
X103062078Y-107120003D01*
X103082041Y-107246050D01*
X103082042Y-107246053D01*
X103082043Y-107246055D01*
X103082044Y-107246056D01*
X103139985Y-107359772D01*
X103139988Y-107359776D01*
X103230223Y-107450011D01*
X103230227Y-107450014D01*
X103230229Y-107450016D01*
X103343945Y-107507957D01*
X103343947Y-107507957D01*
X103343949Y-107507958D01*
X103469997Y-107527922D01*
X103470000Y-107527922D01*
X103470003Y-107527922D01*
X103596050Y-107507958D01*
X103596050Y-107507957D01*
X103596055Y-107507957D01*
X103709771Y-107450016D01*
X103800016Y-107359771D01*
X103857957Y-107246055D01*
X103867132Y-107188117D01*
X103897061Y-107124984D01*
X103901907Y-107119852D01*
X103924301Y-107097459D01*
X103964494Y-107027841D01*
X103968245Y-107013843D01*
X103981384Y-106964808D01*
X104017747Y-106905147D01*
X104080594Y-106874616D01*
X104101159Y-106872899D01*
X104145055Y-106872899D01*
X104145056Y-106872899D01*
X104189658Y-106864028D01*
X104240234Y-106830234D01*
X104274028Y-106779658D01*
X104282900Y-106735057D01*
X104282899Y-105204944D01*
X104282898Y-105204940D01*
X106377100Y-105204940D01*
X106377100Y-106735054D01*
X106385972Y-106779658D01*
X106385973Y-106779661D01*
X106419765Y-106830233D01*
X106419766Y-106830234D01*
X106470342Y-106864028D01*
X106470343Y-106864028D01*
X106470345Y-106864029D01*
X106492642Y-106868464D01*
X106514943Y-106872900D01*
X107445056Y-106872899D01*
X107489658Y-106864028D01*
X107540234Y-106830234D01*
X107574028Y-106779658D01*
X107582900Y-106735057D01*
X107582899Y-105204944D01*
X107574028Y-105160342D01*
X107574026Y-105160340D01*
X107574026Y-105160338D01*
X107540234Y-105109766D01*
X107489659Y-105075973D01*
X107489658Y-105075972D01*
X107489657Y-105075971D01*
X107489656Y-105075971D01*
X107489654Y-105075970D01*
X107445059Y-105067100D01*
X106514945Y-105067100D01*
X106470341Y-105075972D01*
X106470338Y-105075973D01*
X106419766Y-105109765D01*
X106385971Y-105160343D01*
X106385970Y-105160345D01*
X106377100Y-105204940D01*
X104282898Y-105204940D01*
X104274028Y-105160342D01*
X104274026Y-105160340D01*
X104274026Y-105160338D01*
X104240234Y-105109766D01*
X104189659Y-105075973D01*
X104189658Y-105075972D01*
X104189657Y-105075971D01*
X104189656Y-105075971D01*
X104189654Y-105075970D01*
X104145059Y-105067100D01*
X103214945Y-105067100D01*
X103170341Y-105075972D01*
X103170338Y-105075973D01*
X103119766Y-105109765D01*
X103085971Y-105160343D01*
X103085970Y-105160345D01*
X103077100Y-105204940D01*
X103077100Y-106735054D01*
X103085972Y-106779658D01*
X103085974Y-106779664D01*
X103105311Y-106808603D01*
X103126189Y-106875280D01*
X103112695Y-106933786D01*
X103082041Y-106993949D01*
X103062078Y-107119996D01*
X99018018Y-107119996D01*
X99210087Y-107013843D01*
X99498898Y-106808921D01*
X99762950Y-106572950D01*
X99998921Y-106308898D01*
X100203843Y-106020087D01*
X100375141Y-105710148D01*
X100510659Y-105382978D01*
X100608694Y-105042692D01*
X100668012Y-104693569D01*
X100687868Y-104340000D01*
X100668012Y-103986431D01*
X100608694Y-103637308D01*
X100510659Y-103297022D01*
X100427076Y-103095234D01*
X100375144Y-102969858D01*
X100375142Y-102969854D01*
X100292743Y-102820765D01*
X100203843Y-102659913D01*
X99998921Y-102371102D01*
X99762950Y-102107050D01*
X99498898Y-101871079D01*
X99210087Y-101666157D01*
X98900145Y-101494857D01*
X98900141Y-101494855D01*
X98632077Y-101383820D01*
X98572978Y-101359341D01*
X98572975Y-101359340D01*
X98232697Y-101261307D01*
X98232688Y-101261305D01*
X97883576Y-101201989D01*
X97883564Y-101201987D01*
X97530000Y-101182132D01*
X97176435Y-101201987D01*
X97176423Y-101201989D01*
X96827311Y-101261305D01*
X96827302Y-101261307D01*
X96487024Y-101359340D01*
X96159858Y-101494855D01*
X96159854Y-101494857D01*
X95849909Y-101666159D01*
X95773237Y-101720559D01*
X95707171Y-101743297D01*
X95639300Y-101726709D01*
X95613803Y-101707109D01*
X94394520Y-100487826D01*
X94361035Y-100426503D01*
X94358201Y-100400145D01*
X94358201Y-98386138D01*
X94359728Y-98366740D01*
X94362901Y-98346706D01*
X94362901Y-97333286D01*
X94347959Y-97238949D01*
X94347958Y-97238947D01*
X94347958Y-97238945D01*
X94290017Y-97125229D01*
X94290015Y-97125227D01*
X94290012Y-97125223D01*
X94199777Y-97034988D01*
X94199773Y-97034985D01*
X94199772Y-97034984D01*
X94086056Y-96977043D01*
X94086054Y-96977042D01*
X94086051Y-96977041D01*
X93991714Y-96962100D01*
X93991709Y-96962100D01*
X93428293Y-96962100D01*
X93428288Y-96962100D01*
X93333950Y-96977041D01*
X93220228Y-97034985D01*
X93220224Y-97034988D01*
X93129989Y-97125223D01*
X93129986Y-97125227D01*
X93126453Y-97132161D01*
X93078946Y-97225400D01*
X93072042Y-97238949D01*
X93057101Y-97333286D01*
X93057101Y-98346706D01*
X93060274Y-98366740D01*
X93061801Y-98386138D01*
X93061801Y-100577800D01*
X93042116Y-100644839D01*
X92989312Y-100690594D01*
X92937801Y-100701800D01*
X92613853Y-100701800D01*
X92557560Y-100688285D01*
X92506053Y-100662042D01*
X92411713Y-100647100D01*
X92411708Y-100647100D01*
X88248292Y-100647100D01*
X88248287Y-100647100D01*
X88153949Y-100662041D01*
X88040227Y-100719985D01*
X88040223Y-100719988D01*
X87949988Y-100810223D01*
X87949985Y-100810227D01*
X87892041Y-100923949D01*
X87877100Y-101018286D01*
X86032900Y-101018286D01*
X86032900Y-99961400D01*
X86052585Y-99894361D01*
X86105389Y-99848606D01*
X86156900Y-99837400D01*
X88008646Y-99837400D01*
X88008649Y-99837400D01*
X88160588Y-99796688D01*
X88296812Y-99718039D01*
X89708040Y-98306811D01*
X89786689Y-98170587D01*
X89827401Y-98018648D01*
X89827401Y-97861350D01*
X89827401Y-97800422D01*
X89840916Y-97744127D01*
X89850458Y-97725400D01*
X89867958Y-97691055D01*
X89867958Y-97691053D01*
X89867959Y-97691052D01*
X89882901Y-97596713D01*
X89882901Y-96583286D01*
X89867959Y-96488949D01*
X89867958Y-96488947D01*
X89867958Y-96488945D01*
X89810017Y-96375229D01*
X89810015Y-96375227D01*
X89810012Y-96375223D01*
X89719777Y-96284988D01*
X89719773Y-96284985D01*
X89719772Y-96284984D01*
X89606056Y-96227043D01*
X89606054Y-96227042D01*
X89606051Y-96227041D01*
X89511714Y-96212100D01*
X89511709Y-96212100D01*
X88948293Y-96212100D01*
X88948288Y-96212100D01*
X88853950Y-96227041D01*
X88740228Y-96284985D01*
X88740224Y-96284988D01*
X88649989Y-96375223D01*
X88649986Y-96375227D01*
X88592042Y-96488949D01*
X88577101Y-96583286D01*
X88577101Y-97596713D01*
X88587909Y-97664951D01*
X88578955Y-97734244D01*
X88553117Y-97772030D01*
X87718868Y-98606281D01*
X87657545Y-98639766D01*
X87631187Y-98642600D01*
X86108545Y-98642600D01*
X86041506Y-98622915D01*
X85998060Y-98574895D01*
X85960016Y-98500229D01*
X85960012Y-98500225D01*
X85960011Y-98500223D01*
X85869776Y-98409988D01*
X85869772Y-98409985D01*
X85869771Y-98409984D01*
X85756055Y-98352043D01*
X85756053Y-98352042D01*
X85756050Y-98352041D01*
X85661713Y-98337100D01*
X85661708Y-98337100D01*
X85661706Y-98337100D01*
X80811708Y-98337100D01*
X80726200Y-98337100D01*
X80659161Y-98317415D01*
X80613406Y-98264611D01*
X80602200Y-98213100D01*
X80602200Y-96654956D01*
X80621885Y-96587917D01*
X80674689Y-96542162D01*
X80743847Y-96532218D01*
X80807403Y-96561243D01*
X80840760Y-96607502D01*
X80856762Y-96646136D01*
X80899857Y-96750179D01*
X80899858Y-96750181D01*
X80998671Y-96898064D01*
X80998674Y-96898068D01*
X81124431Y-97023825D01*
X81124435Y-97023828D01*
X81272316Y-97122640D01*
X81272317Y-97122640D01*
X81272318Y-97122641D01*
X81272320Y-97122642D01*
X81359632Y-97158807D01*
X81436634Y-97190702D01*
X81436636Y-97190702D01*
X81436641Y-97190704D01*
X81611067Y-97225399D01*
X81611070Y-97225400D01*
X81611072Y-97225400D01*
X81788930Y-97225400D01*
X81788931Y-97225399D01*
X81847074Y-97213834D01*
X81963358Y-97190704D01*
X81963361Y-97190702D01*
X81963366Y-97190702D01*
X82127684Y-97122640D01*
X82275565Y-97023828D01*
X82401328Y-96898065D01*
X82500140Y-96750184D01*
X82558541Y-96609188D01*
X82602379Y-96554789D01*
X82668672Y-96532723D01*
X82736372Y-96550001D01*
X82783983Y-96601138D01*
X82797100Y-96656644D01*
X82797100Y-97087554D01*
X82805972Y-97132158D01*
X82805973Y-97132161D01*
X82823778Y-97158807D01*
X82839766Y-97182734D01*
X82890342Y-97216528D01*
X82890343Y-97216528D01*
X82890345Y-97216529D01*
X82912642Y-97220964D01*
X82934943Y-97225400D01*
X84465056Y-97225399D01*
X84509658Y-97216528D01*
X84560234Y-97182734D01*
X84560610Y-97182171D01*
X84561753Y-97181215D01*
X84568870Y-97174099D01*
X84569506Y-97174735D01*
X84614220Y-97137365D01*
X84683545Y-97128655D01*
X84746573Y-97158807D01*
X84764031Y-97178173D01*
X84838850Y-97281150D01*
X84844342Y-97288709D01*
X84983791Y-97428158D01*
X85143337Y-97544076D01*
X85229520Y-97587988D01*
X85319052Y-97633608D01*
X85319055Y-97633609D01*
X85412832Y-97664078D01*
X85506612Y-97694549D01*
X85701395Y-97725400D01*
X85701396Y-97725400D01*
X85898604Y-97725400D01*
X85898605Y-97725400D01*
X86093388Y-97694549D01*
X86280947Y-97633608D01*
X86456663Y-97544076D01*
X86616209Y-97428158D01*
X86755658Y-97288709D01*
X86871576Y-97129163D01*
X86961108Y-96953447D01*
X87022049Y-96765888D01*
X87052900Y-96571105D01*
X87052900Y-95073895D01*
X87024950Y-94897428D01*
X87033904Y-94828136D01*
X87078901Y-94774684D01*
X87145652Y-94754044D01*
X87212966Y-94772769D01*
X87235104Y-94790350D01*
X87444684Y-94999930D01*
X87476778Y-95055516D01*
X87477749Y-95059140D01*
X87480002Y-95067548D01*
X87525212Y-95145853D01*
X87525213Y-95145854D01*
X87525215Y-95145857D01*
X87526474Y-95147498D01*
X87527105Y-95149132D01*
X87529276Y-95152891D01*
X87528689Y-95153229D01*
X87551670Y-95212666D01*
X87552100Y-95222986D01*
X87552100Y-95575864D01*
X87562801Y-95649316D01*
X87562801Y-95649317D01*
X87562802Y-95649319D01*
X87618194Y-95762624D01*
X87618195Y-95762627D01*
X87707375Y-95851807D01*
X87815848Y-95904835D01*
X87820681Y-95907198D01*
X87894137Y-95917900D01*
X88415862Y-95917899D01*
X88415864Y-95917899D01*
X88445244Y-95913618D01*
X88489319Y-95907198D01*
X88602625Y-95851806D01*
X88691806Y-95762625D01*
X88691807Y-95762624D01*
X88718911Y-95707180D01*
X88747198Y-95649319D01*
X88757900Y-95575863D01*
X88757899Y-95224101D01*
X88777583Y-95157063D01*
X88794213Y-95136426D01*
X89374788Y-94555853D01*
X89419998Y-94477548D01*
X89421574Y-94471667D01*
X89424943Y-94459093D01*
X89424943Y-94459092D01*
X89433147Y-94428472D01*
X89443400Y-94390209D01*
X89443400Y-94273013D01*
X89445783Y-94248820D01*
X89452900Y-94213043D01*
X89452900Y-93976955D01*
X89452899Y-93976953D01*
X89438589Y-93905012D01*
X89438589Y-93905011D01*
X89416753Y-93872332D01*
X89384075Y-93823425D01*
X89337979Y-93792625D01*
X89302488Y-93768910D01*
X89230545Y-93754600D01*
X89230542Y-93754600D01*
X89172729Y-93754600D01*
X89153345Y-93752048D01*
X89153265Y-93752661D01*
X89145210Y-93751600D01*
X89145209Y-93751600D01*
X89054791Y-93751600D01*
X89054789Y-93751600D01*
X89046735Y-93752661D01*
X89046654Y-93752048D01*
X89027271Y-93754600D01*
X88969455Y-93754600D01*
X88897512Y-93768910D01*
X88843890Y-93804739D01*
X88777212Y-93825616D01*
X88709832Y-93807131D01*
X88706110Y-93804739D01*
X88652487Y-93768910D01*
X88580545Y-93754600D01*
X88580542Y-93754600D01*
X88319458Y-93754600D01*
X88319455Y-93754600D01*
X88247512Y-93768910D01*
X88193890Y-93804739D01*
X88127212Y-93825616D01*
X88059832Y-93807131D01*
X88056110Y-93804739D01*
X88002487Y-93768910D01*
X87930545Y-93754600D01*
X87930542Y-93754600D01*
X87872729Y-93754600D01*
X87853345Y-93752048D01*
X87853265Y-93752661D01*
X87845210Y-93751600D01*
X87845209Y-93751600D01*
X87845207Y-93751600D01*
X87578208Y-93751600D01*
X87511169Y-93731915D01*
X87490527Y-93715281D01*
X86838834Y-93063588D01*
X86838828Y-93063583D01*
X86731571Y-93001658D01*
X86731566Y-93001656D01*
X86671750Y-92985627D01*
X86671750Y-92985628D01*
X86611931Y-92969600D01*
X86611930Y-92969600D01*
X86611929Y-92969600D01*
X85031930Y-92969600D01*
X84908070Y-92969600D01*
X84831215Y-92990193D01*
X84831214Y-92990192D01*
X84788433Y-93001656D01*
X84788428Y-93001658D01*
X84681171Y-93063583D01*
X84681165Y-93063588D01*
X83411167Y-94333586D01*
X83361470Y-94383282D01*
X83300147Y-94416766D01*
X83273790Y-94419600D01*
X82934945Y-94419600D01*
X82890341Y-94428472D01*
X82890338Y-94428473D01*
X82839766Y-94462265D01*
X82805971Y-94512843D01*
X82805970Y-94512845D01*
X82797100Y-94557440D01*
X82797100Y-94988353D01*
X82777415Y-95055392D01*
X82724611Y-95101147D01*
X82655453Y-95111091D01*
X82591897Y-95082066D01*
X82558539Y-95035805D01*
X82500142Y-94894820D01*
X82500141Y-94894818D01*
X82401328Y-94746935D01*
X82401325Y-94746931D01*
X82275568Y-94621174D01*
X82275564Y-94621171D01*
X82127683Y-94522359D01*
X82081846Y-94503373D01*
X82027443Y-94459531D01*
X82005379Y-94393237D01*
X82005300Y-94388812D01*
X82005300Y-93254155D01*
X82024985Y-93187116D01*
X82077789Y-93141361D01*
X82146947Y-93131417D01*
X82176753Y-93139594D01*
X82296648Y-93189256D01*
X82296656Y-93189258D01*
X82451202Y-93219999D01*
X82451206Y-93220000D01*
X82830000Y-93220000D01*
X82830000Y-92720000D01*
X83330000Y-92720000D01*
X83330000Y-93220000D01*
X83708794Y-93220000D01*
X83708797Y-93219999D01*
X83863343Y-93189258D01*
X83863351Y-93189256D01*
X84008939Y-93128952D01*
X84008948Y-93128947D01*
X84139969Y-93041401D01*
X84139973Y-93041398D01*
X84251398Y-92929973D01*
X84251401Y-92929969D01*
X84338947Y-92798948D01*
X84338952Y-92798938D01*
X84392361Y-92670000D01*
X83796988Y-92670000D01*
X83814205Y-92660060D01*
X83870060Y-92604205D01*
X83909556Y-92535796D01*
X83930000Y-92459496D01*
X83930000Y-92380504D01*
X83909556Y-92304204D01*
X83870060Y-92235795D01*
X83814205Y-92179940D01*
X83796988Y-92170000D01*
X84392361Y-92170000D01*
X84392360Y-92169999D01*
X84338952Y-92041061D01*
X84338947Y-92041051D01*
X84251401Y-91910030D01*
X84251398Y-91910026D01*
X84139973Y-91798601D01*
X84139969Y-91798598D01*
X84008948Y-91711052D01*
X84008939Y-91711047D01*
X83863351Y-91650743D01*
X83863343Y-91650741D01*
X83708797Y-91620000D01*
X83330000Y-91620000D01*
X83330000Y-92120000D01*
X82830000Y-92120000D01*
X82830000Y-91581784D01*
X82849685Y-91514745D01*
X82892000Y-91474397D01*
X82933365Y-91450515D01*
X83040515Y-91343365D01*
X83116281Y-91212135D01*
X83155500Y-91065766D01*
X83155500Y-91065757D01*
X83156165Y-91060713D01*
X83184432Y-90996817D01*
X83242757Y-90958347D01*
X83279104Y-90952900D01*
X84125225Y-90952900D01*
X84125226Y-90952900D01*
X84150550Y-90949962D01*
X84254145Y-90904220D01*
X84334220Y-90824145D01*
X84379962Y-90720550D01*
X84382900Y-90695226D01*
X84382900Y-90304774D01*
X84379962Y-90279450D01*
X84374509Y-90267100D01*
X84368366Y-90253186D01*
X84359294Y-90183908D01*
X84389117Y-90120723D01*
X84448367Y-90083692D01*
X84481800Y-90079100D01*
X84918661Y-90079100D01*
X84985700Y-90098785D01*
X85006343Y-90115420D01*
X85047099Y-90156177D01*
X85047100Y-90156177D01*
X85047102Y-90156179D01*
X85152912Y-90207906D01*
X85221506Y-90217900D01*
X85221511Y-90217900D01*
X85838489Y-90217900D01*
X85838494Y-90217900D01*
X85907088Y-90207906D01*
X86012898Y-90156179D01*
X86096179Y-90072898D01*
X86147906Y-89967088D01*
X86157900Y-89898494D01*
X86157900Y-89431506D01*
X86147906Y-89362912D01*
X86096179Y-89257102D01*
X86096177Y-89257100D01*
X86096177Y-89257099D01*
X86012900Y-89173822D01*
X85960689Y-89148298D01*
X85907088Y-89122094D01*
X85838494Y-89112100D01*
X85221506Y-89112100D01*
X85164344Y-89120428D01*
X85152911Y-89122094D01*
X85047099Y-89173822D01*
X84963822Y-89257099D01*
X84928741Y-89328860D01*
X84912094Y-89362912D01*
X84902100Y-89431506D01*
X84902100Y-89431511D01*
X84902100Y-89496900D01*
X84882415Y-89563939D01*
X84829611Y-89609694D01*
X84778100Y-89620900D01*
X84499493Y-89620900D01*
X84432454Y-89601215D01*
X84386699Y-89548411D01*
X84376755Y-89479253D01*
X84377875Y-89472710D01*
X84379623Y-89463922D01*
X84382900Y-89447447D01*
X84382899Y-89252554D01*
X84369677Y-89186078D01*
X84358192Y-89168890D01*
X84337315Y-89102213D01*
X84355800Y-89034833D01*
X84358193Y-89031109D01*
X84369677Y-89013922D01*
X84373327Y-88995567D01*
X84405710Y-88933657D01*
X84407203Y-88932138D01*
X84710506Y-88628835D01*
X84771828Y-88595351D01*
X84841520Y-88600335D01*
X84871387Y-88619529D01*
X84872110Y-88618448D01*
X84882265Y-88625233D01*
X84882266Y-88625234D01*
X84932842Y-88659028D01*
X84932843Y-88659028D01*
X84932845Y-88659029D01*
X84955142Y-88663464D01*
X84977443Y-88667900D01*
X85632556Y-88667899D01*
X85668309Y-88660788D01*
X85716690Y-88660788D01*
X85752443Y-88667900D01*
X86407556Y-88667899D01*
X86452158Y-88659028D01*
X86502734Y-88625234D01*
X86536528Y-88574658D01*
X86536528Y-88574655D01*
X86539620Y-88570029D01*
X86593232Y-88525224D01*
X86642723Y-88514919D01*
X87096512Y-88514919D01*
X87163551Y-88534604D01*
X87209306Y-88587408D01*
X87219250Y-88656566D01*
X87190225Y-88720122D01*
X87150972Y-88750319D01*
X87120841Y-88765049D01*
X87067099Y-88791322D01*
X86983822Y-88874599D01*
X86932094Y-88980411D01*
X86931992Y-88981109D01*
X86922100Y-89049006D01*
X86922100Y-89665994D01*
X86927427Y-89702553D01*
X86932094Y-89734588D01*
X86983822Y-89840400D01*
X87067099Y-89923677D01*
X87067100Y-89923677D01*
X87067102Y-89923679D01*
X87172912Y-89975406D01*
X87189777Y-89977863D01*
X87253276Y-90007005D01*
X87290942Y-90065853D01*
X87295900Y-90100567D01*
X87295900Y-90164007D01*
X87276215Y-90231046D01*
X87226361Y-90275407D01*
X87117100Y-90328821D01*
X87033822Y-90412099D01*
X87000086Y-90481109D01*
X86982094Y-90517912D01*
X86972100Y-90586506D01*
X86972100Y-91203494D01*
X86982094Y-91272088D01*
X87033822Y-91377900D01*
X87117099Y-91461177D01*
X87117100Y-91461177D01*
X87117102Y-91461179D01*
X87222912Y-91512906D01*
X87291506Y-91522900D01*
X87291511Y-91522900D01*
X87758496Y-91522900D01*
X87762965Y-91522576D01*
X87763037Y-91523578D01*
X87827553Y-91532726D01*
X87863942Y-91557939D01*
X88172495Y-91866492D01*
X88205980Y-91927815D01*
X88200996Y-91997507D01*
X88172498Y-92041851D01*
X88165927Y-92048422D01*
X88111410Y-92130011D01*
X88111410Y-92130012D01*
X88097100Y-92201953D01*
X88097100Y-92438046D01*
X88111410Y-92509987D01*
X88111410Y-92509988D01*
X88128655Y-92535796D01*
X88165925Y-92591575D01*
X88214832Y-92624253D01*
X88247511Y-92646089D01*
X88319453Y-92660399D01*
X88319456Y-92660400D01*
X88319458Y-92660400D01*
X88580544Y-92660400D01*
X88580545Y-92660399D01*
X88652488Y-92646089D01*
X88706109Y-92610260D01*
X88772786Y-92589383D01*
X88840167Y-92607867D01*
X88843891Y-92610261D01*
X88897511Y-92646089D01*
X88969453Y-92660399D01*
X88969456Y-92660400D01*
X88969458Y-92660400D01*
X89230544Y-92660400D01*
X89230545Y-92660399D01*
X89302488Y-92646089D01*
X89384075Y-92591575D01*
X89438589Y-92509988D01*
X89438590Y-92509982D01*
X89441040Y-92504069D01*
X89467919Y-92463838D01*
X89642321Y-92289436D01*
X89703641Y-92255954D01*
X89773333Y-92260938D01*
X89817680Y-92289439D01*
X89936699Y-92408458D01*
X89970184Y-92469781D01*
X89971723Y-92478265D01*
X89980103Y-92535796D01*
X89982802Y-92554319D01*
X90034662Y-92660400D01*
X90038195Y-92667627D01*
X90127375Y-92756807D01*
X90235848Y-92809835D01*
X90240681Y-92812198D01*
X90314137Y-92822900D01*
X90885862Y-92822899D01*
X90885864Y-92822899D01*
X90915244Y-92818618D01*
X90959319Y-92812198D01*
X91072625Y-92756806D01*
X91161806Y-92667625D01*
X91161807Y-92667624D01*
X91192810Y-92604205D01*
X91217198Y-92554319D01*
X91227900Y-92480863D01*
X91227899Y-91959138D01*
X91224954Y-91938924D01*
X91220745Y-91910030D01*
X91217198Y-91885681D01*
X91161806Y-91772375D01*
X91161804Y-91772373D01*
X91161804Y-91772372D01*
X91072624Y-91683192D01*
X90959322Y-91627803D01*
X90959320Y-91627802D01*
X90959319Y-91627802D01*
X90885863Y-91617100D01*
X90885857Y-91617100D01*
X90314135Y-91617100D01*
X90240682Y-91627801D01*
X90231484Y-91630644D01*
X90230669Y-91628007D01*
X90176522Y-91637242D01*
X90112230Y-91609886D01*
X90080473Y-91570379D01*
X90074787Y-91559219D01*
X90060016Y-91530229D01*
X90060013Y-91530226D01*
X90060011Y-91530223D01*
X89969776Y-91439988D01*
X89969773Y-91439986D01*
X89969771Y-91439984D01*
X89856055Y-91382043D01*
X89856053Y-91382042D01*
X89856052Y-91382042D01*
X89826324Y-91377333D01*
X89763190Y-91347402D01*
X89726260Y-91288090D01*
X89723020Y-91236985D01*
X89727900Y-91203494D01*
X89727900Y-90586506D01*
X89717906Y-90517912D01*
X89666179Y-90412102D01*
X89666177Y-90412100D01*
X89666177Y-90412099D01*
X89582900Y-90328822D01*
X89544611Y-90310104D01*
X89477088Y-90277094D01*
X89408494Y-90267100D01*
X88941506Y-90267100D01*
X88884491Y-90275407D01*
X88872911Y-90277094D01*
X88767099Y-90328822D01*
X88683822Y-90412099D01*
X88650086Y-90481109D01*
X88632094Y-90517912D01*
X88622100Y-90586506D01*
X88622100Y-91203494D01*
X88632094Y-91272088D01*
X88683822Y-91377900D01*
X88767099Y-91461177D01*
X88767100Y-91461177D01*
X88767102Y-91461179D01*
X88872912Y-91512906D01*
X88941506Y-91522900D01*
X88999779Y-91522900D01*
X89066818Y-91542585D01*
X89087455Y-91559214D01*
X89210560Y-91682320D01*
X89244044Y-91743642D01*
X89239060Y-91813334D01*
X89210561Y-91857679D01*
X89124958Y-91943282D01*
X89063638Y-91976766D01*
X89037279Y-91979600D01*
X88969455Y-91979600D01*
X88897512Y-91993910D01*
X88897511Y-91993910D01*
X88871991Y-92010963D01*
X88805313Y-92031841D01*
X88737933Y-92013356D01*
X88691243Y-91961378D01*
X88679100Y-91907861D01*
X88679100Y-91774430D01*
X88679099Y-91774427D01*
X88677265Y-91770000D01*
X88660617Y-91729807D01*
X88644222Y-91690226D01*
X88114219Y-91160222D01*
X88080734Y-91098899D01*
X88077900Y-91072541D01*
X88077900Y-90586511D01*
X88077900Y-90586506D01*
X88067906Y-90517912D01*
X88016179Y-90412102D01*
X88016177Y-90412100D01*
X88016177Y-90412099D01*
X87932899Y-90328821D01*
X87823639Y-90275407D01*
X87772057Y-90228279D01*
X87754100Y-90164007D01*
X87754100Y-90064048D01*
X87773785Y-89997009D01*
X87823639Y-89952648D01*
X87882898Y-89923679D01*
X87966179Y-89840398D01*
X88017906Y-89734588D01*
X88027900Y-89665994D01*
X88027900Y-89049006D01*
X88017906Y-88980412D01*
X87966179Y-88874602D01*
X87966177Y-88874600D01*
X87966177Y-88874599D01*
X87882900Y-88791322D01*
X87860219Y-88780234D01*
X87799027Y-88750319D01*
X87747446Y-88703192D01*
X87729531Y-88635658D01*
X87750972Y-88569159D01*
X87804961Y-88524809D01*
X87853488Y-88514919D01*
X89420912Y-88514919D01*
X89487951Y-88534604D01*
X89533706Y-88587408D01*
X89543650Y-88656566D01*
X89534769Y-88684575D01*
X89535057Y-88684669D01*
X89532041Y-88693947D01*
X89512078Y-88819996D01*
X89512078Y-88820003D01*
X89532041Y-88946050D01*
X89532042Y-88946053D01*
X89532043Y-88946055D01*
X89589984Y-89059771D01*
X89589985Y-89059772D01*
X89589988Y-89059776D01*
X89680223Y-89150011D01*
X89680227Y-89150014D01*
X89680229Y-89150016D01*
X89793945Y-89207957D01*
X89851881Y-89217133D01*
X89915015Y-89247061D01*
X89920161Y-89251922D01*
X89935778Y-89267538D01*
X89969265Y-89328860D01*
X89972100Y-89355222D01*
X89972100Y-89515994D01*
X89981143Y-89578061D01*
X89982094Y-89584588D01*
X90033822Y-89690400D01*
X90117099Y-89773677D01*
X90117100Y-89773677D01*
X90117102Y-89773679D01*
X90222912Y-89825406D01*
X90291506Y-89835400D01*
X90291511Y-89835400D01*
X90758489Y-89835400D01*
X90758494Y-89835400D01*
X90827088Y-89825406D01*
X90932898Y-89773679D01*
X91016179Y-89690398D01*
X91067906Y-89584588D01*
X91077900Y-89515994D01*
X91077900Y-88899006D01*
X91622100Y-88899006D01*
X91622100Y-89515994D01*
X91631143Y-89578061D01*
X91632094Y-89584588D01*
X91683822Y-89690400D01*
X91767099Y-89773677D01*
X91767100Y-89773677D01*
X91767102Y-89773679D01*
X91872912Y-89825406D01*
X91889378Y-89827805D01*
X91952877Y-89856948D01*
X91990542Y-89915796D01*
X91995500Y-89950509D01*
X91995500Y-90016962D01*
X91975815Y-90084001D01*
X91923011Y-90129756D01*
X91889379Y-90139666D01*
X91886238Y-90140123D01*
X91774806Y-90194599D01*
X91687100Y-90282305D01*
X91632625Y-90393734D01*
X91629950Y-90412099D01*
X91622100Y-90465977D01*
X91622100Y-90974021D01*
X91629993Y-91028201D01*
X91632625Y-91046263D01*
X91687100Y-91157692D01*
X91774806Y-91245398D01*
X91886235Y-91299873D01*
X91886236Y-91299873D01*
X91886238Y-91299874D01*
X91958478Y-91310399D01*
X91958484Y-91310399D01*
X92541516Y-91310399D01*
X92541522Y-91310399D01*
X92613762Y-91299874D01*
X92725193Y-91245398D01*
X92812899Y-91157692D01*
X92867375Y-91046261D01*
X92877900Y-90974021D01*
X92877900Y-90465977D01*
X92867375Y-90393737D01*
X92867374Y-90393734D01*
X92812899Y-90282305D01*
X92725193Y-90194599D01*
X92613761Y-90140123D01*
X92610621Y-90139666D01*
X92607201Y-90138096D01*
X92604562Y-90137281D01*
X92604669Y-90136934D01*
X92547120Y-90110521D01*
X92509457Y-90051672D01*
X92504500Y-90016962D01*
X92504500Y-89889410D01*
X92524185Y-89822371D01*
X92574039Y-89778009D01*
X92582898Y-89773679D01*
X92666179Y-89690398D01*
X92717906Y-89584588D01*
X92727900Y-89515994D01*
X92727900Y-88899006D01*
X92717906Y-88830412D01*
X92666179Y-88724602D01*
X92666177Y-88724600D01*
X92666177Y-88724599D01*
X92644128Y-88702550D01*
X94022100Y-88702550D01*
X94022100Y-88897443D01*
X94028989Y-88932076D01*
X94035323Y-88963922D01*
X94046340Y-88980411D01*
X94046807Y-88981109D01*
X94067684Y-89047787D01*
X94049199Y-89115167D01*
X94046808Y-89118887D01*
X94035322Y-89136077D01*
X94022100Y-89202550D01*
X94022100Y-89397443D01*
X94035323Y-89463922D01*
X94046807Y-89481109D01*
X94067684Y-89547787D01*
X94049199Y-89615167D01*
X94046808Y-89618887D01*
X94035322Y-89636077D01*
X94022100Y-89702550D01*
X94022100Y-89897443D01*
X94035323Y-89963922D01*
X94046807Y-89981109D01*
X94067684Y-90047787D01*
X94049199Y-90115167D01*
X94046808Y-90118887D01*
X94035322Y-90136077D01*
X94022100Y-90202550D01*
X94022100Y-90397443D01*
X94035323Y-90463922D01*
X94046807Y-90481109D01*
X94067684Y-90547787D01*
X94049199Y-90615167D01*
X94046808Y-90618887D01*
X94035322Y-90636077D01*
X94022100Y-90702550D01*
X94022100Y-90897443D01*
X94024846Y-90911248D01*
X94035323Y-90963922D01*
X94035323Y-90963923D01*
X94035324Y-90963924D01*
X94057302Y-90996817D01*
X94085693Y-91039307D01*
X94101387Y-91049793D01*
X94161077Y-91089677D01*
X94183035Y-91094044D01*
X94227553Y-91102900D01*
X94873100Y-91102899D01*
X94940139Y-91122583D01*
X94985894Y-91175387D01*
X94997100Y-91226899D01*
X94997100Y-91872443D01*
X94999733Y-91885681D01*
X95010323Y-91938922D01*
X95010323Y-91938923D01*
X95010324Y-91938924D01*
X95060692Y-92014306D01*
X95136077Y-92064677D01*
X95168866Y-92071199D01*
X95202553Y-92077900D01*
X95248902Y-92077899D01*
X95315939Y-92097582D01*
X95361695Y-92150385D01*
X95371640Y-92219544D01*
X95371375Y-92221297D01*
X95369039Y-92236046D01*
X95339110Y-92299181D01*
X95297909Y-92325662D01*
X95299332Y-92328572D01*
X95177375Y-92388192D01*
X95088192Y-92477375D01*
X95032803Y-92590677D01*
X95032802Y-92590679D01*
X95032802Y-92590681D01*
X95022100Y-92664137D01*
X95022100Y-92664141D01*
X95022100Y-92664142D01*
X95022100Y-93235864D01*
X95032801Y-93309316D01*
X95032801Y-93309317D01*
X95032802Y-93309319D01*
X95088194Y-93422624D01*
X95088195Y-93422627D01*
X95177375Y-93511807D01*
X95285848Y-93564835D01*
X95290681Y-93567198D01*
X95364137Y-93577900D01*
X95885862Y-93577899D01*
X95885864Y-93577899D01*
X95915244Y-93573618D01*
X95959319Y-93567198D01*
X96072625Y-93511806D01*
X96161806Y-93422625D01*
X96161807Y-93422624D01*
X96188911Y-93367180D01*
X96217198Y-93309319D01*
X96225396Y-93253045D01*
X96254539Y-93189548D01*
X96313387Y-93151883D01*
X96383257Y-93152013D01*
X96441964Y-93189897D01*
X96470871Y-93253507D01*
X96472100Y-93270925D01*
X96472100Y-93605864D01*
X96482801Y-93679316D01*
X96482801Y-93679317D01*
X96482802Y-93679319D01*
X96526601Y-93768911D01*
X96538195Y-93792627D01*
X96627375Y-93881807D01*
X96735848Y-93934835D01*
X96740681Y-93937198D01*
X96814137Y-93947900D01*
X97335862Y-93947899D01*
X97335864Y-93947899D01*
X97365244Y-93943618D01*
X97409319Y-93937198D01*
X97522625Y-93881806D01*
X97611806Y-93792625D01*
X97611807Y-93792624D01*
X97649617Y-93715281D01*
X97667198Y-93679319D01*
X97677900Y-93605863D01*
X97677899Y-93034138D01*
X97675395Y-93016952D01*
X97667198Y-92960683D01*
X97667198Y-92960681D01*
X97611806Y-92847375D01*
X97611804Y-92847373D01*
X97611804Y-92847372D01*
X97522624Y-92758192D01*
X97409322Y-92702803D01*
X97409320Y-92702802D01*
X97409319Y-92702802D01*
X97335863Y-92692100D01*
X97335857Y-92692100D01*
X97153100Y-92692100D01*
X97086061Y-92672415D01*
X97040306Y-92619611D01*
X97029100Y-92568100D01*
X97029100Y-92067197D01*
X97048785Y-92000158D01*
X97049998Y-91998306D01*
X97052935Y-91993911D01*
X97089677Y-91938922D01*
X97102900Y-91872447D01*
X97102899Y-91127554D01*
X97089677Y-91061078D01*
X97089675Y-91061075D01*
X97089675Y-91061074D01*
X97085003Y-91049793D01*
X97088154Y-91048487D01*
X97073351Y-91001220D01*
X97091832Y-90933839D01*
X97143808Y-90887146D01*
X97197331Y-90875000D01*
X97402668Y-90875000D01*
X97469707Y-90894685D01*
X97515462Y-90947489D01*
X97525406Y-91016647D01*
X97513018Y-91048975D01*
X97514996Y-91049794D01*
X97510322Y-91061076D01*
X97497100Y-91127550D01*
X97497100Y-91872443D01*
X97499733Y-91885681D01*
X97510323Y-91938922D01*
X97510323Y-91938923D01*
X97510324Y-91938924D01*
X97560692Y-92014306D01*
X97636077Y-92064677D01*
X97658035Y-92069044D01*
X97702553Y-92077900D01*
X97897446Y-92077899D01*
X97963922Y-92064677D01*
X98039307Y-92014307D01*
X98089677Y-91938922D01*
X98102900Y-91872447D01*
X98102899Y-91226898D01*
X98122583Y-91159860D01*
X98175387Y-91114105D01*
X98226895Y-91102899D01*
X98872446Y-91102899D01*
X98938922Y-91089677D01*
X99014307Y-91039307D01*
X99064677Y-90963922D01*
X99077900Y-90897447D01*
X99077899Y-90820924D01*
X99097583Y-90753887D01*
X99150386Y-90708131D01*
X99219545Y-90698187D01*
X99283101Y-90727211D01*
X99320876Y-90785989D01*
X99324604Y-90803049D01*
X99332801Y-90859316D01*
X99332801Y-90859317D01*
X99332802Y-90859319D01*
X99366486Y-90928221D01*
X99388195Y-90972627D01*
X99477375Y-91061807D01*
X99561432Y-91102899D01*
X99590681Y-91117198D01*
X99664137Y-91127900D01*
X100235862Y-91127899D01*
X100235864Y-91127899D01*
X100265244Y-91123618D01*
X100309319Y-91117198D01*
X100422625Y-91061806D01*
X100511806Y-90972625D01*
X100511807Y-90972624D01*
X100548560Y-90897443D01*
X100567198Y-90859319D01*
X100577900Y-90785863D01*
X100577899Y-90264138D01*
X100572791Y-90229077D01*
X100568928Y-90202556D01*
X100567198Y-90190681D01*
X100511806Y-90077375D01*
X100511804Y-90077373D01*
X100511804Y-90077372D01*
X100422624Y-89988192D01*
X100309322Y-89932803D01*
X100309320Y-89932802D01*
X100309319Y-89932802D01*
X100235863Y-89922100D01*
X100235857Y-89922100D01*
X99664135Y-89922100D01*
X99590683Y-89932801D01*
X99477372Y-89988195D01*
X99388192Y-90077375D01*
X99332803Y-90190677D01*
X99332802Y-90190679D01*
X99332802Y-90190681D01*
X99324603Y-90246955D01*
X99295460Y-90310455D01*
X99236611Y-90348119D01*
X99166741Y-90347988D01*
X99108034Y-90310104D01*
X99079128Y-90246494D01*
X99077899Y-90229077D01*
X99077899Y-90202556D01*
X99077899Y-90202554D01*
X99064677Y-90136078D01*
X99053192Y-90118890D01*
X99032315Y-90052213D01*
X99050800Y-89984833D01*
X99053194Y-89981108D01*
X99064677Y-89963922D01*
X99075001Y-89912021D01*
X99077900Y-89897447D01*
X99077899Y-89702554D01*
X99064677Y-89636078D01*
X99063756Y-89634700D01*
X99056912Y-89624458D01*
X99053192Y-89618890D01*
X99032315Y-89552213D01*
X99050800Y-89484833D01*
X99053194Y-89481108D01*
X99064677Y-89463922D01*
X99075001Y-89412021D01*
X99077900Y-89397447D01*
X99077899Y-89202554D01*
X99064677Y-89136078D01*
X99053192Y-89118890D01*
X99032315Y-89052213D01*
X99050800Y-88984833D01*
X99053194Y-88981108D01*
X99064677Y-88963922D01*
X99070697Y-88933657D01*
X99077900Y-88897447D01*
X99077899Y-88702554D01*
X99064677Y-88636078D01*
X99014307Y-88560693D01*
X99014306Y-88560692D01*
X98938922Y-88510322D01*
X98872449Y-88497100D01*
X98127554Y-88497100D01*
X98073189Y-88507914D01*
X98003597Y-88501685D01*
X97948421Y-88458821D01*
X97925178Y-88392931D01*
X97925000Y-88386296D01*
X97925000Y-88256963D01*
X97944685Y-88189924D01*
X97980108Y-88153861D01*
X98039307Y-88114307D01*
X98089677Y-88038922D01*
X98102900Y-87972447D01*
X98102899Y-87227554D01*
X98089677Y-87161078D01*
X98039307Y-87085693D01*
X98029099Y-87078872D01*
X97963922Y-87035322D01*
X97891472Y-87020911D01*
X97891938Y-87018567D01*
X97836937Y-86996335D01*
X97796599Y-86939286D01*
X97793508Y-86869485D01*
X97828644Y-86809093D01*
X97890853Y-86777284D01*
X97896026Y-86776418D01*
X97959319Y-86767198D01*
X98072625Y-86711806D01*
X98161806Y-86622625D01*
X98161807Y-86622624D01*
X98207060Y-86530056D01*
X98217198Y-86509319D01*
X98227900Y-86435863D01*
X98227899Y-85864138D01*
X98217198Y-85790681D01*
X98161806Y-85677375D01*
X98161804Y-85677373D01*
X98161804Y-85677372D01*
X98072624Y-85588192D01*
X97959322Y-85532803D01*
X97959320Y-85532802D01*
X97959319Y-85532802D01*
X97885863Y-85522100D01*
X97885857Y-85522100D01*
X97364135Y-85522100D01*
X97290683Y-85532801D01*
X97177372Y-85588195D01*
X97088192Y-85677375D01*
X97032803Y-85790677D01*
X97032802Y-85790679D01*
X97032802Y-85790681D01*
X97022100Y-85864137D01*
X97022100Y-85864141D01*
X97022100Y-85864142D01*
X97022100Y-86435861D01*
X97025253Y-86457501D01*
X97032802Y-86509319D01*
X97058300Y-86561476D01*
X97070900Y-86615936D01*
X97070900Y-86905507D01*
X97051215Y-86972546D01*
X96998411Y-87018301D01*
X96929253Y-87028245D01*
X96922710Y-87027125D01*
X96906722Y-87023945D01*
X96897447Y-87022100D01*
X96897446Y-87022100D01*
X96702556Y-87022100D01*
X96636076Y-87035323D01*
X96618888Y-87046808D01*
X96552210Y-87067684D01*
X96484830Y-87049198D01*
X96481110Y-87046807D01*
X96463921Y-87035322D01*
X96435815Y-87029731D01*
X96373905Y-86997344D01*
X96339332Y-86936628D01*
X96337536Y-86888716D01*
X96357922Y-86760002D01*
X96357922Y-86759996D01*
X96337958Y-86633949D01*
X96337957Y-86633947D01*
X96337957Y-86633945D01*
X96280016Y-86520229D01*
X96280014Y-86520227D01*
X96280011Y-86520223D01*
X96189776Y-86429988D01*
X96189772Y-86429985D01*
X96189771Y-86429984D01*
X96076055Y-86372043D01*
X96076053Y-86372042D01*
X96076050Y-86372041D01*
X95950003Y-86352078D01*
X95949997Y-86352078D01*
X95823949Y-86372041D01*
X95710227Y-86429985D01*
X95710223Y-86429988D01*
X95619988Y-86520223D01*
X95619983Y-86520230D01*
X95597107Y-86565127D01*
X95549133Y-86615922D01*
X95481312Y-86632717D01*
X95430329Y-86619316D01*
X95416051Y-86612041D01*
X95416052Y-86612041D01*
X95290003Y-86592078D01*
X95289997Y-86592078D01*
X95163949Y-86612041D01*
X95050227Y-86669985D01*
X95050223Y-86669988D01*
X94959988Y-86760223D01*
X94959985Y-86760227D01*
X94959984Y-86760229D01*
X94904316Y-86869485D01*
X94902041Y-86873949D01*
X94882078Y-86999996D01*
X94882078Y-87000003D01*
X94902041Y-87126050D01*
X94902042Y-87126053D01*
X94902043Y-87126055D01*
X94959984Y-87239771D01*
X94960777Y-87240564D01*
X94961432Y-87241764D01*
X94965723Y-87247670D01*
X94964960Y-87248224D01*
X94994264Y-87301883D01*
X94997100Y-87328249D01*
X94997100Y-87972443D01*
X94998888Y-87981432D01*
X95010323Y-88038922D01*
X95010323Y-88038923D01*
X95010324Y-88038924D01*
X95060691Y-88114305D01*
X95060692Y-88114305D01*
X95060693Y-88114307D01*
X95119891Y-88153861D01*
X95164696Y-88207472D01*
X95175000Y-88256963D01*
X95175000Y-88386295D01*
X95155315Y-88453334D01*
X95102511Y-88499089D01*
X95033353Y-88509033D01*
X95026810Y-88507913D01*
X94982446Y-88499089D01*
X94972447Y-88497100D01*
X94972446Y-88497100D01*
X94227556Y-88497100D01*
X94187740Y-88505019D01*
X94161078Y-88510323D01*
X94161077Y-88510323D01*
X94161075Y-88510324D01*
X94085693Y-88560692D01*
X94035322Y-88636077D01*
X94022100Y-88702550D01*
X92644128Y-88702550D01*
X92582900Y-88641322D01*
X92477088Y-88589594D01*
X92408494Y-88579600D01*
X91941506Y-88579600D01*
X91887916Y-88587408D01*
X91872911Y-88589594D01*
X91767099Y-88641322D01*
X91683822Y-88724599D01*
X91635766Y-88822901D01*
X91632094Y-88830412D01*
X91622100Y-88899006D01*
X91077900Y-88899006D01*
X91067906Y-88830412D01*
X91016179Y-88724602D01*
X91016177Y-88724600D01*
X91016177Y-88724599D01*
X90932899Y-88641321D01*
X90901328Y-88625887D01*
X90849746Y-88578759D01*
X90831832Y-88511225D01*
X90853273Y-88444727D01*
X90907262Y-88400377D01*
X90952031Y-88390544D01*
X91630000Y-88370000D01*
X96966085Y-82462505D01*
X97025626Y-82425954D01*
X97095481Y-82427395D01*
X97153468Y-82466373D01*
X97181176Y-82530514D01*
X97182100Y-82545626D01*
X97182100Y-83054777D01*
X97162415Y-83121816D01*
X97145781Y-83142458D01*
X97030165Y-83258074D01*
X96968842Y-83291559D01*
X96961883Y-83292865D01*
X96903945Y-83302043D01*
X96790229Y-83359984D01*
X96790228Y-83359985D01*
X96790223Y-83359988D01*
X96699988Y-83450223D01*
X96699985Y-83450227D01*
X96642041Y-83563949D01*
X96622078Y-83689996D01*
X96622078Y-83690003D01*
X96642041Y-83816050D01*
X96642042Y-83816053D01*
X96642043Y-83816055D01*
X96688434Y-83907102D01*
X96699985Y-83929772D01*
X96699988Y-83929776D01*
X96790223Y-84020011D01*
X96790227Y-84020014D01*
X96790229Y-84020016D01*
X96903945Y-84077957D01*
X96961884Y-84087133D01*
X97025016Y-84117061D01*
X97030166Y-84121925D01*
X97145781Y-84237540D01*
X97179266Y-84298863D01*
X97182100Y-84325221D01*
X97182100Y-84698494D01*
X97192094Y-84767088D01*
X97235807Y-84856506D01*
X97243822Y-84872900D01*
X97327099Y-84956177D01*
X97327100Y-84956177D01*
X97327102Y-84956179D01*
X97432912Y-85007906D01*
X97501506Y-85017900D01*
X97501511Y-85017900D01*
X97968489Y-85017900D01*
X97968494Y-85017900D01*
X98037088Y-85007906D01*
X98142898Y-84956179D01*
X98226179Y-84872898D01*
X98277906Y-84767088D01*
X98287900Y-84698494D01*
X98287900Y-84081506D01*
X98277906Y-84012912D01*
X98226179Y-83907102D01*
X98226177Y-83907100D01*
X98226177Y-83907099D01*
X98142900Y-83823822D01*
X98037088Y-83772094D01*
X98029943Y-83771053D01*
X97968494Y-83762100D01*
X97968489Y-83762100D01*
X97689022Y-83762100D01*
X97621983Y-83742415D01*
X97576228Y-83689611D01*
X97566284Y-83620453D01*
X97595309Y-83556897D01*
X97601341Y-83550419D01*
X97667541Y-83484219D01*
X97728864Y-83450734D01*
X97755222Y-83447900D01*
X97968489Y-83447900D01*
X97968494Y-83447900D01*
X98037088Y-83437906D01*
X98142898Y-83386179D01*
X98226179Y-83302898D01*
X98277906Y-83197088D01*
X98287900Y-83128494D01*
X98287900Y-82511506D01*
X98277906Y-82442912D01*
X98226179Y-82337102D01*
X98226177Y-82337100D01*
X98226177Y-82337099D01*
X98142900Y-82253822D01*
X98037088Y-82202094D01*
X98029943Y-82201053D01*
X97968494Y-82192100D01*
X97501506Y-82192100D01*
X97501499Y-82192101D01*
X97497870Y-82192364D01*
X97429583Y-82177577D01*
X97380130Y-82128218D01*
X97365214Y-82059959D01*
X97389568Y-81994472D01*
X97396872Y-81985587D01*
X97700000Y-81650000D01*
X97673211Y-81649368D01*
X97550817Y-81646481D01*
X97484261Y-81625220D01*
X97439764Y-81571352D01*
X97431455Y-81501978D01*
X97439182Y-81475061D01*
X97455808Y-81434921D01*
X97455810Y-81434917D01*
X97455810Y-81422923D01*
X97475495Y-81355885D01*
X97510919Y-81319822D01*
X97529406Y-81307469D01*
X97540234Y-81300234D01*
X97551896Y-81282779D01*
X97605506Y-81237975D01*
X97674831Y-81229265D01*
X97737859Y-81259418D01*
X97758100Y-81282776D01*
X97769765Y-81300233D01*
X97769766Y-81300234D01*
X97820342Y-81334028D01*
X97820343Y-81334028D01*
X97820345Y-81334029D01*
X97839093Y-81337758D01*
X97864943Y-81342900D01*
X98295056Y-81342899D01*
X98339658Y-81334028D01*
X98390234Y-81300234D01*
X98401896Y-81282779D01*
X98455506Y-81237975D01*
X98524831Y-81229265D01*
X98587859Y-81259418D01*
X98608100Y-81282776D01*
X98619765Y-81300233D01*
X98619766Y-81300234D01*
X98670342Y-81334028D01*
X98670343Y-81334028D01*
X98670345Y-81334029D01*
X98689093Y-81337758D01*
X98714943Y-81342900D01*
X99145056Y-81342899D01*
X99189658Y-81334028D01*
X99240234Y-81300234D01*
X99251896Y-81282779D01*
X99305506Y-81237975D01*
X99374831Y-81229265D01*
X99437859Y-81259418D01*
X99458100Y-81282776D01*
X99469765Y-81300233D01*
X99469766Y-81300234D01*
X99520342Y-81334028D01*
X99520343Y-81334028D01*
X99520345Y-81334029D01*
X99539093Y-81337758D01*
X99564943Y-81342900D01*
X99806029Y-81342899D01*
X99873068Y-81362583D01*
X99918823Y-81415387D01*
X99928767Y-81484546D01*
X99928502Y-81486296D01*
X99912078Y-81589996D01*
X99912078Y-81590003D01*
X99932041Y-81716052D01*
X99969757Y-81790074D01*
X99982653Y-81858743D01*
X99956376Y-81923484D01*
X99946953Y-81934049D01*
X99723942Y-82157059D01*
X99662619Y-82190544D01*
X99623011Y-82191926D01*
X99622975Y-82192424D01*
X99618501Y-82192100D01*
X99618494Y-82192100D01*
X99151506Y-82192100D01*
X99094344Y-82200428D01*
X99082911Y-82202094D01*
X98977099Y-82253822D01*
X98893822Y-82337099D01*
X98843510Y-82440016D01*
X98842094Y-82442912D01*
X98832100Y-82511506D01*
X98832100Y-83128494D01*
X98836487Y-83158601D01*
X98842094Y-83197088D01*
X98893822Y-83302900D01*
X98977099Y-83386177D01*
X98977100Y-83386177D01*
X98977102Y-83386179D01*
X99082912Y-83437906D01*
X99151506Y-83447900D01*
X99151511Y-83447900D01*
X99618489Y-83447900D01*
X99618494Y-83447900D01*
X99687088Y-83437906D01*
X99687089Y-83437905D01*
X99696618Y-83436517D01*
X99697075Y-83439658D01*
X99750531Y-83438904D01*
X99809836Y-83475845D01*
X99839755Y-83538985D01*
X99830788Y-83608277D01*
X99804960Y-83646041D01*
X99761391Y-83689611D01*
X99723942Y-83727060D01*
X99662618Y-83760544D01*
X99623011Y-83761926D01*
X99622975Y-83762424D01*
X99618501Y-83762100D01*
X99618494Y-83762100D01*
X99151506Y-83762100D01*
X99094344Y-83770428D01*
X99082911Y-83772094D01*
X98977099Y-83823822D01*
X98893822Y-83907099D01*
X98842094Y-84012911D01*
X98840428Y-84024344D01*
X98832100Y-84081506D01*
X98832100Y-84698494D01*
X98842094Y-84767088D01*
X98885807Y-84856506D01*
X98893822Y-84872900D01*
X98977099Y-84956177D01*
X98977100Y-84956177D01*
X98977102Y-84956179D01*
X99082912Y-85007906D01*
X99151506Y-85017900D01*
X99151511Y-85017900D01*
X99618489Y-85017900D01*
X99618494Y-85017900D01*
X99687088Y-85007906D01*
X99792898Y-84956179D01*
X99876179Y-84872898D01*
X99927906Y-84767088D01*
X99937900Y-84698494D01*
X99937900Y-84212458D01*
X99957585Y-84145419D01*
X99974219Y-84124777D01*
X101674219Y-82424777D01*
X101674221Y-82424775D01*
X101709100Y-82340571D01*
X101709100Y-81420725D01*
X101728785Y-81353686D01*
X101764211Y-81317622D01*
X101764500Y-81317429D01*
X101790234Y-81300234D01*
X101801896Y-81282779D01*
X101855506Y-81237975D01*
X101924831Y-81229265D01*
X101987859Y-81259418D01*
X102008099Y-81282775D01*
X102024600Y-81307469D01*
X102045480Y-81374146D01*
X102045500Y-81376363D01*
X102045500Y-98890621D01*
X102045501Y-98890626D01*
X102084242Y-98984160D01*
X103127125Y-100027043D01*
X103160610Y-100088366D01*
X103155626Y-100158058D01*
X103127128Y-100202403D01*
X103119767Y-100209764D01*
X103085971Y-100260343D01*
X103085970Y-100260345D01*
X103077100Y-100304940D01*
X103077100Y-101835054D01*
X103085972Y-101879658D01*
X103085973Y-101879661D01*
X103119765Y-101930233D01*
X103119766Y-101930234D01*
X103170342Y-101964028D01*
X103170343Y-101964028D01*
X103170345Y-101964029D01*
X103192642Y-101968464D01*
X103214943Y-101972900D01*
X104145056Y-101972899D01*
X104189658Y-101964028D01*
X104240234Y-101930234D01*
X104274028Y-101879658D01*
X104282900Y-101835057D01*
X104282899Y-100304944D01*
X104274028Y-100260342D01*
X104274026Y-100260340D01*
X104274026Y-100260338D01*
X104240234Y-100209766D01*
X104240231Y-100209764D01*
X104189658Y-100175972D01*
X104189657Y-100175971D01*
X104189656Y-100175971D01*
X104189654Y-100175970D01*
X104145059Y-100167100D01*
X104145057Y-100167100D01*
X104016412Y-100167100D01*
X103949373Y-100147415D01*
X103903618Y-100094611D01*
X103901851Y-100090552D01*
X103895757Y-100075840D01*
X103895755Y-100075837D01*
X102590819Y-98770901D01*
X102557334Y-98709578D01*
X102554500Y-98683220D01*
X102554500Y-87149996D01*
X103402078Y-87149996D01*
X103402078Y-87150003D01*
X103422041Y-87276050D01*
X103422042Y-87276053D01*
X103422043Y-87276055D01*
X103479984Y-87389771D01*
X103570229Y-87480016D01*
X103570231Y-87480017D01*
X103570781Y-87480567D01*
X103604266Y-87541890D01*
X103607100Y-87568249D01*
X103607100Y-88685055D01*
X103615972Y-88729659D01*
X103615973Y-88729662D01*
X103622610Y-88739594D01*
X103649766Y-88780235D01*
X103700342Y-88814029D01*
X103700343Y-88814029D01*
X103700345Y-88814030D01*
X103722642Y-88818465D01*
X103744943Y-88822901D01*
X107175056Y-88822900D01*
X107219658Y-88814029D01*
X107270234Y-88780235D01*
X107304028Y-88729659D01*
X107312900Y-88685058D01*
X107312899Y-87354945D01*
X107304028Y-87310343D01*
X107304026Y-87310341D01*
X107304026Y-87310339D01*
X107270234Y-87259767D01*
X107252959Y-87248224D01*
X107219658Y-87225973D01*
X107219657Y-87225972D01*
X107219656Y-87225972D01*
X107219654Y-87225971D01*
X107175059Y-87217101D01*
X107175057Y-87217101D01*
X104334456Y-87217101D01*
X104267417Y-87197416D01*
X104221662Y-87144612D01*
X104211983Y-87112499D01*
X104197958Y-87023949D01*
X104197957Y-87023947D01*
X104197957Y-87023945D01*
X104140016Y-86910229D01*
X104140014Y-86910227D01*
X104140011Y-86910223D01*
X104049776Y-86819988D01*
X104049772Y-86819985D01*
X104049771Y-86819984D01*
X103936055Y-86762043D01*
X103936053Y-86762042D01*
X103936050Y-86762041D01*
X103810003Y-86742078D01*
X103809997Y-86742078D01*
X103683949Y-86762041D01*
X103570227Y-86819985D01*
X103570223Y-86819988D01*
X103479988Y-86910223D01*
X103479985Y-86910227D01*
X103422041Y-87023949D01*
X103402078Y-87149996D01*
X102554500Y-87149996D01*
X102554500Y-81423799D01*
X102574185Y-81356760D01*
X102609608Y-81320697D01*
X102640234Y-81300234D01*
X102674028Y-81249658D01*
X102682900Y-81205057D01*
X102682899Y-80374944D01*
X102674028Y-80330342D01*
X102674026Y-80330340D01*
X102674026Y-80330338D01*
X102640234Y-80279766D01*
X102640233Y-80279765D01*
X102589658Y-80245972D01*
X102589657Y-80245971D01*
X102589656Y-80245971D01*
X102589654Y-80245970D01*
X102545059Y-80237100D01*
X102114945Y-80237100D01*
X102070341Y-80245972D01*
X102070338Y-80245973D01*
X102019764Y-80279766D01*
X102008101Y-80297222D01*
X101954488Y-80342027D01*
X101885163Y-80350733D01*
X101822136Y-80320577D01*
X101801899Y-80297222D01*
X101790235Y-80279767D01*
X101790234Y-80279766D01*
X101739658Y-80245972D01*
X101739657Y-80245971D01*
X101739656Y-80245971D01*
X101739654Y-80245970D01*
X101695059Y-80237100D01*
X101264945Y-80237100D01*
X101220341Y-80245972D01*
X101220338Y-80245973D01*
X101169764Y-80279766D01*
X101158101Y-80297222D01*
X101104488Y-80342027D01*
X101035163Y-80350733D01*
X100972136Y-80320577D01*
X100951899Y-80297222D01*
X100940235Y-80279767D01*
X100940234Y-80279766D01*
X100889658Y-80245972D01*
X100889657Y-80245971D01*
X100889656Y-80245971D01*
X100889654Y-80245970D01*
X100845059Y-80237100D01*
X100414945Y-80237100D01*
X100370341Y-80245972D01*
X100370335Y-80245975D01*
X100369096Y-80246803D01*
X100365983Y-80247777D01*
X100359055Y-80250647D01*
X100358798Y-80250026D01*
X100302418Y-80267677D01*
X100235038Y-80249189D01*
X100188351Y-80197207D01*
X100177179Y-80128237D01*
X100177738Y-80124299D01*
X100187922Y-80060001D01*
X100187922Y-80059996D01*
X100167958Y-79933949D01*
X100167957Y-79933947D01*
X100167957Y-79933945D01*
X100110016Y-79820229D01*
X100110014Y-79820227D01*
X100110011Y-79820223D01*
X100019776Y-79729988D01*
X100019772Y-79729985D01*
X100019771Y-79729984D01*
X99906055Y-79672043D01*
X99906053Y-79672042D01*
X99906050Y-79672041D01*
X99780003Y-79652078D01*
X99779997Y-79652078D01*
X99653949Y-79672041D01*
X99540227Y-79729985D01*
X99540223Y-79729988D01*
X99449988Y-79820223D01*
X99449985Y-79820227D01*
X99392041Y-79933949D01*
X99372078Y-80059996D01*
X99372078Y-80059997D01*
X99372078Y-80060000D01*
X99375884Y-80084028D01*
X99382262Y-80124301D01*
X99373306Y-80193595D01*
X99328309Y-80247046D01*
X99261557Y-80267685D01*
X99194244Y-80248959D01*
X99190899Y-80246801D01*
X99189659Y-80245972D01*
X99189654Y-80245970D01*
X99145059Y-80237100D01*
X98714945Y-80237100D01*
X98670341Y-80245972D01*
X98670338Y-80245973D01*
X98619764Y-80279766D01*
X98608101Y-80297222D01*
X98554488Y-80342027D01*
X98485163Y-80350733D01*
X98422136Y-80320577D01*
X98401899Y-80297222D01*
X98390235Y-80279767D01*
X98390234Y-80279766D01*
X98339658Y-80245972D01*
X98339657Y-80245971D01*
X98339656Y-80245971D01*
X98339654Y-80245970D01*
X98295059Y-80237100D01*
X97864945Y-80237100D01*
X97820341Y-80245972D01*
X97820338Y-80245973D01*
X97769764Y-80279766D01*
X97758101Y-80297222D01*
X97704488Y-80342027D01*
X97635163Y-80350733D01*
X97572136Y-80320577D01*
X97551899Y-80297222D01*
X97540235Y-80279767D01*
X97540234Y-80279766D01*
X97489658Y-80245972D01*
X97489657Y-80245971D01*
X97489656Y-80245971D01*
X97489654Y-80245970D01*
X97445059Y-80237100D01*
X97014945Y-80237100D01*
X96970341Y-80245972D01*
X96970338Y-80245973D01*
X96919764Y-80279766D01*
X96908101Y-80297222D01*
X96854488Y-80342027D01*
X96785163Y-80350733D01*
X96722136Y-80320577D01*
X96701899Y-80297222D01*
X96690235Y-80279767D01*
X96690234Y-80279766D01*
X96639658Y-80245972D01*
X96639657Y-80245971D01*
X96639656Y-80245971D01*
X96639654Y-80245970D01*
X96595059Y-80237100D01*
X96164945Y-80237100D01*
X96120341Y-80245972D01*
X96120338Y-80245973D01*
X96069764Y-80279766D01*
X96058101Y-80297222D01*
X96004488Y-80342027D01*
X95935163Y-80350733D01*
X95872136Y-80320577D01*
X95851899Y-80297222D01*
X95840235Y-80279767D01*
X95840234Y-80279766D01*
X95789658Y-80245972D01*
X95789657Y-80245971D01*
X95789656Y-80245971D01*
X95789654Y-80245970D01*
X95745059Y-80237100D01*
X95314945Y-80237100D01*
X95270341Y-80245972D01*
X95270338Y-80245973D01*
X95219764Y-80279766D01*
X95208101Y-80297222D01*
X95154488Y-80342027D01*
X95085163Y-80350733D01*
X95022136Y-80320577D01*
X95001899Y-80297222D01*
X94990235Y-80279767D01*
X94990234Y-80279766D01*
X94939658Y-80245972D01*
X94939657Y-80245971D01*
X94939656Y-80245971D01*
X94939654Y-80245970D01*
X94895059Y-80237100D01*
X94464945Y-80237100D01*
X94420341Y-80245972D01*
X94420338Y-80245973D01*
X94369764Y-80279766D01*
X94358101Y-80297222D01*
X94304488Y-80342027D01*
X94235163Y-80350733D01*
X94172136Y-80320577D01*
X94151899Y-80297222D01*
X94140235Y-80279767D01*
X94140234Y-80279766D01*
X94089658Y-80245972D01*
X94089657Y-80245971D01*
X94089656Y-80245971D01*
X94089654Y-80245970D01*
X94045059Y-80237100D01*
X93614945Y-80237100D01*
X93570341Y-80245972D01*
X93570338Y-80245973D01*
X93519764Y-80279766D01*
X93508101Y-80297222D01*
X93454488Y-80342027D01*
X93385163Y-80350733D01*
X93322136Y-80320577D01*
X93301899Y-80297222D01*
X93290235Y-80279767D01*
X93290234Y-80279766D01*
X93239658Y-80245972D01*
X93239657Y-80245971D01*
X93239656Y-80245971D01*
X93239654Y-80245970D01*
X93195059Y-80237100D01*
X92764945Y-80237100D01*
X92720341Y-80245972D01*
X92720338Y-80245973D01*
X92669764Y-80279766D01*
X92658101Y-80297222D01*
X92604488Y-80342027D01*
X92535163Y-80350733D01*
X92472136Y-80320577D01*
X92451899Y-80297222D01*
X92440235Y-80279767D01*
X92440234Y-80279766D01*
X92389658Y-80245972D01*
X92389657Y-80245971D01*
X92389656Y-80245971D01*
X92389654Y-80245970D01*
X92345059Y-80237100D01*
X91914945Y-80237100D01*
X91870341Y-80245972D01*
X91870338Y-80245973D01*
X91819764Y-80279766D01*
X91808101Y-80297222D01*
X91754488Y-80342027D01*
X91685163Y-80350733D01*
X91622136Y-80320577D01*
X91601899Y-80297222D01*
X91590235Y-80279767D01*
X91590234Y-80279766D01*
X91539658Y-80245972D01*
X91539657Y-80245971D01*
X91539656Y-80245971D01*
X91539654Y-80245970D01*
X91495059Y-80237100D01*
X91064945Y-80237100D01*
X91020341Y-80245972D01*
X91020338Y-80245973D01*
X90969764Y-80279766D01*
X90958101Y-80297222D01*
X90904488Y-80342027D01*
X90835163Y-80350733D01*
X90772136Y-80320577D01*
X90751899Y-80297222D01*
X90740235Y-80279767D01*
X90740234Y-80279766D01*
X90689658Y-80245972D01*
X90689657Y-80245971D01*
X90689656Y-80245971D01*
X90689654Y-80245970D01*
X90645059Y-80237100D01*
X90214945Y-80237100D01*
X90170341Y-80245972D01*
X90170338Y-80245973D01*
X90119766Y-80279765D01*
X90085971Y-80330343D01*
X90085970Y-80330345D01*
X90077100Y-80374940D01*
X90077100Y-81205054D01*
X90085972Y-81249658D01*
X90085973Y-81249661D01*
X90108104Y-81282781D01*
X90119766Y-81300234D01*
X90170342Y-81334028D01*
X90170343Y-81334028D01*
X90170345Y-81334029D01*
X90189093Y-81337758D01*
X90214943Y-81342900D01*
X90645056Y-81342899D01*
X90689658Y-81334028D01*
X90740234Y-81300234D01*
X90751896Y-81282779D01*
X90805506Y-81237975D01*
X90874831Y-81229265D01*
X90937859Y-81259418D01*
X90958100Y-81282776D01*
X90969765Y-81300233D01*
X90969766Y-81300234D01*
X91020342Y-81334028D01*
X91020343Y-81334028D01*
X91020345Y-81334029D01*
X91039093Y-81337758D01*
X91064943Y-81342900D01*
X91495056Y-81342899D01*
X91539658Y-81334028D01*
X91590234Y-81300234D01*
X91601896Y-81282779D01*
X91655506Y-81237975D01*
X91724831Y-81229265D01*
X91787859Y-81259418D01*
X91808100Y-81282776D01*
X91819765Y-81300233D01*
X91819766Y-81300234D01*
X91870342Y-81334028D01*
X91870343Y-81334028D01*
X91870345Y-81334029D01*
X91889093Y-81337758D01*
X91914943Y-81342900D01*
X92345056Y-81342899D01*
X92389658Y-81334028D01*
X92440234Y-81300234D01*
X92451896Y-81282779D01*
X92505506Y-81237975D01*
X92574831Y-81229265D01*
X92637859Y-81259418D01*
X92658100Y-81282776D01*
X92669765Y-81300233D01*
X92669766Y-81300234D01*
X92720342Y-81334028D01*
X92720343Y-81334028D01*
X92720345Y-81334029D01*
X92739093Y-81337758D01*
X92764943Y-81342900D01*
X93195056Y-81342899D01*
X93239658Y-81334028D01*
X93290234Y-81300234D01*
X93301896Y-81282779D01*
X93355506Y-81237975D01*
X93424831Y-81229265D01*
X93487859Y-81259418D01*
X93508100Y-81282776D01*
X93519765Y-81300233D01*
X93519766Y-81300234D01*
X93570342Y-81334028D01*
X93570343Y-81334028D01*
X93570345Y-81334029D01*
X93589093Y-81337758D01*
X93614943Y-81342900D01*
X94045056Y-81342899D01*
X94089658Y-81334028D01*
X94140234Y-81300234D01*
X94151896Y-81282779D01*
X94205506Y-81237975D01*
X94274831Y-81229265D01*
X94337859Y-81259418D01*
X94358100Y-81282776D01*
X94369765Y-81300233D01*
X94369766Y-81300234D01*
X94420342Y-81334028D01*
X94420343Y-81334028D01*
X94420345Y-81334029D01*
X94439093Y-81337758D01*
X94464943Y-81342900D01*
X94895056Y-81342899D01*
X94939658Y-81334028D01*
X94990234Y-81300234D01*
X95001896Y-81282779D01*
X95055506Y-81237975D01*
X95124831Y-81229265D01*
X95187859Y-81259418D01*
X95208100Y-81282776D01*
X95219765Y-81300233D01*
X95219766Y-81300234D01*
X95270342Y-81334028D01*
X95270343Y-81334028D01*
X95270345Y-81334029D01*
X95289093Y-81337758D01*
X95314943Y-81342900D01*
X95745056Y-81342899D01*
X95789658Y-81334028D01*
X95840234Y-81300234D01*
X95851896Y-81282779D01*
X95905506Y-81237975D01*
X95974831Y-81229265D01*
X96037859Y-81259418D01*
X96058100Y-81282776D01*
X96069765Y-81300234D01*
X96087524Y-81312100D01*
X96099079Y-81319820D01*
X96143885Y-81373431D01*
X96154190Y-81422923D01*
X96154190Y-81434917D01*
X96156045Y-81439395D01*
X96163514Y-81508865D01*
X96132239Y-81571344D01*
X96072150Y-81606996D01*
X96038561Y-81610814D01*
X95593482Y-81600317D01*
X95580000Y-81600000D01*
X95579999Y-81600000D01*
X90406251Y-87111383D01*
X90346016Y-87146788D01*
X90317036Y-87150509D01*
X87332699Y-87179204D01*
X87265474Y-87160165D01*
X87219213Y-87107804D01*
X87208605Y-87038744D01*
X87221021Y-86998919D01*
X87247957Y-86946055D01*
X87249450Y-86936628D01*
X87267922Y-86820003D01*
X87267922Y-86819996D01*
X87247958Y-86693949D01*
X87247957Y-86693947D01*
X87247957Y-86693945D01*
X87190016Y-86580229D01*
X87190014Y-86580227D01*
X87190011Y-86580223D01*
X87099776Y-86489988D01*
X87099772Y-86489985D01*
X87099771Y-86489984D01*
X86986055Y-86432043D01*
X86986053Y-86432042D01*
X86986050Y-86432041D01*
X86860003Y-86412078D01*
X86859997Y-86412078D01*
X86733947Y-86432041D01*
X86733946Y-86432042D01*
X86725689Y-86436249D01*
X86657019Y-86449142D01*
X86592280Y-86422863D01*
X86552025Y-86365755D01*
X86545399Y-86325762D01*
X86545399Y-86249945D01*
X86543919Y-86242503D01*
X86536528Y-86205342D01*
X86536526Y-86205340D01*
X86536526Y-86205338D01*
X86502734Y-86154766D01*
X86452158Y-86120972D01*
X86452157Y-86120971D01*
X86452156Y-86120971D01*
X86452154Y-86120970D01*
X86407559Y-86112100D01*
X85752444Y-86112100D01*
X85752443Y-86112101D01*
X85716690Y-86119212D01*
X85668311Y-86119211D01*
X85632561Y-86112100D01*
X85632557Y-86112100D01*
X85281257Y-86112100D01*
X85214218Y-86092415D01*
X85168463Y-86039611D01*
X85158519Y-85970453D01*
X85187544Y-85906897D01*
X85193576Y-85900419D01*
X85229854Y-85864142D01*
X85414777Y-85679219D01*
X85476100Y-85645734D01*
X85502458Y-85642900D01*
X85988489Y-85642900D01*
X85988494Y-85642900D01*
X86057088Y-85632906D01*
X86162898Y-85581179D01*
X86246179Y-85497898D01*
X86297906Y-85392088D01*
X86307900Y-85323494D01*
X86307900Y-84856506D01*
X86297906Y-84787912D01*
X86246179Y-84682102D01*
X86246177Y-84682100D01*
X86246177Y-84682099D01*
X86162900Y-84598822D01*
X86057088Y-84547094D01*
X85988494Y-84537100D01*
X85371506Y-84537100D01*
X85314344Y-84545428D01*
X85302911Y-84547094D01*
X85197099Y-84598822D01*
X85113822Y-84682099D01*
X85080879Y-84749487D01*
X85062094Y-84787912D01*
X85052100Y-84856506D01*
X85052100Y-84856511D01*
X85052100Y-85323500D01*
X85052424Y-85327975D01*
X85051428Y-85328047D01*
X85042257Y-85392586D01*
X85017059Y-85428942D01*
X85007405Y-85438596D01*
X84946082Y-85472081D01*
X84876390Y-85467097D01*
X84820457Y-85425225D01*
X84809242Y-85407215D01*
X84770016Y-85330229D01*
X84770014Y-85330227D01*
X84770011Y-85330223D01*
X84679776Y-85239988D01*
X84679772Y-85239985D01*
X84679771Y-85239984D01*
X84566055Y-85182043D01*
X84566053Y-85182042D01*
X84566050Y-85182041D01*
X84440003Y-85162078D01*
X84439997Y-85162078D01*
X84313947Y-85182041D01*
X84208318Y-85235862D01*
X84139649Y-85248758D01*
X84137744Y-85248552D01*
X84131988Y-85247884D01*
X84125227Y-85247100D01*
X84125226Y-85247100D01*
X83279104Y-85247100D01*
X83212065Y-85227415D01*
X83166310Y-85174611D01*
X83156165Y-85139287D01*
X83155500Y-85134241D01*
X83155500Y-85134234D01*
X83116281Y-84987865D01*
X83040515Y-84856635D01*
X82933365Y-84749485D01*
X82919943Y-84741736D01*
X82891998Y-84725601D01*
X82843784Y-84675033D01*
X82830000Y-84618215D01*
X82830000Y-84080000D01*
X83330000Y-84080000D01*
X83330000Y-84580000D01*
X83708794Y-84580000D01*
X83708797Y-84579999D01*
X83863343Y-84549258D01*
X83863351Y-84549256D01*
X84008939Y-84488952D01*
X84008948Y-84488947D01*
X84139969Y-84401401D01*
X84139973Y-84401398D01*
X84251398Y-84289973D01*
X84251401Y-84289969D01*
X84338947Y-84158948D01*
X84338952Y-84158938D01*
X84392361Y-84030000D01*
X83796988Y-84030000D01*
X83814205Y-84020060D01*
X83870060Y-83964205D01*
X83909556Y-83895796D01*
X83930000Y-83819496D01*
X83930000Y-83740504D01*
X83909556Y-83664204D01*
X83870060Y-83595795D01*
X83814205Y-83539940D01*
X83796988Y-83530000D01*
X84392361Y-83530000D01*
X84392360Y-83529999D01*
X84338952Y-83401061D01*
X84338947Y-83401051D01*
X84251401Y-83270030D01*
X84251398Y-83270026D01*
X84139973Y-83158601D01*
X84139969Y-83158598D01*
X84008948Y-83071052D01*
X84008939Y-83071047D01*
X83863351Y-83010743D01*
X83863343Y-83010741D01*
X83708797Y-82980000D01*
X83330000Y-82980000D01*
X83330000Y-83480000D01*
X82830000Y-83480000D01*
X82830000Y-82980000D01*
X82451202Y-82980000D01*
X82296656Y-83010741D01*
X82296648Y-83010743D01*
X82151060Y-83071047D01*
X82151051Y-83071052D01*
X82020030Y-83158598D01*
X82020026Y-83158601D01*
X81908601Y-83270026D01*
X81908598Y-83270030D01*
X81821052Y-83401051D01*
X81821047Y-83401061D01*
X81767639Y-83529999D01*
X81767639Y-83530000D01*
X82363012Y-83530000D01*
X82345795Y-83539940D01*
X82289940Y-83595795D01*
X82250444Y-83664204D01*
X82230000Y-83740504D01*
X82230000Y-83819496D01*
X82250444Y-83895796D01*
X82289940Y-83964205D01*
X82345795Y-84020060D01*
X82363012Y-84030000D01*
X81767639Y-84030000D01*
X81821047Y-84158938D01*
X81821052Y-84158948D01*
X81908598Y-84289969D01*
X81908601Y-84289973D01*
X82020026Y-84401398D01*
X82020030Y-84401401D01*
X82151051Y-84488947D01*
X82151060Y-84488952D01*
X82225507Y-84519789D01*
X82279910Y-84563630D01*
X82301975Y-84629924D01*
X82284696Y-84697624D01*
X82240056Y-84741736D01*
X82226638Y-84749482D01*
X82226632Y-84749487D01*
X82119487Y-84856632D01*
X82119485Y-84856635D01*
X82043719Y-84987863D01*
X82038349Y-85007905D01*
X82004500Y-85134234D01*
X82004500Y-85285766D01*
X82014609Y-85323494D01*
X82043719Y-85432136D01*
X82063904Y-85467097D01*
X82119485Y-85563365D01*
X82226635Y-85670515D01*
X82357865Y-85746281D01*
X82413902Y-85761296D01*
X82473561Y-85797659D01*
X82504091Y-85860506D01*
X82495797Y-85929882D01*
X82469489Y-85968751D01*
X81455701Y-86982539D01*
X81455697Y-86982544D01*
X81431362Y-87024695D01*
X81431362Y-87024696D01*
X81415506Y-87052158D01*
X81394700Y-87129807D01*
X81394700Y-94388812D01*
X81375015Y-94455851D01*
X81322211Y-94501606D01*
X81318154Y-94503373D01*
X81272316Y-94522359D01*
X81124435Y-94621171D01*
X81124431Y-94621174D01*
X80998674Y-94746931D01*
X80998671Y-94746935D01*
X80899858Y-94894818D01*
X80899857Y-94894820D01*
X80831798Y-95059132D01*
X80831796Y-95059140D01*
X80821617Y-95110315D01*
X80789232Y-95172225D01*
X80728516Y-95206800D01*
X80658747Y-95203060D01*
X80602075Y-95162193D01*
X80578383Y-95110315D01*
X80568203Y-95059140D01*
X80568202Y-95059134D01*
X80538884Y-94988353D01*
X80500142Y-94894820D01*
X80500141Y-94894818D01*
X80401328Y-94746935D01*
X80401325Y-94746931D01*
X80275568Y-94621174D01*
X80275564Y-94621171D01*
X80127681Y-94522358D01*
X80127679Y-94522357D01*
X79963367Y-94454298D01*
X79963358Y-94454295D01*
X79788931Y-94419600D01*
X79788928Y-94419600D01*
X79611072Y-94419600D01*
X79611069Y-94419600D01*
X79436641Y-94454295D01*
X79436632Y-94454298D01*
X79272320Y-94522357D01*
X79272318Y-94522358D01*
X79124435Y-94621171D01*
X79124431Y-94621174D01*
X78998672Y-94746933D01*
X78992972Y-94755465D01*
X78939358Y-94800269D01*
X78870033Y-94808975D01*
X78807006Y-94778819D01*
X78771940Y-94724890D01*
X78761109Y-94691555D01*
X78761108Y-94691552D01*
X78691965Y-94555853D01*
X78671576Y-94515837D01*
X78555658Y-94356291D01*
X78416209Y-94216842D01*
X78256663Y-94100924D01*
X78238868Y-94091857D01*
X78080947Y-94011391D01*
X78080944Y-94011390D01*
X77893389Y-93950451D01*
X77795996Y-93935025D01*
X77698605Y-93919600D01*
X77501395Y-93919600D01*
X77436467Y-93929883D01*
X77306610Y-93950451D01*
X77119055Y-94011390D01*
X77119052Y-94011391D01*
X76943333Y-94100926D01*
X76897385Y-94134309D01*
X76831578Y-94157789D01*
X76763525Y-94141963D01*
X76714830Y-94091857D01*
X76700500Y-94033991D01*
X76700500Y-92169999D01*
X77737639Y-92169999D01*
X77737639Y-92170000D01*
X78333012Y-92170000D01*
X78315795Y-92179940D01*
X78259940Y-92235795D01*
X78220444Y-92304204D01*
X78200000Y-92380504D01*
X78200000Y-92459496D01*
X78220444Y-92535796D01*
X78259940Y-92604205D01*
X78315795Y-92660060D01*
X78333012Y-92670000D01*
X77737639Y-92670000D01*
X77791047Y-92798938D01*
X77791052Y-92798948D01*
X77878598Y-92929969D01*
X77878601Y-92929973D01*
X77990026Y-93041398D01*
X77990030Y-93041401D01*
X78121051Y-93128947D01*
X78121060Y-93128952D01*
X78266648Y-93189256D01*
X78266656Y-93189258D01*
X78421202Y-93219999D01*
X78421206Y-93220000D01*
X78650000Y-93220000D01*
X78650000Y-92720000D01*
X79150000Y-92720000D01*
X79150000Y-93220000D01*
X79378794Y-93220000D01*
X79378797Y-93219999D01*
X79533343Y-93189258D01*
X79533351Y-93189256D01*
X79678939Y-93128952D01*
X79678948Y-93128947D01*
X79809969Y-93041401D01*
X79809973Y-93041398D01*
X79921398Y-92929973D01*
X79921401Y-92929969D01*
X80008947Y-92798948D01*
X80008952Y-92798938D01*
X80062361Y-92670000D01*
X79466988Y-92670000D01*
X79484205Y-92660060D01*
X79540060Y-92604205D01*
X79579556Y-92535796D01*
X79600000Y-92459496D01*
X79600000Y-92380504D01*
X79579556Y-92304204D01*
X79540060Y-92235795D01*
X79484205Y-92179940D01*
X79466988Y-92170000D01*
X80062361Y-92170000D01*
X80062360Y-92169999D01*
X80008952Y-92041061D01*
X80008947Y-92041051D01*
X79921401Y-91910030D01*
X79921398Y-91910026D01*
X79809973Y-91798601D01*
X79809969Y-91798598D01*
X79678948Y-91711052D01*
X79678939Y-91711047D01*
X79533351Y-91650743D01*
X79533343Y-91650741D01*
X79378797Y-91620000D01*
X79150000Y-91620000D01*
X79150000Y-92120000D01*
X78650000Y-92120000D01*
X78650000Y-91620000D01*
X78421202Y-91620000D01*
X78266656Y-91650741D01*
X78266648Y-91650743D01*
X78121060Y-91711047D01*
X78121051Y-91711052D01*
X77990030Y-91798598D01*
X77990026Y-91798601D01*
X77878601Y-91910026D01*
X77878598Y-91910030D01*
X77791052Y-92041051D01*
X77791047Y-92041061D01*
X77737639Y-92169999D01*
X76700500Y-92169999D01*
X76700500Y-83529999D01*
X77737639Y-83529999D01*
X77737639Y-83530000D01*
X78333012Y-83530000D01*
X78315795Y-83539940D01*
X78259940Y-83595795D01*
X78220444Y-83664204D01*
X78200000Y-83740504D01*
X78200000Y-83819496D01*
X78220444Y-83895796D01*
X78259940Y-83964205D01*
X78315795Y-84020060D01*
X78333012Y-84030000D01*
X77737639Y-84030000D01*
X77791047Y-84158938D01*
X77791052Y-84158948D01*
X77878598Y-84289969D01*
X77878601Y-84289973D01*
X77990026Y-84401398D01*
X77990030Y-84401401D01*
X78121051Y-84488947D01*
X78121060Y-84488952D01*
X78266648Y-84549256D01*
X78266656Y-84549258D01*
X78421202Y-84579999D01*
X78421206Y-84580000D01*
X78650000Y-84580000D01*
X78650000Y-84080000D01*
X79150000Y-84080000D01*
X79150000Y-84580000D01*
X79378794Y-84580000D01*
X79378797Y-84579999D01*
X79533343Y-84549258D01*
X79533351Y-84549256D01*
X79678939Y-84488952D01*
X79678948Y-84488947D01*
X79809969Y-84401401D01*
X79809973Y-84401398D01*
X79921398Y-84289973D01*
X79921401Y-84289969D01*
X80008947Y-84158948D01*
X80008952Y-84158938D01*
X80062361Y-84030000D01*
X79466988Y-84030000D01*
X79484205Y-84020060D01*
X79540060Y-83964205D01*
X79579556Y-83895796D01*
X79600000Y-83819496D01*
X79600000Y-83740504D01*
X79579556Y-83664204D01*
X79540060Y-83595795D01*
X79484205Y-83539940D01*
X79466988Y-83530000D01*
X80062361Y-83530000D01*
X80062360Y-83529999D01*
X80008952Y-83401061D01*
X80008947Y-83401051D01*
X79921401Y-83270030D01*
X79921398Y-83270026D01*
X79809973Y-83158601D01*
X79809969Y-83158598D01*
X79678948Y-83071052D01*
X79678939Y-83071047D01*
X79533351Y-83010743D01*
X79533343Y-83010741D01*
X79378797Y-82980000D01*
X79150000Y-82980000D01*
X79150000Y-83480000D01*
X78650000Y-83480000D01*
X78650000Y-82980000D01*
X78421202Y-82980000D01*
X78266656Y-83010741D01*
X78266648Y-83010743D01*
X78121060Y-83071047D01*
X78121051Y-83071052D01*
X77990030Y-83158598D01*
X77990026Y-83158601D01*
X77878601Y-83270026D01*
X77878598Y-83270030D01*
X77791052Y-83401051D01*
X77791047Y-83401061D01*
X77737639Y-83529999D01*
X76700500Y-83529999D01*
X76700500Y-80104940D01*
X77117100Y-80104940D01*
X77117100Y-81835054D01*
X77125972Y-81879658D01*
X77125973Y-81879661D01*
X77159765Y-81930233D01*
X77159766Y-81930234D01*
X77210342Y-81964028D01*
X77210343Y-81964028D01*
X77210345Y-81964029D01*
X77232642Y-81968464D01*
X77254943Y-81972900D01*
X78985056Y-81972899D01*
X79029658Y-81964028D01*
X79080234Y-81930234D01*
X79114028Y-81879658D01*
X79122900Y-81835057D01*
X79122899Y-80719999D01*
X79535487Y-80719999D01*
X79535488Y-80720000D01*
X80226988Y-80720000D01*
X80194075Y-80777007D01*
X80160000Y-80904174D01*
X80160000Y-81035826D01*
X80194075Y-81162993D01*
X80226988Y-81220000D01*
X79535488Y-81220000D01*
X79583062Y-81387205D01*
X79583067Y-81387218D01*
X79678061Y-81577991D01*
X79806500Y-81748071D01*
X79964000Y-81891651D01*
X79964002Y-81891653D01*
X80145201Y-82003846D01*
X80145207Y-82003849D01*
X80343941Y-82080838D01*
X80410000Y-82093186D01*
X80410000Y-81403012D01*
X80467007Y-81435925D01*
X80594174Y-81470000D01*
X80725826Y-81470000D01*
X80852993Y-81435925D01*
X80910000Y-81403012D01*
X80910000Y-82093185D01*
X80976058Y-82080838D01*
X81174792Y-82003849D01*
X81174798Y-82003846D01*
X81355997Y-81891653D01*
X81355999Y-81891651D01*
X81513499Y-81748071D01*
X81641938Y-81577991D01*
X81736932Y-81387218D01*
X81736937Y-81387205D01*
X81784512Y-81220000D01*
X81093012Y-81220000D01*
X81125925Y-81162993D01*
X81160000Y-81035826D01*
X81160000Y-80970000D01*
X82192246Y-80970000D01*
X82211609Y-81166599D01*
X82211609Y-81166601D01*
X82211610Y-81166603D01*
X82268957Y-81355650D01*
X82361844Y-81529430D01*
X82362085Y-81529881D01*
X82487409Y-81682589D01*
X82640117Y-81807913D01*
X82640121Y-81807916D01*
X82814349Y-81901042D01*
X83003396Y-81958389D01*
X83199999Y-81977753D01*
X83396602Y-81958389D01*
X83585649Y-81901042D01*
X83759877Y-81807916D01*
X83912588Y-81682589D01*
X84037915Y-81529878D01*
X84131041Y-81355650D01*
X84188388Y-81166603D01*
X84207752Y-80970000D01*
X84188388Y-80773397D01*
X84131041Y-80584350D01*
X84037915Y-80410122D01*
X84009045Y-80374944D01*
X83912588Y-80257410D01*
X83759880Y-80132086D01*
X83759878Y-80132085D01*
X83759877Y-80132084D01*
X83585649Y-80038958D01*
X83396602Y-79981611D01*
X83396600Y-79981610D01*
X83396598Y-79981610D01*
X83199999Y-79962247D01*
X83003399Y-79981610D01*
X82814349Y-80038958D01*
X82640117Y-80132086D01*
X82487409Y-80257410D01*
X82362085Y-80410118D01*
X82268957Y-80584350D01*
X82211609Y-80773400D01*
X82192246Y-80970000D01*
X81160000Y-80970000D01*
X81160000Y-80904174D01*
X81125925Y-80777007D01*
X81093012Y-80720000D01*
X81784512Y-80720000D01*
X81784512Y-80719999D01*
X81736937Y-80552794D01*
X81736932Y-80552781D01*
X81641938Y-80362008D01*
X81513499Y-80191928D01*
X81355999Y-80048348D01*
X81355997Y-80048346D01*
X81174798Y-79936153D01*
X81174789Y-79936149D01*
X80976063Y-79859163D01*
X80976058Y-79859162D01*
X80910000Y-79846813D01*
X80910000Y-80536988D01*
X80852993Y-80504075D01*
X80725826Y-80470000D01*
X80594174Y-80470000D01*
X80467007Y-80504075D01*
X80410000Y-80536988D01*
X80410000Y-79846813D01*
X80343941Y-79859162D01*
X80343936Y-79859163D01*
X80145210Y-79936149D01*
X80145201Y-79936153D01*
X79964002Y-80048346D01*
X79964000Y-80048348D01*
X79806500Y-80191928D01*
X79678061Y-80362008D01*
X79583067Y-80552781D01*
X79583062Y-80552794D01*
X79535487Y-80719999D01*
X79122899Y-80719999D01*
X79122899Y-80104944D01*
X79114028Y-80060342D01*
X79114026Y-80060340D01*
X79114026Y-80060338D01*
X79080234Y-80009766D01*
X79038097Y-79981611D01*
X79029658Y-79975972D01*
X79029657Y-79975971D01*
X79029656Y-79975971D01*
X79029654Y-79975970D01*
X78985059Y-79967100D01*
X77254945Y-79967100D01*
X77210341Y-79975972D01*
X77210338Y-79975973D01*
X77159766Y-80009765D01*
X77125971Y-80060343D01*
X77125970Y-80060345D01*
X77117100Y-80104940D01*
X76700500Y-80104940D01*
X76700500Y-76464941D01*
X77117099Y-76464941D01*
X77117099Y-78195055D01*
X77125971Y-78239659D01*
X77125972Y-78239662D01*
X77140259Y-78261043D01*
X77159765Y-78290235D01*
X77210341Y-78324029D01*
X77210342Y-78324029D01*
X77210344Y-78324030D01*
X77232641Y-78328465D01*
X77254942Y-78332901D01*
X78985055Y-78332900D01*
X79029657Y-78324029D01*
X79080233Y-78290235D01*
X79114027Y-78239659D01*
X79122899Y-78195058D01*
X79122898Y-77080000D01*
X79535486Y-77080000D01*
X79535487Y-77080001D01*
X80226987Y-77080001D01*
X80194074Y-77137008D01*
X80159999Y-77264175D01*
X80159999Y-77395827D01*
X80194074Y-77522994D01*
X80226987Y-77580001D01*
X79535487Y-77580001D01*
X79583061Y-77747206D01*
X79583066Y-77747219D01*
X79678060Y-77937992D01*
X79806499Y-78108072D01*
X79963999Y-78251652D01*
X79964001Y-78251654D01*
X80145200Y-78363847D01*
X80145206Y-78363850D01*
X80343940Y-78440839D01*
X80409999Y-78453187D01*
X80409999Y-77763013D01*
X80467006Y-77795926D01*
X80594173Y-77830001D01*
X80725825Y-77830001D01*
X80852992Y-77795926D01*
X80909999Y-77763013D01*
X80909999Y-78453186D01*
X80976057Y-78440839D01*
X81174791Y-78363850D01*
X81174797Y-78363847D01*
X81355996Y-78251654D01*
X81355998Y-78251652D01*
X81513498Y-78108072D01*
X81641937Y-77937992D01*
X81736931Y-77747219D01*
X81736936Y-77747206D01*
X81784511Y-77580001D01*
X81093011Y-77580001D01*
X81125924Y-77522994D01*
X81159999Y-77395827D01*
X81159999Y-77330001D01*
X82192245Y-77330001D01*
X82211608Y-77526600D01*
X82211608Y-77526602D01*
X82211609Y-77526604D01*
X82268956Y-77715651D01*
X82330077Y-77830001D01*
X82362084Y-77889882D01*
X82487408Y-78042590D01*
X82640116Y-78167914D01*
X82640120Y-78167917D01*
X82814348Y-78261043D01*
X83003395Y-78318390D01*
X83199998Y-78337754D01*
X83396601Y-78318390D01*
X83585648Y-78261043D01*
X83759876Y-78167917D01*
X83912587Y-78042590D01*
X84037914Y-77889879D01*
X84131040Y-77715651D01*
X84188387Y-77526604D01*
X84207751Y-77330001D01*
X84188387Y-77133398D01*
X84131040Y-76944351D01*
X84037914Y-76770123D01*
X84037911Y-76770119D01*
X83912587Y-76617411D01*
X83759879Y-76492087D01*
X83759877Y-76492086D01*
X83759876Y-76492085D01*
X83585648Y-76398959D01*
X83396601Y-76341612D01*
X83396599Y-76341611D01*
X83396597Y-76341611D01*
X83199998Y-76322248D01*
X83003398Y-76341611D01*
X82814348Y-76398959D01*
X82640116Y-76492087D01*
X82487408Y-76617411D01*
X82362084Y-76770119D01*
X82268956Y-76944351D01*
X82211608Y-77133401D01*
X82192245Y-77330001D01*
X81159999Y-77330001D01*
X81159999Y-77264175D01*
X81125924Y-77137008D01*
X81093011Y-77080001D01*
X81784511Y-77080001D01*
X81784511Y-77080000D01*
X81736936Y-76912795D01*
X81736931Y-76912782D01*
X81641937Y-76722009D01*
X81513498Y-76551929D01*
X81355998Y-76408349D01*
X81355996Y-76408347D01*
X81174797Y-76296154D01*
X81174788Y-76296150D01*
X80976062Y-76219164D01*
X80976057Y-76219163D01*
X80909999Y-76206814D01*
X80909999Y-76896989D01*
X80852992Y-76864076D01*
X80725825Y-76830001D01*
X80594173Y-76830001D01*
X80467006Y-76864076D01*
X80409999Y-76896989D01*
X80409999Y-76206814D01*
X80343940Y-76219163D01*
X80343935Y-76219164D01*
X80145209Y-76296150D01*
X80145200Y-76296154D01*
X79964001Y-76408347D01*
X79963999Y-76408349D01*
X79806499Y-76551929D01*
X79678060Y-76722009D01*
X79583066Y-76912782D01*
X79583061Y-76912795D01*
X79535486Y-77080000D01*
X79122898Y-77080000D01*
X79122898Y-76464945D01*
X79114027Y-76420343D01*
X79114025Y-76420341D01*
X79114025Y-76420339D01*
X79080233Y-76369767D01*
X79038096Y-76341612D01*
X79029657Y-76335973D01*
X79029656Y-76335972D01*
X79029655Y-76335972D01*
X79029653Y-76335971D01*
X78985058Y-76327101D01*
X77254944Y-76327101D01*
X77210340Y-76335973D01*
X77210337Y-76335974D01*
X77159765Y-76369766D01*
X77125970Y-76420344D01*
X77125969Y-76420346D01*
X77117099Y-76464941D01*
X76700500Y-76464941D01*
X76700500Y-72824940D01*
X77107101Y-72824940D01*
X77107101Y-74555054D01*
X77115973Y-74599658D01*
X77115974Y-74599661D01*
X77130261Y-74621042D01*
X77149767Y-74650234D01*
X77200343Y-74684028D01*
X77200344Y-74684028D01*
X77200346Y-74684029D01*
X77222643Y-74688464D01*
X77244944Y-74692900D01*
X78975057Y-74692899D01*
X79019659Y-74684028D01*
X79070235Y-74650234D01*
X79104029Y-74599658D01*
X79112901Y-74555057D01*
X79112900Y-73439999D01*
X79525488Y-73439999D01*
X79525489Y-73440000D01*
X80216989Y-73440000D01*
X80184076Y-73497007D01*
X80150001Y-73624174D01*
X80150001Y-73755826D01*
X80184076Y-73882993D01*
X80216989Y-73940000D01*
X79525489Y-73940000D01*
X79573063Y-74107205D01*
X79573068Y-74107218D01*
X79668062Y-74297991D01*
X79796501Y-74468071D01*
X79954001Y-74611651D01*
X79954003Y-74611653D01*
X80135202Y-74723846D01*
X80135208Y-74723849D01*
X80333942Y-74800838D01*
X80400001Y-74813186D01*
X80400001Y-74123012D01*
X80457008Y-74155925D01*
X80584175Y-74190000D01*
X80715827Y-74190000D01*
X80842994Y-74155925D01*
X80900001Y-74123012D01*
X80900001Y-74813185D01*
X80966059Y-74800838D01*
X81164793Y-74723849D01*
X81164799Y-74723846D01*
X81345998Y-74611653D01*
X81346000Y-74611651D01*
X81503500Y-74468071D01*
X81631939Y-74297991D01*
X81726933Y-74107218D01*
X81726938Y-74107205D01*
X81774513Y-73940000D01*
X81083013Y-73940000D01*
X81115926Y-73882993D01*
X81150001Y-73755826D01*
X81150001Y-73690000D01*
X82182247Y-73690000D01*
X82201610Y-73886599D01*
X82201610Y-73886601D01*
X82201611Y-73886603D01*
X82258958Y-74075650D01*
X82352084Y-74249878D01*
X82352086Y-74249881D01*
X82477410Y-74402589D01*
X82630118Y-74527913D01*
X82630122Y-74527916D01*
X82804350Y-74621042D01*
X82993397Y-74678389D01*
X83190000Y-74697753D01*
X83386603Y-74678389D01*
X83575650Y-74621042D01*
X83749878Y-74527916D01*
X83902589Y-74402589D01*
X84027916Y-74249878D01*
X84121042Y-74075650D01*
X84178389Y-73886603D01*
X84197753Y-73690000D01*
X84178389Y-73493397D01*
X84121042Y-73304350D01*
X84027916Y-73130122D01*
X84027913Y-73130118D01*
X83902589Y-72977410D01*
X83749881Y-72852086D01*
X83749879Y-72852085D01*
X83749878Y-72852084D01*
X83575650Y-72758958D01*
X83386603Y-72701611D01*
X83386601Y-72701610D01*
X83386599Y-72701610D01*
X83190000Y-72682247D01*
X82993400Y-72701610D01*
X82804350Y-72758958D01*
X82630118Y-72852086D01*
X82477410Y-72977410D01*
X82352086Y-73130118D01*
X82258958Y-73304350D01*
X82201610Y-73493400D01*
X82182247Y-73690000D01*
X81150001Y-73690000D01*
X81150001Y-73624174D01*
X81115926Y-73497007D01*
X81083013Y-73440000D01*
X81774513Y-73440000D01*
X81774513Y-73439999D01*
X81726938Y-73272794D01*
X81726933Y-73272781D01*
X81631939Y-73082008D01*
X81503500Y-72911928D01*
X81346000Y-72768348D01*
X81345998Y-72768346D01*
X81164799Y-72656153D01*
X81164790Y-72656149D01*
X80966064Y-72579163D01*
X80966059Y-72579162D01*
X80900001Y-72566813D01*
X80900001Y-73256988D01*
X80842994Y-73224075D01*
X80715827Y-73190000D01*
X80584175Y-73190000D01*
X80457008Y-73224075D01*
X80400001Y-73256988D01*
X80400001Y-72566813D01*
X80333942Y-72579162D01*
X80333937Y-72579163D01*
X80135211Y-72656149D01*
X80135202Y-72656153D01*
X79954003Y-72768346D01*
X79954001Y-72768348D01*
X79796501Y-72911928D01*
X79668062Y-73082008D01*
X79573068Y-73272781D01*
X79573063Y-73272794D01*
X79525488Y-73439999D01*
X79112900Y-73439999D01*
X79112900Y-72824944D01*
X79104029Y-72780342D01*
X79104027Y-72780340D01*
X79104027Y-72780338D01*
X79070235Y-72729766D01*
X79028098Y-72701611D01*
X79019659Y-72695972D01*
X79019658Y-72695971D01*
X79019657Y-72695971D01*
X79019655Y-72695970D01*
X78975060Y-72687100D01*
X77244946Y-72687100D01*
X77200342Y-72695972D01*
X77200339Y-72695973D01*
X77149767Y-72729765D01*
X77115972Y-72780343D01*
X77115971Y-72780345D01*
X77107101Y-72824940D01*
X76700500Y-72824940D01*
X76700500Y-69039998D01*
X77194390Y-69039998D01*
X77194390Y-69040001D01*
X77214804Y-69325433D01*
X77275628Y-69605037D01*
X77275630Y-69605043D01*
X77275631Y-69605046D01*
X77367082Y-69850234D01*
X77375635Y-69873166D01*
X77512770Y-70124309D01*
X77512775Y-70124317D01*
X77684254Y-70353387D01*
X77684270Y-70353405D01*
X77886594Y-70555729D01*
X77886612Y-70555745D01*
X78115682Y-70727224D01*
X78115690Y-70727229D01*
X78366833Y-70864364D01*
X78366832Y-70864364D01*
X78366836Y-70864365D01*
X78366839Y-70864367D01*
X78634954Y-70964369D01*
X78634960Y-70964370D01*
X78634962Y-70964371D01*
X78914566Y-71025195D01*
X78914568Y-71025195D01*
X78914572Y-71025196D01*
X79168220Y-71043337D01*
X79199999Y-71045610D01*
X79200000Y-71045610D01*
X79200001Y-71045610D01*
X79228595Y-71043564D01*
X79485428Y-71025196D01*
X79486587Y-71024944D01*
X79765037Y-70964371D01*
X79765037Y-70964370D01*
X79765046Y-70964369D01*
X80033161Y-70864367D01*
X80284315Y-70727226D01*
X80513395Y-70555739D01*
X80715739Y-70353395D01*
X80887226Y-70124315D01*
X81024367Y-69873161D01*
X81124369Y-69605046D01*
X81130735Y-69575782D01*
X81185195Y-69325433D01*
X81185195Y-69325432D01*
X81185196Y-69325428D01*
X81205610Y-69040000D01*
X81202700Y-68999319D01*
X81199149Y-68949658D01*
X81185196Y-68754572D01*
X81124369Y-68474954D01*
X81024367Y-68206839D01*
X81006925Y-68174897D01*
X80887229Y-67955690D01*
X80887224Y-67955682D01*
X80715745Y-67726612D01*
X80715729Y-67726594D01*
X80513405Y-67524270D01*
X80513387Y-67524254D01*
X80284317Y-67352775D01*
X80284309Y-67352770D01*
X80033166Y-67215635D01*
X80033167Y-67215635D01*
X79925915Y-67175632D01*
X79765046Y-67115631D01*
X79765043Y-67115630D01*
X79765037Y-67115628D01*
X79485433Y-67054804D01*
X79200001Y-67034390D01*
X79199999Y-67034390D01*
X78914566Y-67054804D01*
X78634962Y-67115628D01*
X78366833Y-67215635D01*
X78115690Y-67352770D01*
X78115682Y-67352775D01*
X77886612Y-67524254D01*
X77886594Y-67524270D01*
X77684270Y-67726594D01*
X77684254Y-67726612D01*
X77512775Y-67955682D01*
X77512770Y-67955690D01*
X77375635Y-68206833D01*
X77275628Y-68474962D01*
X77214804Y-68754566D01*
X77194390Y-69039998D01*
X76700500Y-69039998D01*
X76700500Y-66664500D01*
X76720185Y-66597461D01*
X76772989Y-66551706D01*
X76824500Y-66540500D01*
X85303100Y-66540500D01*
X85370139Y-66560185D01*
G37*
%TD.AperFunction*%
%TA.AperFunction,Conductor*%
G36*
X84767478Y-86969032D02*
G01*
X84823411Y-87010904D01*
X84845761Y-87061022D01*
X84846413Y-87064300D01*
X84848473Y-87074659D01*
X84848474Y-87074661D01*
X84882266Y-87125233D01*
X84882267Y-87125234D01*
X84932843Y-87159028D01*
X84932844Y-87159028D01*
X84932846Y-87159029D01*
X84955143Y-87163464D01*
X84977444Y-87167900D01*
X85632557Y-87167899D01*
X85668310Y-87160788D01*
X85716689Y-87160788D01*
X85752442Y-87167900D01*
X86407555Y-87167899D01*
X86452157Y-87159028D01*
X86452845Y-87158568D01*
X86471359Y-87146198D01*
X86538036Y-87125320D01*
X86540250Y-87125300D01*
X86545920Y-87125300D01*
X86612959Y-87144985D01*
X86618801Y-87148979D01*
X86620223Y-87150012D01*
X86620227Y-87150014D01*
X86620229Y-87150016D01*
X86733945Y-87207957D01*
X86733947Y-87207957D01*
X86733949Y-87207958D01*
X86859997Y-87227922D01*
X86860000Y-87227922D01*
X86860003Y-87227922D01*
X86986050Y-87207958D01*
X86986050Y-87207957D01*
X86986055Y-87207957D01*
X87075744Y-87162258D01*
X87144409Y-87149363D01*
X87209150Y-87175639D01*
X87249407Y-87232745D01*
X87255748Y-87264309D01*
X87280862Y-87632647D01*
X87265783Y-87700870D01*
X87216214Y-87750111D01*
X87157149Y-87765082D01*
X86642724Y-87765082D01*
X86575685Y-87745397D01*
X86539622Y-87709973D01*
X86502733Y-87654766D01*
X86452157Y-87620972D01*
X86452156Y-87620971D01*
X86452155Y-87620971D01*
X86452153Y-87620970D01*
X86407558Y-87612100D01*
X85752443Y-87612100D01*
X85722599Y-87618036D01*
X85716690Y-87619211D01*
X85668311Y-87619211D01*
X85632561Y-87612100D01*
X84977446Y-87612100D01*
X84932836Y-87620973D01*
X84927253Y-87623286D01*
X84857783Y-87630749D01*
X84795306Y-87599469D01*
X84759659Y-87539377D01*
X84755810Y-87508721D01*
X84755810Y-87445085D01*
X84755810Y-87445084D01*
X84721432Y-87362089D01*
X84721430Y-87362087D01*
X84721430Y-87362086D01*
X84584351Y-87225007D01*
X84550866Y-87163684D01*
X84555850Y-87093992D01*
X84584351Y-87049645D01*
X84589773Y-87044222D01*
X84589775Y-87044222D01*
X84636465Y-86997531D01*
X84697786Y-86964048D01*
X84767478Y-86969032D01*
G37*
%TD.AperFunction*%
%TD*%
M02*
