%TF.GenerationSoftware,KiCad,Pcbnew,8.0.5*%
%TF.CreationDate,2024-10-08T22:01:25+02:00*%
%TF.ProjectId,ESP32_Controller,45535033-325f-4436-9f6e-74726f6c6c65,rev?*%
%TF.SameCoordinates,Original*%
%TF.FileFunction,Legend,Top*%
%TF.FilePolarity,Positive*%
%FSLAX46Y46*%
G04 Gerber Fmt 4.6, Leading zero omitted, Abs format (unit mm)*
G04 Created by KiCad (PCBNEW 8.0.5) date 2024-10-08 22:01:25*
%MOMM*%
%LPD*%
G01*
G04 APERTURE LIST*
%ADD10C,0.150000*%
%ADD11C,0.200000*%
%ADD12C,0.127000*%
%ADD13C,0.120000*%
G04 APERTURE END LIST*
D10*
X90843095Y-59109819D02*
X90843095Y-59919342D01*
X90843095Y-59919342D02*
X90890714Y-60014580D01*
X90890714Y-60014580D02*
X90938333Y-60062200D01*
X90938333Y-60062200D02*
X91033571Y-60109819D01*
X91033571Y-60109819D02*
X91224047Y-60109819D01*
X91224047Y-60109819D02*
X91319285Y-60062200D01*
X91319285Y-60062200D02*
X91366904Y-60014580D01*
X91366904Y-60014580D02*
X91414523Y-59919342D01*
X91414523Y-59919342D02*
X91414523Y-59109819D01*
X92366904Y-59109819D02*
X91890714Y-59109819D01*
X91890714Y-59109819D02*
X91843095Y-59586009D01*
X91843095Y-59586009D02*
X91890714Y-59538390D01*
X91890714Y-59538390D02*
X91985952Y-59490771D01*
X91985952Y-59490771D02*
X92224047Y-59490771D01*
X92224047Y-59490771D02*
X92319285Y-59538390D01*
X92319285Y-59538390D02*
X92366904Y-59586009D01*
X92366904Y-59586009D02*
X92414523Y-59681247D01*
X92414523Y-59681247D02*
X92414523Y-59919342D01*
X92414523Y-59919342D02*
X92366904Y-60014580D01*
X92366904Y-60014580D02*
X92319285Y-60062200D01*
X92319285Y-60062200D02*
X92224047Y-60109819D01*
X92224047Y-60109819D02*
X91985952Y-60109819D01*
X91985952Y-60109819D02*
X91890714Y-60062200D01*
X91890714Y-60062200D02*
X91843095Y-60014580D01*
X106635429Y-82179715D02*
X106381429Y-81816858D01*
X106200000Y-82179715D02*
X106200000Y-81417715D01*
X106200000Y-81417715D02*
X106490286Y-81417715D01*
X106490286Y-81417715D02*
X106562857Y-81454001D01*
X106562857Y-81454001D02*
X106599143Y-81490287D01*
X106599143Y-81490287D02*
X106635429Y-81562858D01*
X106635429Y-81562858D02*
X106635429Y-81671715D01*
X106635429Y-81671715D02*
X106599143Y-81744287D01*
X106599143Y-81744287D02*
X106562857Y-81780572D01*
X106562857Y-81780572D02*
X106490286Y-81816858D01*
X106490286Y-81816858D02*
X106200000Y-81816858D01*
X106962000Y-81780572D02*
X107216000Y-81780572D01*
X107324857Y-82179715D02*
X106962000Y-82179715D01*
X106962000Y-82179715D02*
X106962000Y-81417715D01*
X106962000Y-81417715D02*
X107324857Y-81417715D01*
X107615143Y-82143430D02*
X107724001Y-82179715D01*
X107724001Y-82179715D02*
X107905429Y-82179715D01*
X107905429Y-82179715D02*
X107978001Y-82143430D01*
X107978001Y-82143430D02*
X108014286Y-82107144D01*
X108014286Y-82107144D02*
X108050572Y-82034572D01*
X108050572Y-82034572D02*
X108050572Y-81962001D01*
X108050572Y-81962001D02*
X108014286Y-81889430D01*
X108014286Y-81889430D02*
X107978001Y-81853144D01*
X107978001Y-81853144D02*
X107905429Y-81816858D01*
X107905429Y-81816858D02*
X107760286Y-81780572D01*
X107760286Y-81780572D02*
X107687715Y-81744287D01*
X107687715Y-81744287D02*
X107651429Y-81708001D01*
X107651429Y-81708001D02*
X107615143Y-81635430D01*
X107615143Y-81635430D02*
X107615143Y-81562858D01*
X107615143Y-81562858D02*
X107651429Y-81490287D01*
X107651429Y-81490287D02*
X107687715Y-81454001D01*
X107687715Y-81454001D02*
X107760286Y-81417715D01*
X107760286Y-81417715D02*
X107941715Y-81417715D01*
X107941715Y-81417715D02*
X108050572Y-81454001D01*
X108377143Y-81780572D02*
X108631143Y-81780572D01*
X108740000Y-82179715D02*
X108377143Y-82179715D01*
X108377143Y-82179715D02*
X108377143Y-81417715D01*
X108377143Y-81417715D02*
X108740000Y-81417715D01*
X108957715Y-81417715D02*
X109393144Y-81417715D01*
X109175429Y-82179715D02*
X109175429Y-81417715D01*
X110046286Y-82179715D02*
X109610857Y-82179715D01*
X109828572Y-82179715D02*
X109828572Y-81417715D01*
X109828572Y-81417715D02*
X109756000Y-81526572D01*
X109756000Y-81526572D02*
X109683429Y-81599144D01*
X109683429Y-81599144D02*
X109610857Y-81635430D01*
X82661009Y-70673333D02*
X82708628Y-70530476D01*
X82708628Y-70530476D02*
X82756247Y-70482857D01*
X82756247Y-70482857D02*
X82851485Y-70435238D01*
X82851485Y-70435238D02*
X82994342Y-70435238D01*
X82994342Y-70435238D02*
X83089580Y-70482857D01*
X83089580Y-70482857D02*
X83137200Y-70530476D01*
X83137200Y-70530476D02*
X83184819Y-70625714D01*
X83184819Y-70625714D02*
X83184819Y-71006666D01*
X83184819Y-71006666D02*
X82184819Y-71006666D01*
X82184819Y-71006666D02*
X82184819Y-70673333D01*
X82184819Y-70673333D02*
X82232438Y-70578095D01*
X82232438Y-70578095D02*
X82280057Y-70530476D01*
X82280057Y-70530476D02*
X82375295Y-70482857D01*
X82375295Y-70482857D02*
X82470533Y-70482857D01*
X82470533Y-70482857D02*
X82565771Y-70530476D01*
X82565771Y-70530476D02*
X82613390Y-70578095D01*
X82613390Y-70578095D02*
X82661009Y-70673333D01*
X82661009Y-70673333D02*
X82661009Y-71006666D01*
X82184819Y-69816190D02*
X82184819Y-69625714D01*
X82184819Y-69625714D02*
X82232438Y-69530476D01*
X82232438Y-69530476D02*
X82327676Y-69435238D01*
X82327676Y-69435238D02*
X82518152Y-69387619D01*
X82518152Y-69387619D02*
X82851485Y-69387619D01*
X82851485Y-69387619D02*
X83041961Y-69435238D01*
X83041961Y-69435238D02*
X83137200Y-69530476D01*
X83137200Y-69530476D02*
X83184819Y-69625714D01*
X83184819Y-69625714D02*
X83184819Y-69816190D01*
X83184819Y-69816190D02*
X83137200Y-69911428D01*
X83137200Y-69911428D02*
X83041961Y-70006666D01*
X83041961Y-70006666D02*
X82851485Y-70054285D01*
X82851485Y-70054285D02*
X82518152Y-70054285D01*
X82518152Y-70054285D02*
X82327676Y-70006666D01*
X82327676Y-70006666D02*
X82232438Y-69911428D01*
X82232438Y-69911428D02*
X82184819Y-69816190D01*
X82184819Y-68768571D02*
X82184819Y-68578095D01*
X82184819Y-68578095D02*
X82232438Y-68482857D01*
X82232438Y-68482857D02*
X82327676Y-68387619D01*
X82327676Y-68387619D02*
X82518152Y-68340000D01*
X82518152Y-68340000D02*
X82851485Y-68340000D01*
X82851485Y-68340000D02*
X83041961Y-68387619D01*
X83041961Y-68387619D02*
X83137200Y-68482857D01*
X83137200Y-68482857D02*
X83184819Y-68578095D01*
X83184819Y-68578095D02*
X83184819Y-68768571D01*
X83184819Y-68768571D02*
X83137200Y-68863809D01*
X83137200Y-68863809D02*
X83041961Y-68959047D01*
X83041961Y-68959047D02*
X82851485Y-69006666D01*
X82851485Y-69006666D02*
X82518152Y-69006666D01*
X82518152Y-69006666D02*
X82327676Y-68959047D01*
X82327676Y-68959047D02*
X82232438Y-68863809D01*
X82232438Y-68863809D02*
X82184819Y-68768571D01*
X82184819Y-68054285D02*
X82184819Y-67482857D01*
X83184819Y-67768571D02*
X82184819Y-67768571D01*
X83184819Y-66625714D02*
X83184819Y-67197142D01*
X83184819Y-66911428D02*
X82184819Y-66911428D01*
X82184819Y-66911428D02*
X82327676Y-67006666D01*
X82327676Y-67006666D02*
X82422914Y-67101904D01*
X82422914Y-67101904D02*
X82470533Y-67197142D01*
X91118095Y-108404819D02*
X91118095Y-109214342D01*
X91118095Y-109214342D02*
X91165714Y-109309580D01*
X91165714Y-109309580D02*
X91213333Y-109357200D01*
X91213333Y-109357200D02*
X91308571Y-109404819D01*
X91308571Y-109404819D02*
X91499047Y-109404819D01*
X91499047Y-109404819D02*
X91594285Y-109357200D01*
X91594285Y-109357200D02*
X91641904Y-109309580D01*
X91641904Y-109309580D02*
X91689523Y-109214342D01*
X91689523Y-109214342D02*
X91689523Y-108404819D01*
X92594285Y-108738152D02*
X92594285Y-109404819D01*
X92356190Y-108357200D02*
X92118095Y-109071485D01*
X92118095Y-109071485D02*
X92737142Y-109071485D01*
X86778095Y-86124819D02*
X86778095Y-86934342D01*
X86778095Y-86934342D02*
X86825714Y-87029580D01*
X86825714Y-87029580D02*
X86873333Y-87077200D01*
X86873333Y-87077200D02*
X86968571Y-87124819D01*
X86968571Y-87124819D02*
X87159047Y-87124819D01*
X87159047Y-87124819D02*
X87254285Y-87077200D01*
X87254285Y-87077200D02*
X87301904Y-87029580D01*
X87301904Y-87029580D02*
X87349523Y-86934342D01*
X87349523Y-86934342D02*
X87349523Y-86124819D01*
X87730476Y-86124819D02*
X88349523Y-86124819D01*
X88349523Y-86124819D02*
X88016190Y-86505771D01*
X88016190Y-86505771D02*
X88159047Y-86505771D01*
X88159047Y-86505771D02*
X88254285Y-86553390D01*
X88254285Y-86553390D02*
X88301904Y-86601009D01*
X88301904Y-86601009D02*
X88349523Y-86696247D01*
X88349523Y-86696247D02*
X88349523Y-86934342D01*
X88349523Y-86934342D02*
X88301904Y-87029580D01*
X88301904Y-87029580D02*
X88254285Y-87077200D01*
X88254285Y-87077200D02*
X88159047Y-87124819D01*
X88159047Y-87124819D02*
X87873333Y-87124819D01*
X87873333Y-87124819D02*
X87778095Y-87077200D01*
X87778095Y-87077200D02*
X87730476Y-87029580D01*
X99188095Y-91354819D02*
X99188095Y-92164342D01*
X99188095Y-92164342D02*
X99235714Y-92259580D01*
X99235714Y-92259580D02*
X99283333Y-92307200D01*
X99283333Y-92307200D02*
X99378571Y-92354819D01*
X99378571Y-92354819D02*
X99569047Y-92354819D01*
X99569047Y-92354819D02*
X99664285Y-92307200D01*
X99664285Y-92307200D02*
X99711904Y-92259580D01*
X99711904Y-92259580D02*
X99759523Y-92164342D01*
X99759523Y-92164342D02*
X99759523Y-91354819D01*
X100188095Y-91450057D02*
X100235714Y-91402438D01*
X100235714Y-91402438D02*
X100330952Y-91354819D01*
X100330952Y-91354819D02*
X100569047Y-91354819D01*
X100569047Y-91354819D02*
X100664285Y-91402438D01*
X100664285Y-91402438D02*
X100711904Y-91450057D01*
X100711904Y-91450057D02*
X100759523Y-91545295D01*
X100759523Y-91545295D02*
X100759523Y-91640533D01*
X100759523Y-91640533D02*
X100711904Y-91783390D01*
X100711904Y-91783390D02*
X100140476Y-92354819D01*
X100140476Y-92354819D02*
X100759523Y-92354819D01*
X86084819Y-93491904D02*
X86894342Y-93491904D01*
X86894342Y-93491904D02*
X86989580Y-93444285D01*
X86989580Y-93444285D02*
X87037200Y-93396666D01*
X87037200Y-93396666D02*
X87084819Y-93301428D01*
X87084819Y-93301428D02*
X87084819Y-93110952D01*
X87084819Y-93110952D02*
X87037200Y-93015714D01*
X87037200Y-93015714D02*
X86989580Y-92968095D01*
X86989580Y-92968095D02*
X86894342Y-92920476D01*
X86894342Y-92920476D02*
X86084819Y-92920476D01*
X87084819Y-91920476D02*
X87084819Y-92491904D01*
X87084819Y-92206190D02*
X86084819Y-92206190D01*
X86084819Y-92206190D02*
X86227676Y-92301428D01*
X86227676Y-92301428D02*
X86322914Y-92396666D01*
X86322914Y-92396666D02*
X86370533Y-92491904D01*
X88237200Y-98673332D02*
X88284819Y-98530475D01*
X88284819Y-98530475D02*
X88284819Y-98292380D01*
X88284819Y-98292380D02*
X88237200Y-98197142D01*
X88237200Y-98197142D02*
X88189580Y-98149523D01*
X88189580Y-98149523D02*
X88094342Y-98101904D01*
X88094342Y-98101904D02*
X87999104Y-98101904D01*
X87999104Y-98101904D02*
X87903866Y-98149523D01*
X87903866Y-98149523D02*
X87856247Y-98197142D01*
X87856247Y-98197142D02*
X87808628Y-98292380D01*
X87808628Y-98292380D02*
X87761009Y-98482856D01*
X87761009Y-98482856D02*
X87713390Y-98578094D01*
X87713390Y-98578094D02*
X87665771Y-98625713D01*
X87665771Y-98625713D02*
X87570533Y-98673332D01*
X87570533Y-98673332D02*
X87475295Y-98673332D01*
X87475295Y-98673332D02*
X87380057Y-98625713D01*
X87380057Y-98625713D02*
X87332438Y-98578094D01*
X87332438Y-98578094D02*
X87284819Y-98482856D01*
X87284819Y-98482856D02*
X87284819Y-98244761D01*
X87284819Y-98244761D02*
X87332438Y-98101904D01*
X87284819Y-97768570D02*
X88284819Y-97530475D01*
X88284819Y-97530475D02*
X87570533Y-97339999D01*
X87570533Y-97339999D02*
X88284819Y-97149523D01*
X88284819Y-97149523D02*
X87284819Y-96911428D01*
X88284819Y-96006666D02*
X88284819Y-96578094D01*
X88284819Y-96292380D02*
X87284819Y-96292380D01*
X87284819Y-96292380D02*
X87427676Y-96387618D01*
X87427676Y-96387618D02*
X87522914Y-96482856D01*
X87522914Y-96482856D02*
X87570533Y-96578094D01*
X95893333Y-84854820D02*
X95560000Y-84378629D01*
X95321905Y-84854820D02*
X95321905Y-83854820D01*
X95321905Y-83854820D02*
X95702857Y-83854820D01*
X95702857Y-83854820D02*
X95798095Y-83902439D01*
X95798095Y-83902439D02*
X95845714Y-83950058D01*
X95845714Y-83950058D02*
X95893333Y-84045296D01*
X95893333Y-84045296D02*
X95893333Y-84188153D01*
X95893333Y-84188153D02*
X95845714Y-84283391D01*
X95845714Y-84283391D02*
X95798095Y-84331010D01*
X95798095Y-84331010D02*
X95702857Y-84378629D01*
X95702857Y-84378629D02*
X95321905Y-84378629D01*
X96464762Y-84283391D02*
X96369524Y-84235772D01*
X96369524Y-84235772D02*
X96321905Y-84188153D01*
X96321905Y-84188153D02*
X96274286Y-84092915D01*
X96274286Y-84092915D02*
X96274286Y-84045296D01*
X96274286Y-84045296D02*
X96321905Y-83950058D01*
X96321905Y-83950058D02*
X96369524Y-83902439D01*
X96369524Y-83902439D02*
X96464762Y-83854820D01*
X96464762Y-83854820D02*
X96655238Y-83854820D01*
X96655238Y-83854820D02*
X96750476Y-83902439D01*
X96750476Y-83902439D02*
X96798095Y-83950058D01*
X96798095Y-83950058D02*
X96845714Y-84045296D01*
X96845714Y-84045296D02*
X96845714Y-84092915D01*
X96845714Y-84092915D02*
X96798095Y-84188153D01*
X96798095Y-84188153D02*
X96750476Y-84235772D01*
X96750476Y-84235772D02*
X96655238Y-84283391D01*
X96655238Y-84283391D02*
X96464762Y-84283391D01*
X96464762Y-84283391D02*
X96369524Y-84331010D01*
X96369524Y-84331010D02*
X96321905Y-84378629D01*
X96321905Y-84378629D02*
X96274286Y-84473867D01*
X96274286Y-84473867D02*
X96274286Y-84664343D01*
X96274286Y-84664343D02*
X96321905Y-84759581D01*
X96321905Y-84759581D02*
X96369524Y-84807201D01*
X96369524Y-84807201D02*
X96464762Y-84854820D01*
X96464762Y-84854820D02*
X96655238Y-84854820D01*
X96655238Y-84854820D02*
X96750476Y-84807201D01*
X96750476Y-84807201D02*
X96798095Y-84759581D01*
X96798095Y-84759581D02*
X96845714Y-84664343D01*
X96845714Y-84664343D02*
X96845714Y-84473867D01*
X96845714Y-84473867D02*
X96798095Y-84378629D01*
X96798095Y-84378629D02*
X96750476Y-84331010D01*
X96750476Y-84331010D02*
X96655238Y-84283391D01*
X96043333Y-83324819D02*
X95710000Y-82848628D01*
X95471905Y-83324819D02*
X95471905Y-82324819D01*
X95471905Y-82324819D02*
X95852857Y-82324819D01*
X95852857Y-82324819D02*
X95948095Y-82372438D01*
X95948095Y-82372438D02*
X95995714Y-82420057D01*
X95995714Y-82420057D02*
X96043333Y-82515295D01*
X96043333Y-82515295D02*
X96043333Y-82658152D01*
X96043333Y-82658152D02*
X95995714Y-82753390D01*
X95995714Y-82753390D02*
X95948095Y-82801009D01*
X95948095Y-82801009D02*
X95852857Y-82848628D01*
X95852857Y-82848628D02*
X95471905Y-82848628D01*
X96376667Y-82324819D02*
X97043333Y-82324819D01*
X97043333Y-82324819D02*
X96614762Y-83324819D01*
X110004819Y-75036666D02*
X109528628Y-75369999D01*
X110004819Y-75608094D02*
X109004819Y-75608094D01*
X109004819Y-75608094D02*
X109004819Y-75227142D01*
X109004819Y-75227142D02*
X109052438Y-75131904D01*
X109052438Y-75131904D02*
X109100057Y-75084285D01*
X109100057Y-75084285D02*
X109195295Y-75036666D01*
X109195295Y-75036666D02*
X109338152Y-75036666D01*
X109338152Y-75036666D02*
X109433390Y-75084285D01*
X109433390Y-75084285D02*
X109481009Y-75131904D01*
X109481009Y-75131904D02*
X109528628Y-75227142D01*
X109528628Y-75227142D02*
X109528628Y-75608094D01*
X109004819Y-74179523D02*
X109004819Y-74369999D01*
X109004819Y-74369999D02*
X109052438Y-74465237D01*
X109052438Y-74465237D02*
X109100057Y-74512856D01*
X109100057Y-74512856D02*
X109242914Y-74608094D01*
X109242914Y-74608094D02*
X109433390Y-74655713D01*
X109433390Y-74655713D02*
X109814342Y-74655713D01*
X109814342Y-74655713D02*
X109909580Y-74608094D01*
X109909580Y-74608094D02*
X109957200Y-74560475D01*
X109957200Y-74560475D02*
X110004819Y-74465237D01*
X110004819Y-74465237D02*
X110004819Y-74274761D01*
X110004819Y-74274761D02*
X109957200Y-74179523D01*
X109957200Y-74179523D02*
X109909580Y-74131904D01*
X109909580Y-74131904D02*
X109814342Y-74084285D01*
X109814342Y-74084285D02*
X109576247Y-74084285D01*
X109576247Y-74084285D02*
X109481009Y-74131904D01*
X109481009Y-74131904D02*
X109433390Y-74179523D01*
X109433390Y-74179523D02*
X109385771Y-74274761D01*
X109385771Y-74274761D02*
X109385771Y-74465237D01*
X109385771Y-74465237D02*
X109433390Y-74560475D01*
X109433390Y-74560475D02*
X109481009Y-74608094D01*
X109481009Y-74608094D02*
X109576247Y-74655713D01*
X91183333Y-88232319D02*
X90850000Y-87756128D01*
X90611905Y-88232319D02*
X90611905Y-87232319D01*
X90611905Y-87232319D02*
X90992857Y-87232319D01*
X90992857Y-87232319D02*
X91088095Y-87279938D01*
X91088095Y-87279938D02*
X91135714Y-87327557D01*
X91135714Y-87327557D02*
X91183333Y-87422795D01*
X91183333Y-87422795D02*
X91183333Y-87565652D01*
X91183333Y-87565652D02*
X91135714Y-87660890D01*
X91135714Y-87660890D02*
X91088095Y-87708509D01*
X91088095Y-87708509D02*
X90992857Y-87756128D01*
X90992857Y-87756128D02*
X90611905Y-87756128D01*
X92088095Y-87232319D02*
X91611905Y-87232319D01*
X91611905Y-87232319D02*
X91564286Y-87708509D01*
X91564286Y-87708509D02*
X91611905Y-87660890D01*
X91611905Y-87660890D02*
X91707143Y-87613271D01*
X91707143Y-87613271D02*
X91945238Y-87613271D01*
X91945238Y-87613271D02*
X92040476Y-87660890D01*
X92040476Y-87660890D02*
X92088095Y-87708509D01*
X92088095Y-87708509D02*
X92135714Y-87803747D01*
X92135714Y-87803747D02*
X92135714Y-88041842D01*
X92135714Y-88041842D02*
X92088095Y-88137080D01*
X92088095Y-88137080D02*
X92040476Y-88184700D01*
X92040476Y-88184700D02*
X91945238Y-88232319D01*
X91945238Y-88232319D02*
X91707143Y-88232319D01*
X91707143Y-88232319D02*
X91611905Y-88184700D01*
X91611905Y-88184700D02*
X91564286Y-88137080D01*
X85013333Y-93064819D02*
X84680000Y-92588628D01*
X84441905Y-93064819D02*
X84441905Y-92064819D01*
X84441905Y-92064819D02*
X84822857Y-92064819D01*
X84822857Y-92064819D02*
X84918095Y-92112438D01*
X84918095Y-92112438D02*
X84965714Y-92160057D01*
X84965714Y-92160057D02*
X85013333Y-92255295D01*
X85013333Y-92255295D02*
X85013333Y-92398152D01*
X85013333Y-92398152D02*
X84965714Y-92493390D01*
X84965714Y-92493390D02*
X84918095Y-92541009D01*
X84918095Y-92541009D02*
X84822857Y-92588628D01*
X84822857Y-92588628D02*
X84441905Y-92588628D01*
X85870476Y-92398152D02*
X85870476Y-93064819D01*
X85632381Y-92017200D02*
X85394286Y-92731485D01*
X85394286Y-92731485D02*
X86013333Y-92731485D01*
X88133333Y-88544819D02*
X87800000Y-88068628D01*
X87561905Y-88544819D02*
X87561905Y-87544819D01*
X87561905Y-87544819D02*
X87942857Y-87544819D01*
X87942857Y-87544819D02*
X88038095Y-87592438D01*
X88038095Y-87592438D02*
X88085714Y-87640057D01*
X88085714Y-87640057D02*
X88133333Y-87735295D01*
X88133333Y-87735295D02*
X88133333Y-87878152D01*
X88133333Y-87878152D02*
X88085714Y-87973390D01*
X88085714Y-87973390D02*
X88038095Y-88021009D01*
X88038095Y-88021009D02*
X87942857Y-88068628D01*
X87942857Y-88068628D02*
X87561905Y-88068628D01*
X88466667Y-87544819D02*
X89085714Y-87544819D01*
X89085714Y-87544819D02*
X88752381Y-87925771D01*
X88752381Y-87925771D02*
X88895238Y-87925771D01*
X88895238Y-87925771D02*
X88990476Y-87973390D01*
X88990476Y-87973390D02*
X89038095Y-88021009D01*
X89038095Y-88021009D02*
X89085714Y-88116247D01*
X89085714Y-88116247D02*
X89085714Y-88354342D01*
X89085714Y-88354342D02*
X89038095Y-88449580D01*
X89038095Y-88449580D02*
X88990476Y-88497200D01*
X88990476Y-88497200D02*
X88895238Y-88544819D01*
X88895238Y-88544819D02*
X88609524Y-88544819D01*
X88609524Y-88544819D02*
X88514286Y-88497200D01*
X88514286Y-88497200D02*
X88466667Y-88449580D01*
X86902295Y-90643332D02*
X86521342Y-90909999D01*
X86902295Y-91100475D02*
X86102295Y-91100475D01*
X86102295Y-91100475D02*
X86102295Y-90795713D01*
X86102295Y-90795713D02*
X86140390Y-90719523D01*
X86140390Y-90719523D02*
X86178485Y-90681428D01*
X86178485Y-90681428D02*
X86254676Y-90643332D01*
X86254676Y-90643332D02*
X86368961Y-90643332D01*
X86368961Y-90643332D02*
X86445152Y-90681428D01*
X86445152Y-90681428D02*
X86483247Y-90719523D01*
X86483247Y-90719523D02*
X86521342Y-90795713D01*
X86521342Y-90795713D02*
X86521342Y-91100475D01*
X86178485Y-90338571D02*
X86140390Y-90300475D01*
X86140390Y-90300475D02*
X86102295Y-90224285D01*
X86102295Y-90224285D02*
X86102295Y-90033809D01*
X86102295Y-90033809D02*
X86140390Y-89957618D01*
X86140390Y-89957618D02*
X86178485Y-89919523D01*
X86178485Y-89919523D02*
X86254676Y-89881428D01*
X86254676Y-89881428D02*
X86330866Y-89881428D01*
X86330866Y-89881428D02*
X86445152Y-89919523D01*
X86445152Y-89919523D02*
X86902295Y-90376666D01*
X86902295Y-90376666D02*
X86902295Y-89881428D01*
X86903333Y-85574819D02*
X86570000Y-85098628D01*
X86331905Y-85574819D02*
X86331905Y-84574819D01*
X86331905Y-84574819D02*
X86712857Y-84574819D01*
X86712857Y-84574819D02*
X86808095Y-84622438D01*
X86808095Y-84622438D02*
X86855714Y-84670057D01*
X86855714Y-84670057D02*
X86903333Y-84765295D01*
X86903333Y-84765295D02*
X86903333Y-84908152D01*
X86903333Y-84908152D02*
X86855714Y-85003390D01*
X86855714Y-85003390D02*
X86808095Y-85051009D01*
X86808095Y-85051009D02*
X86712857Y-85098628D01*
X86712857Y-85098628D02*
X86331905Y-85098628D01*
X87855714Y-85574819D02*
X87284286Y-85574819D01*
X87570000Y-85574819D02*
X87570000Y-84574819D01*
X87570000Y-84574819D02*
X87474762Y-84717676D01*
X87474762Y-84717676D02*
X87379524Y-84812914D01*
X87379524Y-84812914D02*
X87284286Y-84860533D01*
X84904819Y-81303333D02*
X85619104Y-81303333D01*
X85619104Y-81303333D02*
X85761961Y-81350952D01*
X85761961Y-81350952D02*
X85857200Y-81446190D01*
X85857200Y-81446190D02*
X85904819Y-81589047D01*
X85904819Y-81589047D02*
X85904819Y-81684285D01*
X84904819Y-80350952D02*
X84904819Y-80827142D01*
X84904819Y-80827142D02*
X85381009Y-80874761D01*
X85381009Y-80874761D02*
X85333390Y-80827142D01*
X85333390Y-80827142D02*
X85285771Y-80731904D01*
X85285771Y-80731904D02*
X85285771Y-80493809D01*
X85285771Y-80493809D02*
X85333390Y-80398571D01*
X85333390Y-80398571D02*
X85381009Y-80350952D01*
X85381009Y-80350952D02*
X85476247Y-80303333D01*
X85476247Y-80303333D02*
X85714342Y-80303333D01*
X85714342Y-80303333D02*
X85809580Y-80350952D01*
X85809580Y-80350952D02*
X85857200Y-80398571D01*
X85857200Y-80398571D02*
X85904819Y-80493809D01*
X85904819Y-80493809D02*
X85904819Y-80731904D01*
X85904819Y-80731904D02*
X85857200Y-80827142D01*
X85857200Y-80827142D02*
X85809580Y-80874761D01*
X84904819Y-77663333D02*
X85619104Y-77663333D01*
X85619104Y-77663333D02*
X85761961Y-77710952D01*
X85761961Y-77710952D02*
X85857200Y-77806190D01*
X85857200Y-77806190D02*
X85904819Y-77949047D01*
X85904819Y-77949047D02*
X85904819Y-78044285D01*
X85238152Y-76758571D02*
X85904819Y-76758571D01*
X84857200Y-76996666D02*
X85571485Y-77234761D01*
X85571485Y-77234761D02*
X85571485Y-76615714D01*
X77366666Y-70994819D02*
X77366666Y-71709104D01*
X77366666Y-71709104D02*
X77319047Y-71851961D01*
X77319047Y-71851961D02*
X77223809Y-71947200D01*
X77223809Y-71947200D02*
X77080952Y-71994819D01*
X77080952Y-71994819D02*
X76985714Y-71994819D01*
X77747619Y-70994819D02*
X78366666Y-70994819D01*
X78366666Y-70994819D02*
X78033333Y-71375771D01*
X78033333Y-71375771D02*
X78176190Y-71375771D01*
X78176190Y-71375771D02*
X78271428Y-71423390D01*
X78271428Y-71423390D02*
X78319047Y-71471009D01*
X78319047Y-71471009D02*
X78366666Y-71566247D01*
X78366666Y-71566247D02*
X78366666Y-71804342D01*
X78366666Y-71804342D02*
X78319047Y-71899580D01*
X78319047Y-71899580D02*
X78271428Y-71947200D01*
X78271428Y-71947200D02*
X78176190Y-71994819D01*
X78176190Y-71994819D02*
X77890476Y-71994819D01*
X77890476Y-71994819D02*
X77795238Y-71947200D01*
X77795238Y-71947200D02*
X77747619Y-71899580D01*
X100896666Y-98444819D02*
X100896666Y-99159104D01*
X100896666Y-99159104D02*
X100849047Y-99301961D01*
X100849047Y-99301961D02*
X100753809Y-99397200D01*
X100753809Y-99397200D02*
X100610952Y-99444819D01*
X100610952Y-99444819D02*
X100515714Y-99444819D01*
X101325238Y-98540057D02*
X101372857Y-98492438D01*
X101372857Y-98492438D02*
X101468095Y-98444819D01*
X101468095Y-98444819D02*
X101706190Y-98444819D01*
X101706190Y-98444819D02*
X101801428Y-98492438D01*
X101801428Y-98492438D02*
X101849047Y-98540057D01*
X101849047Y-98540057D02*
X101896666Y-98635295D01*
X101896666Y-98635295D02*
X101896666Y-98730533D01*
X101896666Y-98730533D02*
X101849047Y-98873390D01*
X101849047Y-98873390D02*
X101277619Y-99444819D01*
X101277619Y-99444819D02*
X101896666Y-99444819D01*
X76746666Y-92844819D02*
X76746666Y-93559104D01*
X76746666Y-93559104D02*
X76699047Y-93701961D01*
X76699047Y-93701961D02*
X76603809Y-93797200D01*
X76603809Y-93797200D02*
X76460952Y-93844819D01*
X76460952Y-93844819D02*
X76365714Y-93844819D01*
X77746666Y-93844819D02*
X77175238Y-93844819D01*
X77460952Y-93844819D02*
X77460952Y-92844819D01*
X77460952Y-92844819D02*
X77365714Y-92987676D01*
X77365714Y-92987676D02*
X77270476Y-93082914D01*
X77270476Y-93082914D02*
X77175238Y-93130533D01*
X91811905Y-93977319D02*
X91811905Y-92977319D01*
X91811905Y-92977319D02*
X92050000Y-92977319D01*
X92050000Y-92977319D02*
X92192857Y-93024938D01*
X92192857Y-93024938D02*
X92288095Y-93120176D01*
X92288095Y-93120176D02*
X92335714Y-93215414D01*
X92335714Y-93215414D02*
X92383333Y-93405890D01*
X92383333Y-93405890D02*
X92383333Y-93548747D01*
X92383333Y-93548747D02*
X92335714Y-93739223D01*
X92335714Y-93739223D02*
X92288095Y-93834461D01*
X92288095Y-93834461D02*
X92192857Y-93929700D01*
X92192857Y-93929700D02*
X92050000Y-93977319D01*
X92050000Y-93977319D02*
X91811905Y-93977319D01*
X93335714Y-93977319D02*
X92764286Y-93977319D01*
X93050000Y-93977319D02*
X93050000Y-92977319D01*
X93050000Y-92977319D02*
X92954762Y-93120176D01*
X92954762Y-93120176D02*
X92859524Y-93215414D01*
X92859524Y-93215414D02*
X92764286Y-93263033D01*
X87065714Y-74406104D02*
X87027618Y-74444200D01*
X87027618Y-74444200D02*
X86913333Y-74482295D01*
X86913333Y-74482295D02*
X86837142Y-74482295D01*
X86837142Y-74482295D02*
X86722856Y-74444200D01*
X86722856Y-74444200D02*
X86646666Y-74368009D01*
X86646666Y-74368009D02*
X86608571Y-74291819D01*
X86608571Y-74291819D02*
X86570475Y-74139438D01*
X86570475Y-74139438D02*
X86570475Y-74025152D01*
X86570475Y-74025152D02*
X86608571Y-73872771D01*
X86608571Y-73872771D02*
X86646666Y-73796580D01*
X86646666Y-73796580D02*
X86722856Y-73720390D01*
X86722856Y-73720390D02*
X86837142Y-73682295D01*
X86837142Y-73682295D02*
X86913333Y-73682295D01*
X86913333Y-73682295D02*
X87027618Y-73720390D01*
X87027618Y-73720390D02*
X87065714Y-73758485D01*
X87827618Y-74482295D02*
X87370475Y-74482295D01*
X87599047Y-74482295D02*
X87599047Y-73682295D01*
X87599047Y-73682295D02*
X87522856Y-73796580D01*
X87522856Y-73796580D02*
X87446666Y-73872771D01*
X87446666Y-73872771D02*
X87370475Y-73910866D01*
X88132380Y-73758485D02*
X88170476Y-73720390D01*
X88170476Y-73720390D02*
X88246666Y-73682295D01*
X88246666Y-73682295D02*
X88437142Y-73682295D01*
X88437142Y-73682295D02*
X88513333Y-73720390D01*
X88513333Y-73720390D02*
X88551428Y-73758485D01*
X88551428Y-73758485D02*
X88589523Y-73834676D01*
X88589523Y-73834676D02*
X88589523Y-73910866D01*
X88589523Y-73910866D02*
X88551428Y-74025152D01*
X88551428Y-74025152D02*
X88094285Y-74482295D01*
X88094285Y-74482295D02*
X88589523Y-74482295D01*
X87045714Y-73336104D02*
X87007618Y-73374200D01*
X87007618Y-73374200D02*
X86893333Y-73412295D01*
X86893333Y-73412295D02*
X86817142Y-73412295D01*
X86817142Y-73412295D02*
X86702856Y-73374200D01*
X86702856Y-73374200D02*
X86626666Y-73298009D01*
X86626666Y-73298009D02*
X86588571Y-73221819D01*
X86588571Y-73221819D02*
X86550475Y-73069438D01*
X86550475Y-73069438D02*
X86550475Y-72955152D01*
X86550475Y-72955152D02*
X86588571Y-72802771D01*
X86588571Y-72802771D02*
X86626666Y-72726580D01*
X86626666Y-72726580D02*
X86702856Y-72650390D01*
X86702856Y-72650390D02*
X86817142Y-72612295D01*
X86817142Y-72612295D02*
X86893333Y-72612295D01*
X86893333Y-72612295D02*
X87007618Y-72650390D01*
X87007618Y-72650390D02*
X87045714Y-72688485D01*
X87807618Y-73412295D02*
X87350475Y-73412295D01*
X87579047Y-73412295D02*
X87579047Y-72612295D01*
X87579047Y-72612295D02*
X87502856Y-72726580D01*
X87502856Y-72726580D02*
X87426666Y-72802771D01*
X87426666Y-72802771D02*
X87350475Y-72840866D01*
X88569523Y-73412295D02*
X88112380Y-73412295D01*
X88340952Y-73412295D02*
X88340952Y-72612295D01*
X88340952Y-72612295D02*
X88264761Y-72726580D01*
X88264761Y-72726580D02*
X88188571Y-72802771D01*
X88188571Y-72802771D02*
X88112380Y-72840866D01*
X105969580Y-80162857D02*
X106017200Y-80210476D01*
X106017200Y-80210476D02*
X106064819Y-80353333D01*
X106064819Y-80353333D02*
X106064819Y-80448571D01*
X106064819Y-80448571D02*
X106017200Y-80591428D01*
X106017200Y-80591428D02*
X105921961Y-80686666D01*
X105921961Y-80686666D02*
X105826723Y-80734285D01*
X105826723Y-80734285D02*
X105636247Y-80781904D01*
X105636247Y-80781904D02*
X105493390Y-80781904D01*
X105493390Y-80781904D02*
X105302914Y-80734285D01*
X105302914Y-80734285D02*
X105207676Y-80686666D01*
X105207676Y-80686666D02*
X105112438Y-80591428D01*
X105112438Y-80591428D02*
X105064819Y-80448571D01*
X105064819Y-80448571D02*
X105064819Y-80353333D01*
X105064819Y-80353333D02*
X105112438Y-80210476D01*
X105112438Y-80210476D02*
X105160057Y-80162857D01*
X106064819Y-79210476D02*
X106064819Y-79781904D01*
X106064819Y-79496190D02*
X105064819Y-79496190D01*
X105064819Y-79496190D02*
X105207676Y-79591428D01*
X105207676Y-79591428D02*
X105302914Y-79686666D01*
X105302914Y-79686666D02*
X105350533Y-79781904D01*
X105064819Y-78591428D02*
X105064819Y-78496190D01*
X105064819Y-78496190D02*
X105112438Y-78400952D01*
X105112438Y-78400952D02*
X105160057Y-78353333D01*
X105160057Y-78353333D02*
X105255295Y-78305714D01*
X105255295Y-78305714D02*
X105445771Y-78258095D01*
X105445771Y-78258095D02*
X105683866Y-78258095D01*
X105683866Y-78258095D02*
X105874342Y-78305714D01*
X105874342Y-78305714D02*
X105969580Y-78353333D01*
X105969580Y-78353333D02*
X106017200Y-78400952D01*
X106017200Y-78400952D02*
X106064819Y-78496190D01*
X106064819Y-78496190D02*
X106064819Y-78591428D01*
X106064819Y-78591428D02*
X106017200Y-78686666D01*
X106017200Y-78686666D02*
X105969580Y-78734285D01*
X105969580Y-78734285D02*
X105874342Y-78781904D01*
X105874342Y-78781904D02*
X105683866Y-78829523D01*
X105683866Y-78829523D02*
X105445771Y-78829523D01*
X105445771Y-78829523D02*
X105255295Y-78781904D01*
X105255295Y-78781904D02*
X105160057Y-78734285D01*
X105160057Y-78734285D02*
X105112438Y-78686666D01*
X105112438Y-78686666D02*
X105064819Y-78591428D01*
X85903333Y-75799580D02*
X85855714Y-75847200D01*
X85855714Y-75847200D02*
X85712857Y-75894819D01*
X85712857Y-75894819D02*
X85617619Y-75894819D01*
X85617619Y-75894819D02*
X85474762Y-75847200D01*
X85474762Y-75847200D02*
X85379524Y-75751961D01*
X85379524Y-75751961D02*
X85331905Y-75656723D01*
X85331905Y-75656723D02*
X85284286Y-75466247D01*
X85284286Y-75466247D02*
X85284286Y-75323390D01*
X85284286Y-75323390D02*
X85331905Y-75132914D01*
X85331905Y-75132914D02*
X85379524Y-75037676D01*
X85379524Y-75037676D02*
X85474762Y-74942438D01*
X85474762Y-74942438D02*
X85617619Y-74894819D01*
X85617619Y-74894819D02*
X85712857Y-74894819D01*
X85712857Y-74894819D02*
X85855714Y-74942438D01*
X85855714Y-74942438D02*
X85903333Y-74990057D01*
X86379524Y-75894819D02*
X86570000Y-75894819D01*
X86570000Y-75894819D02*
X86665238Y-75847200D01*
X86665238Y-75847200D02*
X86712857Y-75799580D01*
X86712857Y-75799580D02*
X86808095Y-75656723D01*
X86808095Y-75656723D02*
X86855714Y-75466247D01*
X86855714Y-75466247D02*
X86855714Y-75085295D01*
X86855714Y-75085295D02*
X86808095Y-74990057D01*
X86808095Y-74990057D02*
X86760476Y-74942438D01*
X86760476Y-74942438D02*
X86665238Y-74894819D01*
X86665238Y-74894819D02*
X86474762Y-74894819D01*
X86474762Y-74894819D02*
X86379524Y-74942438D01*
X86379524Y-74942438D02*
X86331905Y-74990057D01*
X86331905Y-74990057D02*
X86284286Y-75085295D01*
X86284286Y-75085295D02*
X86284286Y-75323390D01*
X86284286Y-75323390D02*
X86331905Y-75418628D01*
X86331905Y-75418628D02*
X86379524Y-75466247D01*
X86379524Y-75466247D02*
X86474762Y-75513866D01*
X86474762Y-75513866D02*
X86665238Y-75513866D01*
X86665238Y-75513866D02*
X86760476Y-75466247D01*
X86760476Y-75466247D02*
X86808095Y-75418628D01*
X86808095Y-75418628D02*
X86855714Y-75323390D01*
X92789580Y-97276666D02*
X92837200Y-97324285D01*
X92837200Y-97324285D02*
X92884819Y-97467142D01*
X92884819Y-97467142D02*
X92884819Y-97562380D01*
X92884819Y-97562380D02*
X92837200Y-97705237D01*
X92837200Y-97705237D02*
X92741961Y-97800475D01*
X92741961Y-97800475D02*
X92646723Y-97848094D01*
X92646723Y-97848094D02*
X92456247Y-97895713D01*
X92456247Y-97895713D02*
X92313390Y-97895713D01*
X92313390Y-97895713D02*
X92122914Y-97848094D01*
X92122914Y-97848094D02*
X92027676Y-97800475D01*
X92027676Y-97800475D02*
X91932438Y-97705237D01*
X91932438Y-97705237D02*
X91884819Y-97562380D01*
X91884819Y-97562380D02*
X91884819Y-97467142D01*
X91884819Y-97467142D02*
X91932438Y-97324285D01*
X91932438Y-97324285D02*
X91980057Y-97276666D01*
X92313390Y-96705237D02*
X92265771Y-96800475D01*
X92265771Y-96800475D02*
X92218152Y-96848094D01*
X92218152Y-96848094D02*
X92122914Y-96895713D01*
X92122914Y-96895713D02*
X92075295Y-96895713D01*
X92075295Y-96895713D02*
X91980057Y-96848094D01*
X91980057Y-96848094D02*
X91932438Y-96800475D01*
X91932438Y-96800475D02*
X91884819Y-96705237D01*
X91884819Y-96705237D02*
X91884819Y-96514761D01*
X91884819Y-96514761D02*
X91932438Y-96419523D01*
X91932438Y-96419523D02*
X91980057Y-96371904D01*
X91980057Y-96371904D02*
X92075295Y-96324285D01*
X92075295Y-96324285D02*
X92122914Y-96324285D01*
X92122914Y-96324285D02*
X92218152Y-96371904D01*
X92218152Y-96371904D02*
X92265771Y-96419523D01*
X92265771Y-96419523D02*
X92313390Y-96514761D01*
X92313390Y-96514761D02*
X92313390Y-96705237D01*
X92313390Y-96705237D02*
X92361009Y-96800475D01*
X92361009Y-96800475D02*
X92408628Y-96848094D01*
X92408628Y-96848094D02*
X92503866Y-96895713D01*
X92503866Y-96895713D02*
X92694342Y-96895713D01*
X92694342Y-96895713D02*
X92789580Y-96848094D01*
X92789580Y-96848094D02*
X92837200Y-96800475D01*
X92837200Y-96800475D02*
X92884819Y-96705237D01*
X92884819Y-96705237D02*
X92884819Y-96514761D01*
X92884819Y-96514761D02*
X92837200Y-96419523D01*
X92837200Y-96419523D02*
X92789580Y-96371904D01*
X92789580Y-96371904D02*
X92694342Y-96324285D01*
X92694342Y-96324285D02*
X92503866Y-96324285D01*
X92503866Y-96324285D02*
X92408628Y-96371904D01*
X92408628Y-96371904D02*
X92361009Y-96419523D01*
X92361009Y-96419523D02*
X92313390Y-96514761D01*
X97043333Y-98649580D02*
X96995714Y-98697200D01*
X96995714Y-98697200D02*
X96852857Y-98744819D01*
X96852857Y-98744819D02*
X96757619Y-98744819D01*
X96757619Y-98744819D02*
X96614762Y-98697200D01*
X96614762Y-98697200D02*
X96519524Y-98601961D01*
X96519524Y-98601961D02*
X96471905Y-98506723D01*
X96471905Y-98506723D02*
X96424286Y-98316247D01*
X96424286Y-98316247D02*
X96424286Y-98173390D01*
X96424286Y-98173390D02*
X96471905Y-97982914D01*
X96471905Y-97982914D02*
X96519524Y-97887676D01*
X96519524Y-97887676D02*
X96614762Y-97792438D01*
X96614762Y-97792438D02*
X96757619Y-97744819D01*
X96757619Y-97744819D02*
X96852857Y-97744819D01*
X96852857Y-97744819D02*
X96995714Y-97792438D01*
X96995714Y-97792438D02*
X97043333Y-97840057D01*
X97376667Y-97744819D02*
X98043333Y-97744819D01*
X98043333Y-97744819D02*
X97614762Y-98744819D01*
X95933333Y-86759580D02*
X95885714Y-86807200D01*
X95885714Y-86807200D02*
X95742857Y-86854819D01*
X95742857Y-86854819D02*
X95647619Y-86854819D01*
X95647619Y-86854819D02*
X95504762Y-86807200D01*
X95504762Y-86807200D02*
X95409524Y-86711961D01*
X95409524Y-86711961D02*
X95361905Y-86616723D01*
X95361905Y-86616723D02*
X95314286Y-86426247D01*
X95314286Y-86426247D02*
X95314286Y-86283390D01*
X95314286Y-86283390D02*
X95361905Y-86092914D01*
X95361905Y-86092914D02*
X95409524Y-85997676D01*
X95409524Y-85997676D02*
X95504762Y-85902438D01*
X95504762Y-85902438D02*
X95647619Y-85854819D01*
X95647619Y-85854819D02*
X95742857Y-85854819D01*
X95742857Y-85854819D02*
X95885714Y-85902438D01*
X95885714Y-85902438D02*
X95933333Y-85950057D01*
X96790476Y-85854819D02*
X96600000Y-85854819D01*
X96600000Y-85854819D02*
X96504762Y-85902438D01*
X96504762Y-85902438D02*
X96457143Y-85950057D01*
X96457143Y-85950057D02*
X96361905Y-86092914D01*
X96361905Y-86092914D02*
X96314286Y-86283390D01*
X96314286Y-86283390D02*
X96314286Y-86664342D01*
X96314286Y-86664342D02*
X96361905Y-86759580D01*
X96361905Y-86759580D02*
X96409524Y-86807200D01*
X96409524Y-86807200D02*
X96504762Y-86854819D01*
X96504762Y-86854819D02*
X96695238Y-86854819D01*
X96695238Y-86854819D02*
X96790476Y-86807200D01*
X96790476Y-86807200D02*
X96838095Y-86759580D01*
X96838095Y-86759580D02*
X96885714Y-86664342D01*
X96885714Y-86664342D02*
X96885714Y-86426247D01*
X96885714Y-86426247D02*
X96838095Y-86331009D01*
X96838095Y-86331009D02*
X96790476Y-86283390D01*
X96790476Y-86283390D02*
X96695238Y-86235771D01*
X96695238Y-86235771D02*
X96504762Y-86235771D01*
X96504762Y-86235771D02*
X96409524Y-86283390D01*
X96409524Y-86283390D02*
X96361905Y-86331009D01*
X96361905Y-86331009D02*
X96314286Y-86426247D01*
X97683333Y-95079580D02*
X97635714Y-95127200D01*
X97635714Y-95127200D02*
X97492857Y-95174819D01*
X97492857Y-95174819D02*
X97397619Y-95174819D01*
X97397619Y-95174819D02*
X97254762Y-95127200D01*
X97254762Y-95127200D02*
X97159524Y-95031961D01*
X97159524Y-95031961D02*
X97111905Y-94936723D01*
X97111905Y-94936723D02*
X97064286Y-94746247D01*
X97064286Y-94746247D02*
X97064286Y-94603390D01*
X97064286Y-94603390D02*
X97111905Y-94412914D01*
X97111905Y-94412914D02*
X97159524Y-94317676D01*
X97159524Y-94317676D02*
X97254762Y-94222438D01*
X97254762Y-94222438D02*
X97397619Y-94174819D01*
X97397619Y-94174819D02*
X97492857Y-94174819D01*
X97492857Y-94174819D02*
X97635714Y-94222438D01*
X97635714Y-94222438D02*
X97683333Y-94270057D01*
X98588095Y-94174819D02*
X98111905Y-94174819D01*
X98111905Y-94174819D02*
X98064286Y-94651009D01*
X98064286Y-94651009D02*
X98111905Y-94603390D01*
X98111905Y-94603390D02*
X98207143Y-94555771D01*
X98207143Y-94555771D02*
X98445238Y-94555771D01*
X98445238Y-94555771D02*
X98540476Y-94603390D01*
X98540476Y-94603390D02*
X98588095Y-94651009D01*
X98588095Y-94651009D02*
X98635714Y-94746247D01*
X98635714Y-94746247D02*
X98635714Y-94984342D01*
X98635714Y-94984342D02*
X98588095Y-95079580D01*
X98588095Y-95079580D02*
X98540476Y-95127200D01*
X98540476Y-95127200D02*
X98445238Y-95174819D01*
X98445238Y-95174819D02*
X98207143Y-95174819D01*
X98207143Y-95174819D02*
X98111905Y-95127200D01*
X98111905Y-95127200D02*
X98064286Y-95079580D01*
X90383333Y-93682080D02*
X90335714Y-93729700D01*
X90335714Y-93729700D02*
X90192857Y-93777319D01*
X90192857Y-93777319D02*
X90097619Y-93777319D01*
X90097619Y-93777319D02*
X89954762Y-93729700D01*
X89954762Y-93729700D02*
X89859524Y-93634461D01*
X89859524Y-93634461D02*
X89811905Y-93539223D01*
X89811905Y-93539223D02*
X89764286Y-93348747D01*
X89764286Y-93348747D02*
X89764286Y-93205890D01*
X89764286Y-93205890D02*
X89811905Y-93015414D01*
X89811905Y-93015414D02*
X89859524Y-92920176D01*
X89859524Y-92920176D02*
X89954762Y-92824938D01*
X89954762Y-92824938D02*
X90097619Y-92777319D01*
X90097619Y-92777319D02*
X90192857Y-92777319D01*
X90192857Y-92777319D02*
X90335714Y-92824938D01*
X90335714Y-92824938D02*
X90383333Y-92872557D01*
X91240476Y-93110652D02*
X91240476Y-93777319D01*
X91002381Y-92729700D02*
X90764286Y-93443985D01*
X90764286Y-93443985D02*
X91383333Y-93443985D01*
X94683333Y-94739580D02*
X94635714Y-94787200D01*
X94635714Y-94787200D02*
X94492857Y-94834819D01*
X94492857Y-94834819D02*
X94397619Y-94834819D01*
X94397619Y-94834819D02*
X94254762Y-94787200D01*
X94254762Y-94787200D02*
X94159524Y-94691961D01*
X94159524Y-94691961D02*
X94111905Y-94596723D01*
X94111905Y-94596723D02*
X94064286Y-94406247D01*
X94064286Y-94406247D02*
X94064286Y-94263390D01*
X94064286Y-94263390D02*
X94111905Y-94072914D01*
X94111905Y-94072914D02*
X94159524Y-93977676D01*
X94159524Y-93977676D02*
X94254762Y-93882438D01*
X94254762Y-93882438D02*
X94397619Y-93834819D01*
X94397619Y-93834819D02*
X94492857Y-93834819D01*
X94492857Y-93834819D02*
X94635714Y-93882438D01*
X94635714Y-93882438D02*
X94683333Y-93930057D01*
X95016667Y-93834819D02*
X95635714Y-93834819D01*
X95635714Y-93834819D02*
X95302381Y-94215771D01*
X95302381Y-94215771D02*
X95445238Y-94215771D01*
X95445238Y-94215771D02*
X95540476Y-94263390D01*
X95540476Y-94263390D02*
X95588095Y-94311009D01*
X95588095Y-94311009D02*
X95635714Y-94406247D01*
X95635714Y-94406247D02*
X95635714Y-94644342D01*
X95635714Y-94644342D02*
X95588095Y-94739580D01*
X95588095Y-94739580D02*
X95540476Y-94787200D01*
X95540476Y-94787200D02*
X95445238Y-94834819D01*
X95445238Y-94834819D02*
X95159524Y-94834819D01*
X95159524Y-94834819D02*
X95064286Y-94787200D01*
X95064286Y-94787200D02*
X95016667Y-94739580D01*
X99833333Y-88009580D02*
X99785714Y-88057200D01*
X99785714Y-88057200D02*
X99642857Y-88104819D01*
X99642857Y-88104819D02*
X99547619Y-88104819D01*
X99547619Y-88104819D02*
X99404762Y-88057200D01*
X99404762Y-88057200D02*
X99309524Y-87961961D01*
X99309524Y-87961961D02*
X99261905Y-87866723D01*
X99261905Y-87866723D02*
X99214286Y-87676247D01*
X99214286Y-87676247D02*
X99214286Y-87533390D01*
X99214286Y-87533390D02*
X99261905Y-87342914D01*
X99261905Y-87342914D02*
X99309524Y-87247676D01*
X99309524Y-87247676D02*
X99404762Y-87152438D01*
X99404762Y-87152438D02*
X99547619Y-87104819D01*
X99547619Y-87104819D02*
X99642857Y-87104819D01*
X99642857Y-87104819D02*
X99785714Y-87152438D01*
X99785714Y-87152438D02*
X99833333Y-87200057D01*
X100214286Y-87200057D02*
X100261905Y-87152438D01*
X100261905Y-87152438D02*
X100357143Y-87104819D01*
X100357143Y-87104819D02*
X100595238Y-87104819D01*
X100595238Y-87104819D02*
X100690476Y-87152438D01*
X100690476Y-87152438D02*
X100738095Y-87200057D01*
X100738095Y-87200057D02*
X100785714Y-87295295D01*
X100785714Y-87295295D02*
X100785714Y-87390533D01*
X100785714Y-87390533D02*
X100738095Y-87533390D01*
X100738095Y-87533390D02*
X100166667Y-88104819D01*
X100166667Y-88104819D02*
X100785714Y-88104819D01*
X90863333Y-95499580D02*
X90815714Y-95547200D01*
X90815714Y-95547200D02*
X90672857Y-95594819D01*
X90672857Y-95594819D02*
X90577619Y-95594819D01*
X90577619Y-95594819D02*
X90434762Y-95547200D01*
X90434762Y-95547200D02*
X90339524Y-95451961D01*
X90339524Y-95451961D02*
X90291905Y-95356723D01*
X90291905Y-95356723D02*
X90244286Y-95166247D01*
X90244286Y-95166247D02*
X90244286Y-95023390D01*
X90244286Y-95023390D02*
X90291905Y-94832914D01*
X90291905Y-94832914D02*
X90339524Y-94737676D01*
X90339524Y-94737676D02*
X90434762Y-94642438D01*
X90434762Y-94642438D02*
X90577619Y-94594819D01*
X90577619Y-94594819D02*
X90672857Y-94594819D01*
X90672857Y-94594819D02*
X90815714Y-94642438D01*
X90815714Y-94642438D02*
X90863333Y-94690057D01*
X91815714Y-95594819D02*
X91244286Y-95594819D01*
X91530000Y-95594819D02*
X91530000Y-94594819D01*
X91530000Y-94594819D02*
X91434762Y-94737676D01*
X91434762Y-94737676D02*
X91339524Y-94832914D01*
X91339524Y-94832914D02*
X91244286Y-94880533D01*
X107979047Y-97751009D02*
X108121904Y-97798628D01*
X108121904Y-97798628D02*
X108169523Y-97846247D01*
X108169523Y-97846247D02*
X108217142Y-97941485D01*
X108217142Y-97941485D02*
X108217142Y-98084342D01*
X108217142Y-98084342D02*
X108169523Y-98179580D01*
X108169523Y-98179580D02*
X108121904Y-98227200D01*
X108121904Y-98227200D02*
X108026666Y-98274819D01*
X108026666Y-98274819D02*
X107645714Y-98274819D01*
X107645714Y-98274819D02*
X107645714Y-97274819D01*
X107645714Y-97274819D02*
X107979047Y-97274819D01*
X107979047Y-97274819D02*
X108074285Y-97322438D01*
X108074285Y-97322438D02*
X108121904Y-97370057D01*
X108121904Y-97370057D02*
X108169523Y-97465295D01*
X108169523Y-97465295D02*
X108169523Y-97560533D01*
X108169523Y-97560533D02*
X108121904Y-97655771D01*
X108121904Y-97655771D02*
X108074285Y-97703390D01*
X108074285Y-97703390D02*
X107979047Y-97751009D01*
X107979047Y-97751009D02*
X107645714Y-97751009D01*
X108550476Y-97274819D02*
X109217142Y-97274819D01*
X109217142Y-97274819D02*
X108550476Y-98274819D01*
X108550476Y-98274819D02*
X109217142Y-98274819D01*
X110121904Y-98274819D02*
X109550476Y-98274819D01*
X109836190Y-98274819D02*
X109836190Y-97274819D01*
X109836190Y-97274819D02*
X109740952Y-97417676D01*
X109740952Y-97417676D02*
X109645714Y-97512914D01*
X109645714Y-97512914D02*
X109550476Y-97560533D01*
X106191905Y-108024819D02*
X106191905Y-107024819D01*
X106191905Y-107024819D02*
X106430000Y-107024819D01*
X106430000Y-107024819D02*
X106572857Y-107072438D01*
X106572857Y-107072438D02*
X106668095Y-107167676D01*
X106668095Y-107167676D02*
X106715714Y-107262914D01*
X106715714Y-107262914D02*
X106763333Y-107453390D01*
X106763333Y-107453390D02*
X106763333Y-107596247D01*
X106763333Y-107596247D02*
X106715714Y-107786723D01*
X106715714Y-107786723D02*
X106668095Y-107881961D01*
X106668095Y-107881961D02*
X106572857Y-107977200D01*
X106572857Y-107977200D02*
X106430000Y-108024819D01*
X106430000Y-108024819D02*
X106191905Y-108024819D01*
X107144286Y-107120057D02*
X107191905Y-107072438D01*
X107191905Y-107072438D02*
X107287143Y-107024819D01*
X107287143Y-107024819D02*
X107525238Y-107024819D01*
X107525238Y-107024819D02*
X107620476Y-107072438D01*
X107620476Y-107072438D02*
X107668095Y-107120057D01*
X107668095Y-107120057D02*
X107715714Y-107215295D01*
X107715714Y-107215295D02*
X107715714Y-107310533D01*
X107715714Y-107310533D02*
X107668095Y-107453390D01*
X107668095Y-107453390D02*
X107096667Y-108024819D01*
X107096667Y-108024819D02*
X107715714Y-108024819D01*
X103365714Y-108174819D02*
X102794286Y-108174819D01*
X103080000Y-108174819D02*
X103080000Y-107174819D01*
X103080000Y-107174819D02*
X102984762Y-107317676D01*
X102984762Y-107317676D02*
X102889524Y-107412914D01*
X102889524Y-107412914D02*
X102794286Y-107460533D01*
D11*
%TO.C,U5*%
X88030000Y-67840000D02*
G75*
G02*
X87830000Y-67840000I-100000J0D01*
G01*
X87830000Y-67840000D02*
G75*
G02*
X88030000Y-67840000I100000J0D01*
G01*
D12*
X104080000Y-81515000D02*
X88680000Y-81515000D01*
X104080000Y-61015000D02*
X104080000Y-66065000D01*
X88680000Y-66065000D02*
X88680000Y-61015000D01*
X88680000Y-61015000D02*
X104080000Y-61015000D01*
D13*
%TO.C,RESET1*%
X109910000Y-76270001D02*
X109790000Y-76270000D01*
X108780000Y-76270000D02*
X107640000Y-76270000D01*
X106630000Y-76270000D02*
X106510000Y-76270001D01*
X106510000Y-76270001D02*
X106510000Y-80669999D01*
X109910000Y-80669999D02*
X109910000Y-76270001D01*
X109790000Y-80670000D02*
X109910000Y-80669999D01*
X107640000Y-80670000D02*
X108780000Y-80670000D01*
X106510000Y-80669999D02*
X106630000Y-80670000D01*
%TO.C,BOOT1*%
X83130000Y-71189999D02*
X83250000Y-71190000D01*
X84260000Y-71190000D02*
X85400000Y-71190000D01*
X86410000Y-71190000D02*
X86530000Y-71189999D01*
X86530000Y-71189999D02*
X86530000Y-66790001D01*
X83130000Y-66790001D02*
X83130000Y-71189999D01*
X83250000Y-66790000D02*
X83130000Y-66790001D01*
X85400000Y-66790000D02*
X84260000Y-66790000D01*
X86530000Y-66790001D02*
X86410000Y-66790000D01*
%TO.C,U4*%
X90307500Y-107610000D02*
X89827500Y-107610000D01*
X90067500Y-107280000D01*
X90307500Y-107610000D01*
G36*
X90307500Y-107610000D02*
G01*
X89827500Y-107610000D01*
X90067500Y-107280000D01*
X90307500Y-107610000D01*
G37*
X86005000Y-98690000D02*
X87505000Y-98690000D01*
X86005000Y-109090000D02*
X87505000Y-109090000D01*
X87505000Y-98690000D02*
X87505000Y-100500000D01*
X87505000Y-109090000D02*
X87505000Y-107280000D01*
%TO.C,U3*%
X85192500Y-88750000D02*
X86192500Y-88750000D01*
X85192500Y-86030000D02*
X86192500Y-86030000D01*
X86582500Y-88980000D02*
X86582500Y-88700000D01*
X86862500Y-88700000D01*
X86582500Y-88980000D01*
G36*
X86582500Y-88980000D02*
G01*
X86582500Y-88700000D01*
X86862500Y-88700000D01*
X86582500Y-88980000D01*
G37*
%TO.C,U2*%
X94400000Y-87865000D02*
X94400000Y-87640000D01*
X94400000Y-91700000D02*
X94400000Y-91175000D01*
X94400000Y-91700000D02*
X94925000Y-91700000D01*
X94925000Y-87400000D02*
X94700000Y-87400000D01*
X98700000Y-87400000D02*
X98175000Y-87400000D01*
X98700000Y-87400000D02*
X98700000Y-87925000D01*
X98700000Y-91700000D02*
X98175000Y-91700000D01*
X98700000Y-91700000D02*
X98700000Y-91175000D01*
X94400000Y-87400000D02*
X94160000Y-87070000D01*
X94640000Y-87070000D01*
X94400000Y-87400000D01*
G36*
X94400000Y-87400000D02*
G01*
X94160000Y-87070000D01*
X94640000Y-87070000D01*
X94400000Y-87400000D01*
G37*
%TO.C,U1*%
X89560000Y-92207500D02*
X89560000Y-94207500D01*
X87340000Y-92207500D02*
X87340000Y-94207500D01*
X89740000Y-91967500D02*
X89460000Y-91967500D01*
X89460000Y-91687500D01*
X89740000Y-91967500D01*
G36*
X89740000Y-91967500D02*
G01*
X89460000Y-91967500D01*
X89460000Y-91687500D01*
X89740000Y-91967500D01*
G37*
%TO.C,SW1*%
X86110000Y-98082500D02*
X77290000Y-98082500D01*
X86110000Y-97772500D02*
X86110000Y-98082500D01*
X86110000Y-93562500D02*
X86110000Y-93872500D01*
X84200000Y-98782500D02*
X83700000Y-98282500D01*
X83700000Y-98282500D02*
X83200000Y-98782500D01*
X83200000Y-98782500D02*
X84200000Y-98782500D01*
X77290000Y-98082500D02*
X77290000Y-97772500D01*
X77290000Y-93562500D02*
X86110000Y-93562500D01*
X77290000Y-93562500D02*
X77290000Y-93872500D01*
%TO.C,R8*%
X98797258Y-84912500D02*
X98322742Y-84912500D01*
X98797258Y-83867500D02*
X98322742Y-83867500D01*
%TO.C,R7*%
X98797258Y-83342500D02*
X98322742Y-83342500D01*
X98797258Y-82297500D02*
X98322742Y-82297500D01*
%TO.C,R6*%
X107937258Y-75392500D02*
X107462742Y-75392500D01*
X107937258Y-74347500D02*
X107462742Y-74347500D01*
%TO.C,R5*%
X91112742Y-89730000D02*
X91587258Y-89730000D01*
X91112742Y-88685000D02*
X91587258Y-88685000D01*
%TO.C,R4*%
X86052500Y-90252742D02*
X86052500Y-90727258D01*
X85007500Y-90252742D02*
X85007500Y-90727258D01*
%TO.C,R3*%
X88062742Y-89880000D02*
X88537258Y-89880000D01*
X88062742Y-88835000D02*
X88537258Y-88835000D01*
%TO.C,R2*%
X88587258Y-90372500D02*
X88112742Y-90372500D01*
X88587258Y-91417500D02*
X88112742Y-91417500D01*
%TO.C,R1*%
X85157500Y-84502258D02*
X85157500Y-84027742D01*
X86202500Y-84502258D02*
X86202500Y-84027742D01*
%TO.C,J5*%
X76790000Y-82300000D02*
X76790000Y-80970000D01*
X78120000Y-82300000D02*
X76790000Y-82300000D01*
X79390001Y-82300000D02*
X84529999Y-82300000D01*
X79390001Y-82300000D02*
X79390001Y-79640000D01*
X84529999Y-82300000D02*
X84529999Y-79640000D01*
X79390001Y-79640000D02*
X84529999Y-79640000D01*
%TO.C,J4*%
X76789999Y-78660001D02*
X76789999Y-77330001D01*
X78119999Y-78660001D02*
X76789999Y-78660001D01*
X79390000Y-78660001D02*
X84529998Y-78660001D01*
X79390000Y-78660001D02*
X79390000Y-76000001D01*
X84529998Y-78660001D02*
X84529998Y-76000001D01*
X79390000Y-76000001D02*
X84529998Y-76000001D01*
%TO.C,J3*%
X79380002Y-72360000D02*
X84520000Y-72360000D01*
X84520000Y-75020000D02*
X84520000Y-72360000D01*
X79380002Y-75020000D02*
X79380002Y-72360000D01*
X79380002Y-75020000D02*
X84520000Y-75020000D01*
X78110001Y-75020000D02*
X76780001Y-75020000D01*
X76780001Y-75020000D02*
X76780001Y-73690000D01*
%TO.C,J2*%
X101680000Y-100089999D02*
X93380000Y-100089999D01*
X93380000Y-100089999D02*
X93379999Y-112940000D01*
X101680001Y-112940000D02*
X101680000Y-100089999D01*
X93379999Y-112940000D02*
X95930000Y-115790000D01*
X99080000Y-115790000D02*
X101680001Y-112940000D01*
X95930000Y-115790000D02*
X99080000Y-115790000D01*
%TO.C,J1*%
X80075000Y-83430000D02*
X81775000Y-83430000D01*
X80075000Y-92770000D02*
X81775000Y-92770000D01*
%TO.C,D1*%
X91515000Y-90707500D02*
X91515000Y-92992500D01*
X92985000Y-92992500D02*
X92985000Y-90707500D01*
X91515000Y-92992500D02*
X92985000Y-92992500D01*
%TO.C,C12*%
X87940000Y-70849419D02*
X87940000Y-71130581D01*
X86920000Y-70849419D02*
X86920000Y-71130581D01*
%TO.C,C11*%
X86920000Y-68030581D02*
X86920000Y-67749419D01*
X87940000Y-68030581D02*
X87940000Y-67749419D01*
%TO.C,C10*%
X106120000Y-76329419D02*
X106120000Y-76610581D01*
X105100000Y-76329419D02*
X105100000Y-76610581D01*
%TO.C,C9*%
X86430000Y-73199419D02*
X86430000Y-73480581D01*
X85410000Y-73199419D02*
X85410000Y-73480581D01*
%TO.C,C8*%
X89918747Y-97825000D02*
X90441253Y-97825000D01*
X89918747Y-96355000D02*
X90441253Y-96355000D01*
%TO.C,C7*%
X94398747Y-98575000D02*
X94921253Y-98575000D01*
X94398747Y-97105000D02*
X94921253Y-97105000D01*
%TO.C,C6*%
X98259420Y-85640000D02*
X98540580Y-85640000D01*
X98259420Y-86660000D02*
X98540580Y-86660000D01*
%TO.C,C5*%
X97709420Y-93830000D02*
X97990580Y-93830000D01*
X97709420Y-92810000D02*
X97990580Y-92810000D01*
%TO.C,C4*%
X91110000Y-91585581D02*
X91110000Y-91304419D01*
X90090000Y-91585581D02*
X90090000Y-91304419D01*
%TO.C,C3*%
X94990581Y-92440000D02*
X94709419Y-92440000D01*
X94990581Y-93460000D02*
X94709419Y-93460000D01*
%TO.C,C2*%
X100460000Y-89609419D02*
X100460000Y-89890581D01*
X99440000Y-89609419D02*
X99440000Y-89890581D01*
%TO.C,C1*%
X88789419Y-94780000D02*
X89070581Y-94780000D01*
X88789419Y-95800000D02*
X89070581Y-95800000D01*
%TO.C,BZ1*%
X100850000Y-96980000D02*
X100850000Y-87760000D01*
X103500000Y-96980000D02*
X100850000Y-96980000D01*
X110070000Y-96980000D02*
X107420000Y-96980000D01*
X100850000Y-87760000D02*
X103500000Y-87760000D01*
X107420000Y-87760000D02*
X110070000Y-87760000D01*
X107420000Y-87760000D02*
X107420000Y-87430000D01*
X110070000Y-87760000D02*
X110070000Y-96980000D01*
%TO.C,D2*%
X102580000Y-107170000D02*
X102580000Y-99870000D01*
X108080000Y-107170000D02*
X108080000Y-99870000D01*
X108080000Y-99870000D02*
X106930000Y-99870000D01*
%TD*%
M02*
